<svg width="1024" height="768" viewBox="0 0 1024 768" fill="none" xmlns="http://www.w3.org/2000/svg">
<g clip-path="url(#clip0_14_514)">
<rect width="1024" height="768" rx="8" fill="white"/>
<rect width="1024" height="768" rx="8" fill="#484F51"/>
<path d="M0 8.00002C0 3.58174 3.58172 0 8 0H124V768H8C3.58172 768 0 764.418 0 760V8.00002Z" fill="#3D4244"/>
<path d="M0 32.5H124V62.5H0V32.5Z" fill="#2B2F31"/>
<path d="M32.346 47.2559H30.1546L30.1429 46.0488H31.9827C32.3069 46.0488 32.5726 46.0078 32.7796 45.9258C32.9866 45.8398 33.1409 45.7168 33.2425 45.5566C33.348 45.3926 33.4007 45.1934 33.4007 44.959C33.4007 44.6934 33.3499 44.4785 33.2484 44.3145C33.1507 44.1504 32.9964 44.0312 32.7855 43.957C32.5784 43.8828 32.3109 43.8457 31.9827 43.8457H30.764V51H29.0062V42.4688H31.9827C32.4788 42.4688 32.9222 42.5156 33.3128 42.6094C33.7073 42.7031 34.0413 42.8457 34.3148 43.0371C34.5882 43.2285 34.7972 43.4707 34.9417 43.7637C35.0862 44.0527 35.1585 44.3965 35.1585 44.7949C35.1585 45.1465 35.0784 45.4707 34.9183 45.7676C34.762 46.0645 34.514 46.3066 34.1741 46.4941C33.8382 46.6816 33.3987 46.7852 32.8558 46.8047L32.346 47.2559ZM32.2698 51H29.6741L30.3597 49.6289H32.2698C32.5784 49.6289 32.8304 49.5801 33.0257 49.4824C33.221 49.3809 33.3655 49.2441 33.4593 49.0723C33.553 48.9004 33.5999 48.7031 33.5999 48.4805C33.5999 48.2305 33.5569 48.0137 33.471 47.8301C33.389 47.6465 33.2562 47.5059 33.0726 47.4082C32.889 47.3066 32.6468 47.2559 32.346 47.2559H30.6526L30.6644 46.0488H32.7737L33.178 46.5234C33.6976 46.5156 34.1155 46.6074 34.4319 46.7988C34.7523 46.9863 34.9847 47.2305 35.1292 47.5312C35.2776 47.832 35.3519 48.1543 35.3519 48.498C35.3519 49.0449 35.2327 49.5059 34.9944 49.8809C34.7562 50.252 34.4066 50.5312 33.9456 50.7188C33.4886 50.9062 32.93 51 32.2698 51ZM36.2952 47.8945V47.7715C36.2952 47.3066 36.3616 46.8789 36.4944 46.4883C36.6273 46.0938 36.8206 45.752 37.0745 45.4629C37.3284 45.1738 37.6409 44.9492 38.012 44.7891C38.3831 44.625 38.8089 44.543 39.2894 44.543C39.7698 44.543 40.1976 44.625 40.5726 44.7891C40.9476 44.9492 41.262 45.1738 41.5159 45.4629C41.7737 45.752 41.9691 46.0938 42.1019 46.4883C42.2347 46.8789 42.3011 47.3066 42.3011 47.7715V47.8945C42.3011 48.3555 42.2347 48.7832 42.1019 49.1777C41.9691 49.5684 41.7737 49.9102 41.5159 50.2031C41.262 50.4922 40.9495 50.7168 40.5784 50.877C40.2073 51.0371 39.7816 51.1172 39.3011 51.1172C38.8206 51.1172 38.3929 51.0371 38.0179 50.877C37.6468 50.7168 37.3323 50.4922 37.0745 50.2031C36.8206 49.9102 36.6273 49.5684 36.4944 49.1777C36.3616 48.7832 36.2952 48.3555 36.2952 47.8945ZM37.9827 47.7715V47.8945C37.9827 48.1602 38.0062 48.4082 38.053 48.6387C38.0999 48.8691 38.1741 49.0723 38.2757 49.248C38.3812 49.4199 38.5179 49.5547 38.6859 49.6523C38.8538 49.75 39.0589 49.7988 39.3011 49.7988C39.5355 49.7988 39.7366 49.75 39.9046 49.6523C40.0726 49.5547 40.2073 49.4199 40.3089 49.248C40.4105 49.0723 40.4847 48.8691 40.5316 48.6387C40.5823 48.4082 40.6077 48.1602 40.6077 47.8945V47.7715C40.6077 47.5137 40.5823 47.2715 40.5316 47.0449C40.4847 46.8145 40.4085 46.6113 40.303 46.4355C40.2015 46.2559 40.0667 46.1152 39.8987 46.0137C39.7308 45.9121 39.5276 45.8613 39.2894 45.8613C39.0511 45.8613 38.848 45.9121 38.68 46.0137C38.5159 46.1152 38.3812 46.2559 38.2757 46.4355C38.1741 46.6113 38.0999 46.8145 38.053 47.0449C38.0062 47.2715 37.9827 47.5137 37.9827 47.7715ZM46.7601 49.5703V46.7461C46.7601 46.543 46.7269 46.3691 46.6605 46.2246C46.5941 46.0762 46.4905 45.9609 46.3499 45.8789C46.2132 45.7969 46.0355 45.7559 45.8167 45.7559C45.6292 45.7559 45.4671 45.7891 45.3304 45.8555C45.1937 45.918 45.0882 46.0098 45.014 46.1309C44.9398 46.248 44.9026 46.3867 44.9026 46.5469H43.2151C43.2151 46.2773 43.2776 46.0215 43.4026 45.7793C43.5276 45.5371 43.7093 45.3242 43.9476 45.1406C44.1859 44.9531 44.4691 44.8066 44.7972 44.7012C45.1292 44.5957 45.5003 44.543 45.9105 44.543C46.4026 44.543 46.8401 44.625 47.223 44.7891C47.6058 44.9531 47.9066 45.1992 48.1253 45.5273C48.348 45.8555 48.4593 46.2656 48.4593 46.7578V49.4707C48.4593 49.8184 48.4808 50.1035 48.5237 50.3262C48.5667 50.5449 48.6292 50.7363 48.7112 50.9004V51H47.0062C46.9241 50.8281 46.8616 50.6133 46.8187 50.3555C46.7796 50.0938 46.7601 49.832 46.7601 49.5703ZM46.9827 47.1387L46.9944 48.0938H46.0511C45.8284 48.0938 45.6351 48.1191 45.471 48.1699C45.3069 48.2207 45.1722 48.293 45.0667 48.3867C44.9612 48.4766 44.8831 48.582 44.8323 48.7031C44.7855 48.8242 44.762 48.957 44.762 49.1016C44.762 49.2461 44.7952 49.377 44.8616 49.4941C44.928 49.6074 45.0237 49.6973 45.1487 49.7637C45.2737 49.8262 45.4202 49.8574 45.5882 49.8574C45.8421 49.8574 46.0628 49.8066 46.2503 49.7051C46.4378 49.6035 46.5823 49.4785 46.6839 49.3301C46.7894 49.1816 46.8441 49.041 46.848 48.9082L47.2933 49.623C47.2308 49.7832 47.1448 49.9492 47.0355 50.1211C46.93 50.293 46.7952 50.4551 46.6312 50.6074C46.4671 50.7559 46.2698 50.8789 46.0394 50.9766C45.8089 51.0703 45.5355 51.1172 45.2191 51.1172C44.8167 51.1172 44.4515 51.0371 44.1234 50.877C43.7991 50.7129 43.5413 50.4883 43.3499 50.2031C43.1624 49.9141 43.0687 49.5859 43.0687 49.2188C43.0687 48.8867 43.1312 48.5918 43.2562 48.334C43.3812 48.0762 43.5648 47.8594 43.8069 47.6836C44.053 47.5039 44.3597 47.3691 44.7269 47.2793C45.0941 47.1855 45.5198 47.1387 46.0042 47.1387H46.9827ZM51.4476 46.043V51H49.7601V44.6602H51.348L51.4476 46.043ZM53.3577 44.6191L53.3284 46.1836C53.2464 46.1719 53.1468 46.1621 53.0296 46.1543C52.9163 46.1426 52.8128 46.1367 52.7191 46.1367C52.4808 46.1367 52.2737 46.168 52.098 46.2305C51.9261 46.2891 51.7816 46.377 51.6644 46.4941C51.5511 46.6113 51.4651 46.7539 51.4066 46.9219C51.3519 47.0898 51.3206 47.2812 51.3128 47.4961L50.973 47.3906C50.973 46.9805 51.014 46.6035 51.096 46.2598C51.178 45.9121 51.2972 45.6094 51.4534 45.3516C51.6136 45.0938 51.8089 44.8945 52.0394 44.7539C52.2698 44.6133 52.5335 44.543 52.8304 44.543C52.9241 44.543 53.0198 44.5508 53.1175 44.5664C53.2151 44.5781 53.2952 44.5957 53.3577 44.6191ZM57.7816 49.6172V42H59.4808V51H57.9515L57.7816 49.6172ZM53.7737 47.9062V47.7832C53.7737 47.2988 53.8284 46.8594 53.9378 46.4648C54.0472 46.0664 54.2073 45.7246 54.4183 45.4395C54.6292 45.1543 54.889 44.9336 55.1976 44.7773C55.5062 44.6211 55.8577 44.543 56.2523 44.543C56.6234 44.543 56.9476 44.6211 57.2249 44.7773C57.5062 44.9336 57.7444 45.1562 57.9398 45.4453C58.139 45.7305 58.2991 46.0684 58.4202 46.459C58.5413 46.8457 58.6292 47.2695 58.6839 47.7305V48C58.6292 48.4414 58.5413 48.8516 58.4202 49.2305C58.2991 49.6094 58.139 49.9414 57.9398 50.2266C57.7444 50.5078 57.5062 50.7266 57.2249 50.8828C56.9437 51.0391 56.6155 51.1172 56.2405 51.1172C55.846 51.1172 55.4944 51.0371 55.1859 50.877C54.8812 50.7168 54.6234 50.4922 54.4124 50.2031C54.2054 49.9141 54.0472 49.5742 53.9378 49.1836C53.8284 48.793 53.7737 48.3672 53.7737 47.9062ZM55.4612 47.7832V47.9062C55.4612 48.168 55.4808 48.4121 55.5198 48.6387C55.5628 48.8652 55.6312 49.0664 55.7249 49.2422C55.8226 49.4141 55.9476 49.5488 56.0999 49.6465C56.2562 49.7402 56.4456 49.7871 56.6683 49.7871C56.9573 49.7871 57.1956 49.7227 57.3831 49.5938C57.5706 49.4609 57.7132 49.2793 57.8109 49.0488C57.9124 48.8184 57.971 48.5527 57.9866 48.252V47.4844C57.9749 47.2383 57.9398 47.0176 57.8812 46.8223C57.8265 46.623 57.7444 46.4531 57.6351 46.3125C57.5296 46.1719 57.3968 46.0625 57.2366 45.9844C57.0804 45.9062 56.8948 45.8672 56.68 45.8672C56.4612 45.8672 56.2737 45.918 56.1175 46.0195C55.9612 46.1172 55.8343 46.252 55.7366 46.4238C55.6429 46.5957 55.5726 46.7988 55.5257 47.0332C55.4827 47.2637 55.4612 47.5137 55.4612 47.7832ZM64.2269 49.248C64.2269 49.127 64.1917 49.0176 64.1214 48.9199C64.0511 48.8223 63.9202 48.7324 63.7288 48.6504C63.5413 48.5645 63.2698 48.4863 62.9144 48.416C62.5941 48.3457 62.2952 48.2578 62.0179 48.1523C61.7444 48.043 61.5062 47.9121 61.303 47.7598C61.1038 47.6074 60.9476 47.4277 60.8343 47.2207C60.721 47.0098 60.6644 46.7695 60.6644 46.5C60.6644 46.2344 60.721 45.9844 60.8343 45.75C60.9515 45.5156 61.1175 45.3086 61.3323 45.1289C61.5511 44.9453 61.8167 44.8027 62.1292 44.7012C62.4456 44.5957 62.8011 44.543 63.1956 44.543C63.7464 44.543 64.2191 44.6309 64.6136 44.8066C65.012 44.9824 65.3167 45.2246 65.5276 45.5332C65.7425 45.8379 65.8499 46.1855 65.8499 46.5762H64.1624C64.1624 46.4121 64.1273 46.2656 64.0569 46.1367C63.9905 46.0039 63.8851 45.9004 63.7405 45.8262C63.5999 45.748 63.4163 45.709 63.1898 45.709C63.0023 45.709 62.8401 45.7422 62.7034 45.8086C62.5667 45.8711 62.4612 45.957 62.387 46.0664C62.3167 46.1719 62.2816 46.2891 62.2816 46.418C62.2816 46.5156 62.3011 46.6035 62.3401 46.6816C62.3831 46.7559 62.4515 46.8242 62.5452 46.8867C62.639 46.9492 62.7601 47.0078 62.9085 47.0625C63.0609 47.1133 63.2484 47.1602 63.471 47.2031C63.928 47.2969 64.3362 47.4199 64.6956 47.5723C65.055 47.7207 65.3401 47.9238 65.5511 48.1816C65.762 48.4355 65.8675 48.7695 65.8675 49.1836C65.8675 49.4648 65.805 49.7227 65.68 49.957C65.555 50.1914 65.3753 50.3965 65.1409 50.5723C64.9066 50.7441 64.6253 50.8789 64.2972 50.9766C63.973 51.0703 63.6077 51.1172 63.2015 51.1172C62.6116 51.1172 62.1116 51.0117 61.7015 50.8008C61.2952 50.5898 60.9866 50.3223 60.7757 49.998C60.5687 49.6699 60.4651 49.334 60.4651 48.9902H62.0648C62.0726 49.2207 62.1312 49.4062 62.2405 49.5469C62.3538 49.6875 62.4964 49.7891 62.6683 49.8516C62.8441 49.9141 63.0335 49.9453 63.2366 49.9453C63.4554 49.9453 63.637 49.916 63.7816 49.8574C63.9261 49.7949 64.0355 49.7129 64.1097 49.6113C64.1878 49.5059 64.2269 49.3848 64.2269 49.248Z" fill="white"/>
<path d="M0 62.5H124V92.5H0V62.5Z" fill="#353A3C"/>
<path d="M29.8089 72.4688H31.2972L33.4886 78.7324L35.68 72.4688H37.1683L34.0862 81H32.8909L29.8089 72.4688ZM29.0062 72.4688H30.4886L30.7581 78.5742V81H29.0062V72.4688ZM36.4886 72.4688H37.9769V81H36.2191V78.5742L36.4886 72.4688ZM42.3304 81.1172C41.8382 81.1172 41.3968 81.0391 41.0062 80.8828C40.6155 80.7227 40.2835 80.502 40.0101 80.2207C39.7405 79.9395 39.5335 79.6133 39.389 79.2422C39.2444 78.8672 39.1722 78.4688 39.1722 78.0469V77.8125C39.1722 77.332 39.2405 76.8926 39.3773 76.4941C39.514 76.0957 39.7093 75.75 39.9632 75.457C40.221 75.1641 40.5335 74.9395 40.9007 74.7832C41.2679 74.623 41.6819 74.543 42.1429 74.543C42.5921 74.543 42.9905 74.6172 43.3382 74.7656C43.6859 74.9141 43.9769 75.125 44.2112 75.3984C44.4495 75.6719 44.6292 76 44.7503 76.3828C44.8714 76.7617 44.9319 77.1836 44.9319 77.6484V78.3516H39.8929V77.2266H43.2737V77.0977C43.2737 76.8633 43.2308 76.6543 43.1448 76.4707C43.0628 76.2832 42.9378 76.1348 42.7698 76.0254C42.6019 75.916 42.387 75.8613 42.1253 75.8613C41.9026 75.8613 41.7112 75.9102 41.5511 76.0078C41.3909 76.1055 41.2601 76.2422 41.1585 76.418C41.0609 76.5938 40.9866 76.8008 40.9359 77.0391C40.889 77.2734 40.8655 77.5312 40.8655 77.8125V78.0469C40.8655 78.3008 40.9007 78.5352 40.971 78.75C41.0452 78.9648 41.1487 79.1504 41.2816 79.3066C41.4183 79.4629 41.5823 79.584 41.7737 79.6699C41.9691 79.7559 42.1898 79.7988 42.4359 79.7988C42.7405 79.7988 43.0237 79.7402 43.2855 79.623C43.5511 79.502 43.7796 79.3203 43.971 79.0781L44.7913 79.9688C44.6585 80.1602 44.4769 80.3438 44.2464 80.5195C44.0198 80.6953 43.7464 80.8398 43.4261 80.9531C43.1058 81.0625 42.7405 81.1172 42.3304 81.1172ZM47.5804 75.9727V81H45.887V74.6602H47.4749L47.5804 75.9727ZM47.346 77.6074H46.8773C46.8773 77.166 46.93 76.7598 47.0355 76.3887C47.1448 76.0137 47.303 75.6895 47.5101 75.416C47.721 75.1387 47.9808 74.9238 48.2894 74.7715C48.598 74.6191 48.9554 74.543 49.3616 74.543C49.6429 74.543 49.9007 74.5859 50.1351 74.6719C50.3694 74.7539 50.5706 74.8848 50.7386 75.0645C50.9105 75.2402 51.0433 75.4707 51.137 75.7559C51.2308 76.0371 51.2776 76.375 51.2776 76.7695V81H49.5901V76.957C49.5901 76.668 49.5511 76.4453 49.473 76.2891C49.3948 76.1328 49.2835 76.0234 49.139 75.9609C48.9984 75.8984 48.8284 75.8672 48.6292 75.8672C48.4105 75.8672 48.2191 75.9121 48.055 76.002C47.8948 76.0918 47.762 76.2168 47.6566 76.377C47.5511 76.5332 47.473 76.7168 47.4222 76.9277C47.3714 77.1387 47.346 77.3652 47.346 77.6074ZM51.1194 77.4141L50.5159 77.4902C50.5159 77.0762 50.5667 76.6914 50.6683 76.3359C50.7737 75.9805 50.928 75.668 51.1312 75.3984C51.3382 75.1289 51.5941 74.9199 51.8987 74.7715C52.2034 74.6191 52.555 74.543 52.9534 74.543C53.2581 74.543 53.5355 74.5879 53.7855 74.6777C54.0355 74.7637 54.2484 74.9023 54.4241 75.0938C54.6038 75.2812 54.7405 75.5273 54.8343 75.832C54.9319 76.1367 54.9808 76.5098 54.9808 76.9512V81H53.2874V76.9512C53.2874 76.6582 53.2484 76.4355 53.1702 76.2832C53.096 76.127 52.9866 76.0195 52.8421 75.9609C52.7015 75.8984 52.5335 75.8672 52.3382 75.8672C52.1351 75.8672 51.9573 75.9082 51.805 75.9902C51.6526 76.0684 51.5257 76.1777 51.4241 76.3184C51.3226 76.459 51.2464 76.623 51.1956 76.8105C51.1448 76.9941 51.1194 77.1953 51.1194 77.4141ZM56.2874 72H57.9749V79.5469L57.805 81H56.2874V72ZM61.9886 77.7656V77.8887C61.9886 78.3613 61.9378 78.7949 61.8362 79.1895C61.7386 79.584 61.5862 79.9258 61.3792 80.2148C61.1722 80.5 60.9144 80.7227 60.6058 80.8828C60.3011 81.0391 59.9417 81.1172 59.5276 81.1172C59.1409 81.1172 58.805 81.0391 58.5198 80.8828C58.2386 80.7266 58.0023 80.5059 57.8109 80.2207C57.6194 79.9355 57.4651 79.6016 57.348 79.2188C57.2308 78.8359 57.1429 78.418 57.0843 77.9648V77.6953C57.1429 77.2422 57.2308 76.8242 57.348 76.4414C57.4651 76.0586 57.6194 75.7246 57.8109 75.4395C58.0023 75.1543 58.2386 74.9336 58.5198 74.7773C58.8011 74.6211 59.1331 74.543 59.5159 74.543C59.9339 74.543 60.2972 74.623 60.6058 74.7832C60.9183 74.9395 61.1761 75.1621 61.3792 75.4512C61.5862 75.7363 61.7386 76.0762 61.8362 76.4707C61.9378 76.8613 61.9886 77.293 61.9886 77.7656ZM60.3011 77.8887V77.7656C60.3011 77.5078 60.2816 77.2656 60.2425 77.0391C60.2073 76.8086 60.1448 76.6074 60.055 76.4355C59.9651 76.2598 59.8421 76.1211 59.6859 76.0195C59.5335 75.918 59.3362 75.8672 59.0941 75.8672C58.8636 75.8672 58.6683 75.9062 58.5081 75.9844C58.348 76.0625 58.2151 76.1719 58.1097 76.3125C58.0081 76.4531 57.9319 76.6211 57.8812 76.8164C57.8304 77.0078 57.7991 77.2188 57.7874 77.4492V78.2168C57.7991 78.5254 57.8499 78.7988 57.9398 79.0371C58.0335 79.2715 58.1741 79.457 58.3616 79.5938C58.553 79.7266 58.8011 79.793 59.1058 79.793C59.3441 79.793 59.5413 79.7461 59.6976 79.6523C59.8538 79.5586 59.9749 79.4258 60.0609 79.2539C60.1507 79.082 60.2132 78.8809 60.2484 78.6504C60.2835 78.416 60.3011 78.1621 60.3011 77.8887ZM65.9554 81.1172C65.4632 81.1172 65.0218 81.0391 64.6312 80.8828C64.2405 80.7227 63.9085 80.502 63.6351 80.2207C63.3655 79.9395 63.1585 79.6133 63.014 79.2422C62.8694 78.8672 62.7972 78.4688 62.7972 78.0469V77.8125C62.7972 77.332 62.8655 76.8926 63.0023 76.4941C63.139 76.0957 63.3343 75.75 63.5882 75.457C63.846 75.1641 64.1585 74.9395 64.5257 74.7832C64.8929 74.623 65.3069 74.543 65.7679 74.543C66.2171 74.543 66.6155 74.6172 66.9632 74.7656C67.3109 74.9141 67.6019 75.125 67.8362 75.3984C68.0745 75.6719 68.2542 76 68.3753 76.3828C68.4964 76.7617 68.5569 77.1836 68.5569 77.6484V78.3516H63.5179V77.2266H66.8987V77.0977C66.8987 76.8633 66.8558 76.6543 66.7698 76.4707C66.6878 76.2832 66.5628 76.1348 66.3948 76.0254C66.2269 75.916 66.012 75.8613 65.7503 75.8613C65.5276 75.8613 65.3362 75.9102 65.1761 76.0078C65.0159 76.1055 64.8851 76.2422 64.7835 76.418C64.6859 76.5938 64.6116 76.8008 64.5609 77.0391C64.514 77.2734 64.4905 77.5312 64.4905 77.8125V78.0469C64.4905 78.3008 64.5257 78.5352 64.596 78.75C64.6702 78.9648 64.7737 79.1504 64.9066 79.3066C65.0433 79.4629 65.2073 79.584 65.3987 79.6699C65.5941 79.7559 65.8148 79.7988 66.0609 79.7988C66.3655 79.7988 66.6487 79.7402 66.9105 79.623C67.1761 79.502 67.4046 79.3203 67.596 79.0781L68.4163 79.9688C68.2835 80.1602 68.1019 80.3438 67.8714 80.5195C67.6448 80.6953 67.3714 80.8398 67.0511 80.9531C66.7308 81.0625 66.3655 81.1172 65.9554 81.1172ZM71.2054 76.043V81H69.5179V74.6602H71.1058L71.2054 76.043ZM73.1155 74.6191L73.0862 76.1836C73.0042 76.1719 72.9046 76.1621 72.7874 76.1543C72.6741 76.1426 72.5706 76.1367 72.4769 76.1367C72.2386 76.1367 72.0316 76.168 71.8558 76.2305C71.6839 76.2891 71.5394 76.377 71.4222 76.4941C71.3089 76.6113 71.223 76.7539 71.1644 76.9219C71.1097 77.0898 71.0784 77.2812 71.0706 77.4961L70.7308 77.3906C70.7308 76.9805 70.7718 76.6035 70.8538 76.2598C70.9359 75.9121 71.055 75.6094 71.2112 75.3516C71.3714 75.0938 71.5667 74.8945 71.7972 74.7539C72.0276 74.6133 72.2913 74.543 72.5882 74.543C72.6819 74.543 72.7776 74.5508 72.8753 74.5664C72.973 74.5781 73.053 74.5957 73.1155 74.6191ZM77.3401 79.248C77.3401 79.127 77.305 79.0176 77.2347 78.9199C77.1644 78.8223 77.0335 78.7324 76.8421 78.6504C76.6546 78.5645 76.3831 78.4863 76.0276 78.416C75.7073 78.3457 75.4085 78.2578 75.1312 78.1523C74.8577 78.043 74.6194 77.9121 74.4163 77.7598C74.2171 77.6074 74.0609 77.4277 73.9476 77.2207C73.8343 77.0098 73.7776 76.7695 73.7776 76.5C73.7776 76.2344 73.8343 75.9844 73.9476 75.75C74.0648 75.5156 74.2308 75.3086 74.4456 75.1289C74.6644 74.9453 74.93 74.8027 75.2425 74.7012C75.5589 74.5957 75.9144 74.543 76.3089 74.543C76.8597 74.543 77.3323 74.6309 77.7269 74.8066C78.1253 74.9824 78.43 75.2246 78.6409 75.5332C78.8558 75.8379 78.9632 76.1855 78.9632 76.5762H77.2757C77.2757 76.4121 77.2405 76.2656 77.1702 76.1367C77.1038 76.0039 76.9984 75.9004 76.8538 75.8262C76.7132 75.748 76.5296 75.709 76.303 75.709C76.1155 75.709 75.9534 75.7422 75.8167 75.8086C75.68 75.8711 75.5745 75.957 75.5003 76.0664C75.43 76.1719 75.3948 76.2891 75.3948 76.418C75.3948 76.5156 75.4144 76.6035 75.4534 76.6816C75.4964 76.7559 75.5648 76.8242 75.6585 76.8867C75.7523 76.9492 75.8734 77.0078 76.0218 77.0625C76.1741 77.1133 76.3616 77.1602 76.5843 77.2031C77.0413 77.2969 77.4495 77.4199 77.8089 77.5723C78.1683 77.7207 78.4534 77.9238 78.6644 78.1816C78.8753 78.4355 78.9808 78.7695 78.9808 79.1836C78.9808 79.4648 78.9183 79.7227 78.7933 79.957C78.6683 80.1914 78.4886 80.3965 78.2542 80.5723C78.0198 80.7441 77.7386 80.8789 77.4105 80.9766C77.0862 81.0703 76.721 81.1172 76.3148 81.1172C75.7249 81.1172 75.2249 81.0117 74.8148 80.8008C74.4085 80.5898 74.0999 80.3223 73.889 79.998C73.6819 79.6699 73.5784 79.334 73.5784 78.9902H75.178C75.1859 79.2207 75.2444 79.4062 75.3538 79.5469C75.4671 79.6875 75.6097 79.7891 75.7816 79.8516C75.9573 79.9141 76.1468 79.9453 76.3499 79.9453C76.5687 79.9453 76.7503 79.916 76.8948 79.8574C77.0394 79.7949 77.1487 79.7129 77.223 79.6113C77.3011 79.5059 77.3401 79.3848 77.3401 79.248Z" fill="white"/>
<path d="M0 92H124V193C124 195.209 122.209 197 120 197H4C1.79086 197 0 195.209 0 193V92Z" fill="#353A3B" fill-opacity="0.75"/>
<rect x="2" y="94" width="120" height="30" rx="4" fill="#6E9777"/>
<circle cx="16" cy="109" r="12" fill="#506B56"/>
<path d="M34.4648 104.469H35.7773L38.2441 111.049L40.7051 104.469H42.0176L38.7598 113H37.7168L34.4648 104.469ZM33.8672 104.469H35.1152L35.332 110.164V113H33.8672V104.469ZM41.3672 104.469H42.6211V113H41.1504V110.164L41.3672 104.469ZM47.0215 113.117C46.5527 113.117 46.1289 113.041 45.75 112.889C45.375 112.732 45.0547 112.516 44.7891 112.238C44.5273 111.961 44.3262 111.635 44.1855 111.26C44.0449 110.885 43.9746 110.48 43.9746 110.047V109.812C43.9746 109.316 44.0469 108.867 44.1914 108.465C44.3359 108.062 44.5371 107.719 44.7949 107.434C45.0527 107.145 45.3574 106.924 45.709 106.771C46.0605 106.619 46.4414 106.543 46.8516 106.543C47.3047 106.543 47.7012 106.619 48.041 106.771C48.3809 106.924 48.6621 107.139 48.8848 107.416C49.1113 107.689 49.2793 108.016 49.3887 108.395C49.502 108.773 49.5586 109.191 49.5586 109.648V110.252H44.6602V109.238H48.1641V109.127C48.1562 108.873 48.1055 108.635 48.0117 108.412C47.9219 108.189 47.7832 108.01 47.5957 107.873C47.4082 107.736 47.1582 107.668 46.8457 107.668C46.6113 107.668 46.4023 107.719 46.2188 107.82C46.0391 107.918 45.8887 108.061 45.7676 108.248C45.6465 108.436 45.5527 108.662 45.4863 108.928C45.4238 109.189 45.3926 109.484 45.3926 109.812V110.047C45.3926 110.324 45.4297 110.582 45.5039 110.82C45.582 111.055 45.6953 111.26 45.8438 111.436C45.9922 111.611 46.1719 111.75 46.3828 111.852C46.5938 111.949 46.834 111.998 47.1035 111.998C47.4434 111.998 47.7461 111.93 48.0117 111.793C48.2773 111.656 48.5078 111.463 48.7031 111.213L49.4473 111.934C49.3105 112.133 49.1328 112.324 48.9141 112.508C48.6953 112.688 48.4277 112.834 48.1113 112.947C47.7988 113.061 47.4355 113.117 47.0215 113.117ZM52.0723 107.949V113H50.6602V106.66H51.9902L52.0723 107.949ZM51.8438 109.596L51.3633 109.59C51.3633 109.152 51.418 108.748 51.5273 108.377C51.6367 108.006 51.7969 107.684 52.0078 107.41C52.2188 107.133 52.4805 106.92 52.793 106.771C53.1094 106.619 53.4746 106.543 53.8887 106.543C54.1777 106.543 54.4414 106.586 54.6797 106.672C54.9219 106.754 55.1309 106.885 55.3066 107.064C55.4863 107.244 55.623 107.475 55.7168 107.756C55.8145 108.037 55.8633 108.377 55.8633 108.775V113H54.4512V108.898C54.4512 108.59 54.4043 108.348 54.3105 108.172C54.2207 107.996 54.0898 107.871 53.918 107.797C53.75 107.719 53.5488 107.68 53.3145 107.68C53.0488 107.68 52.8223 107.73 52.6348 107.832C52.4512 107.934 52.3008 108.072 52.1836 108.248C52.0664 108.424 51.9805 108.627 51.9258 108.857C51.8711 109.088 51.8438 109.334 51.8438 109.596ZM55.7754 109.221L55.1133 109.367C55.1133 108.984 55.166 108.623 55.2715 108.283C55.3809 107.939 55.5391 107.639 55.7461 107.381C55.957 107.119 56.2168 106.914 56.5254 106.766C56.834 106.617 57.1875 106.543 57.5859 106.543C57.9102 106.543 58.1992 106.588 58.4531 106.678C58.7109 106.764 58.9297 106.9 59.1094 107.088C59.2891 107.275 59.4258 107.52 59.5195 107.82C59.6133 108.117 59.6602 108.477 59.6602 108.898V113H58.2422V108.893C58.2422 108.572 58.1953 108.324 58.1016 108.148C58.0117 107.973 57.8828 107.852 57.7148 107.785C57.5469 107.715 57.3457 107.68 57.1113 107.68C56.8926 107.68 56.6992 107.721 56.5312 107.803C56.3672 107.881 56.2285 107.992 56.1152 108.137C56.002 108.277 55.916 108.439 55.8574 108.623C55.8027 108.807 55.7754 109.006 55.7754 109.221ZM61.1191 104H62.5312V111.646L62.3965 113H61.1191V104ZM66.668 109.771V109.895C66.668 110.363 66.6152 110.795 66.5098 111.189C66.4082 111.58 66.252 111.92 66.041 112.209C65.834 112.498 65.5762 112.723 65.2676 112.883C64.9629 113.039 64.6094 113.117 64.207 113.117C63.8125 113.117 63.4688 113.043 63.1758 112.895C62.8828 112.746 62.6367 112.535 62.4375 112.262C62.2422 111.988 62.084 111.662 61.9629 111.283C61.8418 110.904 61.7559 110.486 61.7051 110.029V109.637C61.7559 109.176 61.8418 108.758 61.9629 108.383C62.084 108.004 62.2422 107.678 62.4375 107.404C62.6367 107.127 62.8809 106.914 63.1699 106.766C63.4629 106.617 63.8047 106.543 64.1953 106.543C64.6016 106.543 64.959 106.621 65.2676 106.777C65.5801 106.934 65.8398 107.156 66.0469 107.445C66.2539 107.73 66.4082 108.07 66.5098 108.465C66.6152 108.859 66.668 109.295 66.668 109.771ZM65.2559 109.895V109.771C65.2559 109.486 65.2324 109.219 65.1855 108.969C65.1387 108.715 65.0605 108.492 64.9512 108.301C64.8457 108.109 64.7012 107.959 64.5176 107.85C64.3379 107.736 64.1133 107.68 63.8438 107.68C63.5938 107.68 63.3789 107.723 63.1992 107.809C63.0195 107.895 62.8691 108.012 62.748 108.16C62.627 108.309 62.5312 108.48 62.4609 108.676C62.3945 108.871 62.3496 109.082 62.3262 109.309V110.369C62.3613 110.662 62.4355 110.932 62.5488 111.178C62.666 111.42 62.8301 111.615 63.041 111.764C63.252 111.908 63.5234 111.98 63.8555 111.98C64.1172 111.98 64.3379 111.928 64.5176 111.822C64.6973 111.717 64.8398 111.57 64.9453 111.383C65.0547 111.191 65.1328 110.969 65.1797 110.715C65.2305 110.461 65.2559 110.188 65.2559 109.895ZM70.6582 113.117C70.1895 113.117 69.7656 113.041 69.3867 112.889C69.0117 112.732 68.6914 112.516 68.4258 112.238C68.1641 111.961 67.9629 111.635 67.8223 111.26C67.6816 110.885 67.6113 110.48 67.6113 110.047V109.812C67.6113 109.316 67.6836 108.867 67.8281 108.465C67.9727 108.062 68.1738 107.719 68.4316 107.434C68.6895 107.145 68.9941 106.924 69.3457 106.771C69.6973 106.619 70.0781 106.543 70.4883 106.543C70.9414 106.543 71.3379 106.619 71.6777 106.771C72.0176 106.924 72.2988 107.139 72.5215 107.416C72.748 107.689 72.916 108.016 73.0254 108.395C73.1387 108.773 73.1953 109.191 73.1953 109.648V110.252H68.2969V109.238H71.8008V109.127C71.793 108.873 71.7422 108.635 71.6484 108.412C71.5586 108.189 71.4199 108.01 71.2324 107.873C71.0449 107.736 70.7949 107.668 70.4824 107.668C70.248 107.668 70.0391 107.719 69.8555 107.82C69.6758 107.918 69.5254 108.061 69.4043 108.248C69.2832 108.436 69.1895 108.662 69.123 108.928C69.0605 109.189 69.0293 109.484 69.0293 109.812V110.047C69.0293 110.324 69.0664 110.582 69.1406 110.82C69.2188 111.055 69.332 111.26 69.4805 111.436C69.6289 111.611 69.8086 111.75 70.0195 111.852C70.2305 111.949 70.4707 111.998 70.7402 111.998C71.0801 111.998 71.3828 111.93 71.6484 111.793C71.9141 111.656 72.1445 111.463 72.3398 111.213L73.084 111.934C72.9473 112.133 72.7695 112.324 72.5508 112.508C72.332 112.688 72.0645 112.834 71.748 112.947C71.4355 113.061 71.0723 113.117 70.6582 113.117ZM75.7148 107.867V113H74.3027V106.66H75.6504L75.7148 107.867ZM77.6543 106.619L77.6426 107.932C77.5566 107.916 77.4629 107.904 77.3613 107.896C77.2637 107.889 77.166 107.885 77.0684 107.885C76.8262 107.885 76.6133 107.92 76.4297 107.99C76.2461 108.057 76.0918 108.154 75.9668 108.283C75.8457 108.408 75.752 108.561 75.6855 108.74C75.6191 108.92 75.5801 109.121 75.5684 109.344L75.2461 109.367C75.2461 108.969 75.2852 108.6 75.3633 108.26C75.4414 107.92 75.5586 107.621 75.7148 107.363C75.875 107.105 76.0742 106.904 76.3125 106.76C76.5547 106.615 76.834 106.543 77.1504 106.543C77.2363 106.543 77.3281 106.551 77.4258 106.566C77.5273 106.582 77.6035 106.6 77.6543 106.619ZM85.4473 104.469V113H83.9766L80.1504 106.889V113H78.6797V104.469H80.1504L83.9883 110.592V104.469H85.4473ZM90.6328 111.729V108.705C90.6328 108.479 90.5918 108.283 90.5098 108.119C90.4277 107.955 90.3027 107.828 90.1348 107.738C89.9707 107.648 89.7637 107.604 89.5137 107.604C89.2832 107.604 89.084 107.643 88.916 107.721C88.748 107.799 88.6172 107.904 88.5234 108.037C88.4297 108.17 88.3828 108.32 88.3828 108.488H86.9766C86.9766 108.238 87.0371 107.996 87.1582 107.762C87.2793 107.527 87.4551 107.318 87.6855 107.135C87.916 106.951 88.1914 106.807 88.5117 106.701C88.832 106.596 89.1914 106.543 89.5898 106.543C90.0664 106.543 90.4883 106.623 90.8555 106.783C91.2266 106.943 91.5176 107.186 91.7285 107.51C91.9434 107.83 92.0508 108.232 92.0508 108.717V111.535C92.0508 111.824 92.0703 112.084 92.1094 112.314C92.1523 112.541 92.2129 112.738 92.291 112.906V113H90.8438C90.7773 112.848 90.7246 112.654 90.6855 112.42C90.6504 112.182 90.6328 111.951 90.6328 111.729ZM90.8379 109.145L90.8496 110.018H89.8359C89.5742 110.018 89.3438 110.043 89.1445 110.094C88.9453 110.141 88.7793 110.211 88.6465 110.305C88.5137 110.398 88.4141 110.512 88.3477 110.645C88.2812 110.777 88.248 110.928 88.248 111.096C88.248 111.264 88.2871 111.418 88.3652 111.559C88.4434 111.695 88.5566 111.803 88.7051 111.881C88.8574 111.959 89.041 111.998 89.2559 111.998C89.5449 111.998 89.7969 111.939 90.0117 111.822C90.2305 111.701 90.4023 111.555 90.5273 111.383C90.6523 111.207 90.7188 111.041 90.7266 110.885L91.1836 111.512C91.1367 111.672 91.0566 111.844 90.9434 112.027C90.8301 112.211 90.6816 112.387 90.498 112.555C90.3184 112.719 90.1016 112.854 89.8477 112.959C89.5977 113.064 89.3086 113.117 88.9805 113.117C88.5664 113.117 88.1973 113.035 87.873 112.871C87.5488 112.703 87.2949 112.479 87.1113 112.197C86.9277 111.912 86.8359 111.59 86.8359 111.23C86.8359 110.895 86.8984 110.598 87.0234 110.34C87.1523 110.078 87.3398 109.859 87.5859 109.684C87.8359 109.508 88.1406 109.375 88.5 109.285C88.8594 109.191 89.2695 109.145 89.7305 109.145H90.8379ZM94.9395 107.949V113H93.5273V106.66H94.8574L94.9395 107.949ZM94.7109 109.596L94.2305 109.59C94.2305 109.152 94.2852 108.748 94.3945 108.377C94.5039 108.006 94.6641 107.684 94.875 107.41C95.0859 107.133 95.3477 106.92 95.6602 106.771C95.9766 106.619 96.3418 106.543 96.7559 106.543C97.0449 106.543 97.3086 106.586 97.5469 106.672C97.7891 106.754 97.998 106.885 98.1738 107.064C98.3535 107.244 98.4902 107.475 98.584 107.756C98.6816 108.037 98.7305 108.377 98.7305 108.775V113H97.3184V108.898C97.3184 108.59 97.2715 108.348 97.1777 108.172C97.0879 107.996 96.957 107.871 96.7852 107.797C96.6172 107.719 96.416 107.68 96.1816 107.68C95.916 107.68 95.6895 107.73 95.502 107.832C95.3184 107.934 95.168 108.072 95.0508 108.248C94.9336 108.424 94.8477 108.627 94.793 108.857C94.7383 109.088 94.7109 109.334 94.7109 109.596ZM98.6426 109.221L97.9805 109.367C97.9805 108.984 98.0332 108.623 98.1387 108.283C98.248 107.939 98.4062 107.639 98.6133 107.381C98.8242 107.119 99.084 106.914 99.3926 106.766C99.7012 106.617 100.055 106.543 100.453 106.543C100.777 106.543 101.066 106.588 101.32 106.678C101.578 106.764 101.797 106.9 101.977 107.088C102.156 107.275 102.293 107.52 102.387 107.82C102.48 108.117 102.527 108.477 102.527 108.898V113H101.109V108.893C101.109 108.572 101.062 108.324 100.969 108.148C100.879 107.973 100.75 107.852 100.582 107.785C100.414 107.715 100.213 107.68 99.9785 107.68C99.7598 107.68 99.5664 107.721 99.3984 107.803C99.2344 107.881 99.0957 107.992 98.9824 108.137C98.8691 108.277 98.7832 108.439 98.7246 108.623C98.6699 108.807 98.6426 109.006 98.6426 109.221ZM106.775 113.117C106.307 113.117 105.883 113.041 105.504 112.889C105.129 112.732 104.809 112.516 104.543 112.238C104.281 111.961 104.08 111.635 103.939 111.26C103.799 110.885 103.729 110.48 103.729 110.047V109.812C103.729 109.316 103.801 108.867 103.945 108.465C104.09 108.062 104.291 107.719 104.549 107.434C104.807 107.145 105.111 106.924 105.463 106.771C105.814 106.619 106.195 106.543 106.605 106.543C107.059 106.543 107.455 106.619 107.795 106.771C108.135 106.924 108.416 107.139 108.639 107.416C108.865 107.689 109.033 108.016 109.143 108.395C109.256 108.773 109.312 109.191 109.312 109.648V110.252H104.414V109.238H107.918V109.127C107.91 108.873 107.859 108.635 107.766 108.412C107.676 108.189 107.537 108.01 107.35 107.873C107.162 107.736 106.912 107.668 106.6 107.668C106.365 107.668 106.156 107.719 105.973 107.82C105.793 107.918 105.643 108.061 105.521 108.248C105.4 108.436 105.307 108.662 105.24 108.928C105.178 109.189 105.146 109.484 105.146 109.812V110.047C105.146 110.324 105.184 110.582 105.258 110.82C105.336 111.055 105.449 111.26 105.598 111.436C105.746 111.611 105.926 111.75 106.137 111.852C106.348 111.949 106.588 111.998 106.857 111.998C107.197 111.998 107.5 111.93 107.766 111.793C108.031 111.656 108.262 111.463 108.457 111.213L109.201 111.934C109.064 112.133 108.887 112.324 108.668 112.508C108.449 112.688 108.182 112.834 107.865 112.947C107.553 113.061 107.189 113.117 106.775 113.117Z" fill="#323637"/>
<rect x="2" y="129" width="120" height="30" rx="4" fill="#6E9777"/>
<circle cx="16" cy="144" r="12" fill="#506B56"/>
<path d="M34.4648 139.469H35.7773L38.2441 146.049L40.7051 139.469H42.0176L38.7598 148H37.7168L34.4648 139.469ZM33.8672 139.469H35.1152L35.332 145.164V148H33.8672V139.469ZM41.3672 139.469H42.6211V148H41.1504V145.164L41.3672 139.469ZM47.0215 148.117C46.5527 148.117 46.1289 148.041 45.75 147.889C45.375 147.732 45.0547 147.516 44.7891 147.238C44.5273 146.961 44.3262 146.635 44.1855 146.26C44.0449 145.885 43.9746 145.48 43.9746 145.047V144.812C43.9746 144.316 44.0469 143.867 44.1914 143.465C44.3359 143.062 44.5371 142.719 44.7949 142.434C45.0527 142.145 45.3574 141.924 45.709 141.771C46.0605 141.619 46.4414 141.543 46.8516 141.543C47.3047 141.543 47.7012 141.619 48.041 141.771C48.3809 141.924 48.6621 142.139 48.8848 142.416C49.1113 142.689 49.2793 143.016 49.3887 143.395C49.502 143.773 49.5586 144.191 49.5586 144.648V145.252H44.6602V144.238H48.1641V144.127C48.1562 143.873 48.1055 143.635 48.0117 143.412C47.9219 143.189 47.7832 143.01 47.5957 142.873C47.4082 142.736 47.1582 142.668 46.8457 142.668C46.6113 142.668 46.4023 142.719 46.2188 142.82C46.0391 142.918 45.8887 143.061 45.7676 143.248C45.6465 143.436 45.5527 143.662 45.4863 143.928C45.4238 144.189 45.3926 144.484 45.3926 144.812V145.047C45.3926 145.324 45.4297 145.582 45.5039 145.82C45.582 146.055 45.6953 146.26 45.8438 146.436C45.9922 146.611 46.1719 146.75 46.3828 146.852C46.5938 146.949 46.834 146.998 47.1035 146.998C47.4434 146.998 47.7461 146.93 48.0117 146.793C48.2773 146.656 48.5078 146.463 48.7031 146.213L49.4473 146.934C49.3105 147.133 49.1328 147.324 48.9141 147.508C48.6953 147.688 48.4277 147.834 48.1113 147.947C47.7988 148.061 47.4355 148.117 47.0215 148.117ZM52.0723 142.949V148H50.6602V141.66H51.9902L52.0723 142.949ZM51.8438 144.596L51.3633 144.59C51.3633 144.152 51.418 143.748 51.5273 143.377C51.6367 143.006 51.7969 142.684 52.0078 142.41C52.2188 142.133 52.4805 141.92 52.793 141.771C53.1094 141.619 53.4746 141.543 53.8887 141.543C54.1777 141.543 54.4414 141.586 54.6797 141.672C54.9219 141.754 55.1309 141.885 55.3066 142.064C55.4863 142.244 55.623 142.475 55.7168 142.756C55.8145 143.037 55.8633 143.377 55.8633 143.775V148H54.4512V143.898C54.4512 143.59 54.4043 143.348 54.3105 143.172C54.2207 142.996 54.0898 142.871 53.918 142.797C53.75 142.719 53.5488 142.68 53.3145 142.68C53.0488 142.68 52.8223 142.73 52.6348 142.832C52.4512 142.934 52.3008 143.072 52.1836 143.248C52.0664 143.424 51.9805 143.627 51.9258 143.857C51.8711 144.088 51.8438 144.334 51.8438 144.596ZM55.7754 144.221L55.1133 144.367C55.1133 143.984 55.166 143.623 55.2715 143.283C55.3809 142.939 55.5391 142.639 55.7461 142.381C55.957 142.119 56.2168 141.914 56.5254 141.766C56.834 141.617 57.1875 141.543 57.5859 141.543C57.9102 141.543 58.1992 141.588 58.4531 141.678C58.7109 141.764 58.9297 141.9 59.1094 142.088C59.2891 142.275 59.4258 142.52 59.5195 142.82C59.6133 143.117 59.6602 143.477 59.6602 143.898V148H58.2422V143.893C58.2422 143.572 58.1953 143.324 58.1016 143.148C58.0117 142.973 57.8828 142.852 57.7148 142.785C57.5469 142.715 57.3457 142.68 57.1113 142.68C56.8926 142.68 56.6992 142.721 56.5312 142.803C56.3672 142.881 56.2285 142.992 56.1152 143.137C56.002 143.277 55.916 143.439 55.8574 143.623C55.8027 143.807 55.7754 144.006 55.7754 144.221ZM61.1191 139H62.5312V146.646L62.3965 148H61.1191V139ZM66.668 144.771V144.895C66.668 145.363 66.6152 145.795 66.5098 146.189C66.4082 146.58 66.252 146.92 66.041 147.209C65.834 147.498 65.5762 147.723 65.2676 147.883C64.9629 148.039 64.6094 148.117 64.207 148.117C63.8125 148.117 63.4688 148.043 63.1758 147.895C62.8828 147.746 62.6367 147.535 62.4375 147.262C62.2422 146.988 62.084 146.662 61.9629 146.283C61.8418 145.904 61.7559 145.486 61.7051 145.029V144.637C61.7559 144.176 61.8418 143.758 61.9629 143.383C62.084 143.004 62.2422 142.678 62.4375 142.404C62.6367 142.127 62.8809 141.914 63.1699 141.766C63.4629 141.617 63.8047 141.543 64.1953 141.543C64.6016 141.543 64.959 141.621 65.2676 141.777C65.5801 141.934 65.8398 142.156 66.0469 142.445C66.2539 142.73 66.4082 143.07 66.5098 143.465C66.6152 143.859 66.668 144.295 66.668 144.771ZM65.2559 144.895V144.771C65.2559 144.486 65.2324 144.219 65.1855 143.969C65.1387 143.715 65.0605 143.492 64.9512 143.301C64.8457 143.109 64.7012 142.959 64.5176 142.85C64.3379 142.736 64.1133 142.68 63.8438 142.68C63.5938 142.68 63.3789 142.723 63.1992 142.809C63.0195 142.895 62.8691 143.012 62.748 143.16C62.627 143.309 62.5312 143.48 62.4609 143.676C62.3945 143.871 62.3496 144.082 62.3262 144.309V145.369C62.3613 145.662 62.4355 145.932 62.5488 146.178C62.666 146.42 62.8301 146.615 63.041 146.764C63.252 146.908 63.5234 146.98 63.8555 146.98C64.1172 146.98 64.3379 146.928 64.5176 146.822C64.6973 146.717 64.8398 146.57 64.9453 146.383C65.0547 146.191 65.1328 145.969 65.1797 145.715C65.2305 145.461 65.2559 145.188 65.2559 144.895ZM70.6582 148.117C70.1895 148.117 69.7656 148.041 69.3867 147.889C69.0117 147.732 68.6914 147.516 68.4258 147.238C68.1641 146.961 67.9629 146.635 67.8223 146.26C67.6816 145.885 67.6113 145.48 67.6113 145.047V144.812C67.6113 144.316 67.6836 143.867 67.8281 143.465C67.9727 143.062 68.1738 142.719 68.4316 142.434C68.6895 142.145 68.9941 141.924 69.3457 141.771C69.6973 141.619 70.0781 141.543 70.4883 141.543C70.9414 141.543 71.3379 141.619 71.6777 141.771C72.0176 141.924 72.2988 142.139 72.5215 142.416C72.748 142.689 72.916 143.016 73.0254 143.395C73.1387 143.773 73.1953 144.191 73.1953 144.648V145.252H68.2969V144.238H71.8008V144.127C71.793 143.873 71.7422 143.635 71.6484 143.412C71.5586 143.189 71.4199 143.01 71.2324 142.873C71.0449 142.736 70.7949 142.668 70.4824 142.668C70.248 142.668 70.0391 142.719 69.8555 142.82C69.6758 142.918 69.5254 143.061 69.4043 143.248C69.2832 143.436 69.1895 143.662 69.123 143.928C69.0605 144.189 69.0293 144.484 69.0293 144.812V145.047C69.0293 145.324 69.0664 145.582 69.1406 145.82C69.2188 146.055 69.332 146.26 69.4805 146.436C69.6289 146.611 69.8086 146.75 70.0195 146.852C70.2305 146.949 70.4707 146.998 70.7402 146.998C71.0801 146.998 71.3828 146.93 71.6484 146.793C71.9141 146.656 72.1445 146.463 72.3398 146.213L73.084 146.934C72.9473 147.133 72.7695 147.324 72.5508 147.508C72.332 147.688 72.0645 147.834 71.748 147.947C71.4355 148.061 71.0723 148.117 70.6582 148.117ZM75.7148 142.867V148H74.3027V141.66H75.6504L75.7148 142.867ZM77.6543 141.619L77.6426 142.932C77.5566 142.916 77.4629 142.904 77.3613 142.896C77.2637 142.889 77.166 142.885 77.0684 142.885C76.8262 142.885 76.6133 142.92 76.4297 142.99C76.2461 143.057 76.0918 143.154 75.9668 143.283C75.8457 143.408 75.752 143.561 75.6855 143.74C75.6191 143.92 75.5801 144.121 75.5684 144.344L75.2461 144.367C75.2461 143.969 75.2852 143.6 75.3633 143.26C75.4414 142.92 75.5586 142.621 75.7148 142.363C75.875 142.105 76.0742 141.904 76.3125 141.76C76.5547 141.615 76.834 141.543 77.1504 141.543C77.2363 141.543 77.3281 141.551 77.4258 141.566C77.5273 141.582 77.6035 141.6 77.6543 141.619ZM85.4473 139.469V148H83.9766L80.1504 141.889V148H78.6797V139.469H80.1504L83.9883 145.592V139.469H85.4473ZM90.6328 146.729V143.705C90.6328 143.479 90.5918 143.283 90.5098 143.119C90.4277 142.955 90.3027 142.828 90.1348 142.738C89.9707 142.648 89.7637 142.604 89.5137 142.604C89.2832 142.604 89.084 142.643 88.916 142.721C88.748 142.799 88.6172 142.904 88.5234 143.037C88.4297 143.17 88.3828 143.32 88.3828 143.488H86.9766C86.9766 143.238 87.0371 142.996 87.1582 142.762C87.2793 142.527 87.4551 142.318 87.6855 142.135C87.916 141.951 88.1914 141.807 88.5117 141.701C88.832 141.596 89.1914 141.543 89.5898 141.543C90.0664 141.543 90.4883 141.623 90.8555 141.783C91.2266 141.943 91.5176 142.186 91.7285 142.51C91.9434 142.83 92.0508 143.232 92.0508 143.717V146.535C92.0508 146.824 92.0703 147.084 92.1094 147.314C92.1523 147.541 92.2129 147.738 92.291 147.906V148H90.8438C90.7773 147.848 90.7246 147.654 90.6855 147.42C90.6504 147.182 90.6328 146.951 90.6328 146.729ZM90.8379 144.145L90.8496 145.018H89.8359C89.5742 145.018 89.3438 145.043 89.1445 145.094C88.9453 145.141 88.7793 145.211 88.6465 145.305C88.5137 145.398 88.4141 145.512 88.3477 145.645C88.2812 145.777 88.248 145.928 88.248 146.096C88.248 146.264 88.2871 146.418 88.3652 146.559C88.4434 146.695 88.5566 146.803 88.7051 146.881C88.8574 146.959 89.041 146.998 89.2559 146.998C89.5449 146.998 89.7969 146.939 90.0117 146.822C90.2305 146.701 90.4023 146.555 90.5273 146.383C90.6523 146.207 90.7188 146.041 90.7266 145.885L91.1836 146.512C91.1367 146.672 91.0566 146.844 90.9434 147.027C90.8301 147.211 90.6816 147.387 90.498 147.555C90.3184 147.719 90.1016 147.854 89.8477 147.959C89.5977 148.064 89.3086 148.117 88.9805 148.117C88.5664 148.117 88.1973 148.035 87.873 147.871C87.5488 147.703 87.2949 147.479 87.1113 147.197C86.9277 146.912 86.8359 146.59 86.8359 146.23C86.8359 145.895 86.8984 145.598 87.0234 145.34C87.1523 145.078 87.3398 144.859 87.5859 144.684C87.8359 144.508 88.1406 144.375 88.5 144.285C88.8594 144.191 89.2695 144.145 89.7305 144.145H90.8379ZM94.9395 142.949V148H93.5273V141.66H94.8574L94.9395 142.949ZM94.7109 144.596L94.2305 144.59C94.2305 144.152 94.2852 143.748 94.3945 143.377C94.5039 143.006 94.6641 142.684 94.875 142.41C95.0859 142.133 95.3477 141.92 95.6602 141.771C95.9766 141.619 96.3418 141.543 96.7559 141.543C97.0449 141.543 97.3086 141.586 97.5469 141.672C97.7891 141.754 97.998 141.885 98.1738 142.064C98.3535 142.244 98.4902 142.475 98.584 142.756C98.6816 143.037 98.7305 143.377 98.7305 143.775V148H97.3184V143.898C97.3184 143.59 97.2715 143.348 97.1777 143.172C97.0879 142.996 96.957 142.871 96.7852 142.797C96.6172 142.719 96.416 142.68 96.1816 142.68C95.916 142.68 95.6895 142.73 95.502 142.832C95.3184 142.934 95.168 143.072 95.0508 143.248C94.9336 143.424 94.8477 143.627 94.793 143.857C94.7383 144.088 94.7109 144.334 94.7109 144.596ZM98.6426 144.221L97.9805 144.367C97.9805 143.984 98.0332 143.623 98.1387 143.283C98.248 142.939 98.4062 142.639 98.6133 142.381C98.8242 142.119 99.084 141.914 99.3926 141.766C99.7012 141.617 100.055 141.543 100.453 141.543C100.777 141.543 101.066 141.588 101.32 141.678C101.578 141.764 101.797 141.9 101.977 142.088C102.156 142.275 102.293 142.52 102.387 142.82C102.48 143.117 102.527 143.477 102.527 143.898V148H101.109V143.893C101.109 143.572 101.062 143.324 100.969 143.148C100.879 142.973 100.75 142.852 100.582 142.785C100.414 142.715 100.213 142.68 99.9785 142.68C99.7598 142.68 99.5664 142.721 99.3984 142.803C99.2344 142.881 99.0957 142.992 98.9824 143.137C98.8691 143.277 98.7832 143.439 98.7246 143.623C98.6699 143.807 98.6426 144.006 98.6426 144.221ZM106.775 148.117C106.307 148.117 105.883 148.041 105.504 147.889C105.129 147.732 104.809 147.516 104.543 147.238C104.281 146.961 104.08 146.635 103.939 146.26C103.799 145.885 103.729 145.48 103.729 145.047V144.812C103.729 144.316 103.801 143.867 103.945 143.465C104.09 143.062 104.291 142.719 104.549 142.434C104.807 142.145 105.111 141.924 105.463 141.771C105.814 141.619 106.195 141.543 106.605 141.543C107.059 141.543 107.455 141.619 107.795 141.771C108.135 141.924 108.416 142.139 108.639 142.416C108.865 142.689 109.033 143.016 109.143 143.395C109.256 143.773 109.312 144.191 109.312 144.648V145.252H104.414V144.238H107.918V144.127C107.91 143.873 107.859 143.635 107.766 143.412C107.676 143.189 107.537 143.01 107.35 142.873C107.162 142.736 106.912 142.668 106.6 142.668C106.365 142.668 106.156 142.719 105.973 142.82C105.793 142.918 105.643 143.061 105.521 143.248C105.4 143.436 105.307 143.662 105.24 143.928C105.178 144.189 105.146 144.484 105.146 144.812V145.047C105.146 145.324 105.184 145.582 105.258 145.82C105.336 146.055 105.449 146.26 105.598 146.436C105.746 146.611 105.926 146.75 106.137 146.852C106.348 146.949 106.588 146.998 106.857 146.998C107.197 146.998 107.5 146.93 107.766 146.793C108.031 146.656 108.262 146.463 108.457 146.213L109.201 146.934C109.064 147.133 108.887 147.324 108.668 147.508C108.449 147.688 108.182 147.834 107.865 147.947C107.553 148.061 107.189 148.117 106.775 148.117Z" fill="#323637"/>
<rect x="2" y="164" width="120" height="30" rx="4" fill="#6E9777"/>
<circle cx="16" cy="179" r="12" fill="#506B56"/>
<path d="M34.4648 174.469H35.7773L38.2441 181.049L40.7051 174.469H42.0176L38.7598 183H37.7168L34.4648 174.469ZM33.8672 174.469H35.1152L35.332 180.164V183H33.8672V174.469ZM41.3672 174.469H42.6211V183H41.1504V180.164L41.3672 174.469ZM47.0215 183.117C46.5527 183.117 46.1289 183.041 45.75 182.889C45.375 182.732 45.0547 182.516 44.7891 182.238C44.5273 181.961 44.3262 181.635 44.1855 181.26C44.0449 180.885 43.9746 180.48 43.9746 180.047V179.812C43.9746 179.316 44.0469 178.867 44.1914 178.465C44.3359 178.062 44.5371 177.719 44.7949 177.434C45.0527 177.145 45.3574 176.924 45.709 176.771C46.0605 176.619 46.4414 176.543 46.8516 176.543C47.3047 176.543 47.7012 176.619 48.041 176.771C48.3809 176.924 48.6621 177.139 48.8848 177.416C49.1113 177.689 49.2793 178.016 49.3887 178.395C49.502 178.773 49.5586 179.191 49.5586 179.648V180.252H44.6602V179.238H48.1641V179.127C48.1562 178.873 48.1055 178.635 48.0117 178.412C47.9219 178.189 47.7832 178.01 47.5957 177.873C47.4082 177.736 47.1582 177.668 46.8457 177.668C46.6113 177.668 46.4023 177.719 46.2188 177.82C46.0391 177.918 45.8887 178.061 45.7676 178.248C45.6465 178.436 45.5527 178.662 45.4863 178.928C45.4238 179.189 45.3926 179.484 45.3926 179.812V180.047C45.3926 180.324 45.4297 180.582 45.5039 180.82C45.582 181.055 45.6953 181.26 45.8438 181.436C45.9922 181.611 46.1719 181.75 46.3828 181.852C46.5938 181.949 46.834 181.998 47.1035 181.998C47.4434 181.998 47.7461 181.93 48.0117 181.793C48.2773 181.656 48.5078 181.463 48.7031 181.213L49.4473 181.934C49.3105 182.133 49.1328 182.324 48.9141 182.508C48.6953 182.688 48.4277 182.834 48.1113 182.947C47.7988 183.061 47.4355 183.117 47.0215 183.117ZM52.0723 177.949V183H50.6602V176.66H51.9902L52.0723 177.949ZM51.8438 179.596L51.3633 179.59C51.3633 179.152 51.418 178.748 51.5273 178.377C51.6367 178.006 51.7969 177.684 52.0078 177.41C52.2188 177.133 52.4805 176.92 52.793 176.771C53.1094 176.619 53.4746 176.543 53.8887 176.543C54.1777 176.543 54.4414 176.586 54.6797 176.672C54.9219 176.754 55.1309 176.885 55.3066 177.064C55.4863 177.244 55.623 177.475 55.7168 177.756C55.8145 178.037 55.8633 178.377 55.8633 178.775V183H54.4512V178.898C54.4512 178.59 54.4043 178.348 54.3105 178.172C54.2207 177.996 54.0898 177.871 53.918 177.797C53.75 177.719 53.5488 177.68 53.3145 177.68C53.0488 177.68 52.8223 177.73 52.6348 177.832C52.4512 177.934 52.3008 178.072 52.1836 178.248C52.0664 178.424 51.9805 178.627 51.9258 178.857C51.8711 179.088 51.8438 179.334 51.8438 179.596ZM55.7754 179.221L55.1133 179.367C55.1133 178.984 55.166 178.623 55.2715 178.283C55.3809 177.939 55.5391 177.639 55.7461 177.381C55.957 177.119 56.2168 176.914 56.5254 176.766C56.834 176.617 57.1875 176.543 57.5859 176.543C57.9102 176.543 58.1992 176.588 58.4531 176.678C58.7109 176.764 58.9297 176.9 59.1094 177.088C59.2891 177.275 59.4258 177.52 59.5195 177.82C59.6133 178.117 59.6602 178.477 59.6602 178.898V183H58.2422V178.893C58.2422 178.572 58.1953 178.324 58.1016 178.148C58.0117 177.973 57.8828 177.852 57.7148 177.785C57.5469 177.715 57.3457 177.68 57.1113 177.68C56.8926 177.68 56.6992 177.721 56.5312 177.803C56.3672 177.881 56.2285 177.992 56.1152 178.137C56.002 178.277 55.916 178.439 55.8574 178.623C55.8027 178.807 55.7754 179.006 55.7754 179.221ZM61.1191 174H62.5312V181.646L62.3965 183H61.1191V174ZM66.668 179.771V179.895C66.668 180.363 66.6152 180.795 66.5098 181.189C66.4082 181.58 66.252 181.92 66.041 182.209C65.834 182.498 65.5762 182.723 65.2676 182.883C64.9629 183.039 64.6094 183.117 64.207 183.117C63.8125 183.117 63.4688 183.043 63.1758 182.895C62.8828 182.746 62.6367 182.535 62.4375 182.262C62.2422 181.988 62.084 181.662 61.9629 181.283C61.8418 180.904 61.7559 180.486 61.7051 180.029V179.637C61.7559 179.176 61.8418 178.758 61.9629 178.383C62.084 178.004 62.2422 177.678 62.4375 177.404C62.6367 177.127 62.8809 176.914 63.1699 176.766C63.4629 176.617 63.8047 176.543 64.1953 176.543C64.6016 176.543 64.959 176.621 65.2676 176.777C65.5801 176.934 65.8398 177.156 66.0469 177.445C66.2539 177.73 66.4082 178.07 66.5098 178.465C66.6152 178.859 66.668 179.295 66.668 179.771ZM65.2559 179.895V179.771C65.2559 179.486 65.2324 179.219 65.1855 178.969C65.1387 178.715 65.0605 178.492 64.9512 178.301C64.8457 178.109 64.7012 177.959 64.5176 177.85C64.3379 177.736 64.1133 177.68 63.8438 177.68C63.5938 177.68 63.3789 177.723 63.1992 177.809C63.0195 177.895 62.8691 178.012 62.748 178.16C62.627 178.309 62.5312 178.48 62.4609 178.676C62.3945 178.871 62.3496 179.082 62.3262 179.309V180.369C62.3613 180.662 62.4355 180.932 62.5488 181.178C62.666 181.42 62.8301 181.615 63.041 181.764C63.252 181.908 63.5234 181.98 63.8555 181.98C64.1172 181.98 64.3379 181.928 64.5176 181.822C64.6973 181.717 64.8398 181.57 64.9453 181.383C65.0547 181.191 65.1328 180.969 65.1797 180.715C65.2305 180.461 65.2559 180.188 65.2559 179.895ZM70.6582 183.117C70.1895 183.117 69.7656 183.041 69.3867 182.889C69.0117 182.732 68.6914 182.516 68.4258 182.238C68.1641 181.961 67.9629 181.635 67.8223 181.26C67.6816 180.885 67.6113 180.48 67.6113 180.047V179.812C67.6113 179.316 67.6836 178.867 67.8281 178.465C67.9727 178.062 68.1738 177.719 68.4316 177.434C68.6895 177.145 68.9941 176.924 69.3457 176.771C69.6973 176.619 70.0781 176.543 70.4883 176.543C70.9414 176.543 71.3379 176.619 71.6777 176.771C72.0176 176.924 72.2988 177.139 72.5215 177.416C72.748 177.689 72.916 178.016 73.0254 178.395C73.1387 178.773 73.1953 179.191 73.1953 179.648V180.252H68.2969V179.238H71.8008V179.127C71.793 178.873 71.7422 178.635 71.6484 178.412C71.5586 178.189 71.4199 178.01 71.2324 177.873C71.0449 177.736 70.7949 177.668 70.4824 177.668C70.248 177.668 70.0391 177.719 69.8555 177.82C69.6758 177.918 69.5254 178.061 69.4043 178.248C69.2832 178.436 69.1895 178.662 69.123 178.928C69.0605 179.189 69.0293 179.484 69.0293 179.812V180.047C69.0293 180.324 69.0664 180.582 69.1406 180.82C69.2188 181.055 69.332 181.26 69.4805 181.436C69.6289 181.611 69.8086 181.75 70.0195 181.852C70.2305 181.949 70.4707 181.998 70.7402 181.998C71.0801 181.998 71.3828 181.93 71.6484 181.793C71.9141 181.656 72.1445 181.463 72.3398 181.213L73.084 181.934C72.9473 182.133 72.7695 182.324 72.5508 182.508C72.332 182.688 72.0645 182.834 71.748 182.947C71.4355 183.061 71.0723 183.117 70.6582 183.117ZM75.7148 177.867V183H74.3027V176.66H75.6504L75.7148 177.867ZM77.6543 176.619L77.6426 177.932C77.5566 177.916 77.4629 177.904 77.3613 177.896C77.2637 177.889 77.166 177.885 77.0684 177.885C76.8262 177.885 76.6133 177.92 76.4297 177.99C76.2461 178.057 76.0918 178.154 75.9668 178.283C75.8457 178.408 75.752 178.561 75.6855 178.74C75.6191 178.92 75.5801 179.121 75.5684 179.344L75.2461 179.367C75.2461 178.969 75.2852 178.6 75.3633 178.26C75.4414 177.92 75.5586 177.621 75.7148 177.363C75.875 177.105 76.0742 176.904 76.3125 176.76C76.5547 176.615 76.834 176.543 77.1504 176.543C77.2363 176.543 77.3281 176.551 77.4258 176.566C77.5273 176.582 77.6035 176.6 77.6543 176.619ZM85.4473 174.469V183H83.9766L80.1504 176.889V183H78.6797V174.469H80.1504L83.9883 180.592V174.469H85.4473ZM90.6328 181.729V178.705C90.6328 178.479 90.5918 178.283 90.5098 178.119C90.4277 177.955 90.3027 177.828 90.1348 177.738C89.9707 177.648 89.7637 177.604 89.5137 177.604C89.2832 177.604 89.084 177.643 88.916 177.721C88.748 177.799 88.6172 177.904 88.5234 178.037C88.4297 178.17 88.3828 178.32 88.3828 178.488H86.9766C86.9766 178.238 87.0371 177.996 87.1582 177.762C87.2793 177.527 87.4551 177.318 87.6855 177.135C87.916 176.951 88.1914 176.807 88.5117 176.701C88.832 176.596 89.1914 176.543 89.5898 176.543C90.0664 176.543 90.4883 176.623 90.8555 176.783C91.2266 176.943 91.5176 177.186 91.7285 177.51C91.9434 177.83 92.0508 178.232 92.0508 178.717V181.535C92.0508 181.824 92.0703 182.084 92.1094 182.314C92.1523 182.541 92.2129 182.738 92.291 182.906V183H90.8438C90.7773 182.848 90.7246 182.654 90.6855 182.42C90.6504 182.182 90.6328 181.951 90.6328 181.729ZM90.8379 179.145L90.8496 180.018H89.8359C89.5742 180.018 89.3438 180.043 89.1445 180.094C88.9453 180.141 88.7793 180.211 88.6465 180.305C88.5137 180.398 88.4141 180.512 88.3477 180.645C88.2812 180.777 88.248 180.928 88.248 181.096C88.248 181.264 88.2871 181.418 88.3652 181.559C88.4434 181.695 88.5566 181.803 88.7051 181.881C88.8574 181.959 89.041 181.998 89.2559 181.998C89.5449 181.998 89.7969 181.939 90.0117 181.822C90.2305 181.701 90.4023 181.555 90.5273 181.383C90.6523 181.207 90.7188 181.041 90.7266 180.885L91.1836 181.512C91.1367 181.672 91.0566 181.844 90.9434 182.027C90.8301 182.211 90.6816 182.387 90.498 182.555C90.3184 182.719 90.1016 182.854 89.8477 182.959C89.5977 183.064 89.3086 183.117 88.9805 183.117C88.5664 183.117 88.1973 183.035 87.873 182.871C87.5488 182.703 87.2949 182.479 87.1113 182.197C86.9277 181.912 86.8359 181.59 86.8359 181.23C86.8359 180.895 86.8984 180.598 87.0234 180.34C87.1523 180.078 87.3398 179.859 87.5859 179.684C87.8359 179.508 88.1406 179.375 88.5 179.285C88.8594 179.191 89.2695 179.145 89.7305 179.145H90.8379ZM94.9395 177.949V183H93.5273V176.66H94.8574L94.9395 177.949ZM94.7109 179.596L94.2305 179.59C94.2305 179.152 94.2852 178.748 94.3945 178.377C94.5039 178.006 94.6641 177.684 94.875 177.41C95.0859 177.133 95.3477 176.92 95.6602 176.771C95.9766 176.619 96.3418 176.543 96.7559 176.543C97.0449 176.543 97.3086 176.586 97.5469 176.672C97.7891 176.754 97.998 176.885 98.1738 177.064C98.3535 177.244 98.4902 177.475 98.584 177.756C98.6816 178.037 98.7305 178.377 98.7305 178.775V183H97.3184V178.898C97.3184 178.59 97.2715 178.348 97.1777 178.172C97.0879 177.996 96.957 177.871 96.7852 177.797C96.6172 177.719 96.416 177.68 96.1816 177.68C95.916 177.68 95.6895 177.73 95.502 177.832C95.3184 177.934 95.168 178.072 95.0508 178.248C94.9336 178.424 94.8477 178.627 94.793 178.857C94.7383 179.088 94.7109 179.334 94.7109 179.596ZM98.6426 179.221L97.9805 179.367C97.9805 178.984 98.0332 178.623 98.1387 178.283C98.248 177.939 98.4062 177.639 98.6133 177.381C98.8242 177.119 99.084 176.914 99.3926 176.766C99.7012 176.617 100.055 176.543 100.453 176.543C100.777 176.543 101.066 176.588 101.32 176.678C101.578 176.764 101.797 176.9 101.977 177.088C102.156 177.275 102.293 177.52 102.387 177.82C102.48 178.117 102.527 178.477 102.527 178.898V183H101.109V178.893C101.109 178.572 101.062 178.324 100.969 178.148C100.879 177.973 100.75 177.852 100.582 177.785C100.414 177.715 100.213 177.68 99.9785 177.68C99.7598 177.68 99.5664 177.721 99.3984 177.803C99.2344 177.881 99.0957 177.992 98.9824 178.137C98.8691 178.277 98.7832 178.439 98.7246 178.623C98.6699 178.807 98.6426 179.006 98.6426 179.221ZM106.775 183.117C106.307 183.117 105.883 183.041 105.504 182.889C105.129 182.732 104.809 182.516 104.543 182.238C104.281 181.961 104.08 181.635 103.939 181.26C103.799 180.885 103.729 180.48 103.729 180.047V179.812C103.729 179.316 103.801 178.867 103.945 178.465C104.09 178.062 104.291 177.719 104.549 177.434C104.807 177.145 105.111 176.924 105.463 176.771C105.814 176.619 106.195 176.543 106.605 176.543C107.059 176.543 107.455 176.619 107.795 176.771C108.135 176.924 108.416 177.139 108.639 177.416C108.865 177.689 109.033 178.016 109.143 178.395C109.256 178.773 109.312 179.191 109.312 179.648V180.252H104.414V179.238H107.918V179.127C107.91 178.873 107.859 178.635 107.766 178.412C107.676 178.189 107.537 178.01 107.35 177.873C107.162 177.736 106.912 177.668 106.6 177.668C106.365 177.668 106.156 177.719 105.973 177.82C105.793 177.918 105.643 178.061 105.521 178.248C105.4 178.436 105.307 178.662 105.24 178.928C105.178 179.189 105.146 179.484 105.146 179.812V180.047C105.146 180.324 105.184 180.582 105.258 180.82C105.336 181.055 105.449 181.26 105.598 181.436C105.746 181.611 105.926 181.75 106.137 181.852C106.348 181.949 106.588 181.998 106.857 181.998C107.197 181.998 107.5 181.93 107.766 181.793C108.031 181.656 108.262 181.463 108.457 181.213L109.201 181.934C109.064 182.133 108.887 182.324 108.668 182.508C108.449 182.688 108.182 182.834 107.865 182.947C107.553 183.061 107.189 183.117 106.775 183.117Z" fill="#323637"/>
<rect x="124" y="32" width="900" height="736" fill="#484F51"/>
<rect x="124" width="900" height="32" fill="#3D4244"/>
<path fill-rule="evenodd" clip-rule="evenodd" d="M999.704 10.8889C999.704 10.2344 1000.23 9.70374 1000.89 9.70374H1015.11C1015.77 9.70374 1016.3 10.2344 1016.3 10.8889C1016.3 11.5435 1015.77 12.0741 1015.11 12.0741H1000.89C1000.23 12.0741 999.704 11.5435 999.704 10.8889ZM999.704 15.6297C999.704 14.9751 1000.23 14.4445 1000.89 14.4445H1015.11C1015.77 14.4445 1016.3 14.9751 1016.3 15.6297C1016.3 16.2842 1015.77 16.8148 1015.11 16.8148H1000.89C1000.23 16.8148 999.704 16.2842 999.704 15.6297ZM1000.89 19.1852C1000.23 19.1852 999.704 19.7158 999.704 20.3704C999.704 21.025 1000.23 21.5556 1000.89 21.5556H1015.11C1015.77 21.5556 1016.3 21.025 1016.3 20.3704C1016.3 19.7158 1015.77 19.1852 1015.11 19.1852H1000.89Z" fill="#9FE3AE"/>
<path fill-rule="evenodd" clip-rule="evenodd" d="M933.006 21.05C933.097 20.0063 934.258 19.0675 936.079 18.3924C937.139 13.4382 939.841 9.91663 943.007 9.91663C946.175 9.91663 948.878 13.4411 949.937 18.3984C951.748 19.073 952.903 20.0093 952.994 21.05H933.006ZM940.653 22.25H945.346C944.933 23.2345 944.038 23.9166 942.999 23.9166C941.961 23.9166 941.065 23.2345 940.653 22.25Z" fill="#9FE3AE"/>
<rect x="946.75" y="18.0834" width="10" height="10" rx="2.5" fill="#E85454"/>
<path d="M952.727 18.9545V26.0834H951.433V20.4633L949.719 21.0297V19.9847L952.58 18.9545H952.727Z" fill="white"/>
<circle cx="978" cy="16" r="12" fill="#6E9777"/>
<g clip-path="url(#clip1_14_514)">
<rect x="7.87244" y="9.4032" width="4.57143" height="13.7143" rx="1.21905" fill="#9FE3AE"/>
<rect x="13.7768" y="9.4032" width="4.57143" height="9.14286" rx="1.21905" fill="#7FB58B"/>
<rect x="19.6811" y="9.4032" width="4.57143" height="4.57143" rx="1.21905" fill="#6E9777"/>
</g>
<path d="M135 754H1010" stroke="#EDEDED" stroke-width="8" stroke-linecap="round"/>
<circle cx="907.5" cy="15.5" r="2.5" fill="#BCBEBE"/>
<circle cx="907.5" cy="15.5" r="2.5" fill="#BCBEBE"/>
<circle cx="907.5" cy="15.5" r="2.5" fill="#BCBEBE"/>
<circle cx="907.5" cy="15.5" r="2.5" fill="#EDEDED"/>
<circle cx="913.5" cy="15.5" r="2.5" fill="#BCBEBE"/>
<circle cx="913.5" cy="15.5" r="2.5" fill="#BCBEBE"/>
<circle cx="913.5" cy="15.5" r="2.5" fill="#BCBEBE"/>
<circle cx="913.5" cy="15.5" r="2.5" fill="#EDEDED"/>
<circle cx="919.5" cy="15.5" r="2.5" fill="#BCBEBE"/>
<circle cx="919.5" cy="15.5" r="2.5" fill="#BCBEBE"/>
<circle cx="919.5" cy="15.5" r="2.5" fill="#BCBEBE"/>
<circle cx="919.5" cy="15.5" r="2.5" fill="#EDEDED"/>
</g>
<path d="M372 59C372 54.5817 375.582 51 380 51H564C568.418 51 572 54.5817 572 59V163C572 167.418 568.418 171 564 171H380C375.582 171 372 167.418 372 163V59Z" fill="#6E9777"/>
<path d="M372 59C372 54.5817 375.582 51 380 51H564C568.418 51 572 54.5817 572 59V163C572 167.418 568.418 171 564 171H380C375.582 171 372 167.418 372 163V59Z" fill="#6E9777"/>
<path d="M435.008 111.086H432.086L432.07 109.383H434.484C434.911 109.383 435.258 109.331 435.523 109.227C435.794 109.122 435.992 108.971 436.117 108.773C436.242 108.57 436.305 108.32 436.305 108.023C436.305 107.685 436.242 107.411 436.117 107.203C435.992 106.995 435.794 106.844 435.523 106.75C435.258 106.651 434.914 106.602 434.492 106.602H433.008V116H430.461V104.625H434.492C435.174 104.625 435.784 104.688 436.32 104.812C436.857 104.938 437.312 105.13 437.688 105.391C438.068 105.651 438.357 105.977 438.555 106.367C438.753 106.758 438.852 107.219 438.852 107.75C438.852 108.214 438.747 108.646 438.539 109.047C438.336 109.448 438.008 109.773 437.555 110.023C437.102 110.273 436.495 110.409 435.734 110.43L435.008 111.086ZM434.906 116H431.438L432.359 114.031H434.906C435.297 114.031 435.615 113.969 435.859 113.844C436.104 113.719 436.284 113.549 436.398 113.336C436.513 113.122 436.57 112.883 436.57 112.617C436.57 112.305 436.516 112.034 436.406 111.805C436.302 111.576 436.135 111.398 435.906 111.273C435.682 111.148 435.383 111.086 435.008 111.086H432.727L432.742 109.383H435.531L436.125 110.055C436.849 110.039 437.427 110.156 437.859 110.406C438.297 110.651 438.612 110.974 438.805 111.375C438.997 111.776 439.094 112.201 439.094 112.648C439.094 113.388 438.935 114.008 438.617 114.508C438.299 115.003 437.828 115.375 437.203 115.625C436.583 115.875 435.818 116 434.906 116ZM440.266 111.859V111.695C440.266 111.076 440.354 110.505 440.531 109.984C440.708 109.458 440.969 109.003 441.312 108.617C441.656 108.232 442.078 107.932 442.578 107.719C443.078 107.5 443.651 107.391 444.297 107.391C444.953 107.391 445.531 107.5 446.031 107.719C446.536 107.932 446.961 108.232 447.305 108.617C447.648 109.003 447.909 109.458 448.086 109.984C448.263 110.505 448.352 111.076 448.352 111.695V111.859C448.352 112.474 448.263 113.044 448.086 113.57C447.909 114.091 447.648 114.547 447.305 114.938C446.961 115.323 446.539 115.622 446.039 115.836C445.539 116.049 444.964 116.156 444.312 116.156C443.667 116.156 443.091 116.049 442.586 115.836C442.081 115.622 441.656 115.323 441.312 114.938C440.969 114.547 440.708 114.091 440.531 113.57C440.354 113.044 440.266 112.474 440.266 111.859ZM442.711 111.695V111.859C442.711 112.193 442.737 112.505 442.789 112.797C442.846 113.089 442.938 113.344 443.062 113.562C443.188 113.781 443.352 113.953 443.555 114.078C443.763 114.198 444.016 114.258 444.312 114.258C444.609 114.258 444.859 114.198 445.062 114.078C445.266 113.953 445.43 113.781 445.555 113.562C445.68 113.344 445.768 113.089 445.82 112.797C445.878 112.505 445.906 112.193 445.906 111.859V111.695C445.906 111.367 445.878 111.06 445.82 110.773C445.768 110.482 445.68 110.224 445.555 110C445.43 109.776 445.263 109.602 445.055 109.477C444.852 109.352 444.599 109.289 444.297 109.289C444.005 109.289 443.758 109.352 443.555 109.477C443.352 109.602 443.188 109.776 443.062 110C442.938 110.224 442.846 110.482 442.789 110.773C442.737 111.06 442.711 111.367 442.711 111.695ZM454.109 113.984V110.359C454.109 110.104 454.07 109.885 453.992 109.703C453.914 109.521 453.792 109.378 453.625 109.273C453.458 109.169 453.242 109.117 452.977 109.117C452.753 109.117 452.557 109.156 452.391 109.234C452.229 109.312 452.104 109.424 452.016 109.57C451.932 109.716 451.891 109.896 451.891 110.109H449.453C449.453 109.729 449.539 109.375 449.711 109.047C449.883 108.719 450.128 108.43 450.445 108.18C450.768 107.93 451.154 107.737 451.602 107.602C452.049 107.461 452.552 107.391 453.109 107.391C453.771 107.391 454.359 107.503 454.875 107.727C455.396 107.945 455.807 108.276 456.109 108.719C456.411 109.156 456.562 109.708 456.562 110.375V113.914C456.562 114.424 456.591 114.826 456.648 115.117C456.711 115.404 456.799 115.654 456.914 115.867V116H454.453C454.339 115.755 454.253 115.453 454.195 115.094C454.138 114.729 454.109 114.359 454.109 113.984ZM454.414 110.844L454.43 112.188H453.219C452.948 112.188 452.714 112.221 452.516 112.289C452.323 112.357 452.167 112.451 452.047 112.57C451.927 112.685 451.839 112.82 451.781 112.977C451.729 113.128 451.703 113.294 451.703 113.477C451.703 113.648 451.745 113.805 451.828 113.945C451.911 114.081 452.026 114.188 452.172 114.266C452.318 114.344 452.487 114.383 452.68 114.383C452.997 114.383 453.268 114.32 453.492 114.195C453.721 114.07 453.898 113.919 454.023 113.742C454.148 113.56 454.211 113.391 454.211 113.234L454.797 114.25C454.703 114.458 454.589 114.674 454.453 114.898C454.318 115.117 454.146 115.323 453.938 115.516C453.729 115.703 453.477 115.857 453.18 115.977C452.888 116.096 452.536 116.156 452.125 116.156C451.594 116.156 451.112 116.049 450.68 115.836C450.247 115.617 449.901 115.318 449.641 114.938C449.385 114.557 449.258 114.12 449.258 113.625C449.258 113.182 449.339 112.789 449.5 112.445C449.661 112.102 449.904 111.81 450.227 111.57C450.555 111.331 450.966 111.151 451.461 111.031C451.956 110.906 452.534 110.844 453.195 110.844H454.414ZM460.609 109.516V116H458.172V107.547H460.461L460.609 109.516ZM463.133 107.484L463.094 109.758C462.99 109.742 462.854 109.729 462.688 109.719C462.521 109.703 462.378 109.695 462.258 109.695C461.945 109.695 461.674 109.734 461.445 109.812C461.221 109.885 461.034 109.995 460.883 110.141C460.737 110.286 460.628 110.469 460.555 110.688C460.482 110.901 460.445 111.148 460.445 111.43L459.984 111.203C459.984 110.646 460.039 110.135 460.148 109.672C460.258 109.208 460.417 108.807 460.625 108.469C460.833 108.125 461.089 107.859 461.391 107.672C461.693 107.484 462.036 107.391 462.422 107.391C462.547 107.391 462.674 107.398 462.805 107.414C462.935 107.43 463.044 107.453 463.133 107.484ZM468.898 114.109V104H471.352V116H469.148L468.898 114.109ZM463.633 111.875V111.711C463.633 111.07 463.703 110.487 463.844 109.961C463.99 109.43 464.201 108.974 464.477 108.594C464.758 108.208 465.104 107.911 465.516 107.703C465.927 107.495 466.398 107.391 466.93 107.391C467.419 107.391 467.846 107.5 468.211 107.719C468.576 107.932 468.885 108.234 469.141 108.625C469.401 109.01 469.612 109.466 469.773 109.992C469.935 110.513 470.057 111.078 470.141 111.688V111.969C470.062 112.552 469.94 113.096 469.773 113.602C469.612 114.107 469.401 114.552 469.141 114.938C468.885 115.318 468.573 115.617 468.203 115.836C467.839 116.049 467.409 116.156 466.914 116.156C466.383 116.156 465.911 116.049 465.5 115.836C465.094 115.622 464.753 115.323 464.477 114.938C464.201 114.552 463.99 114.099 463.844 113.578C463.703 113.057 463.633 112.49 463.633 111.875ZM466.07 111.711V111.875C466.07 112.208 466.094 112.518 466.141 112.805C466.193 113.091 466.276 113.344 466.391 113.562C466.505 113.781 466.656 113.953 466.844 114.078C467.031 114.198 467.26 114.258 467.531 114.258C467.896 114.258 468.195 114.174 468.43 114.008C468.664 113.836 468.841 113.599 468.961 113.297C469.081 112.995 469.143 112.643 469.148 112.242V111.422C469.148 111.089 469.115 110.789 469.047 110.523C468.979 110.258 468.878 110.034 468.742 109.852C468.612 109.669 468.448 109.531 468.25 109.438C468.052 109.339 467.818 109.289 467.547 109.289C467.281 109.289 467.055 109.352 466.867 109.477C466.68 109.596 466.526 109.766 466.406 109.984C466.292 110.203 466.206 110.461 466.148 110.758C466.096 111.049 466.07 111.367 466.07 111.711ZM482.484 104.625V116H479.945L475.648 108.648V116H473.102V104.625H475.648L479.953 111.977V104.625H482.484ZM488.719 113.984V110.359C488.719 110.104 488.68 109.885 488.602 109.703C488.523 109.521 488.401 109.378 488.234 109.273C488.068 109.169 487.852 109.117 487.586 109.117C487.362 109.117 487.167 109.156 487 109.234C486.839 109.312 486.714 109.424 486.625 109.57C486.542 109.716 486.5 109.896 486.5 110.109H484.062C484.062 109.729 484.148 109.375 484.32 109.047C484.492 108.719 484.737 108.43 485.055 108.18C485.378 107.93 485.763 107.737 486.211 107.602C486.659 107.461 487.161 107.391 487.719 107.391C488.38 107.391 488.969 107.503 489.484 107.727C490.005 107.945 490.417 108.276 490.719 108.719C491.021 109.156 491.172 109.708 491.172 110.375V113.914C491.172 114.424 491.201 114.826 491.258 115.117C491.32 115.404 491.409 115.654 491.523 115.867V116H489.062C488.948 115.755 488.862 115.453 488.805 115.094C488.747 114.729 488.719 114.359 488.719 113.984ZM489.023 110.844L489.039 112.188H487.828C487.557 112.188 487.323 112.221 487.125 112.289C486.932 112.357 486.776 112.451 486.656 112.57C486.536 112.685 486.448 112.82 486.391 112.977C486.339 113.128 486.312 113.294 486.312 113.477C486.312 113.648 486.354 113.805 486.438 113.945C486.521 114.081 486.635 114.188 486.781 114.266C486.927 114.344 487.096 114.383 487.289 114.383C487.607 114.383 487.878 114.32 488.102 114.195C488.331 114.07 488.508 113.919 488.633 113.742C488.758 113.56 488.82 113.391 488.82 113.234L489.406 114.25C489.312 114.458 489.198 114.674 489.062 114.898C488.927 115.117 488.755 115.323 488.547 115.516C488.339 115.703 488.086 115.857 487.789 115.977C487.497 116.096 487.146 116.156 486.734 116.156C486.203 116.156 485.721 116.049 485.289 115.836C484.857 115.617 484.51 115.318 484.25 114.938C483.995 114.557 483.867 114.12 483.867 113.625C483.867 113.182 483.948 112.789 484.109 112.445C484.271 112.102 484.513 111.81 484.836 111.57C485.164 111.331 485.576 111.151 486.07 111.031C486.565 110.906 487.143 110.844 487.805 110.844H489.023ZM495.219 109.32V116H492.781V107.547H495.07L495.219 109.32ZM494.906 111.477L494.289 111.492C494.289 110.898 494.359 110.354 494.5 109.859C494.646 109.359 494.857 108.924 495.133 108.555C495.409 108.185 495.75 107.898 496.156 107.695C496.568 107.492 497.042 107.391 497.578 107.391C497.953 107.391 498.294 107.448 498.602 107.562C498.909 107.672 499.172 107.846 499.391 108.086C499.615 108.32 499.786 108.628 499.906 109.008C500.026 109.383 500.086 109.833 500.086 110.359V116H497.648V110.656C497.648 110.281 497.602 109.997 497.508 109.805C497.419 109.607 497.289 109.471 497.117 109.398C496.945 109.326 496.74 109.289 496.5 109.289C496.24 109.289 496.008 109.346 495.805 109.461C495.607 109.57 495.44 109.724 495.305 109.922C495.169 110.12 495.068 110.352 495 110.617C494.938 110.883 494.906 111.169 494.906 111.477ZM499.836 111.352L499.062 111.414C499.062 110.841 499.13 110.31 499.266 109.82C499.401 109.331 499.604 108.906 499.875 108.547C500.146 108.182 500.482 107.898 500.883 107.695C501.289 107.492 501.76 107.391 502.297 107.391C502.693 107.391 503.052 107.448 503.375 107.562C503.703 107.677 503.984 107.862 504.219 108.117C504.458 108.372 504.643 108.708 504.773 109.125C504.904 109.536 504.969 110.042 504.969 110.641V116H502.516V110.641C502.516 110.271 502.469 109.99 502.375 109.797C502.286 109.604 502.156 109.471 501.984 109.398C501.818 109.326 501.617 109.289 501.383 109.289C501.122 109.289 500.896 109.344 500.703 109.453C500.51 109.557 500.349 109.703 500.219 109.891C500.089 110.073 499.992 110.289 499.93 110.539C499.867 110.789 499.836 111.06 499.836 111.352ZM510.586 116.156C509.914 116.156 509.312 116.049 508.781 115.836C508.25 115.622 507.799 115.328 507.43 114.953C507.065 114.573 506.786 114.135 506.594 113.641C506.401 113.146 506.305 112.617 506.305 112.055V111.758C506.305 111.128 506.393 110.547 506.57 110.016C506.747 109.484 507.005 109.023 507.344 108.633C507.688 108.237 508.109 107.932 508.609 107.719C509.109 107.5 509.68 107.391 510.32 107.391C510.919 107.391 511.453 107.49 511.922 107.688C512.391 107.88 512.786 108.159 513.109 108.523C513.432 108.883 513.677 109.318 513.844 109.828C514.016 110.333 514.102 110.901 514.102 111.531V112.531H507.289V110.961H511.711V110.773C511.711 110.477 511.656 110.216 511.547 109.992C511.443 109.768 511.286 109.596 511.078 109.477C510.875 109.352 510.617 109.289 510.305 109.289C510.008 109.289 509.76 109.352 509.562 109.477C509.365 109.602 509.206 109.779 509.086 110.008C508.971 110.232 508.888 110.495 508.836 110.797C508.784 111.094 508.758 111.414 508.758 111.758V112.055C508.758 112.383 508.802 112.682 508.891 112.953C508.979 113.224 509.109 113.456 509.281 113.648C509.453 113.841 509.661 113.992 509.906 114.102C510.151 114.211 510.43 114.266 510.742 114.266C511.128 114.266 511.495 114.193 511.844 114.047C512.193 113.896 512.495 113.661 512.75 113.344L513.891 114.648C513.719 114.898 513.477 115.141 513.164 115.375C512.857 115.604 512.487 115.792 512.055 115.938C511.622 116.083 511.133 116.156 510.586 116.156Z" fill="white"/>
<path d="M152 59C152 54.5817 155.582 51 160 51H344C348.418 51 352 54.5817 352 59V163C352 167.418 348.418 171 344 171H160C155.582 171 152 167.418 152 163V59Z" fill="#6E9777"/>
<path d="M152 59C152 54.5817 155.582 51 160 51H344C348.418 51 352 54.5817 352 59V163C352 167.418 348.418 171 344 171H160C155.582 171 152 167.418 152 163V59Z" fill="#353A3C"/>
<path d="M196.281 112.188H198.812C198.771 112.969 198.557 113.659 198.172 114.258C197.792 114.852 197.263 115.318 196.586 115.656C195.909 115.99 195.104 116.156 194.172 116.156C193.427 116.156 192.76 116.029 192.172 115.773C191.583 115.518 191.083 115.154 190.672 114.68C190.266 114.201 189.953 113.625 189.734 112.953C189.521 112.276 189.414 111.513 189.414 110.664V109.969C189.414 109.12 189.526 108.357 189.75 107.68C189.974 107.003 190.294 106.424 190.711 105.945C191.128 105.466 191.628 105.099 192.211 104.844C192.794 104.589 193.445 104.461 194.164 104.461C195.133 104.461 195.951 104.635 196.617 104.984C197.284 105.333 197.799 105.812 198.164 106.422C198.534 107.031 198.755 107.727 198.828 108.508H196.289C196.268 108.065 196.185 107.693 196.039 107.391C195.893 107.083 195.669 106.852 195.367 106.695C195.065 106.539 194.664 106.461 194.164 106.461C193.799 106.461 193.479 106.529 193.203 106.664C192.932 106.799 192.706 107.01 192.523 107.297C192.346 107.583 192.214 107.948 192.125 108.391C192.036 108.828 191.992 109.349 191.992 109.953V110.664C191.992 111.263 192.031 111.781 192.109 112.219C192.188 112.656 192.312 113.018 192.484 113.305C192.661 113.591 192.888 113.805 193.164 113.945C193.44 114.086 193.776 114.156 194.172 114.156C194.625 114.156 195.003 114.086 195.305 113.945C195.607 113.799 195.839 113.581 196 113.289C196.161 112.997 196.255 112.63 196.281 112.188ZM202.547 109.516V116H200.109V107.547H202.398L202.547 109.516ZM205.07 107.484L205.031 109.758C204.927 109.742 204.792 109.729 204.625 109.719C204.458 109.703 204.315 109.695 204.195 109.695C203.883 109.695 203.612 109.734 203.383 109.812C203.159 109.885 202.971 109.995 202.82 110.141C202.674 110.286 202.565 110.469 202.492 110.688C202.419 110.901 202.383 111.148 202.383 111.43L201.922 111.203C201.922 110.646 201.977 110.135 202.086 109.672C202.195 109.208 202.354 108.807 202.562 108.469C202.771 108.125 203.026 107.859 203.328 107.672C203.63 107.484 203.974 107.391 204.359 107.391C204.484 107.391 204.612 107.398 204.742 107.414C204.872 107.43 204.982 107.453 205.07 107.484ZM209.898 116.156C209.227 116.156 208.625 116.049 208.094 115.836C207.562 115.622 207.112 115.328 206.742 114.953C206.378 114.573 206.099 114.135 205.906 113.641C205.714 113.146 205.617 112.617 205.617 112.055V111.758C205.617 111.128 205.706 110.547 205.883 110.016C206.06 109.484 206.318 109.023 206.656 108.633C207 108.237 207.422 107.932 207.922 107.719C208.422 107.5 208.992 107.391 209.633 107.391C210.232 107.391 210.766 107.49 211.234 107.688C211.703 107.88 212.099 108.159 212.422 108.523C212.745 108.883 212.99 109.318 213.156 109.828C213.328 110.333 213.414 110.901 213.414 111.531V112.531H206.602V110.961H211.023V110.773C211.023 110.477 210.969 110.216 210.859 109.992C210.755 109.768 210.599 109.596 210.391 109.477C210.188 109.352 209.93 109.289 209.617 109.289C209.32 109.289 209.073 109.352 208.875 109.477C208.677 109.602 208.518 109.779 208.398 110.008C208.284 110.232 208.201 110.495 208.148 110.797C208.096 111.094 208.07 111.414 208.07 111.758V112.055C208.07 112.383 208.115 112.682 208.203 112.953C208.292 113.224 208.422 113.456 208.594 113.648C208.766 113.841 208.974 113.992 209.219 114.102C209.464 114.211 209.742 114.266 210.055 114.266C210.44 114.266 210.807 114.193 211.156 114.047C211.505 113.896 211.807 113.661 212.062 113.344L213.203 114.648C213.031 114.898 212.789 115.141 212.477 115.375C212.169 115.604 211.799 115.792 211.367 115.938C210.935 116.083 210.445 116.156 209.898 116.156ZM219.078 113.984V110.359C219.078 110.104 219.039 109.885 218.961 109.703C218.883 109.521 218.76 109.378 218.594 109.273C218.427 109.169 218.211 109.117 217.945 109.117C217.721 109.117 217.526 109.156 217.359 109.234C217.198 109.312 217.073 109.424 216.984 109.57C216.901 109.716 216.859 109.896 216.859 110.109H214.422C214.422 109.729 214.508 109.375 214.68 109.047C214.852 108.719 215.096 108.43 215.414 108.18C215.737 107.93 216.122 107.737 216.57 107.602C217.018 107.461 217.521 107.391 218.078 107.391C218.74 107.391 219.328 107.503 219.844 107.727C220.365 107.945 220.776 108.276 221.078 108.719C221.38 109.156 221.531 109.708 221.531 110.375V113.914C221.531 114.424 221.56 114.826 221.617 115.117C221.68 115.404 221.768 115.654 221.883 115.867V116H219.422C219.307 115.755 219.221 115.453 219.164 115.094C219.107 114.729 219.078 114.359 219.078 113.984ZM219.383 110.844L219.398 112.188H218.188C217.917 112.188 217.682 112.221 217.484 112.289C217.292 112.357 217.135 112.451 217.016 112.57C216.896 112.685 216.807 112.82 216.75 112.977C216.698 113.128 216.672 113.294 216.672 113.477C216.672 113.648 216.714 113.805 216.797 113.945C216.88 114.081 216.995 114.188 217.141 114.266C217.286 114.344 217.456 114.383 217.648 114.383C217.966 114.383 218.237 114.32 218.461 114.195C218.69 114.07 218.867 113.919 218.992 113.742C219.117 113.56 219.18 113.391 219.18 113.234L219.766 114.25C219.672 114.458 219.557 114.674 219.422 114.898C219.286 115.117 219.115 115.323 218.906 115.516C218.698 115.703 218.445 115.857 218.148 115.977C217.857 116.096 217.505 116.156 217.094 116.156C216.562 116.156 216.081 116.049 215.648 115.836C215.216 115.617 214.87 115.318 214.609 114.938C214.354 114.557 214.227 114.12 214.227 113.625C214.227 113.182 214.307 112.789 214.469 112.445C214.63 112.102 214.872 111.81 215.195 111.57C215.523 111.331 215.935 111.151 216.43 111.031C216.924 110.906 217.503 110.844 218.164 110.844H219.383ZM227.43 107.547V109.258H222.414V107.547H227.43ZM223.562 105.453H226.008V113.352C226.008 113.586 226.036 113.766 226.094 113.891C226.151 114.016 226.245 114.104 226.375 114.156C226.505 114.203 226.672 114.227 226.875 114.227C227.021 114.227 227.146 114.221 227.25 114.211C227.354 114.201 227.451 114.188 227.539 114.172V115.938C227.331 116.005 227.109 116.057 226.875 116.094C226.641 116.135 226.385 116.156 226.109 116.156C225.583 116.156 225.128 116.07 224.742 115.898C224.362 115.727 224.07 115.456 223.867 115.086C223.664 114.711 223.562 114.224 223.562 113.625V105.453ZM232.586 116.156C231.914 116.156 231.312 116.049 230.781 115.836C230.25 115.622 229.799 115.328 229.43 114.953C229.065 114.573 228.786 114.135 228.594 113.641C228.401 113.146 228.305 112.617 228.305 112.055V111.758C228.305 111.128 228.393 110.547 228.57 110.016C228.747 109.484 229.005 109.023 229.344 108.633C229.688 108.237 230.109 107.932 230.609 107.719C231.109 107.5 231.68 107.391 232.32 107.391C232.919 107.391 233.453 107.49 233.922 107.688C234.391 107.88 234.786 108.159 235.109 108.523C235.432 108.883 235.677 109.318 235.844 109.828C236.016 110.333 236.102 110.901 236.102 111.531V112.531H229.289V110.961H233.711V110.773C233.711 110.477 233.656 110.216 233.547 109.992C233.443 109.768 233.286 109.596 233.078 109.477C232.875 109.352 232.617 109.289 232.305 109.289C232.008 109.289 231.76 109.352 231.562 109.477C231.365 109.602 231.206 109.779 231.086 110.008C230.971 110.232 230.888 110.495 230.836 110.797C230.784 111.094 230.758 111.414 230.758 111.758V112.055C230.758 112.383 230.802 112.682 230.891 112.953C230.979 113.224 231.109 113.456 231.281 113.648C231.453 113.841 231.661 113.992 231.906 114.102C232.151 114.211 232.43 114.266 232.742 114.266C233.128 114.266 233.495 114.193 233.844 114.047C234.193 113.896 234.495 113.661 234.75 113.344L235.891 114.648C235.719 114.898 235.477 115.141 235.164 115.375C234.857 115.604 234.487 115.792 234.055 115.938C233.622 116.083 233.133 116.156 232.586 116.156ZM243.664 109.352V116H241.219V107.547H243.516L243.664 109.352ZM243.344 111.477L242.734 111.492C242.734 110.857 242.812 110.286 242.969 109.781C243.125 109.276 243.346 108.846 243.633 108.492C243.924 108.133 244.271 107.859 244.672 107.672C245.078 107.484 245.526 107.391 246.016 107.391C246.411 107.391 246.773 107.448 247.102 107.562C247.43 107.677 247.711 107.862 247.945 108.117C248.185 108.367 248.367 108.701 248.492 109.117C248.617 109.529 248.68 110.036 248.68 110.641V116H246.227V110.633C246.227 110.279 246.177 110.005 246.078 109.812C245.979 109.62 245.833 109.484 245.641 109.406C245.453 109.328 245.224 109.289 244.953 109.289C244.667 109.289 244.422 109.346 244.219 109.461C244.016 109.57 243.849 109.724 243.719 109.922C243.589 110.12 243.492 110.352 243.43 110.617C243.372 110.883 243.344 111.169 243.344 111.477ZM254.258 116.156C253.586 116.156 252.984 116.049 252.453 115.836C251.922 115.622 251.471 115.328 251.102 114.953C250.737 114.573 250.458 114.135 250.266 113.641C250.073 113.146 249.977 112.617 249.977 112.055V111.758C249.977 111.128 250.065 110.547 250.242 110.016C250.419 109.484 250.677 109.023 251.016 108.633C251.359 108.237 251.781 107.932 252.281 107.719C252.781 107.5 253.352 107.391 253.992 107.391C254.591 107.391 255.125 107.49 255.594 107.688C256.062 107.88 256.458 108.159 256.781 108.523C257.104 108.883 257.349 109.318 257.516 109.828C257.688 110.333 257.773 110.901 257.773 111.531V112.531H250.961V110.961H255.383V110.773C255.383 110.477 255.328 110.216 255.219 109.992C255.115 109.768 254.958 109.596 254.75 109.477C254.547 109.352 254.289 109.289 253.977 109.289C253.68 109.289 253.432 109.352 253.234 109.477C253.036 109.602 252.878 109.779 252.758 110.008C252.643 110.232 252.56 110.495 252.508 110.797C252.456 111.094 252.43 111.414 252.43 111.758V112.055C252.43 112.383 252.474 112.682 252.562 112.953C252.651 113.224 252.781 113.456 252.953 113.648C253.125 113.841 253.333 113.992 253.578 114.102C253.823 114.211 254.102 114.266 254.414 114.266C254.799 114.266 255.167 114.193 255.516 114.047C255.865 113.896 256.167 113.661 256.422 113.344L257.562 114.648C257.391 114.898 257.148 115.141 256.836 115.375C256.529 115.604 256.159 115.792 255.727 115.938C255.294 116.083 254.805 116.156 254.258 116.156ZM261.453 113.648L263.109 107.547H264.648L264.125 110.266L262.469 116H261.211L261.453 113.648ZM260.695 107.547L261.805 113.625L261.922 116H260.422L258.344 107.547H260.695ZM266.148 113.508L267.25 107.547H269.602L267.539 116H266.039L266.148 113.508ZM264.836 107.547L266.508 113.617L266.75 116H265.477L263.836 110.273L263.336 107.547H264.836ZM274.641 104H277.078V113.992L276.828 116H274.641V104ZM282.352 111.68V111.844C282.352 112.484 282.284 113.068 282.148 113.594C282.018 114.12 281.818 114.576 281.547 114.961C281.276 115.341 280.935 115.635 280.523 115.844C280.112 116.052 279.628 116.156 279.07 116.156C278.555 116.156 278.112 116.049 277.742 115.836C277.372 115.617 277.062 115.315 276.812 114.93C276.562 114.544 276.359 114.094 276.203 113.578C276.052 113.062 275.935 112.508 275.852 111.914V111.633C275.935 111.039 276.052 110.484 276.203 109.969C276.359 109.453 276.562 109.003 276.812 108.617C277.062 108.232 277.37 107.932 277.734 107.719C278.104 107.5 278.544 107.391 279.055 107.391C279.617 107.391 280.104 107.497 280.516 107.711C280.932 107.924 281.276 108.224 281.547 108.609C281.818 108.99 282.018 109.443 282.148 109.969C282.284 110.49 282.352 111.06 282.352 111.68ZM279.914 111.844V111.68C279.914 111.357 279.891 111.052 279.844 110.766C279.802 110.479 279.727 110.227 279.617 110.008C279.513 109.784 279.365 109.609 279.172 109.484C278.984 109.354 278.742 109.289 278.445 109.289C278.154 109.289 277.906 109.339 277.703 109.438C277.5 109.536 277.336 109.677 277.211 109.859C277.086 110.036 276.995 110.253 276.938 110.508C276.88 110.763 276.849 111.047 276.844 111.359V112.188C276.849 112.604 276.904 112.969 277.008 113.281C277.112 113.594 277.281 113.836 277.516 114.008C277.75 114.174 278.065 114.258 278.461 114.258C278.763 114.258 279.008 114.201 279.195 114.086C279.388 113.966 279.534 113.799 279.633 113.586C279.737 113.372 279.81 113.117 279.852 112.82C279.893 112.523 279.914 112.198 279.914 111.844ZM283.297 111.859V111.695C283.297 111.076 283.385 110.505 283.562 109.984C283.74 109.458 284 109.003 284.344 108.617C284.688 108.232 285.109 107.932 285.609 107.719C286.109 107.5 286.682 107.391 287.328 107.391C287.984 107.391 288.562 107.5 289.062 107.719C289.568 107.932 289.992 108.232 290.336 108.617C290.68 109.003 290.94 109.458 291.117 109.984C291.294 110.505 291.383 111.076 291.383 111.695V111.859C291.383 112.474 291.294 113.044 291.117 113.57C290.94 114.091 290.68 114.547 290.336 114.938C289.992 115.323 289.57 115.622 289.07 115.836C288.57 116.049 287.995 116.156 287.344 116.156C286.698 116.156 286.122 116.049 285.617 115.836C285.112 115.622 284.688 115.323 284.344 114.938C284 114.547 283.74 114.091 283.562 113.57C283.385 113.044 283.297 112.474 283.297 111.859ZM285.742 111.695V111.859C285.742 112.193 285.768 112.505 285.82 112.797C285.878 113.089 285.969 113.344 286.094 113.562C286.219 113.781 286.383 113.953 286.586 114.078C286.794 114.198 287.047 114.258 287.344 114.258C287.641 114.258 287.891 114.198 288.094 114.078C288.297 113.953 288.461 113.781 288.586 113.562C288.711 113.344 288.799 113.089 288.852 112.797C288.909 112.505 288.938 112.193 288.938 111.859V111.695C288.938 111.367 288.909 111.06 288.852 110.773C288.799 110.482 288.711 110.224 288.586 110C288.461 109.776 288.294 109.602 288.086 109.477C287.883 109.352 287.63 109.289 287.328 109.289C287.036 109.289 286.789 109.352 286.586 109.477C286.383 109.602 286.219 109.776 286.094 110C285.969 110.224 285.878 110.482 285.82 110.773C285.768 111.06 285.742 111.367 285.742 111.695ZM297.141 113.984V110.359C297.141 110.104 297.102 109.885 297.023 109.703C296.945 109.521 296.823 109.378 296.656 109.273C296.49 109.169 296.273 109.117 296.008 109.117C295.784 109.117 295.589 109.156 295.422 109.234C295.26 109.312 295.135 109.424 295.047 109.57C294.964 109.716 294.922 109.896 294.922 110.109H292.484C292.484 109.729 292.57 109.375 292.742 109.047C292.914 108.719 293.159 108.43 293.477 108.18C293.799 107.93 294.185 107.737 294.633 107.602C295.081 107.461 295.583 107.391 296.141 107.391C296.802 107.391 297.391 107.503 297.906 107.727C298.427 107.945 298.839 108.276 299.141 108.719C299.443 109.156 299.594 109.708 299.594 110.375V113.914C299.594 114.424 299.622 114.826 299.68 115.117C299.742 115.404 299.831 115.654 299.945 115.867V116H297.484C297.37 115.755 297.284 115.453 297.227 115.094C297.169 114.729 297.141 114.359 297.141 113.984ZM297.445 110.844L297.461 112.188H296.25C295.979 112.188 295.745 112.221 295.547 112.289C295.354 112.357 295.198 112.451 295.078 112.57C294.958 112.685 294.87 112.82 294.812 112.977C294.76 113.128 294.734 113.294 294.734 113.477C294.734 113.648 294.776 113.805 294.859 113.945C294.943 114.081 295.057 114.188 295.203 114.266C295.349 114.344 295.518 114.383 295.711 114.383C296.029 114.383 296.299 114.32 296.523 114.195C296.753 114.07 296.93 113.919 297.055 113.742C297.18 113.56 297.242 113.391 297.242 113.234L297.828 114.25C297.734 114.458 297.62 114.674 297.484 114.898C297.349 115.117 297.177 115.323 296.969 115.516C296.76 115.703 296.508 115.857 296.211 115.977C295.919 116.096 295.568 116.156 295.156 116.156C294.625 116.156 294.143 116.049 293.711 115.836C293.279 115.617 292.932 115.318 292.672 114.938C292.417 114.557 292.289 114.12 292.289 113.625C292.289 113.182 292.37 112.789 292.531 112.445C292.693 112.102 292.935 111.81 293.258 111.57C293.586 111.331 293.997 111.151 294.492 111.031C294.987 110.906 295.565 110.844 296.227 110.844H297.445ZM303.641 109.516V116H301.203V107.547H303.492L303.641 109.516ZM306.164 107.484L306.125 109.758C306.021 109.742 305.885 109.729 305.719 109.719C305.552 109.703 305.409 109.695 305.289 109.695C304.977 109.695 304.706 109.734 304.477 109.812C304.253 109.885 304.065 109.995 303.914 110.141C303.768 110.286 303.659 110.469 303.586 110.688C303.513 110.901 303.477 111.148 303.477 111.43L303.016 111.203C303.016 110.646 303.07 110.135 303.18 109.672C303.289 109.208 303.448 108.807 303.656 108.469C303.865 108.125 304.12 107.859 304.422 107.672C304.724 107.484 305.068 107.391 305.453 107.391C305.578 107.391 305.706 107.398 305.836 107.414C305.966 107.43 306.076 107.453 306.164 107.484ZM311.93 114.109V104H314.383V116H312.18L311.93 114.109ZM306.664 111.875V111.711C306.664 111.07 306.734 110.487 306.875 109.961C307.021 109.43 307.232 108.974 307.508 108.594C307.789 108.208 308.135 107.911 308.547 107.703C308.958 107.495 309.43 107.391 309.961 107.391C310.451 107.391 310.878 107.5 311.242 107.719C311.607 107.932 311.917 108.234 312.172 108.625C312.432 109.01 312.643 109.466 312.805 109.992C312.966 110.513 313.089 111.078 313.172 111.688V111.969C313.094 112.552 312.971 113.096 312.805 113.602C312.643 114.107 312.432 114.552 312.172 114.938C311.917 115.318 311.604 115.617 311.234 115.836C310.87 116.049 310.44 116.156 309.945 116.156C309.414 116.156 308.943 116.049 308.531 115.836C308.125 115.622 307.784 115.323 307.508 114.938C307.232 114.552 307.021 114.099 306.875 113.578C306.734 113.057 306.664 112.49 306.664 111.875ZM309.102 111.711V111.875C309.102 112.208 309.125 112.518 309.172 112.805C309.224 113.091 309.307 113.344 309.422 113.562C309.536 113.781 309.688 113.953 309.875 114.078C310.062 114.198 310.292 114.258 310.562 114.258C310.927 114.258 311.227 114.174 311.461 114.008C311.695 113.836 311.872 113.599 311.992 113.297C312.112 112.995 312.174 112.643 312.18 112.242V111.422C312.18 111.089 312.146 110.789 312.078 110.523C312.01 110.258 311.909 110.034 311.773 109.852C311.643 109.669 311.479 109.531 311.281 109.438C311.083 109.339 310.849 109.289 310.578 109.289C310.312 109.289 310.086 109.352 309.898 109.477C309.711 109.596 309.557 109.766 309.438 109.984C309.323 110.203 309.237 110.461 309.18 110.758C309.128 111.049 309.102 111.367 309.102 111.711Z" fill="white"/>
<defs>
<clipPath id="clip0_14_514">
<rect width="1024" height="768" rx="8" fill="white"/>
</clipPath>
<clipPath id="clip1_14_514">
<rect width="32" height="32" fill="white"/>
</clipPath>
</defs>
</svg>
