<svg width="940" height="720" viewBox="0 0 940 720" fill="none" xmlns="http://www.w3.org/2000/svg">
<rect width="940" height="720" fill="url(#paint0_linear_1_31)"/>
<rect x="359" y="129" width="60" height="180" rx="16" fill="#9FE3AE"/>
<rect x="440" y="129" width="60" height="120" rx="16" fill="#7FB58B"/>
<rect x="521" y="129" width="60" height="60" rx="16" fill="#6E9777"/>
<path d="M254.414 366.406L260.059 346.562H262.793L261.211 354.277L255.137 375H252.422L254.414 366.406ZM248.574 346.562L253.066 366.016L254.414 375H251.719L244.824 346.562H248.574ZM270.098 365.996L274.492 346.562H278.262L271.387 375H268.691L270.098 365.996ZM263.203 346.562L268.691 366.406L270.684 375H267.969L262.109 354.277L260.508 346.562H263.203ZM290.039 375.391C288.568 375.391 287.233 375.143 286.035 374.648C284.85 374.141 283.828 373.431 282.969 372.52C282.122 371.608 281.471 370.527 281.016 369.277C280.56 368.027 280.332 366.66 280.332 365.176V364.355C280.332 362.637 280.586 361.107 281.094 359.766C281.602 358.411 282.292 357.266 283.164 356.328C284.036 355.391 285.026 354.681 286.133 354.199C287.24 353.717 288.385 353.477 289.57 353.477C291.081 353.477 292.383 353.737 293.477 354.258C294.583 354.779 295.488 355.508 296.191 356.445C296.895 357.37 297.415 358.464 297.754 359.727C298.092 360.977 298.262 362.344 298.262 363.828V365.449H282.48V362.5H294.648V362.227C294.596 361.289 294.401 360.378 294.062 359.492C293.737 358.607 293.216 357.878 292.5 357.305C291.784 356.732 290.807 356.445 289.57 356.445C288.75 356.445 287.995 356.621 287.305 356.973C286.615 357.311 286.022 357.819 285.527 358.496C285.033 359.173 284.648 360 284.375 360.977C284.102 361.953 283.965 363.079 283.965 364.355V365.176C283.965 366.178 284.102 367.122 284.375 368.008C284.661 368.88 285.072 369.648 285.605 370.312C286.152 370.977 286.81 371.497 287.578 371.875C288.359 372.253 289.245 372.441 290.234 372.441C291.51 372.441 292.591 372.181 293.477 371.66C294.362 371.139 295.137 370.443 295.801 369.57L297.988 371.309C297.533 371.999 296.953 372.656 296.25 373.281C295.547 373.906 294.681 374.414 293.652 374.805C292.637 375.195 291.432 375.391 290.039 375.391ZM306.406 345V375H302.773V345H306.406ZM320.664 372.422C321.523 372.422 322.318 372.246 323.047 371.895C323.776 371.543 324.375 371.061 324.844 370.449C325.312 369.824 325.579 369.115 325.645 368.32H329.082C329.017 369.57 328.594 370.736 327.812 371.816C327.044 372.884 326.035 373.75 324.785 374.414C323.535 375.065 322.161 375.391 320.664 375.391C319.076 375.391 317.689 375.111 316.504 374.551C315.332 373.991 314.355 373.223 313.574 372.246C312.806 371.27 312.227 370.15 311.836 368.887C311.458 367.611 311.27 366.263 311.27 364.844V364.023C311.27 362.604 311.458 361.263 311.836 360C312.227 358.724 312.806 357.598 313.574 356.621C314.355 355.645 315.332 354.876 316.504 354.316C317.689 353.757 319.076 353.477 320.664 353.477C322.318 353.477 323.763 353.815 325 354.492C326.237 355.156 327.207 356.068 327.91 357.227C328.626 358.372 329.017 359.674 329.082 361.133H325.645C325.579 360.26 325.332 359.473 324.902 358.77C324.486 358.066 323.913 357.507 323.184 357.09C322.467 356.66 321.628 356.445 320.664 356.445C319.557 356.445 318.626 356.667 317.871 357.109C317.129 357.539 316.536 358.125 316.094 358.867C315.664 359.596 315.352 360.41 315.156 361.309C314.974 362.194 314.883 363.099 314.883 364.023V364.844C314.883 365.768 314.974 366.68 315.156 367.578C315.339 368.477 315.645 369.29 316.074 370.02C316.517 370.749 317.109 371.335 317.852 371.777C318.607 372.207 319.544 372.422 320.664 372.422ZM332.188 364.668V364.219C332.188 362.695 332.409 361.283 332.852 359.98C333.294 358.665 333.932 357.526 334.766 356.562C335.599 355.586 336.608 354.831 337.793 354.297C338.978 353.75 340.306 353.477 341.777 353.477C343.262 353.477 344.596 353.75 345.781 354.297C346.979 354.831 347.995 355.586 348.828 356.562C349.674 357.526 350.319 358.665 350.762 359.98C351.204 361.283 351.426 362.695 351.426 364.219V364.668C351.426 366.191 351.204 367.604 350.762 368.906C350.319 370.208 349.674 371.348 348.828 372.324C347.995 373.288 346.986 374.043 345.801 374.59C344.629 375.124 343.301 375.391 341.816 375.391C340.332 375.391 338.997 375.124 337.812 374.59C336.628 374.043 335.612 373.288 334.766 372.324C333.932 371.348 333.294 370.208 332.852 368.906C332.409 367.604 332.188 366.191 332.188 364.668ZM335.801 364.219V364.668C335.801 365.723 335.924 366.719 336.172 367.656C336.419 368.581 336.79 369.401 337.285 370.117C337.793 370.833 338.424 371.4 339.18 371.816C339.935 372.22 340.814 372.422 341.816 372.422C342.806 372.422 343.672 372.22 344.414 371.816C345.169 371.4 345.794 370.833 346.289 370.117C346.784 369.401 347.155 368.581 347.402 367.656C347.663 366.719 347.793 365.723 347.793 364.668V364.219C347.793 363.177 347.663 362.194 347.402 361.27C347.155 360.332 346.777 359.505 346.27 358.789C345.775 358.06 345.15 357.487 344.395 357.07C343.652 356.654 342.78 356.445 341.777 356.445C340.788 356.445 339.915 356.654 339.16 357.07C338.418 357.487 337.793 358.06 337.285 358.789C336.79 359.505 336.419 360.332 336.172 361.27C335.924 362.194 335.801 363.177 335.801 364.219ZM359.551 358.066V375H355.918V353.867H359.355L359.551 358.066ZM358.809 363.633L357.129 363.574C357.142 362.129 357.331 360.794 357.695 359.57C358.06 358.333 358.6 357.259 359.316 356.348C360.033 355.436 360.924 354.733 361.992 354.238C363.06 353.73 364.297 353.477 365.703 353.477C366.693 353.477 367.604 353.62 368.438 353.906C369.271 354.18 369.993 354.616 370.605 355.215C371.217 355.814 371.693 356.582 372.031 357.52C372.37 358.457 372.539 359.59 372.539 360.918V375H368.926V361.094C368.926 359.987 368.737 359.102 368.359 358.438C367.995 357.773 367.474 357.292 366.797 356.992C366.12 356.68 365.326 356.523 364.414 356.523C363.346 356.523 362.454 356.712 361.738 357.09C361.022 357.467 360.449 357.988 360.02 358.652C359.59 359.316 359.277 360.078 359.082 360.938C358.9 361.784 358.809 362.682 358.809 363.633ZM372.5 361.641L370.078 362.383C370.091 361.224 370.28 360.111 370.645 359.043C371.022 357.975 371.562 357.025 372.266 356.191C372.982 355.358 373.861 354.701 374.902 354.219C375.944 353.724 377.135 353.477 378.477 353.477C379.609 353.477 380.612 353.626 381.484 353.926C382.37 354.225 383.112 354.688 383.711 355.312C384.323 355.924 384.785 356.712 385.098 357.676C385.41 358.639 385.566 359.785 385.566 361.113V375H381.934V361.074C381.934 359.889 381.745 358.971 381.367 358.32C381.003 357.656 380.482 357.194 379.805 356.934C379.141 356.66 378.346 356.523 377.422 356.523C376.628 356.523 375.924 356.66 375.312 356.934C374.701 357.207 374.186 357.585 373.77 358.066C373.353 358.535 373.034 359.076 372.812 359.688C372.604 360.299 372.5 360.951 372.5 361.641ZM399.805 375.391C398.333 375.391 396.999 375.143 395.801 374.648C394.616 374.141 393.594 373.431 392.734 372.52C391.888 371.608 391.237 370.527 390.781 369.277C390.326 368.027 390.098 366.66 390.098 365.176V364.355C390.098 362.637 390.352 361.107 390.859 359.766C391.367 358.411 392.057 357.266 392.93 356.328C393.802 355.391 394.792 354.681 395.898 354.199C397.005 353.717 398.151 353.477 399.336 353.477C400.846 353.477 402.148 353.737 403.242 354.258C404.349 354.779 405.254 355.508 405.957 356.445C406.66 357.37 407.181 358.464 407.52 359.727C407.858 360.977 408.027 362.344 408.027 363.828V365.449H392.246V362.5H404.414V362.227C404.362 361.289 404.167 360.378 403.828 359.492C403.503 358.607 402.982 357.878 402.266 357.305C401.549 356.732 400.573 356.445 399.336 356.445C398.516 356.445 397.76 356.621 397.07 356.973C396.38 357.311 395.788 357.819 395.293 358.496C394.798 359.173 394.414 360 394.141 360.977C393.867 361.953 393.73 363.079 393.73 364.355V365.176C393.73 366.178 393.867 367.122 394.141 368.008C394.427 368.88 394.837 369.648 395.371 370.312C395.918 370.977 396.576 371.497 397.344 371.875C398.125 372.253 399.01 372.441 400 372.441C401.276 372.441 402.357 372.181 403.242 371.66C404.128 371.139 404.902 370.443 405.566 369.57L407.754 371.309C407.298 371.999 406.719 372.656 406.016 373.281C405.312 373.906 404.447 374.414 403.418 374.805C402.402 375.195 401.198 375.391 399.805 375.391ZM431.016 353.867V356.641H419.59V353.867H431.016ZM423.457 348.73H427.07V369.766C427.07 370.482 427.181 371.022 427.402 371.387C427.624 371.751 427.91 371.992 428.262 372.109C428.613 372.227 428.991 372.285 429.395 372.285C429.694 372.285 430.007 372.259 430.332 372.207C430.671 372.142 430.924 372.09 431.094 372.051L431.113 375C430.827 375.091 430.449 375.176 429.98 375.254C429.525 375.345 428.971 375.391 428.32 375.391C427.435 375.391 426.621 375.215 425.879 374.863C425.137 374.512 424.544 373.926 424.102 373.105C423.672 372.272 423.457 371.152 423.457 369.746V348.73ZM433.906 364.668V364.219C433.906 362.695 434.128 361.283 434.57 359.98C435.013 358.665 435.651 357.526 436.484 356.562C437.318 355.586 438.327 354.831 439.512 354.297C440.697 353.75 442.025 353.477 443.496 353.477C444.98 353.477 446.315 353.75 447.5 354.297C448.698 354.831 449.714 355.586 450.547 356.562C451.393 357.526 452.038 358.665 452.48 359.98C452.923 361.283 453.145 362.695 453.145 364.219V364.668C453.145 366.191 452.923 367.604 452.48 368.906C452.038 370.208 451.393 371.348 450.547 372.324C449.714 373.288 448.704 374.043 447.52 374.59C446.348 375.124 445.02 375.391 443.535 375.391C442.051 375.391 440.716 375.124 439.531 374.59C438.346 374.043 437.331 373.288 436.484 372.324C435.651 371.348 435.013 370.208 434.57 368.906C434.128 367.604 433.906 366.191 433.906 364.668ZM437.52 364.219V364.668C437.52 365.723 437.643 366.719 437.891 367.656C438.138 368.581 438.509 369.401 439.004 370.117C439.512 370.833 440.143 371.4 440.898 371.816C441.654 372.22 442.533 372.422 443.535 372.422C444.525 372.422 445.391 372.22 446.133 371.816C446.888 371.4 447.513 370.833 448.008 370.117C448.503 369.401 448.874 368.581 449.121 367.656C449.382 366.719 449.512 365.723 449.512 364.668V364.219C449.512 363.177 449.382 362.194 449.121 361.27C448.874 360.332 448.496 359.505 447.988 358.789C447.493 358.06 446.868 357.487 446.113 357.07C445.371 356.654 444.499 356.445 443.496 356.445C442.507 356.445 441.634 356.654 440.879 357.07C440.137 357.487 439.512 358.06 439.004 358.789C438.509 359.505 438.138 360.332 437.891 361.27C437.643 362.194 437.52 363.177 437.52 364.219Z" fill="#DBDBDB"/>
<path d="M475.439 375C474.826 375 474.292 374.773 473.839 374.32C473.412 373.867 473.199 373.333 473.199 372.72V348.08C473.199 347.467 473.412 346.933 473.839 346.48C474.292 346.027 474.826 345.8 475.439 345.8H476.519C477.132 345.8 477.666 346.027 478.119 346.48C478.572 346.933 478.799 347.467 478.799 348.08V358.44C478.799 358.467 478.812 358.48 478.839 358.48C478.866 358.48 478.879 358.467 478.879 358.44L486.919 347.64C487.799 346.413 488.999 345.8 490.519 345.8H492.519C492.972 345.8 493.306 346.013 493.519 346.44C493.732 346.867 493.692 347.253 493.399 347.6L484.199 359.52C484.066 359.707 484.066 359.893 484.199 360.08L493.839 373.16C494.132 373.533 494.172 373.933 493.959 374.36C493.746 374.787 493.399 375 492.919 375H490.919C489.399 375 488.212 374.387 487.359 373.16L478.879 361.16C478.879 361.133 478.866 361.12 478.839 361.12C478.812 361.12 478.799 361.133 478.799 361.16V372.72C478.799 373.333 478.572 373.867 478.119 374.32C477.666 374.773 477.132 375 476.519 375H475.439ZM508.825 350.76L505.305 363.32C505.278 363.4 505.292 363.48 505.345 363.56C505.398 363.64 505.465 363.68 505.545 363.68H512.185C512.265 363.68 512.332 363.64 512.385 363.56C512.438 363.48 512.452 363.4 512.425 363.32L508.905 350.76C508.905 350.733 508.892 350.72 508.865 350.72C508.838 350.72 508.825 350.733 508.825 350.76ZM498.465 375C497.905 375 497.465 374.773 497.145 374.32C496.825 373.867 496.758 373.373 496.945 372.84L505.225 347.96C505.465 347.32 505.852 346.8 506.385 346.4C506.945 346 507.558 345.8 508.225 345.8H509.665C510.358 345.8 510.972 346 511.505 346.4C512.065 346.8 512.452 347.32 512.665 347.96L520.945 372.84C521.132 373.373 521.065 373.867 520.745 374.32C520.425 374.773 519.985 375 519.425 375H517.985C517.345 375 516.745 374.8 516.185 374.4C515.652 373.973 515.292 373.44 515.105 372.8L513.825 368.28C513.798 368.067 513.652 367.96 513.385 367.96H504.345C504.105 367.96 503.958 368.067 503.905 368.28L502.625 372.8C502.465 373.44 502.105 373.973 501.545 374.4C501.012 374.8 500.412 375 499.745 375H498.465ZM530.438 350.36V359.04C530.438 359.253 530.558 359.36 530.798 359.36H532.798C537.544 359.36 539.918 357.667 539.918 354.28C539.918 351.267 537.718 349.76 533.318 349.76C532.518 349.76 531.678 349.827 530.798 349.96C530.558 350.013 530.438 350.147 530.438 350.36ZM527.198 375C526.584 375 526.051 374.773 525.598 374.32C525.144 373.867 524.918 373.333 524.918 372.72V348.28C524.918 347.64 525.131 347.067 525.558 346.56C525.984 346.053 526.518 345.773 527.158 345.72C529.424 345.507 531.611 345.4 533.718 345.4C537.638 345.4 540.571 346.133 542.518 347.6C544.464 349.04 545.438 351.08 545.438 353.72C545.438 355.613 544.918 357.28 543.878 358.72C542.864 360.16 541.491 361.173 539.758 361.76C539.731 361.76 539.718 361.773 539.718 361.8C539.718 361.853 539.731 361.88 539.758 361.88C541.038 362.68 542.131 364.253 543.038 366.6L545.438 372.88C545.624 373.387 545.558 373.867 545.238 374.32C544.944 374.773 544.531 375 543.998 375H542.758C542.064 375 541.438 374.813 540.878 374.44C540.318 374.04 539.918 373.52 539.678 372.88L537.438 366.72C536.958 365.44 536.411 364.6 535.798 364.2C535.184 363.8 534.131 363.6 532.638 363.6H530.798C530.558 363.6 530.438 363.72 530.438 363.96V372.72C530.438 373.333 530.211 373.867 529.758 374.32C529.331 374.773 528.811 375 528.198 375H527.198ZM560.7 350.76L557.18 363.32C557.153 363.4 557.167 363.48 557.22 363.56C557.273 363.64 557.34 363.68 557.42 363.68H564.06C564.14 363.68 564.207 363.64 564.26 363.56C564.313 363.48 564.327 363.4 564.3 363.32L560.78 350.76C560.78 350.733 560.767 350.72 560.74 350.72C560.713 350.72 560.7 350.733 560.7 350.76ZM550.34 375C549.78 375 549.34 374.773 549.02 374.32C548.7 373.867 548.633 373.373 548.82 372.84L557.1 347.96C557.34 347.32 557.727 346.8 558.26 346.4C558.82 346 559.433 345.8 560.1 345.8H561.54C562.233 345.8 562.847 346 563.38 346.4C563.94 346.8 564.327 347.32 564.54 347.96L572.82 372.84C573.007 373.373 572.94 373.867 572.62 374.32C572.3 374.773 571.86 375 571.3 375H569.86C569.22 375 568.62 374.8 568.06 374.4C567.527 373.973 567.167 373.44 566.98 372.8L565.7 368.28C565.673 368.067 565.527 367.96 565.26 367.96H556.22C555.98 367.96 555.833 368.067 555.78 368.28L554.5 372.8C554.34 373.44 553.98 373.973 553.42 374.4C552.887 374.8 552.287 375 551.62 375H550.34ZM590.4 375C589.787 375 589.253 374.773 588.8 374.32C588.373 373.867 588.16 373.333 588.16 372.72V348.08C588.16 347.467 588.373 346.933 588.8 346.48C589.253 346.027 589.787 345.8 590.4 345.8H591.48C592.093 345.8 592.627 346.027 593.08 346.48C593.533 346.933 593.76 347.467 593.76 348.08V358.44C593.76 358.467 593.773 358.48 593.8 358.48C593.827 358.48 593.84 358.467 593.84 358.44L601.88 347.64C602.76 346.413 603.96 345.8 605.48 345.8H607.48C607.933 345.8 608.267 346.013 608.48 346.44C608.693 346.867 608.653 347.253 608.36 347.6L599.16 359.52C599.027 359.707 599.027 359.893 599.16 360.08L608.8 373.16C609.093 373.533 609.133 373.933 608.92 374.36C608.707 374.787 608.36 375 607.88 375H605.88C604.36 375 603.173 374.387 602.32 373.16L593.84 361.16C593.84 361.133 593.827 361.12 593.8 361.12C593.773 361.12 593.76 361.133 593.76 361.16V372.72C593.76 373.333 593.533 373.867 593.08 374.32C592.627 374.773 592.093 375 591.48 375H590.4ZM623.786 350.76L620.266 363.32C620.239 363.4 620.253 363.48 620.306 363.56C620.359 363.64 620.426 363.68 620.506 363.68H627.146C627.226 363.68 627.293 363.64 627.346 363.56C627.399 363.48 627.413 363.4 627.386 363.32L623.866 350.76C623.866 350.733 623.853 350.72 623.826 350.72C623.799 350.72 623.786 350.733 623.786 350.76ZM613.426 375C612.866 375 612.426 374.773 612.106 374.32C611.786 373.867 611.719 373.373 611.906 372.84L620.186 347.96C620.426 347.32 620.813 346.8 621.346 346.4C621.906 346 622.519 345.8 623.186 345.8H624.626C625.319 345.8 625.933 346 626.466 346.4C627.026 346.8 627.413 347.32 627.626 347.96L635.906 372.84C636.093 373.373 636.026 373.867 635.706 374.32C635.386 374.773 634.946 375 634.386 375H632.946C632.306 375 631.706 374.8 631.146 374.4C630.613 373.973 630.253 373.44 630.066 372.8L628.786 368.28C628.759 368.067 628.613 367.96 628.346 367.96H619.306C619.066 367.96 618.919 368.067 618.866 368.28L617.586 372.8C617.426 373.44 617.066 373.973 616.506 374.4C615.973 374.8 615.373 375 614.706 375H613.426ZM642.159 375C641.545 375 641.012 374.773 640.559 374.32C640.105 373.867 639.879 373.333 639.879 372.72V348.08C639.879 347.467 640.105 346.933 640.559 346.48C641.012 346.027 641.545 345.8 642.159 345.8H643.159C643.852 345.8 644.492 345.987 645.079 346.36C645.665 346.733 646.092 347.227 646.359 347.84L653.359 362.96C653.359 362.987 653.372 363 653.399 363C653.425 363 653.439 362.987 653.439 362.96L660.439 347.84C660.705 347.227 661.132 346.733 661.719 346.36C662.305 345.987 662.945 345.8 663.639 345.8H664.799C665.412 345.8 665.945 346.027 666.399 346.48C666.852 346.933 667.079 347.467 667.079 348.08V372.72C667.079 373.333 666.852 373.867 666.399 374.32C665.945 374.773 665.412 375 664.799 375H663.919C663.305 375 662.772 374.773 662.319 374.32C661.865 373.867 661.639 373.333 661.639 372.72V355.32C661.639 355.293 661.625 355.28 661.599 355.28C661.572 355.28 661.559 355.293 661.559 355.32L656.759 365.6C656.465 366.213 656.012 366.72 655.399 367.12C654.812 367.493 654.185 367.68 653.519 367.68H653.279C652.612 367.68 651.972 367.493 651.359 367.12C650.772 366.72 650.332 366.213 650.039 365.6L645.239 355.32C645.239 355.293 645.225 355.28 645.199 355.28C645.172 355.28 645.159 355.293 645.159 355.32V372.72C645.159 373.333 644.932 373.867 644.479 374.32C644.025 374.773 643.492 375 642.879 375H642.159ZM683.434 350.76L679.914 363.32C679.888 363.4 679.901 363.48 679.954 363.56C680.008 363.64 680.074 363.68 680.154 363.68H686.794C686.874 363.68 686.941 363.64 686.994 363.56C687.048 363.48 687.061 363.4 687.034 363.32L683.514 350.76C683.514 350.733 683.501 350.72 683.474 350.72C683.448 350.72 683.434 350.733 683.434 350.76ZM673.074 375C672.514 375 672.074 374.773 671.754 374.32C671.434 373.867 671.368 373.373 671.554 372.84L679.834 347.96C680.074 347.32 680.461 346.8 680.994 346.4C681.554 346 682.168 345.8 682.834 345.8H684.274C684.968 345.8 685.581 346 686.114 346.4C686.674 346.8 687.061 347.32 687.274 347.96L695.554 372.84C695.741 373.373 695.674 373.867 695.354 374.32C695.034 374.773 694.594 375 694.034 375H692.594C691.954 375 691.354 374.8 690.794 374.4C690.261 373.973 689.901 373.44 689.714 372.8L688.434 368.28C688.408 368.067 688.261 367.96 687.994 367.96H678.954C678.714 367.96 678.568 368.067 678.514 368.28L677.234 372.8C677.074 373.44 676.714 373.973 676.154 374.4C675.621 374.8 675.021 375 674.354 375H673.074Z" fill="url(#paint1_linear_1_31)"/>
<path d="M85.4688 434.988V436.277C85.4688 437.996 85.2344 439.539 84.7656 440.906C84.2969 442.26 83.6263 443.419 82.7539 444.383C81.8815 445.333 80.8333 446.062 79.6094 446.57C78.3984 447.065 77.0443 447.312 75.5469 447.312C74.0755 447.312 72.7279 447.065 71.5039 446.57C70.293 446.062 69.2383 445.333 68.3398 444.383C67.4544 443.419 66.7708 442.26 66.2891 440.906C65.8073 439.539 65.5664 437.996 65.5664 436.277V434.988C65.5664 433.27 65.8073 431.733 66.2891 430.379C66.7708 429.012 67.4479 427.846 68.3203 426.883C69.2057 425.919 70.2539 425.19 71.4648 424.695C72.6888 424.188 74.0365 423.934 75.5078 423.934C77.0182 423.934 78.3789 424.188 79.5898 424.695C80.8138 425.19 81.862 425.919 82.7344 426.883C83.6198 427.846 84.2969 429.012 84.7656 430.379C85.2344 431.733 85.4688 433.27 85.4688 434.988ZM81.8945 436.277V434.949C81.8945 433.66 81.7513 432.521 81.4648 431.531C81.1784 430.542 80.7617 429.708 80.2148 429.031C79.668 428.354 78.9974 427.84 78.2031 427.488C77.4089 427.137 76.5104 426.961 75.5078 426.961C74.5443 426.961 73.6719 427.137 72.8906 427.488C72.1094 427.84 71.4388 428.354 70.8789 429.031C70.332 429.708 69.9089 430.542 69.6094 431.531C69.3099 432.521 69.1602 433.66 69.1602 434.949V436.277C69.1602 437.566 69.3099 438.712 69.6094 439.715C69.9089 440.704 70.3385 441.544 70.8984 442.234C71.4583 442.911 72.1289 443.426 72.9102 443.777C73.7044 444.129 74.5833 444.305 75.5469 444.305C76.5625 444.305 77.4609 444.129 78.2422 443.777C79.0234 443.426 79.6875 442.911 80.2344 442.234C80.7812 441.544 81.1914 440.704 81.4648 439.715C81.7513 438.712 81.8945 437.566 81.8945 436.277ZM93.6914 424.246V447H90.0781V424.246H93.6914ZM103.848 434.266V437.234H92.832V434.266H103.848ZM105.391 424.246V427.234H92.832V424.246H105.391ZM112.676 424.246V447H109.062V424.246H112.676ZM122.832 434.266V437.234H111.816V434.266H122.832ZM124.375 424.246V427.234H111.816V424.246H124.375ZM131.914 424.246V447H128.301V424.246H131.914ZM152.227 439.637H155.859C155.703 441.108 155.254 442.423 154.512 443.582C153.783 444.741 152.747 445.652 151.406 446.316C150.078 446.98 148.431 447.312 146.465 447.312C144.993 447.312 143.665 447.065 142.48 446.57C141.296 446.062 140.28 445.346 139.434 444.422C138.587 443.484 137.936 442.358 137.48 441.043C137.025 439.728 136.797 438.257 136.797 436.629V434.637C136.797 433.009 137.025 431.538 137.48 430.223C137.936 428.908 138.594 427.781 139.453 426.844C140.312 425.906 141.348 425.19 142.559 424.695C143.783 424.188 145.15 423.934 146.66 423.934C148.561 423.934 150.163 424.266 151.465 424.93C152.767 425.581 153.783 426.492 154.512 427.664C155.254 428.836 155.703 430.184 155.859 431.707H152.227C152.096 430.704 151.829 429.845 151.426 429.129C151.022 428.413 150.436 427.866 149.668 427.488C148.9 427.098 147.897 426.902 146.66 426.902C145.632 426.902 144.727 427.078 143.945 427.43C143.164 427.768 142.507 428.276 141.973 428.953C141.452 429.617 141.055 430.424 140.781 431.375C140.521 432.326 140.391 433.406 140.391 434.617V436.629C140.391 437.775 140.508 438.823 140.742 439.773C140.99 440.711 141.361 441.525 141.855 442.215C142.35 442.905 142.982 443.439 143.75 443.816C144.518 444.181 145.423 444.363 146.465 444.363C147.767 444.363 148.809 444.181 149.59 443.816C150.371 443.452 150.964 442.918 151.367 442.215C151.784 441.499 152.07 440.639 152.227 439.637ZM163.906 424.246V447H160.293V424.246H163.906ZM178.73 427.43L170.977 447H167.285L176.641 424.246H179.004L178.73 427.43ZM185.43 447L177.734 427.352L177.48 424.246H179.863L189.102 447H185.43ZM184.902 438.582V441.551H171.387V438.582H184.902ZM207.227 444.031V447H194.961V444.031H207.227ZM195.84 424.246V447H192.227V424.246H195.84ZM233.672 441.18C233.672 440.698 233.587 440.268 233.418 439.891C233.262 439.5 232.988 439.148 232.598 438.836C232.207 438.51 231.667 438.211 230.977 437.938C230.286 437.664 229.414 437.404 228.359 437.156C227.096 436.844 225.957 436.486 224.941 436.082C223.926 435.665 223.053 435.184 222.324 434.637C221.608 434.077 221.055 433.432 220.664 432.703C220.286 431.974 220.098 431.134 220.098 430.184C220.098 429.272 220.299 428.439 220.703 427.684C221.107 426.915 221.68 426.251 222.422 425.691C223.164 425.132 224.056 424.702 225.098 424.402C226.139 424.09 227.298 423.934 228.574 423.934C230.397 423.934 231.953 424.253 233.242 424.891C234.544 425.516 235.54 426.355 236.23 427.41C236.921 428.452 237.266 429.604 237.266 430.867H233.633C233.633 430.099 233.444 429.415 233.066 428.816C232.702 428.217 232.142 427.749 231.387 427.41C230.645 427.059 229.694 426.883 228.535 426.883C227.454 426.883 226.556 427.026 225.84 427.312C225.124 427.599 224.59 427.99 224.238 428.484C223.887 428.979 223.711 429.539 223.711 430.164C223.711 430.607 223.815 431.01 224.023 431.375C224.232 431.74 224.564 432.072 225.02 432.371C225.475 432.671 226.068 432.957 226.797 433.23C227.526 433.504 228.411 433.771 229.453 434.031C230.716 434.344 231.836 434.715 232.812 435.145C233.789 435.574 234.609 436.076 235.273 436.648C235.951 437.221 236.458 437.879 236.797 438.621C237.148 439.363 237.324 440.203 237.324 441.141C237.324 442.091 237.116 442.951 236.699 443.719C236.296 444.474 235.71 445.118 234.941 445.652C234.186 446.186 233.275 446.596 232.207 446.883C231.152 447.169 229.98 447.312 228.691 447.312C227.546 447.312 226.413 447.169 225.293 446.883C224.186 446.583 223.177 446.141 222.266 445.555C221.367 444.956 220.651 444.214 220.117 443.328C219.583 442.43 219.316 441.382 219.316 440.184H222.949C222.949 440.939 223.099 441.583 223.398 442.117C223.698 442.651 224.115 443.087 224.648 443.426C225.182 443.751 225.794 443.992 226.484 444.148C227.174 444.305 227.91 444.383 228.691 444.383C229.772 444.383 230.684 444.253 231.426 443.992C232.168 443.719 232.728 443.341 233.105 442.859C233.483 442.378 233.672 441.818 233.672 441.18ZM250.762 424.246V447H247.168V424.246H250.762ZM258.555 424.246V427.234H239.414V424.246H258.555ZM275.977 424.246H279.609V439.48C279.609 441.199 279.199 442.645 278.379 443.816C277.572 444.975 276.484 445.848 275.117 446.434C273.763 447.02 272.266 447.312 270.625 447.312C268.919 447.312 267.389 447.02 266.035 446.434C264.694 445.848 263.633 444.975 262.852 443.816C262.07 442.645 261.68 441.199 261.68 439.48V424.246H265.254V439.48C265.254 440.6 265.475 441.525 265.918 442.254C266.374 442.97 267.005 443.504 267.812 443.855C268.62 444.194 269.557 444.363 270.625 444.363C271.706 444.363 272.643 444.194 273.438 443.855C274.245 443.504 274.87 442.97 275.312 442.254C275.755 441.525 275.977 440.6 275.977 439.48V424.246ZM291.367 447H286.211L286.23 444.031H291.367C293.047 444.031 294.44 443.719 295.547 443.094C296.667 442.469 297.5 441.577 298.047 440.418C298.594 439.246 298.867 437.859 298.867 436.258V434.969C298.867 433.732 298.711 432.632 298.398 431.668C298.086 430.704 297.624 429.897 297.012 429.246C296.4 428.582 295.638 428.081 294.727 427.742C293.828 427.404 292.786 427.234 291.602 427.234H286.094V424.246H291.602C293.216 424.246 294.688 424.5 296.016 425.008C297.357 425.503 298.509 426.225 299.473 427.176C300.436 428.113 301.178 429.246 301.699 430.574C302.22 431.889 302.48 433.367 302.48 435.008V436.258C302.48 438.432 302.018 440.327 301.094 441.941C300.182 443.556 298.893 444.806 297.227 445.691C295.573 446.564 293.62 447 291.367 447ZM288.184 424.246V447H284.57V424.246H288.184ZM322.773 444.031V447H309.805V444.031H322.773ZM310.684 424.246V447H307.07V424.246H310.684ZM321.074 433.758V436.707H309.805V433.758H321.074ZM322.656 424.246V427.234H309.805V424.246H322.656ZM345.586 424.246V447H341.973L330.176 429.891V447H326.562V424.246H330.176L341.973 441.355V424.246H345.586ZM360.449 424.246V447H356.855V424.246H360.449ZM368.242 424.246V427.234H349.102V424.246H368.242ZM384.766 441.18C384.766 440.698 384.681 440.268 384.512 439.891C384.355 439.5 384.082 439.148 383.691 438.836C383.301 438.51 382.76 438.211 382.07 437.938C381.38 437.664 380.508 437.404 379.453 437.156C378.19 436.844 377.051 436.486 376.035 436.082C375.02 435.665 374.147 435.184 373.418 434.637C372.702 434.077 372.148 433.432 371.758 432.703C371.38 431.974 371.191 431.134 371.191 430.184C371.191 429.272 371.393 428.439 371.797 427.684C372.201 426.915 372.773 426.251 373.516 425.691C374.258 425.132 375.15 424.702 376.191 424.402C377.233 424.09 378.392 423.934 379.668 423.934C381.491 423.934 383.047 424.253 384.336 424.891C385.638 425.516 386.634 426.355 387.324 427.41C388.014 428.452 388.359 429.604 388.359 430.867H384.727C384.727 430.099 384.538 429.415 384.16 428.816C383.796 428.217 383.236 427.749 382.48 427.41C381.738 427.059 380.788 426.883 379.629 426.883C378.548 426.883 377.65 427.026 376.934 427.312C376.217 427.599 375.684 427.99 375.332 428.484C374.98 428.979 374.805 429.539 374.805 430.164C374.805 430.607 374.909 431.01 375.117 431.375C375.326 431.74 375.658 432.072 376.113 432.371C376.569 432.671 377.161 432.957 377.891 433.23C378.62 433.504 379.505 433.771 380.547 434.031C381.81 434.344 382.93 434.715 383.906 435.145C384.883 435.574 385.703 436.076 386.367 436.648C387.044 437.221 387.552 437.879 387.891 438.621C388.242 439.363 388.418 440.203 388.418 441.141C388.418 442.091 388.21 442.951 387.793 443.719C387.389 444.474 386.803 445.118 386.035 445.652C385.28 446.186 384.368 446.596 383.301 446.883C382.246 447.169 381.074 447.312 379.785 447.312C378.639 447.312 377.507 447.169 376.387 446.883C375.28 446.583 374.271 446.141 373.359 445.555C372.461 444.956 371.745 444.214 371.211 443.328C370.677 442.43 370.41 441.382 370.41 440.184H374.043C374.043 440.939 374.193 441.583 374.492 442.117C374.792 442.651 375.208 443.087 375.742 443.426C376.276 443.751 376.888 443.992 377.578 444.148C378.268 444.305 379.004 444.383 379.785 444.383C380.866 444.383 381.777 444.253 382.52 443.992C383.262 443.719 383.822 443.341 384.199 442.859C384.577 442.378 384.766 441.818 384.766 441.18ZM411.465 438.445H404.98V435.457H411.465C412.663 435.457 413.633 435.288 414.375 434.949C415.117 434.598 415.664 434.122 416.016 433.523C416.367 432.924 416.543 432.234 416.543 431.453C416.543 430.711 416.367 430.021 416.016 429.383C415.664 428.745 415.117 428.23 414.375 427.84C413.633 427.436 412.663 427.234 411.465 427.234H405.957V447H402.344V424.246H411.465C413.327 424.246 414.902 424.559 416.191 425.184C417.493 425.796 418.477 426.642 419.141 427.723C419.818 428.79 420.156 430.021 420.156 431.414C420.156 432.508 419.967 433.491 419.59 434.363C419.212 435.223 418.652 435.958 417.91 436.57C417.168 437.182 416.257 437.651 415.176 437.977C414.095 438.289 412.858 438.445 411.465 438.445ZM424.16 424.246H432.48C433.861 424.246 435.091 424.402 436.172 424.715C437.253 425.014 438.164 425.457 438.906 426.043C439.648 426.629 440.208 427.352 440.586 428.211C440.977 429.07 441.172 430.06 441.172 431.18C441.172 432.299 440.944 433.296 440.488 434.168C440.046 435.027 439.401 435.757 438.555 436.355C437.721 436.941 436.725 437.391 435.566 437.703L434.492 438.23H426.797L426.758 435.262H432.578C433.685 435.262 434.603 435.092 435.332 434.754C436.061 434.402 436.608 433.934 436.973 433.348C437.35 432.749 437.539 432.078 437.539 431.336C437.539 430.516 437.363 429.799 437.012 429.188C436.66 428.576 436.107 428.1 435.352 427.762C434.609 427.41 433.652 427.234 432.48 427.234H427.793V447H424.16V424.246ZM438.32 447L432.461 436.863L436.27 436.844L442.207 446.805V447H438.32ZM464.688 434.988V436.277C464.688 437.996 464.453 439.539 463.984 440.906C463.516 442.26 462.845 443.419 461.973 444.383C461.1 445.333 460.052 446.062 458.828 446.57C457.617 447.065 456.263 447.312 454.766 447.312C453.294 447.312 451.947 447.065 450.723 446.57C449.512 446.062 448.457 445.333 447.559 444.383C446.673 443.419 445.99 442.26 445.508 440.906C445.026 439.539 444.785 437.996 444.785 436.277V434.988C444.785 433.27 445.026 431.733 445.508 430.379C445.99 429.012 446.667 427.846 447.539 426.883C448.424 425.919 449.473 425.19 450.684 424.695C451.908 424.188 453.255 423.934 454.727 423.934C456.237 423.934 457.598 424.188 458.809 424.695C460.033 425.19 461.081 425.919 461.953 426.883C462.839 427.846 463.516 429.012 463.984 430.379C464.453 431.733 464.688 433.27 464.688 434.988ZM461.113 436.277V434.949C461.113 433.66 460.97 432.521 460.684 431.531C460.397 430.542 459.98 429.708 459.434 429.031C458.887 428.354 458.216 427.84 457.422 427.488C456.628 427.137 455.729 426.961 454.727 426.961C453.763 426.961 452.891 427.137 452.109 427.488C451.328 427.84 450.658 428.354 450.098 429.031C449.551 429.708 449.128 430.542 448.828 431.531C448.529 432.521 448.379 433.66 448.379 434.949V436.277C448.379 437.566 448.529 438.712 448.828 439.715C449.128 440.704 449.557 441.544 450.117 442.234C450.677 442.911 451.348 443.426 452.129 443.777C452.923 444.129 453.802 444.305 454.766 444.305C455.781 444.305 456.68 444.129 457.461 443.777C458.242 443.426 458.906 442.911 459.453 442.234C460 441.544 460.41 440.704 460.684 439.715C460.97 438.712 461.113 437.566 461.113 436.277ZM479.453 440.379V424.246H483.086V440.379C483.086 441.824 482.754 443.068 482.09 444.109C481.439 445.138 480.54 445.932 479.395 446.492C478.262 447.039 476.966 447.312 475.508 447.312C473.971 447.312 472.591 447.072 471.367 446.59C470.156 446.095 469.199 445.346 468.496 444.344C467.793 443.341 467.441 442.072 467.441 440.535H471.074C471.074 441.434 471.257 442.169 471.621 442.742C471.986 443.302 472.5 443.712 473.164 443.973C473.841 444.233 474.622 444.363 475.508 444.363C476.289 444.363 476.973 444.207 477.559 443.895C478.158 443.569 478.62 443.113 478.945 442.527C479.284 441.928 479.453 441.212 479.453 440.379ZM504.062 444.031V447H491.094V444.031H504.062ZM491.973 424.246V447H488.359V424.246H491.973ZM502.363 433.758V436.707H491.094V433.758H502.363ZM503.945 424.246V427.234H491.094V424.246H503.945ZM522.461 439.637H526.094C525.938 441.108 525.488 442.423 524.746 443.582C524.017 444.741 522.982 445.652 521.641 446.316C520.312 446.98 518.665 447.312 516.699 447.312C515.228 447.312 513.9 447.065 512.715 446.57C511.53 446.062 510.514 445.346 509.668 444.422C508.822 443.484 508.171 442.358 507.715 441.043C507.259 439.728 507.031 438.257 507.031 436.629V434.637C507.031 433.009 507.259 431.538 507.715 430.223C508.171 428.908 508.828 427.781 509.688 426.844C510.547 425.906 511.582 425.19 512.793 424.695C514.017 424.188 515.384 423.934 516.895 423.934C518.796 423.934 520.397 424.266 521.699 424.93C523.001 425.581 524.017 426.492 524.746 427.664C525.488 428.836 525.938 430.184 526.094 431.707H522.461C522.331 430.704 522.064 429.845 521.66 429.129C521.257 428.413 520.671 427.866 519.902 427.488C519.134 427.098 518.132 426.902 516.895 426.902C515.866 426.902 514.961 427.078 514.18 427.43C513.398 427.768 512.741 428.276 512.207 428.953C511.686 429.617 511.289 430.424 511.016 431.375C510.755 432.326 510.625 433.406 510.625 434.617V436.629C510.625 437.775 510.742 438.823 510.977 439.773C511.224 440.711 511.595 441.525 512.09 442.215C512.585 442.905 513.216 443.439 513.984 443.816C514.753 444.181 515.658 444.363 516.699 444.363C518.001 444.363 519.043 444.181 519.824 443.816C520.605 443.452 521.198 442.918 521.602 442.215C522.018 441.499 522.305 440.639 522.461 439.637ZM539.707 424.246V447H536.113V424.246H539.707ZM547.5 424.246V427.234H528.359V424.246H547.5ZM570.41 424.246V447H566.816V424.246H570.41ZM578.203 424.246V427.234H559.062V424.246H578.203ZM600.82 434.988V436.277C600.82 437.996 600.586 439.539 600.117 440.906C599.648 442.26 598.978 443.419 598.105 444.383C597.233 445.333 596.185 446.062 594.961 446.57C593.75 447.065 592.396 447.312 590.898 447.312C589.427 447.312 588.079 447.065 586.855 446.57C585.645 446.062 584.59 445.333 583.691 444.383C582.806 443.419 582.122 442.26 581.641 440.906C581.159 439.539 580.918 437.996 580.918 436.277V434.988C580.918 433.27 581.159 431.733 581.641 430.379C582.122 429.012 582.799 427.846 583.672 426.883C584.557 425.919 585.605 425.19 586.816 424.695C588.04 424.188 589.388 423.934 590.859 423.934C592.37 423.934 593.73 424.188 594.941 424.695C596.165 425.19 597.214 425.919 598.086 426.883C598.971 427.846 599.648 429.012 600.117 430.379C600.586 431.733 600.82 433.27 600.82 434.988ZM597.246 436.277V434.949C597.246 433.66 597.103 432.521 596.816 431.531C596.53 430.542 596.113 429.708 595.566 429.031C595.02 428.354 594.349 427.84 593.555 427.488C592.76 427.137 591.862 426.961 590.859 426.961C589.896 426.961 589.023 427.137 588.242 427.488C587.461 427.84 586.79 428.354 586.23 429.031C585.684 429.708 585.26 430.542 584.961 431.531C584.661 432.521 584.512 433.66 584.512 434.949V436.277C584.512 437.566 584.661 438.712 584.961 439.715C585.26 440.704 585.69 441.544 586.25 442.234C586.81 442.911 587.48 443.426 588.262 443.777C589.056 444.129 589.935 444.305 590.898 444.305C591.914 444.305 592.812 444.129 593.594 443.777C594.375 443.426 595.039 442.911 595.586 442.234C596.133 441.544 596.543 440.704 596.816 439.715C597.103 438.712 597.246 437.566 597.246 436.277ZM634.414 434.988V436.277C634.414 437.996 634.18 439.539 633.711 440.906C633.242 442.26 632.572 443.419 631.699 444.383C630.827 445.333 629.779 446.062 628.555 446.57C627.344 447.065 625.99 447.312 624.492 447.312C623.021 447.312 621.673 447.065 620.449 446.57C619.238 446.062 618.184 445.333 617.285 444.383C616.4 443.419 615.716 442.26 615.234 440.906C614.753 439.539 614.512 437.996 614.512 436.277V434.988C614.512 433.27 614.753 431.733 615.234 430.379C615.716 429.012 616.393 427.846 617.266 426.883C618.151 425.919 619.199 425.19 620.41 424.695C621.634 424.188 622.982 423.934 624.453 423.934C625.964 423.934 627.324 424.188 628.535 424.695C629.759 425.19 630.807 425.919 631.68 426.883C632.565 427.846 633.242 429.012 633.711 430.379C634.18 431.733 634.414 433.27 634.414 434.988ZM630.84 436.277V434.949C630.84 433.66 630.697 432.521 630.41 431.531C630.124 430.542 629.707 429.708 629.16 429.031C628.613 428.354 627.943 427.84 627.148 427.488C626.354 427.137 625.456 426.961 624.453 426.961C623.49 426.961 622.617 427.137 621.836 427.488C621.055 427.84 620.384 428.354 619.824 429.031C619.277 429.708 618.854 430.542 618.555 431.531C618.255 432.521 618.105 433.66 618.105 434.949V436.277C618.105 437.566 618.255 438.712 618.555 439.715C618.854 440.704 619.284 441.544 619.844 442.234C620.404 442.911 621.074 443.426 621.855 443.777C622.65 444.129 623.529 444.305 624.492 444.305C625.508 444.305 626.406 444.129 627.188 443.777C627.969 443.426 628.633 442.911 629.18 442.234C629.727 441.544 630.137 440.704 630.41 439.715C630.697 438.712 630.84 437.566 630.84 436.277ZM639.004 424.246H647.324C648.704 424.246 649.935 424.402 651.016 424.715C652.096 425.014 653.008 425.457 653.75 426.043C654.492 426.629 655.052 427.352 655.43 428.211C655.82 429.07 656.016 430.06 656.016 431.18C656.016 432.299 655.788 433.296 655.332 434.168C654.889 435.027 654.245 435.757 653.398 436.355C652.565 436.941 651.569 437.391 650.41 437.703L649.336 438.23H641.641L641.602 435.262H647.422C648.529 435.262 649.447 435.092 650.176 434.754C650.905 434.402 651.452 433.934 651.816 433.348C652.194 432.749 652.383 432.078 652.383 431.336C652.383 430.516 652.207 429.799 651.855 429.188C651.504 428.576 650.951 428.1 650.195 427.762C649.453 427.41 648.496 427.234 647.324 427.234H642.637V447H639.004V424.246ZM653.164 447L647.305 436.863L651.113 436.844L657.051 446.805V447H653.164ZM678.809 435.438V444.07C678.483 444.487 677.975 444.949 677.285 445.457C676.608 445.965 675.677 446.401 674.492 446.766C673.32 447.13 671.823 447.312 670 447.312C668.49 447.312 667.103 447.072 665.84 446.59C664.59 446.095 663.503 445.385 662.578 444.461C661.667 443.523 660.957 442.384 660.449 441.043C659.954 439.689 659.707 438.152 659.707 436.434V434.793C659.707 433.087 659.928 431.564 660.371 430.223C660.814 428.882 661.458 427.742 662.305 426.805C663.164 425.867 664.206 425.158 665.43 424.676C666.667 424.181 668.066 423.934 669.629 423.934C671.556 423.934 673.158 424.246 674.434 424.871C675.723 425.483 676.719 426.329 677.422 427.41C678.138 428.491 678.594 429.728 678.789 431.121H675.215C675.072 430.327 674.792 429.611 674.375 428.973C673.958 428.335 673.366 427.833 672.598 427.469C671.842 427.091 670.866 426.902 669.668 426.902C668.6 426.902 667.669 427.078 666.875 427.43C666.081 427.781 665.417 428.296 664.883 428.973C664.362 429.65 663.971 430.477 663.711 431.453C663.464 432.417 663.34 433.517 663.34 434.754V436.434C663.34 437.697 663.496 438.823 663.809 439.812C664.121 440.789 664.57 441.616 665.156 442.293C665.755 442.97 666.465 443.484 667.285 443.836C668.118 444.188 669.049 444.363 670.078 444.363C671.693 444.363 672.871 444.194 673.613 443.855C674.355 443.504 674.883 443.185 675.195 442.898V438.25H669.707V435.438H678.809ZM692.949 427.43L685.195 447H681.504L690.859 424.246H693.223L692.949 427.43ZM699.648 447L691.953 427.352L691.699 424.246H694.082L703.32 447H699.648ZM699.121 438.582V441.551H685.605V438.582H699.121ZM725.469 424.246V447H721.855L710.059 429.891V447H706.445V424.246H710.059L721.855 441.355V424.246H725.469ZM734.766 424.246V447H731.152V424.246H734.766ZM757.148 444.031V447H740.391V444.031H757.148ZM756.66 426.59L741.504 447H739.16V444.578L754.355 424.246H756.66V426.59ZM755.234 424.246V427.215H739.336V424.246H755.234ZM776.875 444.031V447H763.906V444.031H776.875ZM764.785 424.246V447H761.172V424.246H764.785ZM775.176 433.758V436.707H763.906V433.758H775.176ZM776.758 424.246V427.234H763.906V424.246H776.758ZM797.188 437.527L804.355 424.246H808.418L799.922 439.246H797.715L797.188 437.527ZM792.207 424.246L799.414 437.625L798.828 439.246H796.66L788.145 424.246H792.207ZM800.02 436.395V447H796.426V436.395H800.02ZM830.508 434.988V436.277C830.508 437.996 830.273 439.539 829.805 440.906C829.336 442.26 828.665 443.419 827.793 444.383C826.921 445.333 825.872 446.062 824.648 446.57C823.438 447.065 822.083 447.312 820.586 447.312C819.115 447.312 817.767 447.065 816.543 446.57C815.332 446.062 814.277 445.333 813.379 444.383C812.493 443.419 811.81 442.26 811.328 440.906C810.846 439.539 810.605 437.996 810.605 436.277V434.988C810.605 433.27 810.846 431.733 811.328 430.379C811.81 429.012 812.487 427.846 813.359 426.883C814.245 425.919 815.293 425.19 816.504 424.695C817.728 424.188 819.076 423.934 820.547 423.934C822.057 423.934 823.418 424.188 824.629 424.695C825.853 425.19 826.901 425.919 827.773 426.883C828.659 427.846 829.336 429.012 829.805 430.379C830.273 431.733 830.508 433.27 830.508 434.988ZM826.934 436.277V434.949C826.934 433.66 826.79 432.521 826.504 431.531C826.217 430.542 825.801 429.708 825.254 429.031C824.707 428.354 824.036 427.84 823.242 427.488C822.448 427.137 821.549 426.961 820.547 426.961C819.583 426.961 818.711 427.137 817.93 427.488C817.148 427.84 816.478 428.354 815.918 429.031C815.371 429.708 814.948 430.542 814.648 431.531C814.349 432.521 814.199 433.66 814.199 434.949V436.277C814.199 437.566 814.349 438.712 814.648 439.715C814.948 440.704 815.378 441.544 815.938 442.234C816.497 442.911 817.168 443.426 817.949 443.777C818.743 444.129 819.622 444.305 820.586 444.305C821.602 444.305 822.5 444.129 823.281 443.777C824.062 443.426 824.727 442.911 825.273 442.234C825.82 441.544 826.23 440.704 826.504 439.715C826.79 438.712 826.934 437.566 826.934 436.277ZM848.984 424.246H852.617V439.48C852.617 441.199 852.207 442.645 851.387 443.816C850.579 444.975 849.492 445.848 848.125 446.434C846.771 447.02 845.273 447.312 843.633 447.312C841.927 447.312 840.397 447.02 839.043 446.434C837.702 445.848 836.641 444.975 835.859 443.816C835.078 442.645 834.688 441.199 834.688 439.48V424.246H838.262V439.48C838.262 440.6 838.483 441.525 838.926 442.254C839.382 442.97 840.013 443.504 840.82 443.855C841.628 444.194 842.565 444.363 843.633 444.363C844.714 444.363 845.651 444.194 846.445 443.855C847.253 443.504 847.878 442.97 848.32 442.254C848.763 441.525 848.984 440.6 848.984 439.48V424.246ZM857.559 424.246H865.879C867.259 424.246 868.49 424.402 869.57 424.715C870.651 425.014 871.562 425.457 872.305 426.043C873.047 426.629 873.607 427.352 873.984 428.211C874.375 429.07 874.57 430.06 874.57 431.18C874.57 432.299 874.342 433.296 873.887 434.168C873.444 435.027 872.799 435.757 871.953 436.355C871.12 436.941 870.124 437.391 868.965 437.703L867.891 438.23H860.195L860.156 435.262H865.977C867.083 435.262 868.001 435.092 868.73 434.754C869.46 434.402 870.007 433.934 870.371 433.348C870.749 432.749 870.938 432.078 870.938 431.336C870.938 430.516 870.762 429.799 870.41 429.188C870.059 428.576 869.505 428.1 868.75 427.762C868.008 427.41 867.051 427.234 865.879 427.234H861.191V447H857.559V424.246ZM871.719 447L865.859 436.863L869.668 436.844L875.605 446.805V447H871.719ZM322.148 464.246V487H318.555V464.246H322.148ZM329.941 464.246V467.234H310.801V464.246H329.941ZM349.199 484.031V487H336.23V484.031H349.199ZM337.109 464.246V487H333.496V464.246H337.109ZM347.5 473.758V476.707H336.23V473.758H347.5ZM349.082 464.246V467.234H336.23V464.246H349.082ZM362.109 467.43L354.355 487H350.664L360.02 464.246H362.383L362.109 467.43ZM368.809 487L361.113 467.352L360.859 464.246H363.242L372.48 487H368.809ZM368.281 478.582V481.551H354.766V478.582H368.281ZM376.875 464.246H380.273L387.91 482.039L395.527 464.246H398.926L389.219 487H386.582L376.875 464.246ZM375.605 464.246H378.672L379.199 479.148V487H375.605V464.246ZM397.148 464.246H400.234V487H396.621V479.148L397.148 464.246ZM409.336 457V459.5C409.336 460.281 409.199 461.108 408.926 461.98C408.665 462.84 408.281 463.673 407.773 464.48C407.266 465.275 406.654 465.971 405.938 466.57L403.867 465.145C404.479 464.285 404.941 463.406 405.254 462.508C405.579 461.596 405.742 460.613 405.742 459.559V457H409.336ZM426.621 481.18C426.621 480.698 426.536 480.268 426.367 479.891C426.211 479.5 425.938 479.148 425.547 478.836C425.156 478.51 424.616 478.211 423.926 477.938C423.236 477.664 422.363 477.404 421.309 477.156C420.046 476.844 418.906 476.486 417.891 476.082C416.875 475.665 416.003 475.184 415.273 474.637C414.557 474.077 414.004 473.432 413.613 472.703C413.236 471.974 413.047 471.134 413.047 470.184C413.047 469.272 413.249 468.439 413.652 467.684C414.056 466.915 414.629 466.251 415.371 465.691C416.113 465.132 417.005 464.702 418.047 464.402C419.089 464.09 420.247 463.934 421.523 463.934C423.346 463.934 424.902 464.253 426.191 464.891C427.493 465.516 428.49 466.355 429.18 467.41C429.87 468.452 430.215 469.604 430.215 470.867H426.582C426.582 470.099 426.393 469.415 426.016 468.816C425.651 468.217 425.091 467.749 424.336 467.41C423.594 467.059 422.643 466.883 421.484 466.883C420.404 466.883 419.505 467.026 418.789 467.312C418.073 467.599 417.539 467.99 417.188 468.484C416.836 468.979 416.66 469.539 416.66 470.164C416.66 470.607 416.764 471.01 416.973 471.375C417.181 471.74 417.513 472.072 417.969 472.371C418.424 472.671 419.017 472.957 419.746 473.23C420.475 473.504 421.361 473.771 422.402 474.031C423.665 474.344 424.785 474.715 425.762 475.145C426.738 475.574 427.559 476.076 428.223 476.648C428.9 477.221 429.408 477.879 429.746 478.621C430.098 479.363 430.273 480.203 430.273 481.141C430.273 482.091 430.065 482.951 429.648 483.719C429.245 484.474 428.659 485.118 427.891 485.652C427.135 486.186 426.224 486.596 425.156 486.883C424.102 487.169 422.93 487.312 421.641 487.312C420.495 487.312 419.362 487.169 418.242 486.883C417.135 486.583 416.126 486.141 415.215 485.555C414.316 484.956 413.6 484.214 413.066 483.328C412.533 482.43 412.266 481.382 412.266 480.184H415.898C415.898 480.939 416.048 481.583 416.348 482.117C416.647 482.651 417.064 483.087 417.598 483.426C418.132 483.751 418.743 483.992 419.434 484.148C420.124 484.305 420.859 484.383 421.641 484.383C422.721 484.383 423.633 484.253 424.375 483.992C425.117 483.719 425.677 483.341 426.055 482.859C426.432 482.378 426.621 481.818 426.621 481.18ZM450.41 481.57L455.254 464.246H457.773L456.875 469.07L451.641 487H449.18L450.41 481.57ZM446.035 464.246L449.922 481.238L450.742 487H448.262L442.441 464.246H446.035ZM463.75 481.199L467.598 464.246H471.191L465.371 487H462.891L463.75 481.199ZM458.477 464.246L463.242 481.629L464.453 487H461.992L456.914 469.07L455.996 464.246H458.477ZM493.691 474.988V476.277C493.691 477.996 493.457 479.539 492.988 480.906C492.52 482.26 491.849 483.419 490.977 484.383C490.104 485.333 489.056 486.062 487.832 486.57C486.621 487.065 485.267 487.312 483.77 487.312C482.298 487.312 480.951 487.065 479.727 486.57C478.516 486.062 477.461 485.333 476.562 484.383C475.677 483.419 474.993 482.26 474.512 480.906C474.03 479.539 473.789 477.996 473.789 476.277V474.988C473.789 473.27 474.03 471.733 474.512 470.379C474.993 469.012 475.671 467.846 476.543 466.883C477.428 465.919 478.477 465.19 479.688 464.695C480.911 464.188 482.259 463.934 483.73 463.934C485.241 463.934 486.602 464.188 487.812 464.695C489.036 465.19 490.085 465.919 490.957 466.883C491.842 467.846 492.52 469.012 492.988 470.379C493.457 471.733 493.691 473.27 493.691 474.988ZM490.117 476.277V474.949C490.117 473.66 489.974 472.521 489.688 471.531C489.401 470.542 488.984 469.708 488.438 469.031C487.891 468.354 487.22 467.84 486.426 467.488C485.632 467.137 484.733 466.961 483.73 466.961C482.767 466.961 481.895 467.137 481.113 467.488C480.332 467.84 479.661 468.354 479.102 469.031C478.555 469.708 478.132 470.542 477.832 471.531C477.533 472.521 477.383 473.66 477.383 474.949V476.277C477.383 477.566 477.533 478.712 477.832 479.715C478.132 480.704 478.561 481.544 479.121 482.234C479.681 482.911 480.352 483.426 481.133 483.777C481.927 484.129 482.806 484.305 483.77 484.305C484.785 484.305 485.684 484.129 486.465 483.777C487.246 483.426 487.91 482.911 488.457 482.234C489.004 481.544 489.414 480.704 489.688 479.715C489.974 478.712 490.117 477.566 490.117 476.277ZM498.281 464.246H506.602C507.982 464.246 509.212 464.402 510.293 464.715C511.374 465.014 512.285 465.457 513.027 466.043C513.77 466.629 514.329 467.352 514.707 468.211C515.098 469.07 515.293 470.06 515.293 471.18C515.293 472.299 515.065 473.296 514.609 474.168C514.167 475.027 513.522 475.757 512.676 476.355C511.842 476.941 510.846 477.391 509.688 477.703L508.613 478.23H500.918L500.879 475.262H506.699C507.806 475.262 508.724 475.092 509.453 474.754C510.182 474.402 510.729 473.934 511.094 473.348C511.471 472.749 511.66 472.078 511.66 471.336C511.66 470.516 511.484 469.799 511.133 469.188C510.781 468.576 510.228 468.1 509.473 467.762C508.73 467.41 507.773 467.234 506.602 467.234H501.914V487H498.281V464.246ZM512.441 487L506.582 476.863L510.391 476.844L516.328 486.805V487H512.441ZM523.359 464.246V487H519.746V464.246H523.359ZM538.086 464.246L528.027 475.125L522.402 480.555L521.699 476.883L525.898 472.273L533.633 464.246H538.086ZM534.336 487L525.684 476.141L528.086 473.562L538.73 487H534.336ZM545.039 464.246V487H541.426V464.246H545.039ZM555.195 474.266V477.234H544.18V474.266H555.195ZM556.738 464.246V467.234H544.18V464.246H556.738ZM575.41 484.031V487H563.145V484.031H575.41ZM564.023 464.246V487H560.41V464.246H564.023ZM597.676 474.988V476.277C597.676 477.996 597.441 479.539 596.973 480.906C596.504 482.26 595.833 483.419 594.961 484.383C594.089 485.333 593.04 486.062 591.816 486.57C590.605 487.065 589.251 487.312 587.754 487.312C586.283 487.312 584.935 487.065 583.711 486.57C582.5 486.062 581.445 485.333 580.547 484.383C579.661 483.419 578.978 482.26 578.496 480.906C578.014 479.539 577.773 477.996 577.773 476.277V474.988C577.773 473.27 578.014 471.733 578.496 470.379C578.978 469.012 579.655 467.846 580.527 466.883C581.413 465.919 582.461 465.19 583.672 464.695C584.896 464.188 586.243 463.934 587.715 463.934C589.225 463.934 590.586 464.188 591.797 464.695C593.021 465.19 594.069 465.919 594.941 466.883C595.827 467.846 596.504 469.012 596.973 470.379C597.441 471.733 597.676 473.27 597.676 474.988ZM594.102 476.277V474.949C594.102 473.66 593.958 472.521 593.672 471.531C593.385 470.542 592.969 469.708 592.422 469.031C591.875 468.354 591.204 467.84 590.41 467.488C589.616 467.137 588.717 466.961 587.715 466.961C586.751 466.961 585.879 467.137 585.098 467.488C584.316 467.84 583.646 468.354 583.086 469.031C582.539 469.708 582.116 470.542 581.816 471.531C581.517 472.521 581.367 473.66 581.367 474.949V476.277C581.367 477.566 581.517 478.712 581.816 479.715C582.116 480.704 582.546 481.544 583.105 482.234C583.665 482.911 584.336 483.426 585.117 483.777C585.911 484.129 586.79 484.305 587.754 484.305C588.77 484.305 589.668 484.129 590.449 483.777C591.23 483.426 591.895 482.911 592.441 482.234C592.988 481.544 593.398 480.704 593.672 479.715C593.958 478.712 594.102 477.566 594.102 476.277ZM608.496 481.57L613.34 464.246H615.859L614.961 469.07L609.727 487H607.266L608.496 481.57ZM604.121 464.246L608.008 481.238L608.828 487H606.348L600.527 464.246H604.121ZM621.836 481.199L625.684 464.246H629.277L623.457 487H620.977L621.836 481.199ZM616.562 464.246L621.328 481.629L622.539 487H620.078L615 469.07L614.082 464.246H616.562Z" fill="#CBCBCB"/>
<g filter="url(#filter0_d_1_31)">
<rect x="205" y="573" width="540" height="80" rx="15" fill="#7FB58B"/>
</g>
<path d="M372.773 612.469V623.328C372.37 623.862 371.738 624.448 370.879 625.086C370.033 625.711 368.906 626.251 367.5 626.707C366.094 627.163 364.342 627.391 362.246 627.391C360.462 627.391 358.828 627.091 357.344 626.492C355.859 625.88 354.577 624.988 353.496 623.816C352.428 622.645 351.602 621.219 351.016 619.539C350.43 617.846 350.137 615.919 350.137 613.758V611.785C350.137 609.637 350.404 607.723 350.938 606.043C351.484 604.35 352.266 602.918 353.281 601.746C354.297 600.574 355.521 599.689 356.953 599.09C358.398 598.478 360.033 598.172 361.855 598.172C364.186 598.172 366.113 598.562 367.637 599.344C369.173 600.112 370.358 601.18 371.191 602.547C372.025 603.914 372.552 605.477 372.773 607.234H367.969C367.812 606.245 367.507 605.359 367.051 604.578C366.608 603.797 365.97 603.185 365.137 602.742C364.316 602.286 363.249 602.059 361.934 602.059C360.801 602.059 359.805 602.273 358.945 602.703C358.086 603.133 357.37 603.764 356.797 604.598C356.237 605.431 355.814 606.447 355.527 607.645C355.241 608.842 355.098 610.21 355.098 611.746V613.758C355.098 615.32 355.26 616.707 355.586 617.918C355.924 619.129 356.406 620.151 357.031 620.984C357.669 621.818 358.444 622.449 359.355 622.879C360.267 623.296 361.296 623.504 362.441 623.504C363.561 623.504 364.479 623.413 365.195 623.23C365.911 623.035 366.478 622.807 366.895 622.547C367.324 622.273 367.656 622.013 367.891 621.766V616.121H361.973V612.469H372.773ZM396.816 623.113V627H381.719V623.113H396.816ZM383.105 598.562V627H378.203V598.562H383.105ZM394.844 610.438V614.266H381.719V610.438H394.844ZM396.719 598.562V602.469H381.719V598.562H396.719ZM412.91 598.562V627H408.047V598.562H412.91ZM421.836 598.562V602.469H399.199V598.562H421.836ZM449.57 619.676C449.57 619.09 449.479 618.569 449.297 618.113C449.128 617.658 448.822 617.241 448.379 616.863C447.936 616.486 447.311 616.121 446.504 615.77C445.71 615.405 444.694 615.034 443.457 614.656C442.103 614.24 440.853 613.777 439.707 613.27C438.574 612.749 437.585 612.15 436.738 611.473C435.892 610.783 435.234 609.995 434.766 609.109C434.297 608.211 434.062 607.176 434.062 606.004C434.062 604.845 434.303 603.79 434.785 602.84C435.28 601.889 435.977 601.069 436.875 600.379C437.786 599.676 438.861 599.135 440.098 598.758C441.335 598.367 442.702 598.172 444.199 598.172C446.309 598.172 448.125 598.562 449.648 599.344C451.185 600.125 452.363 601.173 453.184 602.488C454.017 603.803 454.434 605.255 454.434 606.844H449.57C449.57 605.906 449.368 605.079 448.965 604.363C448.574 603.634 447.975 603.061 447.168 602.645C446.374 602.228 445.365 602.02 444.141 602.02C442.982 602.02 442.018 602.195 441.25 602.547C440.482 602.898 439.909 603.374 439.531 603.973C439.154 604.572 438.965 605.249 438.965 606.004C438.965 606.538 439.089 607.026 439.336 607.469C439.583 607.898 439.961 608.302 440.469 608.68C440.977 609.044 441.615 609.389 442.383 609.715C443.151 610.04 444.056 610.353 445.098 610.652C446.673 611.121 448.047 611.642 449.219 612.215C450.391 612.775 451.367 613.413 452.148 614.129C452.93 614.845 453.516 615.659 453.906 616.57C454.297 617.469 454.492 618.491 454.492 619.637C454.492 620.835 454.251 621.915 453.77 622.879C453.288 623.829 452.598 624.643 451.699 625.32C450.814 625.984 449.746 626.499 448.496 626.863C447.259 627.215 445.879 627.391 444.355 627.391C442.988 627.391 441.641 627.208 440.312 626.844C438.997 626.479 437.799 625.926 436.719 625.184C435.638 624.428 434.779 623.491 434.141 622.371C433.503 621.238 433.184 619.917 433.184 618.406H438.086C438.086 619.331 438.242 620.118 438.555 620.77C438.88 621.421 439.329 621.954 439.902 622.371C440.475 622.775 441.139 623.074 441.895 623.27C442.663 623.465 443.483 623.562 444.355 623.562C445.501 623.562 446.458 623.4 447.227 623.074C448.008 622.749 448.594 622.293 448.984 621.707C449.375 621.121 449.57 620.444 449.57 619.676ZM470.527 598.562V627H465.664V598.562H470.527ZM479.453 598.562V602.469H456.816V598.562H479.453ZM492.402 602.352L483.906 627H478.77L489.473 598.562H492.754L492.402 602.352ZM499.512 627L490.996 602.352L490.625 598.562H493.926L504.668 627H499.512ZM499.102 616.453V620.34H483.633V616.453H499.102ZM507.852 598.562H517.91C520.072 598.562 521.914 598.888 523.438 599.539C524.961 600.19 526.126 601.154 526.934 602.43C527.754 603.693 528.164 605.255 528.164 607.117C528.164 608.536 527.904 609.786 527.383 610.867C526.862 611.948 526.126 612.859 525.176 613.602C524.225 614.331 523.092 614.897 521.777 615.301L520.293 616.023H511.25L511.211 612.137H517.988C519.16 612.137 520.137 611.928 520.918 611.512C521.699 611.095 522.285 610.529 522.676 609.812C523.079 609.083 523.281 608.263 523.281 607.352C523.281 606.362 523.086 605.503 522.695 604.773C522.318 604.031 521.732 603.465 520.938 603.074C520.143 602.671 519.134 602.469 517.91 602.469H512.754V627H507.852V598.562ZM524.082 627L517.402 614.227L522.539 614.207L529.316 626.746V627H524.082ZM543.418 598.562V627H538.555V598.562H543.418ZM552.344 598.562V602.469H529.707V598.562H552.344ZM574.707 623.113V627H559.609V623.113H574.707ZM560.996 598.562V627H556.094V598.562H560.996ZM572.734 610.438V614.266H559.609V610.438H572.734ZM574.609 598.562V602.469H559.609V598.562H574.609ZM586.973 627H580.898L580.938 623.113H586.973C588.73 623.113 590.202 622.729 591.387 621.961C592.585 621.193 593.483 620.092 594.082 618.66C594.694 617.228 595 615.522 595 613.543V612C595 610.464 594.824 609.103 594.473 607.918C594.134 606.733 593.626 605.737 592.949 604.93C592.285 604.122 591.465 603.51 590.488 603.094C589.525 602.677 588.411 602.469 587.148 602.469H580.781V598.562H587.148C589.036 598.562 590.762 598.882 592.324 599.52C593.887 600.145 595.234 601.049 596.367 602.234C597.513 603.419 598.392 604.839 599.004 606.492C599.616 608.146 599.922 609.995 599.922 612.039V613.543C599.922 615.587 599.616 617.436 599.004 619.09C598.392 620.743 597.513 622.163 596.367 623.348C595.221 624.52 593.854 625.424 592.266 626.062C590.69 626.688 588.926 627 586.973 627ZM583.613 598.562V627H578.711V598.562H583.613Z" fill="#F5F5F5"/>
<defs>
<filter id="filter0_d_1_31" x="173" y="571" width="604" height="144" filterUnits="userSpaceOnUse" color-interpolation-filters="sRGB">
<feFlood flood-opacity="0" result="BackgroundImageFix"/>
<feColorMatrix in="SourceAlpha" type="matrix" values="0 0 0 0 0 0 0 0 0 0 0 0 0 0 0 0 0 0 127 0" result="hardAlpha"/>
<feOffset dy="30"/>
<feGaussianBlur stdDeviation="16"/>
<feComposite in2="hardAlpha" operator="out"/>
<feColorMatrix type="matrix" values="0 0 0 0 0 0 0 0 0 0 0 0 0 0 0 0 0 0 0.2 0"/>
<feBlend mode="normal" in2="BackgroundImageFix" result="effect1_dropShadow_1_31"/>
<feBlend mode="normal" in="SourceGraphic" in2="effect1_dropShadow_1_31" result="shape"/>
</filter>
<linearGradient id="paint0_linear_1_31" x1="470" y1="720" x2="470" y2="-2.87261e-06" gradientUnits="userSpaceOnUse">
<stop stop-color="#484F51"/>
<stop offset="1" stop-color="#3A3F41"/>
</linearGradient>
<linearGradient id="paint1_linear_1_31" x1="0" y1="361" x2="940" y2="361" gradientUnits="userSpaceOnUse">
<stop stop-color="#9FE3AE"/>
<stop offset="1" stop-color="#6E9777"/>
</linearGradient>
</defs>
</svg>
