<svg width="180" height="360" viewBox="0 0 180 360" fill="none" xmlns="http://www.w3.org/2000/svg">
<g filter="url(#filter0_i_15_513)">
<rect width="180" height="360" rx="4" fill="#3F4547"/>
<path d="M0 4C0 1.79086 1.79086 0 4 0H176C178.209 0 180 1.79086 180 4V40H0V4Z" fill="#353A3B"/>
<path d="M11.4209 15.8906V23H9.95605L7.09961 18.2344V23H5.63477V15.8906H7.09961L9.96094 20.6611V15.8906H11.4209ZM12.3828 20.4121V20.3096C12.3828 19.9222 12.4382 19.5658 12.5488 19.2402C12.6595 18.9115 12.8206 18.6266 13.0322 18.3857C13.2438 18.1449 13.5042 17.9577 13.8135 17.8242C14.1227 17.6875 14.4775 17.6191 14.8779 17.6191C15.2783 17.6191 15.6348 17.6875 15.9473 17.8242C16.2598 17.9577 16.5218 18.1449 16.7334 18.3857C16.9482 18.6266 17.111 18.9115 17.2217 19.2402C17.3324 19.5658 17.3877 19.9222 17.3877 20.3096V20.4121C17.3877 20.7962 17.3324 21.1527 17.2217 21.4814C17.111 21.807 16.9482 22.0918 16.7334 22.3359C16.5218 22.5768 16.2614 22.764 15.9521 22.8975C15.6429 23.0309 15.2881 23.0977 14.8877 23.0977C14.4873 23.0977 14.1309 23.0309 13.8184 22.8975C13.5091 22.764 13.2471 22.5768 13.0322 22.3359C12.8206 22.0918 12.6595 21.807 12.5488 21.4814C12.4382 21.1527 12.3828 20.7962 12.3828 20.4121ZM13.7891 20.3096V20.4121C13.7891 20.6335 13.8086 20.8402 13.8477 21.0322C13.8867 21.2243 13.9486 21.3936 14.0332 21.54C14.1211 21.6833 14.235 21.7956 14.375 21.877C14.515 21.9583 14.6859 21.999 14.8877 21.999C15.083 21.999 15.2507 21.9583 15.3906 21.877C15.5306 21.7956 15.6429 21.6833 15.7275 21.54C15.8122 21.3936 15.874 21.2243 15.9131 21.0322C15.9554 20.8402 15.9766 20.6335 15.9766 20.4121V20.3096C15.9766 20.0947 15.9554 19.8929 15.9131 19.7041C15.874 19.512 15.8105 19.3428 15.7227 19.1963C15.638 19.0465 15.5257 18.9294 15.3857 18.8447C15.2458 18.7601 15.0765 18.7178 14.8779 18.7178C14.6794 18.7178 14.5101 18.7601 14.3701 18.8447C14.2334 18.9294 14.1211 19.0465 14.0332 19.1963C13.9486 19.3428 13.8867 19.512 13.8477 19.7041C13.8086 19.8929 13.7891 20.0947 13.7891 20.3096ZM20.8398 17.7168V18.7129H17.7637V17.7168H20.8398ZM18.5254 16.4131H19.9316V21.4082C19.9316 21.5612 19.9512 21.6784 19.9902 21.7598C20.0326 21.8411 20.0944 21.8981 20.1758 21.9307C20.2572 21.96 20.3597 21.9746 20.4834 21.9746C20.5713 21.9746 20.6494 21.9714 20.7178 21.9648C20.7894 21.9551 20.8496 21.9453 20.8984 21.9355L20.9033 22.9707C20.7829 23.0098 20.6527 23.0407 20.5127 23.0635C20.3727 23.0863 20.2181 23.0977 20.0488 23.0977C19.7396 23.0977 19.4694 23.0472 19.2383 22.9463C19.0104 22.8421 18.8346 22.6761 18.7109 22.4482C18.5872 22.2204 18.5254 21.9209 18.5254 21.5498V16.4131ZM23.125 17.7168V23H21.7139V17.7168H23.125ZM21.626 16.3398C21.626 16.1348 21.6976 15.9655 21.8408 15.832C21.984 15.6986 22.1761 15.6318 22.417 15.6318C22.6546 15.6318 22.8451 15.6986 22.9883 15.832C23.1348 15.9655 23.208 16.1348 23.208 16.3398C23.208 16.5449 23.1348 16.7142 22.9883 16.8477C22.8451 16.9811 22.6546 17.0479 22.417 17.0479C22.1761 17.0479 21.984 16.9811 21.8408 16.8477C21.6976 16.7142 21.626 16.5449 21.626 16.3398ZM26.0449 23H24.6338V17.4775C24.6338 17.0283 24.7249 16.6491 24.9072 16.3398C25.0928 16.0306 25.3564 15.7962 25.6982 15.6367C26.0433 15.4772 26.46 15.3975 26.9482 15.3975C27.2249 15.3975 27.4935 15.4251 27.7539 15.4805C28.0143 15.5326 28.2829 15.6009 28.5596 15.6855L28.3545 16.8135C28.1755 16.7581 27.9834 16.7061 27.7783 16.6572C27.5732 16.6084 27.3258 16.584 27.0361 16.584C26.7106 16.584 26.4632 16.6605 26.2939 16.8135C26.1279 16.9632 26.0449 17.1846 26.0449 17.4775V23ZM27.0947 17.7168V18.7129H23.8477V17.7168H27.0947ZM29.2139 17.7168V23H27.8027V17.7168H29.2139ZM32.5732 21.999C32.7458 21.999 32.8988 21.9665 33.0322 21.9014C33.1657 21.833 33.2699 21.7386 33.3447 21.6182C33.4229 21.4945 33.4635 21.3496 33.4668 21.1836H34.79C34.7868 21.5547 34.6875 21.8851 34.4922 22.1748C34.2969 22.4613 34.0348 22.6875 33.7061 22.8535C33.3773 23.0163 33.0094 23.0977 32.6025 23.0977C32.1924 23.0977 31.8343 23.0293 31.5283 22.8926C31.2256 22.7559 30.9733 22.5671 30.7715 22.3262C30.5697 22.082 30.4183 21.7988 30.3174 21.4766C30.2165 21.151 30.166 20.8027 30.166 20.4316V20.29C30.166 19.9157 30.2165 19.5674 30.3174 19.2451C30.4183 18.9196 30.5697 18.6364 30.7715 18.3955C30.9733 18.1514 31.2256 17.9609 31.5283 17.8242C31.8311 17.6875 32.1859 17.6191 32.5928 17.6191C33.0257 17.6191 33.4049 17.7021 33.7305 17.8682C34.0592 18.0342 34.3164 18.2718 34.502 18.5811C34.6908 18.887 34.7868 19.25 34.79 19.6699H33.4668C33.4635 19.4941 33.4261 19.3346 33.3545 19.1914C33.2861 19.0482 33.1852 18.9342 33.0518 18.8496C32.9215 18.7617 32.7604 18.7178 32.5684 18.7178C32.3633 18.7178 32.1956 18.7617 32.0654 18.8496C31.9352 18.9342 31.8343 19.0514 31.7627 19.2012C31.6911 19.3477 31.6406 19.5153 31.6113 19.7041C31.5853 19.8896 31.5723 20.085 31.5723 20.29V20.4316C31.5723 20.6367 31.5853 20.8337 31.6113 21.0225C31.6374 21.2113 31.6862 21.3789 31.7578 21.5254C31.8327 21.6719 31.9352 21.7874 32.0654 21.8721C32.1956 21.9567 32.3649 21.999 32.5732 21.999ZM38.457 21.8086V19.4551C38.457 19.2858 38.4294 19.141 38.374 19.0205C38.3187 18.8968 38.2324 18.8008 38.1152 18.7324C38.0013 18.6641 37.8532 18.6299 37.6709 18.6299C37.5146 18.6299 37.3796 18.6576 37.2656 18.7129C37.1517 18.765 37.0638 18.8415 37.002 18.9424C36.9401 19.04 36.9092 19.1556 36.9092 19.2891H35.5029C35.5029 19.0645 35.555 18.8512 35.6592 18.6494C35.7633 18.4476 35.9147 18.2702 36.1133 18.1172C36.3118 17.9609 36.5479 17.8389 36.8213 17.751C37.098 17.6631 37.4072 17.6191 37.749 17.6191C38.1592 17.6191 38.5238 17.6875 38.8428 17.8242C39.1618 17.9609 39.4124 18.166 39.5947 18.4395C39.7803 18.7129 39.873 19.0547 39.873 19.4648V21.7256C39.873 22.0153 39.891 22.2529 39.9268 22.4385C39.9626 22.6208 40.0146 22.7803 40.083 22.917V23H38.6621C38.5938 22.8568 38.5417 22.6777 38.5059 22.4629C38.4733 22.2448 38.457 22.0267 38.457 21.8086ZM38.6426 19.7822L38.6523 20.5781H37.8662C37.6807 20.5781 37.5195 20.5993 37.3828 20.6416C37.2461 20.6839 37.1338 20.7441 37.0459 20.8223C36.958 20.8971 36.8929 20.985 36.8506 21.0859C36.8115 21.1868 36.792 21.2975 36.792 21.418C36.792 21.5384 36.8197 21.6475 36.875 21.7451C36.9303 21.8395 37.0101 21.9144 37.1143 21.9697C37.2184 22.0218 37.3405 22.0479 37.4805 22.0479C37.6921 22.0479 37.876 22.0055 38.0322 21.9209C38.1885 21.8363 38.3089 21.7321 38.3936 21.6084C38.4814 21.4847 38.527 21.3675 38.5303 21.2568L38.9014 21.8525C38.8493 21.986 38.7777 22.1243 38.6865 22.2676C38.5986 22.4108 38.4863 22.5459 38.3496 22.6729C38.2129 22.7965 38.0485 22.8991 37.8564 22.9805C37.6644 23.0586 37.4365 23.0977 37.1729 23.0977C36.8376 23.0977 36.5332 23.0309 36.2598 22.8975C35.9896 22.7607 35.7747 22.5736 35.6152 22.3359C35.459 22.0951 35.3809 21.8216 35.3809 21.5156C35.3809 21.2389 35.4329 20.9932 35.5371 20.7783C35.6413 20.5635 35.7943 20.3828 35.9961 20.2363C36.2012 20.0866 36.4567 19.9743 36.7627 19.8994C37.0687 19.8213 37.4235 19.7822 37.8271 19.7822H38.6426ZM43.5449 17.7168V18.7129H40.4688V17.7168H43.5449ZM41.2305 16.4131H42.6367V21.4082C42.6367 21.5612 42.6562 21.6784 42.6953 21.7598C42.7376 21.8411 42.7995 21.8981 42.8809 21.9307C42.9622 21.96 43.0648 21.9746 43.1885 21.9746C43.2764 21.9746 43.3545 21.9714 43.4229 21.9648C43.4945 21.9551 43.5547 21.9453 43.6035 21.9355L43.6084 22.9707C43.488 23.0098 43.3577 23.0407 43.2178 23.0635C43.0778 23.0863 42.9232 23.0977 42.7539 23.0977C42.4447 23.0977 42.1745 23.0472 41.9434 22.9463C41.7155 22.8421 41.5397 22.6761 41.416 22.4482C41.2923 22.2204 41.2305 21.9209 41.2305 21.5498V16.4131ZM45.8301 17.7168V23H44.4189V17.7168H45.8301ZM44.3311 16.3398C44.3311 16.1348 44.4027 15.9655 44.5459 15.832C44.6891 15.6986 44.8812 15.6318 45.1221 15.6318C45.3597 15.6318 45.5501 15.6986 45.6934 15.832C45.8398 15.9655 45.9131 16.1348 45.9131 16.3398C45.9131 16.5449 45.8398 16.7142 45.6934 16.8477C45.5501 16.9811 45.3597 17.0479 45.1221 17.0479C44.8812 17.0479 44.6891 16.9811 44.5459 16.8477C44.4027 16.7142 44.3311 16.5449 44.3311 16.3398ZM46.7676 20.4121V20.3096C46.7676 19.9222 46.8229 19.5658 46.9336 19.2402C47.0443 18.9115 47.2054 18.6266 47.417 18.3857C47.6286 18.1449 47.889 17.9577 48.1982 17.8242C48.5075 17.6875 48.8623 17.6191 49.2627 17.6191C49.6631 17.6191 50.0195 17.6875 50.332 17.8242C50.6445 17.9577 50.9066 18.1449 51.1182 18.3857C51.333 18.6266 51.4958 18.9115 51.6064 19.2402C51.7171 19.5658 51.7725 19.9222 51.7725 20.3096V20.4121C51.7725 20.7962 51.7171 21.1527 51.6064 21.4814C51.4958 21.807 51.333 22.0918 51.1182 22.3359C50.9066 22.5768 50.6462 22.764 50.3369 22.8975C50.0277 23.0309 49.6729 23.0977 49.2725 23.0977C48.8721 23.0977 48.5156 23.0309 48.2031 22.8975C47.8939 22.764 47.6318 22.5768 47.417 22.3359C47.2054 22.0918 47.0443 21.807 46.9336 21.4814C46.8229 21.1527 46.7676 20.7962 46.7676 20.4121ZM48.1738 20.3096V20.4121C48.1738 20.6335 48.1934 20.8402 48.2324 21.0322C48.2715 21.2243 48.3333 21.3936 48.418 21.54C48.5059 21.6833 48.6198 21.7956 48.7598 21.877C48.8997 21.9583 49.0706 21.999 49.2725 21.999C49.4678 21.999 49.6354 21.9583 49.7754 21.877C49.9154 21.7956 50.0277 21.6833 50.1123 21.54C50.1969 21.3936 50.2588 21.2243 50.2979 21.0322C50.3402 20.8402 50.3613 20.6335 50.3613 20.4121V20.3096C50.3613 20.0947 50.3402 19.8929 50.2979 19.7041C50.2588 19.512 50.1953 19.3428 50.1074 19.1963C50.0228 19.0465 49.9105 18.9294 49.7705 18.8447C49.6305 18.7601 49.4613 18.7178 49.2627 18.7178C49.0641 18.7178 48.8949 18.7601 48.7549 18.8447C48.6182 18.9294 48.5059 19.0465 48.418 19.1963C48.3333 19.3428 48.2715 19.512 48.2324 19.7041C48.1934 19.8929 48.1738 20.0947 48.1738 20.3096ZM54.0137 18.8447V23H52.6074V17.7168H53.9258L54.0137 18.8447ZM53.8086 20.1729H53.4277C53.4277 19.7822 53.4782 19.4307 53.5791 19.1182C53.68 18.8024 53.8216 18.5339 54.0039 18.3125C54.1862 18.0879 54.4027 17.917 54.6533 17.7998C54.9072 17.6794 55.1904 17.6191 55.5029 17.6191C55.7503 17.6191 55.9766 17.6549 56.1816 17.7266C56.3867 17.7982 56.5625 17.9121 56.709 18.0684C56.8587 18.2246 56.9727 18.4313 57.0508 18.6885C57.1322 18.9456 57.1729 19.2598 57.1729 19.6309V23H55.7568V19.626C55.7568 19.3916 55.7243 19.2093 55.6592 19.0791C55.5941 18.9489 55.498 18.8577 55.3711 18.8057C55.2474 18.7503 55.0944 18.7227 54.9121 18.7227C54.7233 18.7227 54.5589 18.7601 54.4189 18.835C54.2822 18.9098 54.1683 19.014 54.0771 19.1475C53.9893 19.2777 53.9225 19.4307 53.877 19.6064C53.8314 19.7822 53.8086 19.971 53.8086 20.1729ZM61.0986 21.54C61.0986 21.4391 61.0693 21.348 61.0107 21.2666C60.9521 21.1852 60.8431 21.1104 60.6836 21.042C60.5273 20.9704 60.3011 20.9053 60.0049 20.8467C59.738 20.7881 59.4889 20.7148 59.2578 20.627C59.0299 20.5358 58.8314 20.4268 58.6621 20.2998C58.4961 20.1729 58.3659 20.0231 58.2715 19.8506C58.1771 19.6748 58.1299 19.4746 58.1299 19.25C58.1299 19.0286 58.1771 18.8203 58.2715 18.625C58.3691 18.4297 58.5075 18.2572 58.6865 18.1074C58.8688 17.9544 59.0902 17.8356 59.3506 17.751C59.6143 17.6631 59.9105 17.6191 60.2393 17.6191C60.6982 17.6191 61.0921 17.6924 61.4209 17.8389C61.7529 17.9854 62.0068 18.1872 62.1826 18.4443C62.3617 18.6982 62.4512 18.988 62.4512 19.3135H61.0449C61.0449 19.1768 61.0156 19.0547 60.957 18.9473C60.9017 18.8366 60.8138 18.7503 60.6934 18.6885C60.5762 18.6234 60.4232 18.5908 60.2344 18.5908C60.0781 18.5908 59.943 18.6185 59.8291 18.6738C59.7152 18.7259 59.6273 18.7975 59.5654 18.8887C59.5068 18.9766 59.4775 19.0742 59.4775 19.1816C59.4775 19.263 59.4938 19.3363 59.5264 19.4014C59.5622 19.4632 59.6191 19.5202 59.6973 19.5723C59.7754 19.6243 59.8763 19.6732 60 19.7188C60.127 19.7611 60.2832 19.8001 60.4688 19.8359C60.8496 19.9141 61.1898 20.0166 61.4893 20.1436C61.7887 20.2673 62.0264 20.4365 62.2021 20.6514C62.3779 20.863 62.4658 21.1413 62.4658 21.4863C62.4658 21.7207 62.4137 21.9355 62.3096 22.1309C62.2054 22.3262 62.0557 22.4971 61.8604 22.6436C61.665 22.7868 61.4307 22.8991 61.1572 22.9805C60.887 23.0586 60.5827 23.0977 60.2441 23.0977C59.7526 23.0977 59.3359 23.0098 58.9941 22.834C58.6556 22.6582 58.3984 22.4352 58.2227 22.165C58.0501 21.8916 57.9639 21.6117 57.9639 21.3252H59.2969C59.3034 21.5173 59.3522 21.6719 59.4434 21.7891C59.5378 21.9062 59.6566 21.9909 59.7998 22.043C59.9463 22.0951 60.1042 22.1211 60.2734 22.1211C60.4557 22.1211 60.6071 22.0967 60.7275 22.0479C60.848 21.9958 60.9391 21.9274 61.001 21.8428C61.0661 21.7549 61.0986 21.654 61.0986 21.54Z" fill="#EDEDED"/>
<rect x="157" y="15" width="20" height="10" rx="5" fill="#484F51"/>
<circle cx="162" cy="20" r="3.75" fill="#353A3B"/>
<rect x="157" y="15" width="20" height="10" rx="5" fill="#9FE3AE"/>
<circle cx="172" cy="20" r="3.75" fill="#6E9777"/>
<path d="M117.602 20.8838C117.602 20.8076 117.59 20.7393 117.566 20.6787C117.545 20.6162 117.504 20.5596 117.443 20.5088C117.383 20.4561 117.298 20.4043 117.188 20.3535C117.079 20.3027 116.938 20.25 116.764 20.1953C116.57 20.1328 116.387 20.0625 116.213 19.9844C116.041 19.9062 115.889 19.8154 115.756 19.7119C115.625 19.6064 115.521 19.4844 115.445 19.3457C115.371 19.207 115.334 19.0459 115.334 18.8623C115.334 18.6846 115.373 18.5234 115.451 18.3789C115.529 18.2324 115.639 18.1074 115.779 18.0039C115.92 17.8984 116.086 17.8174 116.277 17.7607C116.471 17.7041 116.683 17.6758 116.913 17.6758C117.228 17.6758 117.502 17.7324 117.736 17.8457C117.971 17.959 118.152 18.1143 118.281 18.3115C118.412 18.5088 118.478 18.7344 118.478 18.9883H117.604C117.604 18.8633 117.578 18.7539 117.525 18.6602C117.475 18.5645 117.396 18.4893 117.291 18.4346C117.188 18.3799 117.057 18.3525 116.898 18.3525C116.746 18.3525 116.619 18.376 116.518 18.4229C116.416 18.4678 116.34 18.5293 116.289 18.6074C116.238 18.6836 116.213 18.7695 116.213 18.8652C116.213 18.9375 116.23 19.0029 116.266 19.0615C116.303 19.1201 116.357 19.1748 116.43 19.2256C116.502 19.2764 116.591 19.3242 116.696 19.3691C116.802 19.4141 116.924 19.458 117.062 19.501C117.295 19.5713 117.499 19.6504 117.675 19.7383C117.853 19.8262 118.001 19.9248 118.12 20.0342C118.239 20.1436 118.329 20.2676 118.39 20.4062C118.45 20.5449 118.48 20.7021 118.48 20.8779C118.48 21.0635 118.444 21.2295 118.372 21.376C118.3 21.5225 118.195 21.6465 118.059 21.748C117.922 21.8496 117.759 21.9268 117.569 21.9795C117.38 22.0322 117.168 22.0586 116.934 22.0586C116.723 22.0586 116.515 22.0312 116.31 21.9766C116.104 21.9199 115.918 21.835 115.75 21.7217C115.584 21.6084 115.451 21.4639 115.352 21.2881C115.252 21.1123 115.202 20.9043 115.202 20.6641H116.084C116.084 20.7969 116.104 20.9092 116.146 21.001C116.187 21.0928 116.244 21.167 116.318 21.2236C116.395 21.2803 116.484 21.3213 116.588 21.3467C116.693 21.3721 116.809 21.3848 116.934 21.3848C117.086 21.3848 117.211 21.3633 117.309 21.3203C117.408 21.2773 117.481 21.2178 117.528 21.1416C117.577 21.0654 117.602 20.9795 117.602 20.8838ZM119.849 17.5V22H119.005V17.5H119.849ZM119.729 20.3037H119.497C119.499 20.083 119.528 19.8799 119.585 19.6943C119.642 19.5068 119.723 19.3447 119.828 19.208C119.934 19.0693 120.06 18.9619 120.206 18.8857C120.354 18.8096 120.519 18.7715 120.698 18.7715C120.854 18.7715 120.996 18.7939 121.123 18.8389C121.252 18.8818 121.362 18.9521 121.454 19.0498C121.548 19.1455 121.62 19.2715 121.671 19.4277C121.722 19.584 121.747 19.7734 121.747 19.9961V22H120.897V19.9902C120.897 19.8496 120.877 19.7393 120.836 19.6592C120.797 19.5771 120.739 19.5195 120.663 19.4863C120.589 19.4512 120.497 19.4336 120.388 19.4336C120.267 19.4336 120.163 19.4561 120.077 19.501C119.993 19.5459 119.926 19.6084 119.875 19.6885C119.824 19.7666 119.787 19.8584 119.764 19.9639C119.74 20.0693 119.729 20.1826 119.729 20.3037ZM122.254 20.4473V20.3857C122.254 20.1533 122.287 19.9395 122.354 19.7441C122.42 19.5469 122.517 19.376 122.644 19.2314C122.771 19.0869 122.927 18.9746 123.112 18.8945C123.298 18.8125 123.511 18.7715 123.751 18.7715C123.991 18.7715 124.205 18.8125 124.393 18.8945C124.58 18.9746 124.737 19.0869 124.864 19.2314C124.993 19.376 125.091 19.5469 125.157 19.7441C125.224 19.9395 125.257 20.1533 125.257 20.3857V20.4473C125.257 20.6777 125.224 20.8916 125.157 21.0889C125.091 21.2842 124.993 21.4551 124.864 21.6016C124.737 21.7461 124.581 21.8584 124.396 21.9385C124.21 22.0186 123.997 22.0586 123.757 22.0586C123.517 22.0586 123.303 22.0186 123.115 21.9385C122.93 21.8584 122.772 21.7461 122.644 21.6016C122.517 21.4551 122.42 21.2842 122.354 21.0889C122.287 20.8916 122.254 20.6777 122.254 20.4473ZM123.098 20.3857V20.4473C123.098 20.5801 123.109 20.7041 123.133 20.8193C123.156 20.9346 123.193 21.0361 123.244 21.124C123.297 21.21 123.365 21.2773 123.449 21.3262C123.533 21.375 123.636 21.3994 123.757 21.3994C123.874 21.3994 123.975 21.375 124.059 21.3262C124.143 21.2773 124.21 21.21 124.261 21.124C124.312 21.0361 124.349 20.9346 124.372 20.8193C124.397 20.7041 124.41 20.5801 124.41 20.4473V20.3857C124.41 20.2568 124.397 20.1357 124.372 20.0225C124.349 19.9072 124.311 19.8057 124.258 19.7178C124.207 19.6279 124.14 19.5576 124.056 19.5068C123.972 19.4561 123.87 19.4307 123.751 19.4307C123.632 19.4307 123.53 19.4561 123.446 19.5068C123.364 19.5576 123.297 19.6279 123.244 19.7178C123.193 19.8057 123.156 19.9072 123.133 20.0225C123.109 20.1357 123.098 20.2568 123.098 20.3857ZM126.681 21.1797L127.34 18.8301H127.876L127.703 19.7529L127.044 22H126.596L126.681 21.1797ZM126.347 18.8301L126.818 21.1768L126.862 22H126.335L125.532 18.8301H126.347ZM128.479 21.1387L128.939 18.8301H129.757L128.954 22H128.43L128.479 21.1387ZM127.949 18.8301L128.605 21.1621L128.696 22H128.245L127.586 19.7559L127.419 18.8301H127.949ZM131.541 20.4473V20.3857C131.541 20.1533 131.574 19.9395 131.641 19.7441C131.707 19.5469 131.804 19.376 131.931 19.2314C132.058 19.0869 132.214 18.9746 132.399 18.8945C132.585 18.8125 132.798 18.7715 133.038 18.7715C133.278 18.7715 133.492 18.8125 133.68 18.8945C133.867 18.9746 134.024 19.0869 134.151 19.2314C134.28 19.376 134.378 19.5469 134.444 19.7441C134.511 19.9395 134.544 20.1533 134.544 20.3857V20.4473C134.544 20.6777 134.511 20.8916 134.444 21.0889C134.378 21.2842 134.28 21.4551 134.151 21.6016C134.024 21.7461 133.868 21.8584 133.683 21.9385C133.497 22.0186 133.284 22.0586 133.044 22.0586C132.804 22.0586 132.59 22.0186 132.402 21.9385C132.217 21.8584 132.06 21.7461 131.931 21.6016C131.804 21.4551 131.707 21.2842 131.641 21.0889C131.574 20.8916 131.541 20.6777 131.541 20.4473ZM132.385 20.3857V20.4473C132.385 20.5801 132.396 20.7041 132.42 20.8193C132.443 20.9346 132.48 21.0361 132.531 21.124C132.584 21.21 132.652 21.2773 132.736 21.3262C132.82 21.375 132.923 21.3994 133.044 21.3994C133.161 21.3994 133.262 21.375 133.346 21.3262C133.43 21.2773 133.497 21.21 133.548 21.124C133.599 21.0361 133.636 20.9346 133.659 20.8193C133.685 20.7041 133.697 20.5801 133.697 20.4473V20.3857C133.697 20.2568 133.685 20.1357 133.659 20.0225C133.636 19.9072 133.598 19.8057 133.545 19.7178C133.494 19.6279 133.427 19.5576 133.343 19.5068C133.259 19.4561 133.157 19.4307 133.038 19.4307C132.919 19.4307 132.817 19.4561 132.733 19.5068C132.651 19.5576 132.584 19.6279 132.531 19.7178C132.48 19.8057 132.443 19.9072 132.42 20.0225C132.396 20.1357 132.385 20.2568 132.385 20.3857ZM135.889 19.5068V22H135.045V18.8301H135.836L135.889 19.5068ZM135.766 20.3037H135.537C135.537 20.0693 135.567 19.8584 135.628 19.6709C135.688 19.4814 135.773 19.3203 135.883 19.1875C135.992 19.0527 136.122 18.9502 136.272 18.8799C136.425 18.8076 136.595 18.7715 136.782 18.7715C136.931 18.7715 137.066 18.793 137.189 18.8359C137.312 18.8789 137.418 18.9473 137.506 19.041C137.596 19.1348 137.664 19.2588 137.711 19.4131C137.76 19.5674 137.784 19.7559 137.784 19.9785V22H136.935V19.9756C136.935 19.835 136.915 19.7256 136.876 19.6475C136.837 19.5693 136.779 19.5146 136.703 19.4834C136.629 19.4502 136.537 19.4336 136.428 19.4336C136.314 19.4336 136.216 19.4561 136.132 19.501C136.05 19.5459 135.981 19.6084 135.927 19.6885C135.874 19.7666 135.834 19.8584 135.807 19.9639C135.779 20.0693 135.766 20.1826 135.766 20.3037ZM139.316 17.5V22H138.47V17.5H139.316ZM140.954 21.6426L141.795 18.8301H142.7L141.426 22.4775C141.398 22.5576 141.361 22.6436 141.314 22.7354C141.27 22.8271 141.208 22.9141 141.13 22.9961C141.054 23.0801 140.957 23.1484 140.84 23.2012C140.725 23.2539 140.583 23.2803 140.415 23.2803C140.335 23.2803 140.27 23.2754 140.219 23.2656C140.168 23.2559 140.107 23.2422 140.037 23.2246V22.6064C140.059 22.6064 140.081 22.6064 140.104 22.6064C140.128 22.6084 140.15 22.6094 140.172 22.6094C140.283 22.6094 140.374 22.5967 140.444 22.5713C140.515 22.5459 140.571 22.5068 140.614 22.4541C140.657 22.4033 140.691 22.3369 140.717 22.2549L140.954 21.6426ZM140.603 18.8301L141.291 21.127L141.411 22.0205L140.837 22.082L139.697 18.8301H140.603ZM145.357 19.5068V22H144.514V18.8301H145.305L145.357 19.5068ZM145.234 20.3037H145.006C145.006 20.0693 145.036 19.8584 145.097 19.6709C145.157 19.4814 145.242 19.3203 145.352 19.1875C145.461 19.0527 145.591 18.9502 145.741 18.8799C145.894 18.8076 146.063 18.7715 146.251 18.7715C146.399 18.7715 146.535 18.793 146.658 18.8359C146.781 18.8789 146.887 18.9473 146.975 19.041C147.064 19.1348 147.133 19.2588 147.18 19.4131C147.229 19.5674 147.253 19.7559 147.253 19.9785V22H146.403V19.9756C146.403 19.835 146.384 19.7256 146.345 19.6475C146.306 19.5693 146.248 19.5146 146.172 19.4834C146.098 19.4502 146.006 19.4336 145.896 19.4336C145.783 19.4336 145.685 19.4561 145.601 19.501C145.519 19.5459 145.45 19.6084 145.396 19.6885C145.343 19.7666 145.303 19.8584 145.275 19.9639C145.248 20.0693 145.234 20.1826 145.234 20.3037ZM149.354 22.0586C149.107 22.0586 148.887 22.0195 148.691 21.9414C148.496 21.8613 148.33 21.751 148.193 21.6104C148.059 21.4697 147.955 21.3066 147.883 21.1211C147.811 20.9336 147.774 20.7344 147.774 20.5234V20.4062C147.774 20.166 147.809 19.9463 147.877 19.7471C147.945 19.5479 148.043 19.375 148.17 19.2285C148.299 19.082 148.455 18.9697 148.639 18.8916C148.822 18.8115 149.029 18.7715 149.26 18.7715C149.484 18.7715 149.684 18.8086 149.857 18.8828C150.031 18.957 150.177 19.0625 150.294 19.1992C150.413 19.3359 150.503 19.5 150.563 19.6914C150.624 19.8809 150.654 20.0918 150.654 20.3242V20.6758H148.135V20.1133H149.825V20.0488C149.825 19.9316 149.804 19.8271 149.761 19.7354C149.72 19.6416 149.657 19.5674 149.573 19.5127C149.489 19.458 149.382 19.4307 149.251 19.4307C149.14 19.4307 149.044 19.4551 148.964 19.5039C148.884 19.5527 148.818 19.6211 148.768 19.709C148.719 19.7969 148.682 19.9004 148.656 20.0195C148.633 20.1367 148.621 20.2656 148.621 20.4062V20.5234C148.621 20.6504 148.639 20.7676 148.674 20.875C148.711 20.9824 148.763 21.0752 148.829 21.1533C148.897 21.2314 148.979 21.292 149.075 21.335C149.173 21.3779 149.283 21.3994 149.406 21.3994C149.559 21.3994 149.7 21.3701 149.831 21.3115C149.964 21.251 150.078 21.1602 150.174 21.0391L150.584 21.4844C150.518 21.5801 150.427 21.6719 150.312 21.7598C150.198 21.8477 150.062 21.9199 149.901 21.9766C149.741 22.0312 149.559 22.0586 149.354 22.0586ZM152.04 21.1797L152.699 18.8301H153.235L153.062 19.7529L152.403 22H151.955L152.04 21.1797ZM151.706 18.8301L152.178 21.1768L152.222 22H151.694L150.892 18.8301H151.706ZM153.839 21.1387L154.299 18.8301H155.116L154.313 22H153.789L153.839 21.1387ZM153.309 18.8301L153.965 21.1621L154.056 22H153.604L152.945 19.7559L152.778 18.8301H153.309Z" fill="#EDEDED"/>
</g>
<defs>
<filter id="filter0_i_15_513" x="0" y="0" width="180" height="360" filterUnits="userSpaceOnUse" color-interpolation-filters="sRGB">
<feFlood flood-opacity="0" result="BackgroundImageFix"/>
<feBlend mode="normal" in="SourceGraphic" in2="BackgroundImageFix" result="shape"/>
<feColorMatrix in="SourceAlpha" type="matrix" values="0 0 0 0 0 0 0 0 0 0 0 0 0 0 0 0 0 0 127 0" result="hardAlpha"/>
<feOffset/>
<feGaussianBlur stdDeviation="0.5"/>
<feComposite in2="hardAlpha" operator="arithmetic" k2="-1" k3="1"/>
<feColorMatrix type="matrix" values="0 0 0 0 1 0 0 0 0 1 0 0 0 0 1 0 0 0 0.4 0"/>
<feBlend mode="normal" in2="shape" result="effect1_innerShadow_15_513"/>
</filter>
</defs>
</svg>
