<svg width="160" height="60" viewBox="0 0 160 60" fill="none" xmlns="http://www.w3.org/2000/svg">
<rect width="160" height="60" rx="2" fill="#8E9757"/>
<path d="M0 2C0 0.89543 0.895431 0 2 0H158C159.105 0 160 0.895431 160 2V30H0V2Z" fill="#A9B465"/>
<path d="M34.5605 10.8906H36.0205V15.5879C36.0205 16.1348 35.9033 16.5954 35.6689 16.9697C35.4378 17.3441 35.1172 17.6257 34.707 17.8145C34.3001 18.0033 33.8314 18.0977 33.3008 18.0977C32.7702 18.0977 32.2982 18.0033 31.8848 17.8145C31.4746 17.6257 31.1523 17.3441 30.918 16.9697C30.6868 16.5954 30.5713 16.1348 30.5713 15.5879V10.8906H32.0361V15.5879C32.0361 15.9069 32.0866 16.1673 32.1875 16.3691C32.2884 16.571 32.4333 16.7191 32.6221 16.8135C32.8141 16.9079 33.0404 16.9551 33.3008 16.9551C33.5677 16.9551 33.7939 16.9079 33.9795 16.8135C34.1683 16.7191 34.3115 16.571 34.4092 16.3691C34.5101 16.1673 34.5605 15.9069 34.5605 15.5879V10.8906ZM39.9951 16.54C39.9951 16.4391 39.9658 16.348 39.9072 16.2666C39.8486 16.1852 39.7396 16.1104 39.5801 16.042C39.4238 15.9704 39.1976 15.9053 38.9014 15.8467C38.6344 15.7881 38.3854 15.7148 38.1543 15.627C37.9264 15.5358 37.7279 15.4268 37.5586 15.2998C37.3926 15.1729 37.2624 15.0231 37.168 14.8506C37.0736 14.6748 37.0264 14.4746 37.0264 14.25C37.0264 14.0286 37.0736 13.8203 37.168 13.625C37.2656 13.4297 37.404 13.2572 37.583 13.1074C37.7653 12.9544 37.9867 12.8356 38.2471 12.751C38.5107 12.6631 38.807 12.6191 39.1357 12.6191C39.5947 12.6191 39.9886 12.6924 40.3174 12.8389C40.6494 12.9854 40.9033 13.1872 41.0791 13.4443C41.2581 13.6982 41.3477 13.988 41.3477 14.3135H39.9414C39.9414 14.1768 39.9121 14.0547 39.8535 13.9473C39.7982 13.8366 39.7103 13.7503 39.5898 13.6885C39.4727 13.6234 39.3197 13.5908 39.1309 13.5908C38.9746 13.5908 38.8395 13.6185 38.7256 13.6738C38.6117 13.7259 38.5238 13.7975 38.4619 13.8887C38.4033 13.9766 38.374 14.0742 38.374 14.1816C38.374 14.263 38.3903 14.3363 38.4229 14.4014C38.4587 14.4632 38.5156 14.5202 38.5938 14.5723C38.6719 14.6243 38.7728 14.6732 38.8965 14.7188C39.0234 14.7611 39.1797 14.8001 39.3652 14.8359C39.7461 14.9141 40.0863 15.0166 40.3857 15.1436C40.6852 15.2673 40.9229 15.4365 41.0986 15.6514C41.2744 15.863 41.3623 16.1413 41.3623 16.4863C41.3623 16.7207 41.3102 16.9355 41.2061 17.1309C41.1019 17.3262 40.9521 17.4971 40.7568 17.6436C40.5615 17.7868 40.3271 17.8991 40.0537 17.9805C39.7835 18.0586 39.4792 18.0977 39.1406 18.0977C38.6491 18.0977 38.2324 18.0098 37.8906 17.834C37.5521 17.6582 37.2949 17.4352 37.1191 17.165C36.9466 16.8916 36.8604 16.6117 36.8604 16.3252H38.1934C38.1999 16.5173 38.2487 16.6719 38.3398 16.7891C38.4342 16.9062 38.5531 16.9909 38.6963 17.043C38.8428 17.0951 39.0007 17.1211 39.1699 17.1211C39.3522 17.1211 39.5036 17.0967 39.624 17.0479C39.7445 16.9958 39.8356 16.9274 39.8975 16.8428C39.9626 16.7549 39.9951 16.654 39.9951 16.54ZM44.707 18.0977C44.2969 18.0977 43.929 18.0326 43.6035 17.9023C43.278 17.7689 43.0013 17.585 42.7734 17.3506C42.5488 17.1162 42.3763 16.8444 42.2559 16.5352C42.1354 16.2227 42.0752 15.8906 42.0752 15.5391V15.3438C42.0752 14.9434 42.1322 14.5771 42.2461 14.2451C42.36 13.9131 42.5228 13.625 42.7344 13.3809C42.9492 13.1367 43.2096 12.9495 43.5156 12.8193C43.8216 12.6859 44.1667 12.6191 44.5508 12.6191C44.9251 12.6191 45.2572 12.681 45.5469 12.8047C45.8366 12.9284 46.0791 13.1042 46.2744 13.332C46.473 13.5599 46.6227 13.8333 46.7236 14.1523C46.8245 14.4681 46.875 14.8197 46.875 15.207V15.793H42.6758V14.8555H45.4932V14.748C45.4932 14.5527 45.4574 14.3786 45.3857 14.2256C45.3174 14.0693 45.2132 13.9456 45.0732 13.8545C44.9333 13.7633 44.7542 13.7178 44.5361 13.7178C44.3506 13.7178 44.1911 13.7585 44.0576 13.8398C43.9242 13.9212 43.8151 14.0352 43.7305 14.1816C43.6491 14.3281 43.5872 14.5007 43.5449 14.6992C43.5059 14.8945 43.4863 15.1094 43.4863 15.3438V15.5391C43.4863 15.7507 43.5156 15.946 43.5742 16.125C43.6361 16.304 43.7223 16.4587 43.833 16.5889C43.9469 16.7191 44.0837 16.82 44.2432 16.8916C44.4059 16.9632 44.5898 16.999 44.7949 16.999C45.0488 16.999 45.2848 16.9502 45.5029 16.8525C45.7243 16.7516 45.9147 16.6003 46.0742 16.3984L46.7578 17.1406C46.6471 17.3001 46.4958 17.4531 46.3037 17.5996C46.1149 17.7461 45.887 17.8665 45.6201 17.9609C45.3532 18.0521 45.0488 18.0977 44.707 18.0977ZM49.082 13.8691V18H47.6758V12.7168H48.999L49.082 13.8691ZM50.6738 12.6826L50.6494 13.9863C50.5811 13.9766 50.498 13.9684 50.4004 13.9619C50.306 13.9521 50.2197 13.9473 50.1416 13.9473C49.943 13.9473 49.7705 13.9733 49.624 14.0254C49.4808 14.0742 49.3604 14.1475 49.2627 14.2451C49.1683 14.3428 49.0967 14.4616 49.0479 14.6016C49.0023 14.7415 48.9762 14.901 48.9697 15.0801L48.6865 14.9922C48.6865 14.6504 48.7207 14.3363 48.7891 14.0498C48.8574 13.7601 48.9567 13.5078 49.0869 13.293C49.2204 13.0781 49.3831 12.9121 49.5752 12.7949C49.7673 12.6777 49.987 12.6191 50.2344 12.6191C50.3125 12.6191 50.3923 12.6257 50.4736 12.6387C50.555 12.6484 50.6217 12.6631 50.6738 12.6826Z" fill="#EDEDED"/>
<rect x="6" y="33" width="150" height="16" rx="2" fill="#3F4547" fill-opacity="0.6"/>
<path d="M18.7344 41.5039H17.2734L17.2656 40.6992H18.4922C18.7083 40.6992 18.8854 40.6719 19.0234 40.6172C19.1615 40.5599 19.2643 40.4779 19.332 40.3711C19.4023 40.2617 19.4375 40.1289 19.4375 39.9727C19.4375 39.7956 19.4036 39.6523 19.3359 39.543C19.2708 39.4336 19.168 39.3542 19.0273 39.3047C18.8893 39.2552 18.7109 39.2305 18.4922 39.2305H17.6797V44H16.5078V38.3125H18.4922C18.8229 38.3125 19.1185 38.3438 19.3789 38.4062C19.6419 38.4688 19.8646 38.5638 20.0469 38.6914C20.2292 38.819 20.3685 38.9805 20.4648 39.1758C20.5612 39.3685 20.6094 39.5977 20.6094 39.8633C20.6094 40.0977 20.556 40.3138 20.4492 40.5117C20.3451 40.7096 20.1797 40.8711 19.9531 40.9961C19.7292 41.1211 19.4362 41.1901 19.0742 41.2031L18.7344 41.5039ZM18.6836 44H16.9531L17.4102 43.0859H18.6836C18.8893 43.0859 19.0573 43.0534 19.1875 42.9883C19.3177 42.9206 19.4141 42.8294 19.4766 42.7148C19.5391 42.6003 19.5703 42.4688 19.5703 42.3203C19.5703 42.1536 19.5417 42.0091 19.4844 41.8867C19.4297 41.7643 19.3411 41.6706 19.2188 41.6055C19.0964 41.5378 18.9349 41.5039 18.7344 41.5039H17.6055L17.6133 40.6992H19.0195L19.2891 41.0156C19.6354 41.0104 19.9141 41.0716 20.125 41.1992C20.3385 41.3242 20.4935 41.487 20.5898 41.6875C20.6888 41.888 20.7383 42.1029 20.7383 42.332C20.7383 42.6966 20.6589 43.0039 20.5 43.2539C20.3411 43.5013 20.1081 43.6875 19.8008 43.8125C19.4961 43.9375 19.1237 44 18.6836 44ZM21.3672 41.9297V41.8477C21.3672 41.5378 21.4115 41.2526 21.5 40.9922C21.5885 40.7292 21.7174 40.5013 21.8867 40.3086C22.056 40.1159 22.2643 39.9661 22.5117 39.8594C22.7591 39.75 23.043 39.6953 23.3633 39.6953C23.6836 39.6953 23.9688 39.75 24.2188 39.8594C24.4688 39.9661 24.6784 40.1159 24.8477 40.3086C25.0195 40.5013 25.1497 40.7292 25.2383 40.9922C25.3268 41.2526 25.3711 41.5378 25.3711 41.8477V41.9297C25.3711 42.237 25.3268 42.5221 25.2383 42.7852C25.1497 43.0456 25.0195 43.2734 24.8477 43.4688C24.6784 43.6615 24.4701 43.8112 24.2227 43.918C23.9753 44.0247 23.6914 44.0781 23.3711 44.0781C23.0508 44.0781 22.7656 44.0247 22.5156 43.918C22.2682 43.8112 22.0586 43.6615 21.8867 43.4688C21.7174 43.2734 21.5885 43.0456 21.5 42.7852C21.4115 42.5221 21.3672 42.237 21.3672 41.9297ZM22.4922 41.8477V41.9297C22.4922 42.1068 22.5078 42.2721 22.5391 42.4258C22.5703 42.5794 22.6198 42.7148 22.6875 42.832C22.7578 42.9466 22.849 43.0365 22.9609 43.1016C23.0729 43.1667 23.2096 43.1992 23.3711 43.1992C23.5273 43.1992 23.6615 43.1667 23.7734 43.1016C23.8854 43.0365 23.9753 42.9466 24.043 42.832C24.1107 42.7148 24.1602 42.5794 24.1914 42.4258C24.2253 42.2721 24.2422 42.1068 24.2422 41.9297V41.8477C24.2422 41.6758 24.2253 41.5143 24.1914 41.3633C24.1602 41.2096 24.1094 41.0742 24.0391 40.957C23.9714 40.8372 23.8815 40.7435 23.7695 40.6758C23.6576 40.6081 23.5221 40.5742 23.3633 40.5742C23.2044 40.5742 23.069 40.6081 22.957 40.6758C22.8477 40.7435 22.7578 40.8372 22.6875 40.957C22.6198 41.0742 22.5703 41.2096 22.5391 41.3633C22.5078 41.5143 22.4922 41.6758 22.4922 41.8477ZM28.3438 43.0469V41.1641C28.3438 41.0286 28.3216 40.9128 28.2773 40.8164C28.2331 40.7174 28.1641 40.6406 28.0703 40.5859C27.9792 40.5312 27.8607 40.5039 27.7148 40.5039C27.5898 40.5039 27.4818 40.526 27.3906 40.5703C27.2995 40.612 27.2292 40.6732 27.1797 40.7539C27.1302 40.832 27.1055 40.9245 27.1055 41.0312H25.9805C25.9805 40.8516 26.0221 40.681 26.1055 40.5195C26.1888 40.3581 26.3099 40.2161 26.4688 40.0938C26.6276 39.9688 26.8164 39.8711 27.0352 39.8008C27.2565 39.7305 27.5039 39.6953 27.7773 39.6953C28.1055 39.6953 28.3971 39.75 28.6523 39.8594C28.9076 39.9688 29.1081 40.1328 29.2539 40.3516C29.4023 40.5703 29.4766 40.8438 29.4766 41.1719V42.9805C29.4766 43.2122 29.4909 43.4023 29.5195 43.5508C29.5482 43.6966 29.5898 43.8242 29.6445 43.9336V44H28.5078C28.4531 43.8854 28.4115 43.7422 28.3828 43.5703C28.3568 43.3958 28.3438 43.2214 28.3438 43.0469ZM28.4922 41.4258L28.5 42.0625H27.8711C27.7227 42.0625 27.5938 42.0794 27.4844 42.1133C27.375 42.1471 27.2852 42.1953 27.2148 42.2578C27.1445 42.3177 27.0924 42.388 27.0586 42.4688C27.0273 42.5495 27.0117 42.638 27.0117 42.7344C27.0117 42.8307 27.0339 42.918 27.0781 42.9961C27.1224 43.0716 27.1862 43.1315 27.2695 43.1758C27.3529 43.2174 27.4505 43.2383 27.5625 43.2383C27.7318 43.2383 27.8789 43.2044 28.0039 43.1367C28.1289 43.069 28.2253 42.9857 28.293 42.8867C28.3633 42.7878 28.3997 42.694 28.4023 42.6055L28.6992 43.082C28.6576 43.1888 28.6003 43.2995 28.5273 43.4141C28.457 43.5286 28.3672 43.6367 28.2578 43.7383C28.1484 43.8372 28.0169 43.9193 27.8633 43.9844C27.7096 44.0469 27.5273 44.0781 27.3164 44.0781C27.0482 44.0781 26.8047 44.0247 26.5859 43.918C26.3698 43.8086 26.1979 43.6589 26.0703 43.4688C25.9453 43.276 25.8828 43.0573 25.8828 42.8125C25.8828 42.5911 25.9245 42.3945 26.0078 42.2227C26.0911 42.0508 26.2135 41.9062 26.375 41.7891C26.5391 41.6693 26.7435 41.5794 26.9883 41.5195C27.2331 41.457 27.5169 41.4258 27.8398 41.4258H28.4922ZM31.4688 40.6953V44H30.3438V39.7734H31.4023L31.4688 40.6953ZM32.7422 39.7461L32.7227 40.7891C32.668 40.7812 32.6016 40.7747 32.5234 40.7695C32.4479 40.7617 32.3789 40.7578 32.3164 40.7578C32.1576 40.7578 32.0195 40.7786 31.9023 40.8203C31.7878 40.8594 31.6914 40.918 31.6133 40.9961C31.5378 41.0742 31.4805 41.1693 31.4414 41.2812C31.4049 41.3932 31.3841 41.5208 31.3789 41.6641L31.1523 41.5938C31.1523 41.3203 31.1797 41.069 31.2344 40.8398C31.2891 40.6081 31.3685 40.4062 31.4727 40.2344C31.5794 40.0625 31.7096 39.9297 31.8633 39.8359C32.0169 39.7422 32.1927 39.6953 32.3906 39.6953C32.4531 39.6953 32.5169 39.7005 32.582 39.7109C32.6471 39.7188 32.7005 39.7305 32.7422 39.7461ZM35.6914 43.0781V38H36.8242V44H35.8047L35.6914 43.0781ZM33.0195 41.9375V41.8555C33.0195 41.5326 33.056 41.2396 33.1289 40.9766C33.2018 40.7109 33.3086 40.4831 33.4492 40.293C33.5898 40.1029 33.763 39.9557 33.9688 39.8516C34.1745 39.7474 34.4089 39.6953 34.6719 39.6953C34.9193 39.6953 35.1354 39.7474 35.3203 39.8516C35.5078 39.9557 35.6667 40.1042 35.7969 40.2969C35.9297 40.487 36.0365 40.7122 36.1172 40.9727C36.1979 41.2305 36.2565 41.513 36.293 41.8203V42C36.2565 42.2943 36.1979 42.5677 36.1172 42.8203C36.0365 43.0729 35.9297 43.2943 35.7969 43.4844C35.6667 43.6719 35.5078 43.8177 35.3203 43.9219C35.1328 44.026 34.9141 44.0781 34.6641 44.0781C34.401 44.0781 34.1667 44.0247 33.9609 43.918C33.7578 43.8112 33.5859 43.6615 33.4453 43.4688C33.3073 43.276 33.2018 43.0495 33.1289 42.7891C33.056 42.5286 33.0195 42.2448 33.0195 41.9375ZM34.1445 41.8555V41.9375C34.1445 42.112 34.1576 42.2747 34.1836 42.4258C34.2122 42.5768 34.2578 42.7109 34.3203 42.8281C34.3854 42.9427 34.4688 43.0326 34.5703 43.0977C34.6745 43.1602 34.8008 43.1914 34.9492 43.1914C35.1419 43.1914 35.3008 43.1484 35.4258 43.0625C35.5508 42.974 35.6458 42.8529 35.7109 42.6992C35.7786 42.5456 35.8177 42.3685 35.8281 42.168V41.6562C35.8203 41.4922 35.7969 41.3451 35.7578 41.2148C35.7214 41.082 35.6667 40.9688 35.5938 40.875C35.5234 40.7812 35.4349 40.7083 35.3281 40.6562C35.224 40.6042 35.1003 40.5781 34.957 40.5781C34.8112 40.5781 34.6862 40.612 34.582 40.6797C34.4779 40.7448 34.3932 40.8346 34.3281 40.9492C34.2656 41.0638 34.2188 41.1992 34.1875 41.3555C34.1589 41.5091 34.1445 41.6758 34.1445 41.8555ZM42.4023 38.3125V44H41.2305L38.9453 40.1875V44H37.7734V38.3125H38.9453L41.2344 42.1289V38.3125H42.4023ZM45.6328 43.0469V41.1641C45.6328 41.0286 45.6107 40.9128 45.5664 40.8164C45.5221 40.7174 45.4531 40.6406 45.3594 40.5859C45.2682 40.5312 45.1497 40.5039 45.0039 40.5039C44.8789 40.5039 44.7708 40.526 44.6797 40.5703C44.5885 40.612 44.5182 40.6732 44.4688 40.7539C44.4193 40.832 44.3945 40.9245 44.3945 41.0312H43.2695C43.2695 40.8516 43.3112 40.681 43.3945 40.5195C43.4779 40.3581 43.599 40.2161 43.7578 40.0938C43.9167 39.9688 44.1055 39.8711 44.3242 39.8008C44.5456 39.7305 44.793 39.6953 45.0664 39.6953C45.3945 39.6953 45.6862 39.75 45.9414 39.8594C46.1966 39.9688 46.3971 40.1328 46.543 40.3516C46.6914 40.5703 46.7656 40.8438 46.7656 41.1719V42.9805C46.7656 43.2122 46.7799 43.4023 46.8086 43.5508C46.8372 43.6966 46.8789 43.8242 46.9336 43.9336V44H45.7969C45.7422 43.8854 45.7005 43.7422 45.6719 43.5703C45.6458 43.3958 45.6328 43.2214 45.6328 43.0469ZM45.7812 41.4258L45.7891 42.0625H45.1602C45.0117 42.0625 44.8828 42.0794 44.7734 42.1133C44.6641 42.1471 44.5742 42.1953 44.5039 42.2578C44.4336 42.3177 44.3815 42.388 44.3477 42.4688C44.3164 42.5495 44.3008 42.638 44.3008 42.7344C44.3008 42.8307 44.3229 42.918 44.3672 42.9961C44.4115 43.0716 44.4753 43.1315 44.5586 43.1758C44.6419 43.2174 44.7396 43.2383 44.8516 43.2383C45.0208 43.2383 45.168 43.2044 45.293 43.1367C45.418 43.069 45.5143 42.9857 45.582 42.8867C45.6523 42.7878 45.6888 42.694 45.6914 42.6055L45.9883 43.082C45.9466 43.1888 45.8893 43.2995 45.8164 43.4141C45.7461 43.5286 45.6562 43.6367 45.5469 43.7383C45.4375 43.8372 45.306 43.9193 45.1523 43.9844C44.9987 44.0469 44.8164 44.0781 44.6055 44.0781C44.3372 44.0781 44.0938 44.0247 43.875 43.918C43.6589 43.8086 43.487 43.6589 43.3594 43.4688C43.2344 43.276 43.1719 43.0573 43.1719 42.8125C43.1719 42.5911 43.2135 42.3945 43.2969 42.2227C43.3802 42.0508 43.5026 41.9062 43.6641 41.7891C43.8281 41.6693 44.0326 41.5794 44.2773 41.5195C44.5221 41.457 44.806 41.4258 45.1289 41.4258H45.7812ZM48.7578 40.6484V44H47.6289V39.7734H48.6875L48.7578 40.6484ZM48.6016 41.7383H48.2891C48.2891 41.444 48.3242 41.1732 48.3945 40.9258C48.4674 40.6758 48.5729 40.4596 48.7109 40.2773C48.8516 40.0924 49.0247 39.9492 49.2305 39.8477C49.4362 39.7461 49.6745 39.6953 49.9453 39.6953C50.1328 39.6953 50.3047 39.724 50.4609 39.7812C50.6172 39.8359 50.7513 39.9232 50.8633 40.043C50.9779 40.1602 51.0664 40.3138 51.1289 40.5039C51.1914 40.6914 51.2227 40.9167 51.2227 41.1797V44H50.0977V41.3047C50.0977 41.112 50.0716 40.9635 50.0195 40.8594C49.9674 40.7552 49.8932 40.6823 49.7969 40.6406C49.7031 40.599 49.5898 40.5781 49.457 40.5781C49.3112 40.5781 49.1836 40.6081 49.0742 40.668C48.9674 40.7279 48.8789 40.8112 48.8086 40.918C48.7383 41.0221 48.6862 41.1445 48.6523 41.2852C48.6185 41.4258 48.6016 41.5768 48.6016 41.7383ZM51.1172 41.6094L50.7148 41.6602C50.7148 41.3841 50.7487 41.1276 50.8164 40.8906C50.8867 40.6536 50.9896 40.4453 51.125 40.2656C51.263 40.0859 51.4336 39.9466 51.6367 39.8477C51.8398 39.7461 52.0742 39.6953 52.3398 39.6953C52.543 39.6953 52.7279 39.7253 52.8945 39.7852C53.0612 39.8424 53.2031 39.9349 53.3203 40.0625C53.4401 40.1875 53.5312 40.3516 53.5938 40.5547C53.6589 40.7578 53.6914 41.0065 53.6914 41.3008V44H52.5625V41.3008C52.5625 41.1055 52.5365 40.957 52.4844 40.8555C52.4349 40.7513 52.362 40.6797 52.2656 40.6406C52.1719 40.599 52.0599 40.5781 51.9297 40.5781C51.7943 40.5781 51.6758 40.6055 51.5742 40.6602C51.4727 40.7122 51.388 40.7852 51.3203 40.8789C51.2526 40.9727 51.2018 41.082 51.168 41.207C51.1341 41.3294 51.1172 41.4635 51.1172 41.6094ZM56.5078 44.0781C56.1797 44.0781 55.8854 44.026 55.625 43.9219C55.3646 43.8151 55.1432 43.668 54.9609 43.4805C54.7812 43.293 54.6432 43.0755 54.5469 42.8281C54.4505 42.5781 54.4023 42.3125 54.4023 42.0312V41.875C54.4023 41.5547 54.4479 41.2617 54.5391 40.9961C54.6302 40.7305 54.7604 40.5 54.9297 40.3047C55.1016 40.1094 55.3099 39.9596 55.5547 39.8555C55.7995 39.7487 56.0755 39.6953 56.3828 39.6953C56.6823 39.6953 56.9479 39.7448 57.1797 39.8438C57.4115 39.9427 57.6055 40.0833 57.7617 40.2656C57.9206 40.4479 58.0404 40.6667 58.1211 40.9219C58.2018 41.1745 58.2422 41.4557 58.2422 41.7656V42.2344H54.8828V41.4844H57.1367V41.3984C57.1367 41.2422 57.1081 41.1029 57.0508 40.9805C56.9961 40.8555 56.9128 40.7565 56.8008 40.6836C56.6888 40.6107 56.5456 40.5742 56.3711 40.5742C56.2227 40.5742 56.0951 40.6068 55.9883 40.6719C55.8815 40.737 55.7943 40.8281 55.7266 40.9453C55.6615 41.0625 55.612 41.2005 55.5781 41.3594C55.5469 41.5156 55.5312 41.6875 55.5312 41.875V42.0312C55.5312 42.2005 55.5547 42.3568 55.6016 42.5C55.651 42.6432 55.7201 42.7669 55.8086 42.8711C55.8997 42.9753 56.0091 43.056 56.1367 43.1133C56.2669 43.1706 56.4141 43.1992 56.5781 43.1992C56.7812 43.1992 56.9701 43.1602 57.1445 43.082C57.3216 43.0013 57.474 42.8802 57.6016 42.7188L58.1484 43.3125C58.0599 43.4401 57.9388 43.5625 57.7852 43.6797C57.6341 43.7969 57.4518 43.8932 57.2383 43.9688C57.0247 44.0417 56.7812 44.0781 56.5078 44.0781Z" fill="white"/>
<path d="M13.2881 52.7344V57H12.4121V52.7344H13.2881ZM14.6006 52.7344V53.4229H11.1201V52.7344H14.6006ZM16.3145 56.2852V54.873C16.3145 54.7715 16.2979 54.6846 16.2646 54.6123C16.2314 54.5381 16.1797 54.4805 16.1094 54.4395C16.041 54.3984 15.9521 54.3779 15.8428 54.3779C15.749 54.3779 15.668 54.3945 15.5996 54.4277C15.5312 54.459 15.4785 54.5049 15.4414 54.5654C15.4043 54.624 15.3857 54.6934 15.3857 54.7734H14.542C14.542 54.6387 14.5732 54.5107 14.6357 54.3896C14.6982 54.2686 14.7891 54.1621 14.9082 54.0703C15.0273 53.9766 15.1689 53.9033 15.333 53.8506C15.499 53.7979 15.6846 53.7715 15.8896 53.7715C16.1357 53.7715 16.3545 53.8125 16.5459 53.8945C16.7373 53.9766 16.8877 54.0996 16.9971 54.2637C17.1084 54.4277 17.1641 54.6328 17.1641 54.8789V56.2354C17.1641 56.4092 17.1748 56.5518 17.1963 56.6631C17.2178 56.7725 17.249 56.8682 17.29 56.9502V57H16.4375C16.3965 56.9141 16.3652 56.8066 16.3438 56.6777C16.3242 56.5469 16.3145 56.416 16.3145 56.2852ZM16.4258 55.0693L16.4316 55.5469H15.96C15.8486 55.5469 15.752 55.5596 15.6699 55.585C15.5879 55.6104 15.5205 55.6465 15.4678 55.6934C15.415 55.7383 15.376 55.791 15.3506 55.8516C15.3271 55.9121 15.3154 55.9785 15.3154 56.0508C15.3154 56.123 15.332 56.1885 15.3652 56.2471C15.3984 56.3037 15.4463 56.3486 15.5088 56.3818C15.5713 56.4131 15.6445 56.4287 15.7285 56.4287C15.8555 56.4287 15.9658 56.4033 16.0596 56.3525C16.1533 56.3018 16.2256 56.2393 16.2764 56.165C16.3291 56.0908 16.3564 56.0205 16.3584 55.9541L16.5811 56.3115C16.5498 56.3916 16.5068 56.4746 16.4521 56.5605C16.3994 56.6465 16.332 56.7275 16.25 56.8037C16.168 56.8779 16.0693 56.9395 15.9541 56.9883C15.8389 57.0352 15.7021 57.0586 15.5439 57.0586C15.3428 57.0586 15.1602 57.0186 14.9961 56.9385C14.834 56.8564 14.7051 56.7441 14.6094 56.6016C14.5156 56.457 14.4688 56.293 14.4688 56.1094C14.4688 55.9434 14.5 55.7959 14.5625 55.667C14.625 55.5381 14.7168 55.4297 14.8379 55.3418C14.9609 55.252 15.1143 55.1846 15.2979 55.1396C15.4814 55.0928 15.6943 55.0693 15.9365 55.0693H16.4258ZM19.5283 56.124C19.5283 56.0635 19.5107 56.0088 19.4756 55.96C19.4404 55.9111 19.375 55.8662 19.2793 55.8252C19.1855 55.7822 19.0498 55.7432 18.8721 55.708C18.7119 55.6729 18.5625 55.6289 18.4238 55.5762C18.2871 55.5215 18.168 55.4561 18.0664 55.3799C17.9668 55.3037 17.8887 55.2139 17.832 55.1104C17.7754 55.0049 17.7471 54.8848 17.7471 54.75C17.7471 54.6172 17.7754 54.4922 17.832 54.375C17.8906 54.2578 17.9736 54.1543 18.0811 54.0645C18.1904 53.9727 18.3232 53.9014 18.4795 53.8506C18.6377 53.7979 18.8154 53.7715 19.0127 53.7715C19.2881 53.7715 19.5244 53.8154 19.7217 53.9033C19.9209 53.9912 20.0732 54.1123 20.1787 54.2666C20.2861 54.4189 20.3398 54.5928 20.3398 54.7881H19.4961C19.4961 54.7061 19.4785 54.6328 19.4434 54.5684C19.4102 54.502 19.3574 54.4502 19.2852 54.4131C19.2148 54.374 19.123 54.3545 19.0098 54.3545C18.916 54.3545 18.835 54.3711 18.7666 54.4043C18.6982 54.4355 18.6455 54.4785 18.6084 54.5332C18.5732 54.5859 18.5557 54.6445 18.5557 54.709C18.5557 54.7578 18.5654 54.8018 18.585 54.8408C18.6064 54.8779 18.6406 54.9121 18.6875 54.9434C18.7344 54.9746 18.7949 55.0039 18.8691 55.0312C18.9453 55.0566 19.0391 55.0801 19.1504 55.1016C19.3789 55.1484 19.583 55.21 19.7627 55.2861C19.9424 55.3604 20.085 55.4619 20.1904 55.5908C20.2959 55.7178 20.3486 55.8848 20.3486 56.0918C20.3486 56.2324 20.3174 56.3613 20.2549 56.4785C20.1924 56.5957 20.1025 56.6982 19.9854 56.7861C19.8682 56.8721 19.7275 56.9395 19.5635 56.9883C19.4014 57.0352 19.2188 57.0586 19.0156 57.0586C18.7207 57.0586 18.4707 57.0059 18.2656 56.9004C18.0625 56.7949 17.9082 56.6611 17.8027 56.499C17.6992 56.335 17.6475 56.167 17.6475 55.9951H18.4473C18.4512 56.1104 18.4805 56.2031 18.5352 56.2734C18.5918 56.3438 18.6631 56.3945 18.749 56.4258C18.8369 56.457 18.9316 56.4727 19.0332 56.4727C19.1426 56.4727 19.2334 56.458 19.3057 56.4287C19.3779 56.3975 19.4326 56.3564 19.4697 56.3057C19.5088 56.2529 19.5283 56.1924 19.5283 56.124ZM21.7402 52.4971V57H20.8965V52.4971H21.7402ZM23.7383 53.8301L22.3613 55.4004L21.623 56.1475L21.3154 55.5381L21.9014 54.7939L22.7246 53.8301H23.7383ZM22.8623 57L21.9248 55.5352L22.5078 55.0254L23.835 57H22.8623ZM27.626 52.7344V57H26.7471L25.0332 54.1406V57H24.1543V52.7344H25.0332L26.75 55.5967V52.7344H27.626ZM30.0488 56.2852V54.873C30.0488 54.7715 30.0322 54.6846 29.999 54.6123C29.9658 54.5381 29.9141 54.4805 29.8438 54.4395C29.7754 54.3984 29.6865 54.3779 29.5771 54.3779C29.4834 54.3779 29.4023 54.3945 29.334 54.4277C29.2656 54.459 29.2129 54.5049 29.1758 54.5654C29.1387 54.624 29.1201 54.6934 29.1201 54.7734H28.2764C28.2764 54.6387 28.3076 54.5107 28.3701 54.3896C28.4326 54.2686 28.5234 54.1621 28.6426 54.0703C28.7617 53.9766 28.9033 53.9033 29.0674 53.8506C29.2334 53.7979 29.4189 53.7715 29.624 53.7715C29.8701 53.7715 30.0889 53.8125 30.2803 53.8945C30.4717 53.9766 30.6221 54.0996 30.7314 54.2637C30.8428 54.4277 30.8984 54.6328 30.8984 54.8789V56.2354C30.8984 56.4092 30.9092 56.5518 30.9307 56.6631C30.9521 56.7725 30.9834 56.8682 31.0244 56.9502V57H30.1719C30.1309 56.9141 30.0996 56.8066 30.0781 56.6777C30.0586 56.5469 30.0488 56.416 30.0488 56.2852ZM30.1602 55.0693L30.166 55.5469H29.6943C29.583 55.5469 29.4863 55.5596 29.4043 55.585C29.3223 55.6104 29.2549 55.6465 29.2021 55.6934C29.1494 55.7383 29.1104 55.791 29.085 55.8516C29.0615 55.9121 29.0498 55.9785 29.0498 56.0508C29.0498 56.123 29.0664 56.1885 29.0996 56.2471C29.1328 56.3037 29.1807 56.3486 29.2432 56.3818C29.3057 56.4131 29.3789 56.4287 29.4629 56.4287C29.5898 56.4287 29.7002 56.4033 29.7939 56.3525C29.8877 56.3018 29.96 56.2393 30.0107 56.165C30.0635 56.0908 30.0908 56.0205 30.0928 55.9541L30.3154 56.3115C30.2842 56.3916 30.2412 56.4746 30.1865 56.5605C30.1338 56.6465 30.0664 56.7275 29.9844 56.8037C29.9023 56.8779 29.8037 56.9395 29.6885 56.9883C29.5732 57.0352 29.4365 57.0586 29.2783 57.0586C29.0771 57.0586 28.8945 57.0186 28.7305 56.9385C28.5684 56.8564 28.4395 56.7441 28.3438 56.6016C28.25 56.457 28.2031 56.293 28.2031 56.1094C28.2031 55.9434 28.2344 55.7959 28.2969 55.667C28.3594 55.5381 28.4512 55.4297 28.5723 55.3418C28.6953 55.252 28.8486 55.1846 29.0322 55.1396C29.2158 55.0928 29.4287 55.0693 29.6709 55.0693H30.1602ZM32.3926 54.4863V57H31.5459V53.8301H32.3398L32.3926 54.4863ZM32.2754 55.3037H32.041C32.041 55.083 32.0674 54.8799 32.1201 54.6943C32.1748 54.5068 32.2539 54.3447 32.3574 54.208C32.4629 54.0693 32.5928 53.9619 32.7471 53.8857C32.9014 53.8096 33.0801 53.7715 33.2832 53.7715C33.4238 53.7715 33.5527 53.793 33.6699 53.8359C33.7871 53.877 33.8877 53.9424 33.9717 54.0322C34.0576 54.1201 34.124 54.2354 34.1709 54.3779C34.2178 54.5186 34.2412 54.6875 34.2412 54.8848V57H33.3975V54.9785C33.3975 54.834 33.3779 54.7227 33.3389 54.6445C33.2998 54.5664 33.2441 54.5117 33.1719 54.4805C33.1016 54.4492 33.0166 54.4336 32.917 54.4336C32.8076 54.4336 32.7119 54.4561 32.6299 54.501C32.5498 54.5459 32.4834 54.6084 32.4307 54.6885C32.3779 54.7666 32.3389 54.8584 32.3135 54.9639C32.2881 55.0693 32.2754 55.1826 32.2754 55.3037ZM34.1621 55.207L33.8604 55.2451C33.8604 55.0381 33.8857 54.8457 33.9365 54.668C33.9893 54.4902 34.0664 54.334 34.168 54.1992C34.2715 54.0645 34.3994 53.96 34.5518 53.8857C34.7041 53.8096 34.8799 53.7715 35.0791 53.7715C35.2314 53.7715 35.3701 53.7939 35.4951 53.8389C35.6201 53.8818 35.7266 53.9512 35.8145 54.0469C35.9043 54.1406 35.9727 54.2637 36.0195 54.416C36.0684 54.5684 36.0928 54.7549 36.0928 54.9756V57H35.2461V54.9756C35.2461 54.8291 35.2266 54.7178 35.1875 54.6416C35.1504 54.5635 35.0957 54.5098 35.0234 54.4805C34.9531 54.4492 34.8691 54.4336 34.7715 54.4336C34.6699 54.4336 34.5811 54.4541 34.5049 54.4951C34.4287 54.5342 34.3652 54.5889 34.3145 54.6592C34.2637 54.7295 34.2256 54.8115 34.2002 54.9053C34.1748 54.9971 34.1621 55.0977 34.1621 55.207ZM38.2051 57.0586C37.959 57.0586 37.7383 57.0195 37.543 56.9414C37.3477 56.8613 37.1816 56.751 37.0449 56.6104C36.9102 56.4697 36.8066 56.3066 36.7344 56.1211C36.6621 55.9336 36.626 55.7344 36.626 55.5234V55.4062C36.626 55.166 36.6602 54.9463 36.7285 54.7471C36.7969 54.5479 36.8945 54.375 37.0215 54.2285C37.1504 54.082 37.3066 53.9697 37.4902 53.8916C37.6738 53.8115 37.8809 53.7715 38.1113 53.7715C38.3359 53.7715 38.5352 53.8086 38.709 53.8828C38.8828 53.957 39.0283 54.0625 39.1455 54.1992C39.2646 54.3359 39.3545 54.5 39.415 54.6914C39.4756 54.8809 39.5059 55.0918 39.5059 55.3242V55.6758H36.9863V55.1133H38.6768V55.0488C38.6768 54.9316 38.6553 54.8271 38.6123 54.7354C38.5713 54.6416 38.5088 54.5674 38.4248 54.5127C38.3408 54.458 38.2334 54.4307 38.1025 54.4307C37.9912 54.4307 37.8955 54.4551 37.8154 54.5039C37.7354 54.5527 37.6699 54.6211 37.6191 54.709C37.5703 54.7969 37.5332 54.9004 37.5078 55.0195C37.4844 55.1367 37.4727 55.2656 37.4727 55.4062V55.5234C37.4727 55.6504 37.4902 55.7676 37.5254 55.875C37.5625 55.9824 37.6143 56.0752 37.6807 56.1533C37.749 56.2314 37.8311 56.292 37.9268 56.335C38.0244 56.3779 38.1348 56.3994 38.2578 56.3994C38.4102 56.3994 38.5518 56.3701 38.6826 56.3115C38.8154 56.251 38.9297 56.1602 39.0254 56.0391L39.4355 56.4844C39.3691 56.5801 39.2783 56.6719 39.1631 56.7598C39.0498 56.8477 38.9131 56.9199 38.7529 56.9766C38.5928 57.0312 38.4102 57.0586 38.2051 57.0586ZM40.0186 56.5928C40.0186 56.4678 40.0615 56.3633 40.1475 56.2793C40.2354 56.1953 40.3516 56.1533 40.4961 56.1533C40.6406 56.1533 40.7559 56.1953 40.8418 56.2793C40.9297 56.3633 40.9736 56.4678 40.9736 56.5928C40.9736 56.7178 40.9297 56.8223 40.8418 56.9062C40.7559 56.9902 40.6406 57.0322 40.4961 57.0322C40.3516 57.0322 40.2354 56.9902 40.1475 56.9062C40.0615 56.8223 40.0186 56.7178 40.0186 56.5928ZM40.0186 54.1758C40.0186 54.0508 40.0615 53.9463 40.1475 53.8623C40.2354 53.7783 40.3516 53.7363 40.4961 53.7363C40.6406 53.7363 40.7559 53.7783 40.8418 53.8623C40.9297 53.9463 40.9736 54.0508 40.9736 54.1758C40.9736 54.3008 40.9297 54.4053 40.8418 54.4893C40.7559 54.5732 40.6406 54.6152 40.4961 54.6152C40.3516 54.6152 40.2354 54.5732 40.1475 54.4893C40.0615 54.4053 40.0186 54.3008 40.0186 54.1758ZM45.582 52.7344H46.458V55.5527C46.458 55.8809 46.3877 56.1572 46.2471 56.3818C46.1084 56.6064 45.916 56.7754 45.6699 56.8887C45.4258 57.002 45.1445 57.0586 44.8262 57.0586C44.5078 57.0586 44.2246 57.002 43.9766 56.8887C43.7305 56.7754 43.5371 56.6064 43.3965 56.3818C43.2578 56.1572 43.1885 55.8809 43.1885 55.5527V52.7344H44.0674V55.5527C44.0674 55.7441 44.0977 55.9004 44.1582 56.0215C44.2188 56.1426 44.3057 56.2314 44.4189 56.2881C44.5342 56.3447 44.6699 56.373 44.8262 56.373C44.9863 56.373 45.1221 56.3447 45.2334 56.2881C45.3467 56.2314 45.4326 56.1426 45.4912 56.0215C45.5518 55.9004 45.582 55.7441 45.582 55.5527V52.7344ZM47.9727 54.4395V58.2188H47.1289V53.8301H47.9111L47.9727 54.4395ZM49.9795 55.3799V55.4414C49.9795 55.6719 49.9521 55.8857 49.8975 56.083C49.8447 56.2803 49.7666 56.4521 49.6631 56.5986C49.5596 56.7432 49.4307 56.8564 49.2764 56.9385C49.124 57.0186 48.9482 57.0586 48.749 57.0586C48.5557 57.0586 48.3877 57.0195 48.2451 56.9414C48.1025 56.8633 47.9824 56.7539 47.8848 56.6133C47.7891 56.4707 47.7119 56.3057 47.6533 56.1182C47.5947 55.9307 47.5498 55.7295 47.5186 55.5146V55.3535C47.5498 55.123 47.5947 54.9121 47.6533 54.7207C47.7119 54.5273 47.7891 54.3604 47.8848 54.2197C47.9824 54.0771 48.1016 53.9668 48.2422 53.8887C48.3848 53.8105 48.5518 53.7715 48.7432 53.7715C48.9443 53.7715 49.1211 53.8096 49.2734 53.8857C49.4277 53.9619 49.5566 54.0713 49.6602 54.2139C49.7656 54.3564 49.8447 54.5264 49.8975 54.7236C49.9521 54.9209 49.9795 55.1396 49.9795 55.3799ZM49.1328 55.4414V55.3799C49.1328 55.2451 49.1211 55.1211 49.0977 55.0078C49.0762 54.8926 49.041 54.792 48.9922 54.7061C48.9453 54.6201 48.8828 54.5537 48.8047 54.5068C48.7285 54.458 48.6357 54.4336 48.5264 54.4336C48.4111 54.4336 48.3125 54.4521 48.2305 54.4893C48.1504 54.5264 48.085 54.5801 48.0342 54.6504C47.9834 54.7207 47.9453 54.8047 47.9199 54.9023C47.8945 55 47.8789 55.1104 47.873 55.2334V55.6406C47.8828 55.7852 47.9102 55.915 47.9551 56.0303C48 56.1436 48.0693 56.2334 48.1631 56.2998C48.2568 56.3662 48.3799 56.3994 48.5322 56.3994C48.6436 56.3994 48.7373 56.375 48.8135 56.3262C48.8896 56.2754 48.9512 56.2061 48.998 56.1182C49.0469 56.0303 49.0811 55.9287 49.1006 55.8135C49.1221 55.6982 49.1328 55.5742 49.1328 55.4414ZM52.376 56.3086V52.5H53.2256V57H52.4609L52.376 56.3086ZM50.3721 55.4531V55.3916C50.3721 55.1494 50.3994 54.9297 50.4541 54.7324C50.5088 54.5332 50.5889 54.3623 50.6943 54.2197C50.7998 54.0771 50.9297 53.9668 51.084 53.8887C51.2383 53.8105 51.4141 53.7715 51.6113 53.7715C51.7969 53.7715 51.959 53.8105 52.0977 53.8887C52.2383 53.9668 52.3574 54.0781 52.4551 54.2227C52.5547 54.3652 52.6348 54.5342 52.6953 54.7295C52.7559 54.9229 52.7998 55.1348 52.8271 55.3652V55.5C52.7998 55.7207 52.7559 55.9258 52.6953 56.1152C52.6348 56.3047 52.5547 56.4707 52.4551 56.6133C52.3574 56.7539 52.2383 56.8633 52.0977 56.9414C51.957 57.0195 51.793 57.0586 51.6055 57.0586C51.4082 57.0586 51.2324 57.0186 51.0781 56.9385C50.9258 56.8584 50.7969 56.7461 50.6914 56.6016C50.5879 56.457 50.5088 56.2871 50.4541 56.0918C50.3994 55.8965 50.3721 55.6836 50.3721 55.4531ZM51.2158 55.3916V55.4531C51.2158 55.584 51.2256 55.7061 51.2451 55.8193C51.2666 55.9326 51.3008 56.0332 51.3477 56.1211C51.3965 56.207 51.459 56.2744 51.5352 56.3232C51.6133 56.3701 51.708 56.3936 51.8193 56.3936C51.9639 56.3936 52.083 56.3613 52.1768 56.2969C52.2705 56.2305 52.3418 56.1396 52.3906 56.0244C52.4414 55.9092 52.4707 55.7764 52.4785 55.626V55.2422C52.4727 55.1191 52.4551 55.0088 52.4258 54.9111C52.3984 54.8115 52.3574 54.7266 52.3027 54.6562C52.25 54.5859 52.1836 54.5312 52.1035 54.4922C52.0254 54.4531 51.9326 54.4336 51.8252 54.4336C51.7158 54.4336 51.6221 54.459 51.5439 54.5098C51.4658 54.5586 51.4023 54.626 51.3535 54.7119C51.3066 54.7979 51.2715 54.8994 51.248 55.0166C51.2266 55.1318 51.2158 55.2568 51.2158 55.3916ZM55.5957 56.2852V54.873C55.5957 54.7715 55.5791 54.6846 55.5459 54.6123C55.5127 54.5381 55.4609 54.4805 55.3906 54.4395C55.3223 54.3984 55.2334 54.3779 55.124 54.3779C55.0303 54.3779 54.9492 54.3945 54.8809 54.4277C54.8125 54.459 54.7598 54.5049 54.7227 54.5654C54.6855 54.624 54.667 54.6934 54.667 54.7734H53.8232C53.8232 54.6387 53.8545 54.5107 53.917 54.3896C53.9795 54.2686 54.0703 54.1621 54.1895 54.0703C54.3086 53.9766 54.4502 53.9033 54.6143 53.8506C54.7803 53.7979 54.9658 53.7715 55.1709 53.7715C55.417 53.7715 55.6357 53.8125 55.8271 53.8945C56.0186 53.9766 56.1689 54.0996 56.2783 54.2637C56.3896 54.4277 56.4453 54.6328 56.4453 54.8789V56.2354C56.4453 56.4092 56.4561 56.5518 56.4775 56.6631C56.499 56.7725 56.5303 56.8682 56.5713 56.9502V57H55.7188C55.6777 56.9141 55.6465 56.8066 55.625 56.6777C55.6055 56.5469 55.5957 56.416 55.5957 56.2852ZM55.707 55.0693L55.7129 55.5469H55.2412C55.1299 55.5469 55.0332 55.5596 54.9512 55.585C54.8691 55.6104 54.8018 55.6465 54.749 55.6934C54.6963 55.7383 54.6572 55.791 54.6318 55.8516C54.6084 55.9121 54.5967 55.9785 54.5967 56.0508C54.5967 56.123 54.6133 56.1885 54.6465 56.2471C54.6797 56.3037 54.7275 56.3486 54.79 56.3818C54.8525 56.4131 54.9258 56.4287 55.0098 56.4287C55.1367 56.4287 55.2471 56.4033 55.3408 56.3525C55.4346 56.3018 55.5068 56.2393 55.5576 56.165C55.6104 56.0908 55.6377 56.0205 55.6396 55.9541L55.8623 56.3115C55.8311 56.3916 55.7881 56.4746 55.7334 56.5605C55.6807 56.6465 55.6133 56.7275 55.5312 56.8037C55.4492 56.8779 55.3506 56.9395 55.2354 56.9883C55.1201 57.0352 54.9834 57.0586 54.8252 57.0586C54.624 57.0586 54.4414 57.0186 54.2773 56.9385C54.1152 56.8564 53.9863 56.7441 53.8906 56.6016C53.7969 56.457 53.75 56.293 53.75 56.1094C53.75 55.9434 53.7812 55.7959 53.8438 55.667C53.9062 55.5381 53.998 55.4297 54.1191 55.3418C54.2422 55.252 54.3955 55.1846 54.5791 55.1396C54.7627 55.0928 54.9756 55.0693 55.2178 55.0693H55.707ZM58.6484 53.8301V54.4277H56.8027V53.8301H58.6484ZM57.2598 53.0479H58.1035V56.0449C58.1035 56.1367 58.1152 56.207 58.1387 56.2559C58.1641 56.3047 58.2012 56.3389 58.25 56.3584C58.2988 56.376 58.3604 56.3848 58.4346 56.3848C58.4873 56.3848 58.5342 56.3828 58.5752 56.3789C58.6182 56.373 58.6543 56.3672 58.6836 56.3613L58.6865 56.9824C58.6143 57.0059 58.5361 57.0244 58.4521 57.0381C58.3682 57.0518 58.2754 57.0586 58.1738 57.0586C57.9883 57.0586 57.8262 57.0283 57.6875 56.9678C57.5508 56.9053 57.4453 56.8057 57.3711 56.6689C57.2969 56.5322 57.2598 56.3525 57.2598 56.1299V53.0479ZM60.5879 57.0586C60.3418 57.0586 60.1211 57.0195 59.9258 56.9414C59.7305 56.8613 59.5645 56.751 59.4277 56.6104C59.293 56.4697 59.1895 56.3066 59.1172 56.1211C59.0449 55.9336 59.0088 55.7344 59.0088 55.5234V55.4062C59.0088 55.166 59.043 54.9463 59.1113 54.7471C59.1797 54.5479 59.2773 54.375 59.4043 54.2285C59.5332 54.082 59.6895 53.9697 59.873 53.8916C60.0566 53.8115 60.2637 53.7715 60.4941 53.7715C60.7188 53.7715 60.918 53.8086 61.0918 53.8828C61.2656 53.957 61.4111 54.0625 61.5283 54.1992C61.6475 54.3359 61.7373 54.5 61.7979 54.6914C61.8584 54.8809 61.8887 55.0918 61.8887 55.3242V55.6758H59.3691V55.1133H61.0596V55.0488C61.0596 54.9316 61.0381 54.8271 60.9951 54.7354C60.9541 54.6416 60.8916 54.5674 60.8076 54.5127C60.7236 54.458 60.6162 54.4307 60.4854 54.4307C60.374 54.4307 60.2783 54.4551 60.1982 54.5039C60.1182 54.5527 60.0527 54.6211 60.002 54.709C59.9531 54.7969 59.916 54.9004 59.8906 55.0195C59.8672 55.1367 59.8555 55.2656 59.8555 55.4062V55.5234C59.8555 55.6504 59.873 55.7676 59.9082 55.875C59.9453 55.9824 59.9971 56.0752 60.0635 56.1533C60.1318 56.2314 60.2139 56.292 60.3096 56.335C60.4072 56.3779 60.5176 56.3994 60.6406 56.3994C60.793 56.3994 60.9346 56.3701 61.0654 56.3115C61.1982 56.251 61.3125 56.1602 61.4082 56.0391L61.8184 56.4844C61.752 56.5801 61.6611 56.6719 61.5459 56.7598C61.4326 56.8477 61.2959 56.9199 61.1357 56.9766C60.9756 57.0312 60.793 57.0586 60.5879 57.0586ZM64.2412 56.3086V52.5H65.0908V57H64.3262L64.2412 56.3086ZM62.2373 55.4531V55.3916C62.2373 55.1494 62.2646 54.9297 62.3193 54.7324C62.374 54.5332 62.4541 54.3623 62.5596 54.2197C62.665 54.0771 62.7949 53.9668 62.9492 53.8887C63.1035 53.8105 63.2793 53.7715 63.4766 53.7715C63.6621 53.7715 63.8242 53.8105 63.9629 53.8887C64.1035 53.9668 64.2227 54.0781 64.3203 54.2227C64.4199 54.3652 64.5 54.5342 64.5605 54.7295C64.6211 54.9229 64.665 55.1348 64.6924 55.3652V55.5C64.665 55.7207 64.6211 55.9258 64.5605 56.1152C64.5 56.3047 64.4199 56.4707 64.3203 56.6133C64.2227 56.7539 64.1035 56.8633 63.9629 56.9414C63.8223 57.0195 63.6582 57.0586 63.4707 57.0586C63.2734 57.0586 63.0977 57.0186 62.9434 56.9385C62.791 56.8584 62.6621 56.7461 62.5566 56.6016C62.4531 56.457 62.374 56.2871 62.3193 56.0918C62.2646 55.8965 62.2373 55.6836 62.2373 55.4531ZM63.0811 55.3916V55.4531C63.0811 55.584 63.0908 55.7061 63.1104 55.8193C63.1318 55.9326 63.166 56.0332 63.2129 56.1211C63.2617 56.207 63.3242 56.2744 63.4004 56.3232C63.4785 56.3701 63.5732 56.3936 63.6846 56.3936C63.8291 56.3936 63.9482 56.3613 64.042 56.2969C64.1357 56.2305 64.207 56.1396 64.2559 56.0244C64.3066 55.9092 64.3359 55.7764 64.3438 55.626V55.2422C64.3379 55.1191 64.3203 55.0088 64.291 54.9111C64.2637 54.8115 64.2227 54.7266 64.168 54.6562C64.1152 54.5859 64.0488 54.5312 63.9688 54.4922C63.8906 54.4531 63.7979 54.4336 63.6904 54.4336C63.5811 54.4336 63.4873 54.459 63.4092 54.5098C63.3311 54.5586 63.2676 54.626 63.2188 54.7119C63.1719 54.7979 63.1367 54.8994 63.1133 55.0166C63.0918 55.1318 63.0811 55.2568 63.0811 55.3916ZM68.0234 55.8838C68.0234 55.8076 68.0117 55.7393 67.9883 55.6787C67.9668 55.6162 67.9258 55.5596 67.8652 55.5088C67.8047 55.4561 67.7197 55.4043 67.6104 55.3535C67.501 55.3027 67.3594 55.25 67.1855 55.1953C66.9922 55.1328 66.8086 55.0625 66.6348 54.9844C66.4629 54.9062 66.3105 54.8154 66.1777 54.7119C66.0469 54.6064 65.9434 54.4844 65.8672 54.3457C65.793 54.207 65.7559 54.0459 65.7559 53.8623C65.7559 53.6846 65.7949 53.5234 65.873 53.3789C65.9512 53.2324 66.0605 53.1074 66.2012 53.0039C66.3418 52.8984 66.5078 52.8174 66.6992 52.7607C66.8926 52.7041 67.1045 52.6758 67.335 52.6758C67.6494 52.6758 67.9238 52.7324 68.1582 52.8457C68.3926 52.959 68.5742 53.1143 68.7031 53.3115C68.834 53.5088 68.8994 53.7344 68.8994 53.9883H68.0264C68.0264 53.8633 68 53.7539 67.9473 53.6602C67.8965 53.5645 67.8184 53.4893 67.7129 53.4346C67.6094 53.3799 67.4785 53.3525 67.3203 53.3525C67.168 53.3525 67.041 53.376 66.9395 53.4229C66.8379 53.4678 66.7617 53.5293 66.7109 53.6074C66.6602 53.6836 66.6348 53.7695 66.6348 53.8652C66.6348 53.9375 66.6523 54.0029 66.6875 54.0615C66.7246 54.1201 66.7793 54.1748 66.8516 54.2256C66.9238 54.2764 67.0127 54.3242 67.1182 54.3691C67.2236 54.4141 67.3457 54.458 67.4844 54.501C67.7168 54.5713 67.9209 54.6504 68.0967 54.7383C68.2744 54.8262 68.4229 54.9248 68.542 55.0342C68.6611 55.1436 68.751 55.2676 68.8115 55.4062C68.8721 55.5449 68.9023 55.7021 68.9023 55.8779C68.9023 56.0635 68.8662 56.2295 68.7939 56.376C68.7217 56.5225 68.6172 56.6465 68.4805 56.748C68.3438 56.8496 68.1807 56.9268 67.9912 56.9795C67.8018 57.0322 67.5898 57.0586 67.3555 57.0586C67.1445 57.0586 66.9365 57.0312 66.7314 56.9766C66.5264 56.9199 66.3398 56.835 66.1719 56.7217C66.0059 56.6084 65.873 56.4639 65.7734 56.2881C65.6738 56.1123 65.624 55.9043 65.624 55.6641H66.5059C66.5059 55.7969 66.5264 55.9092 66.5674 56.001C66.6084 56.0928 66.666 56.167 66.7402 56.2236C66.8164 56.2803 66.9062 56.3213 67.0098 56.3467C67.1152 56.3721 67.2305 56.3848 67.3555 56.3848C67.5078 56.3848 67.6328 56.3633 67.7305 56.3203C67.8301 56.2773 67.9033 56.2178 67.9502 56.1416C67.999 56.0654 68.0234 55.9795 68.0234 55.8838ZM71 53.8301V54.4277H69.1543V53.8301H71ZM69.6113 53.0479H70.4551V56.0449C70.4551 56.1367 70.4668 56.207 70.4902 56.2559C70.5156 56.3047 70.5527 56.3389 70.6016 56.3584C70.6504 56.376 70.7119 56.3848 70.7861 56.3848C70.8389 56.3848 70.8857 56.3828 70.9268 56.3789C70.9697 56.373 71.0059 56.3672 71.0352 56.3613L71.0381 56.9824C70.9658 57.0059 70.8877 57.0244 70.8037 57.0381C70.7197 57.0518 70.627 57.0586 70.5254 57.0586C70.3398 57.0586 70.1777 57.0283 70.0391 56.9678C69.9023 56.9053 69.7969 56.8057 69.7227 56.6689C69.6484 56.5322 69.6113 56.3525 69.6113 56.1299V53.0479ZM73.1914 56.2852V54.873C73.1914 54.7715 73.1748 54.6846 73.1416 54.6123C73.1084 54.5381 73.0566 54.4805 72.9863 54.4395C72.918 54.3984 72.8291 54.3779 72.7197 54.3779C72.626 54.3779 72.5449 54.3945 72.4766 54.4277C72.4082 54.459 72.3555 54.5049 72.3184 54.5654C72.2812 54.624 72.2627 54.6934 72.2627 54.7734H71.4189C71.4189 54.6387 71.4502 54.5107 71.5127 54.3896C71.5752 54.2686 71.666 54.1621 71.7852 54.0703C71.9043 53.9766 72.0459 53.9033 72.21 53.8506C72.376 53.7979 72.5615 53.7715 72.7666 53.7715C73.0127 53.7715 73.2314 53.8125 73.4229 53.8945C73.6143 53.9766 73.7646 54.0996 73.874 54.2637C73.9854 54.4277 74.041 54.6328 74.041 54.8789V56.2354C74.041 56.4092 74.0518 56.5518 74.0732 56.6631C74.0947 56.7725 74.126 56.8682 74.167 56.9502V57H73.3145C73.2734 56.9141 73.2422 56.8066 73.2207 56.6777C73.2012 56.5469 73.1914 56.416 73.1914 56.2852ZM73.3027 55.0693L73.3086 55.5469H72.8369C72.7256 55.5469 72.6289 55.5596 72.5469 55.585C72.4648 55.6104 72.3975 55.6465 72.3447 55.6934C72.292 55.7383 72.2529 55.791 72.2275 55.8516C72.2041 55.9121 72.1924 55.9785 72.1924 56.0508C72.1924 56.123 72.209 56.1885 72.2422 56.2471C72.2754 56.3037 72.3232 56.3486 72.3857 56.3818C72.4482 56.4131 72.5215 56.4287 72.6055 56.4287C72.7324 56.4287 72.8428 56.4033 72.9365 56.3525C73.0303 56.3018 73.1025 56.2393 73.1533 56.165C73.2061 56.0908 73.2334 56.0205 73.2354 55.9541L73.458 56.3115C73.4268 56.3916 73.3838 56.4746 73.3291 56.5605C73.2764 56.6465 73.209 56.7275 73.127 56.8037C73.0449 56.8779 72.9463 56.9395 72.8311 56.9883C72.7158 57.0352 72.5791 57.0586 72.4209 57.0586C72.2197 57.0586 72.0371 57.0186 71.873 56.9385C71.7109 56.8564 71.582 56.7441 71.4863 56.6016C71.3926 56.457 71.3457 56.293 71.3457 56.1094C71.3457 55.9434 71.377 55.7959 71.4395 55.667C71.502 55.5381 71.5938 55.4297 71.7148 55.3418C71.8379 55.252 71.9912 55.1846 72.1748 55.1396C72.3584 55.0928 72.5713 55.0693 72.8135 55.0693H73.3027ZM76.2441 53.8301V54.4277H74.3984V53.8301H76.2441ZM74.8555 53.0479H75.6992V56.0449C75.6992 56.1367 75.7109 56.207 75.7344 56.2559C75.7598 56.3047 75.7969 56.3389 75.8457 56.3584C75.8945 56.376 75.9561 56.3848 76.0303 56.3848C76.083 56.3848 76.1299 56.3828 76.1709 56.3789C76.2139 56.373 76.25 56.3672 76.2793 56.3613L76.2822 56.9824C76.21 57.0059 76.1318 57.0244 76.0479 57.0381C75.9639 57.0518 75.8711 57.0586 75.7695 57.0586C75.584 57.0586 75.4219 57.0283 75.2832 56.9678C75.1465 56.9053 75.041 56.8057 74.9668 56.6689C74.8926 56.5322 74.8555 56.3525 74.8555 56.1299V53.0479ZM78.5996 56.2412V53.8301H79.4434V57H78.6494L78.5996 56.2412ZM78.6934 55.5908L78.9424 55.585C78.9424 55.7959 78.918 55.9922 78.8691 56.1738C78.8203 56.3535 78.7471 56.5098 78.6494 56.6426C78.5518 56.7734 78.4287 56.876 78.2803 56.9502C78.1318 57.0225 77.957 57.0586 77.7559 57.0586C77.6016 57.0586 77.459 57.0371 77.3281 56.9941C77.1992 56.9492 77.0879 56.8799 76.9941 56.7861C76.9023 56.6904 76.8301 56.5684 76.7773 56.4199C76.7266 56.2695 76.7012 56.0889 76.7012 55.8779V53.8301H77.5449V55.8838C77.5449 55.9775 77.5557 56.0566 77.5771 56.1211C77.6006 56.1855 77.6328 56.2383 77.6738 56.2793C77.7148 56.3203 77.7627 56.3496 77.8174 56.3672C77.874 56.3848 77.9365 56.3936 78.0049 56.3936C78.1787 56.3936 78.3154 56.3584 78.415 56.2881C78.5166 56.2178 78.5879 56.1221 78.6289 56.001C78.6719 55.8779 78.6934 55.7412 78.6934 55.5908ZM81.8018 56.124C81.8018 56.0635 81.7842 56.0088 81.749 55.96C81.7139 55.9111 81.6484 55.8662 81.5527 55.8252C81.459 55.7822 81.3232 55.7432 81.1455 55.708C80.9854 55.6729 80.8359 55.6289 80.6973 55.5762C80.5605 55.5215 80.4414 55.4561 80.3398 55.3799C80.2402 55.3037 80.1621 55.2139 80.1055 55.1104C80.0488 55.0049 80.0205 54.8848 80.0205 54.75C80.0205 54.6172 80.0488 54.4922 80.1055 54.375C80.1641 54.2578 80.2471 54.1543 80.3545 54.0645C80.4639 53.9727 80.5967 53.9014 80.7529 53.8506C80.9111 53.7979 81.0889 53.7715 81.2861 53.7715C81.5615 53.7715 81.7979 53.8154 81.9951 53.9033C82.1943 53.9912 82.3467 54.1123 82.4521 54.2666C82.5596 54.4189 82.6133 54.5928 82.6133 54.7881H81.7695C81.7695 54.7061 81.752 54.6328 81.7168 54.5684C81.6836 54.502 81.6309 54.4502 81.5586 54.4131C81.4883 54.374 81.3965 54.3545 81.2832 54.3545C81.1895 54.3545 81.1084 54.3711 81.04 54.4043C80.9717 54.4355 80.9189 54.4785 80.8818 54.5332C80.8467 54.5859 80.8291 54.6445 80.8291 54.709C80.8291 54.7578 80.8389 54.8018 80.8584 54.8408C80.8799 54.8779 80.9141 54.9121 80.9609 54.9434C81.0078 54.9746 81.0684 55.0039 81.1426 55.0312C81.2188 55.0566 81.3125 55.0801 81.4238 55.1016C81.6523 55.1484 81.8564 55.21 82.0361 55.2861C82.2158 55.3604 82.3584 55.4619 82.4639 55.5908C82.5693 55.7178 82.6221 55.8848 82.6221 56.0918C82.6221 56.2324 82.5908 56.3613 82.5283 56.4785C82.4658 56.5957 82.376 56.6982 82.2588 56.7861C82.1416 56.8721 82.001 56.9395 81.8369 56.9883C81.6748 57.0352 81.4922 57.0586 81.2891 57.0586C80.9941 57.0586 80.7441 57.0059 80.5391 56.9004C80.3359 56.7949 80.1816 56.6611 80.0762 56.499C79.9727 56.335 79.9209 56.167 79.9209 55.9951H80.7207C80.7246 56.1104 80.7539 56.2031 80.8086 56.2734C80.8652 56.3438 80.9365 56.3945 81.0225 56.4258C81.1104 56.457 81.2051 56.4727 81.3066 56.4727C81.416 56.4727 81.5068 56.458 81.5791 56.4287C81.6514 56.3975 81.7061 56.3564 81.7432 56.3057C81.7822 56.2529 81.8018 56.1924 81.8018 56.124Z" fill="white"/>
<circle cx="16" cy="15" r="10" fill="#3F4547"/>
</svg>
