<svg width="600" height="1200" viewBox="0 0 600 1200" fill="none" xmlns="http://www.w3.org/2000/svg">
<g clip-path="url(#clip0_1_48)">
<rect width="600" height="1200" fill="url(#paint0_linear_1_48)"/>
<g clip-path="url(#clip1_1_48)">
<rect x="55.3257" y="81.4169" width="60" height="180" rx="16" fill="#9FE3AE"/>
<rect x="132.82" y="81.4169" width="60" height="120" rx="16" fill="#7FB58B"/>
<rect x="210.314" y="81.4169" width="60" height="60" rx="16" fill="#6E9777"/>
<path d="M307.34 144C306.052 144 304.932 143.524 303.98 142.572C303.084 141.62 302.636 140.5 302.636 139.212V87.468C302.636 86.18 303.084 85.06 303.98 84.108C304.932 83.156 306.052 82.68 307.34 82.68H309.608C310.896 82.68 312.016 83.156 312.968 84.108C313.92 85.06 314.396 86.18 314.396 87.468V109.224C314.396 109.28 314.424 109.308 314.48 109.308C314.536 109.308 314.564 109.28 314.564 109.224L331.448 86.544C333.296 83.968 335.816 82.68 339.008 82.68H343.208C344.16 82.68 344.86 83.128 345.308 84.024C345.756 84.92 345.672 85.732 345.056 86.46L325.736 111.492C325.456 111.884 325.456 112.276 325.736 112.668L345.98 140.136C346.596 140.92 346.68 141.76 346.232 142.656C345.784 143.552 345.056 144 344.048 144H339.848C336.656 144 334.164 142.712 332.372 140.136L314.564 114.936C314.564 114.88 314.536 114.852 314.48 114.852C314.424 114.852 314.396 114.88 314.396 114.936V139.212C314.396 140.5 313.92 141.62 312.968 142.572C312.016 143.524 310.896 144 309.608 144H307.34ZM377.45 93.096L370.058 119.472C370.002 119.64 370.03 119.808 370.142 119.976C370.254 120.144 370.394 120.228 370.562 120.228H384.506C384.674 120.228 384.814 120.144 384.926 119.976C385.038 119.808 385.066 119.64 385.01 119.472L377.618 93.096C377.618 93.04 377.59 93.012 377.534 93.012C377.478 93.012 377.45 93.04 377.45 93.096ZM355.694 144C354.518 144 353.594 143.524 352.922 142.572C352.25 141.62 352.11 140.584 352.502 139.464L369.89 87.216C370.394 85.872 371.206 84.78 372.326 83.94C373.502 83.1 374.79 82.68 376.19 82.68H379.214C380.67 82.68 381.958 83.1 383.078 83.94C384.254 84.78 385.066 85.872 385.514 87.216L402.902 139.464C403.294 140.584 403.154 141.62 402.482 142.572C401.81 143.524 400.886 144 399.71 144H396.686C395.342 144 394.082 143.58 392.906 142.74C391.786 141.844 391.03 140.724 390.638 139.38L387.95 129.888C387.894 129.44 387.586 129.216 387.026 129.216H368.042C367.538 129.216 367.23 129.44 367.118 129.888L364.43 139.38C364.094 140.724 363.338 141.844 362.162 142.74C361.042 143.58 359.782 144 358.382 144H355.694ZM422.837 92.256V110.484C422.837 110.932 423.089 111.156 423.593 111.156H427.793C437.761 111.156 442.745 107.6 442.745 100.488C442.745 94.16 438.125 90.996 428.885 90.996C427.205 90.996 425.441 91.136 423.593 91.416C423.089 91.528 422.837 91.808 422.837 92.256ZM416.033 144C414.745 144 413.625 143.524 412.673 142.572C411.721 141.62 411.245 140.5 411.245 139.212V87.888C411.245 86.544 411.693 85.34 412.589 84.276C413.485 83.212 414.605 82.624 415.949 82.512C420.709 82.064 425.301 81.84 429.725 81.84C437.957 81.84 444.117 83.38 448.205 86.46C452.293 89.484 454.337 93.768 454.337 99.312C454.337 103.288 453.245 106.788 451.061 109.812C448.933 112.836 446.049 114.964 442.409 116.196C442.353 116.196 442.325 116.224 442.325 116.28C442.325 116.392 442.353 116.448 442.409 116.448C445.097 118.128 447.393 121.432 449.297 126.36L454.337 139.548C454.729 140.612 454.589 141.62 453.917 142.572C453.301 143.524 452.433 144 451.313 144H448.709C447.253 144 445.937 143.608 444.761 142.824C443.585 141.984 442.745 140.892 442.241 139.548L437.537 126.612C436.529 123.924 435.381 122.16 434.093 121.32C432.805 120.48 430.593 120.06 427.457 120.06H423.593C423.089 120.06 422.837 120.312 422.837 120.816V139.212C422.837 140.5 422.361 141.62 421.409 142.572C420.513 143.524 419.421 144 418.133 144H416.033ZM486.388 93.096L478.996 119.472C478.94 119.64 478.968 119.808 479.08 119.976C479.192 120.144 479.332 120.228 479.5 120.228H493.444C493.612 120.228 493.752 120.144 493.864 119.976C493.976 119.808 494.004 119.64 493.948 119.472L486.556 93.096C486.556 93.04 486.528 93.012 486.472 93.012C486.416 93.012 486.388 93.04 486.388 93.096ZM464.632 144C463.456 144 462.532 143.524 461.86 142.572C461.188 141.62 461.048 140.584 461.44 139.464L478.828 87.216C479.332 85.872 480.144 84.78 481.264 83.94C482.44 83.1 483.728 82.68 485.128 82.68H488.152C489.608 82.68 490.896 83.1 492.016 83.94C493.192 84.78 494.004 85.872 494.452 87.216L511.84 139.464C512.232 140.584 512.092 141.62 511.42 142.572C510.748 143.524 509.824 144 508.648 144H505.624C504.28 144 503.02 143.58 501.844 142.74C500.724 141.844 499.968 140.724 499.576 139.38L496.888 129.888C496.832 129.44 496.524 129.216 495.964 129.216H476.98C476.476 129.216 476.168 129.44 476.056 129.888L473.368 139.38C473.032 140.724 472.276 141.844 471.1 142.74C469.98 143.58 468.72 144 467.32 144H464.632ZM307.34 264C306.052 264 304.932 263.524 303.98 262.572C303.084 261.62 302.636 260.5 302.636 259.212V207.468C302.636 206.18 303.084 205.06 303.98 204.108C304.932 203.156 306.052 202.68 307.34 202.68H309.608C310.896 202.68 312.016 203.156 312.968 204.108C313.92 205.06 314.396 206.18 314.396 207.468V229.224C314.396 229.28 314.424 229.308 314.48 229.308C314.536 229.308 314.564 229.28 314.564 229.224L331.448 206.544C333.296 203.968 335.816 202.68 339.008 202.68H343.208C344.16 202.68 344.86 203.128 345.308 204.024C345.756 204.92 345.672 205.732 345.056 206.46L325.736 231.492C325.456 231.884 325.456 232.276 325.736 232.668L345.98 260.136C346.596 260.92 346.68 261.76 346.232 262.656C345.784 263.552 345.056 264 344.048 264H339.848C336.656 264 334.164 262.712 332.372 260.136L314.564 234.936C314.564 234.88 314.536 234.852 314.48 234.852C314.424 234.852 314.396 234.88 314.396 234.936V259.212C314.396 260.5 313.92 261.62 312.968 262.572C312.016 263.524 310.896 264 309.608 264H307.34ZM377.45 213.096L370.058 239.472C370.002 239.64 370.03 239.808 370.142 239.976C370.254 240.144 370.394 240.228 370.562 240.228H384.506C384.674 240.228 384.814 240.144 384.926 239.976C385.038 239.808 385.066 239.64 385.01 239.472L377.618 213.096C377.618 213.04 377.59 213.012 377.534 213.012C377.478 213.012 377.45 213.04 377.45 213.096ZM355.694 264C354.518 264 353.594 263.524 352.922 262.572C352.25 261.62 352.11 260.584 352.502 259.464L369.89 207.216C370.394 205.872 371.206 204.78 372.326 203.94C373.502 203.1 374.79 202.68 376.19 202.68H379.214C380.67 202.68 381.958 203.1 383.078 203.94C384.254 204.78 385.066 205.872 385.514 207.216L402.902 259.464C403.294 260.584 403.154 261.62 402.482 262.572C401.81 263.524 400.886 264 399.71 264H396.686C395.342 264 394.082 263.58 392.906 262.74C391.786 261.844 391.03 260.724 390.638 259.38L387.95 249.888C387.894 249.44 387.586 249.216 387.026 249.216H368.042C367.538 249.216 367.23 249.44 367.118 249.888L364.43 259.38C364.094 260.724 363.338 261.844 362.162 262.74C361.042 263.58 359.782 264 358.382 264H355.694ZM416.033 264C414.745 264 413.625 263.524 412.673 262.572C411.721 261.62 411.245 260.5 411.245 259.212V207.468C411.245 206.18 411.721 205.06 412.673 204.108C413.625 203.156 414.745 202.68 416.033 202.68H418.133C419.589 202.68 420.933 203.072 422.165 203.856C423.397 204.64 424.293 205.676 424.853 206.964L439.553 238.716C439.553 238.772 439.581 238.8 439.637 238.8C439.693 238.8 439.721 238.772 439.721 238.716L454.421 206.964C454.981 205.676 455.877 204.64 457.109 203.856C458.341 203.072 459.685 202.68 461.141 202.68H463.577C464.865 202.68 465.985 203.156 466.937 204.108C467.889 205.06 468.365 206.18 468.365 207.468V259.212C468.365 260.5 467.889 261.62 466.937 262.572C465.985 263.524 464.865 264 463.577 264H461.729C460.441 264 459.321 263.524 458.369 262.572C457.417 261.62 456.941 260.5 456.941 259.212V222.672C456.941 222.616 456.913 222.588 456.857 222.588C456.801 222.588 456.773 222.616 456.773 222.672L446.693 244.26C446.077 245.548 445.125 246.612 443.837 247.452C442.605 248.236 441.289 248.628 439.889 248.628H439.385C437.985 248.628 436.641 248.236 435.353 247.452C434.121 246.612 433.197 245.548 432.581 244.26L422.501 222.672C422.501 222.616 422.473 222.588 422.417 222.588C422.361 222.588 422.333 222.616 422.333 222.672V259.212C422.333 260.5 421.857 261.62 420.905 262.572C419.953 263.524 418.833 264 417.545 264H416.033ZM502.712 213.096L495.32 239.472C495.264 239.64 495.292 239.808 495.404 239.976C495.516 240.144 495.656 240.228 495.824 240.228H509.768C509.936 240.228 510.076 240.144 510.188 239.976C510.3 239.808 510.328 239.64 510.272 239.472L502.88 213.096C502.88 213.04 502.852 213.012 502.796 213.012C502.74 213.012 502.712 213.04 502.712 213.096ZM480.956 264C479.78 264 478.856 263.524 478.184 262.572C477.512 261.62 477.372 260.584 477.764 259.464L495.152 207.216C495.656 205.872 496.468 204.78 497.588 203.94C498.764 203.1 500.052 202.68 501.452 202.68H504.476C505.932 202.68 507.22 203.1 508.34 203.94C509.516 204.78 510.328 205.872 510.776 207.216L528.164 259.464C528.556 260.584 528.416 261.62 527.744 262.572C527.072 263.524 526.148 264 524.972 264H521.948C520.604 264 519.344 263.58 518.168 262.74C517.048 261.844 516.292 260.724 515.9 259.38L513.212 249.888C513.156 249.44 512.848 249.216 512.288 249.216H493.304C492.8 249.216 492.492 249.44 492.38 249.888L489.692 259.38C489.356 260.724 488.6 261.844 487.424 262.74C486.304 263.58 485.044 264 483.644 264H480.956Z" fill="#7FB58B"/>
</g>
<rect x="100" y="360" width="400" height="80" rx="15" fill="#D9D9D9"/>
<rect x="100" y="530" width="400" height="80" rx="15" fill="#D9D9D9"/>
<rect x="100" y="700" width="400" height="80" rx="15" fill="#D9D9D9"/>
<rect x="100" y="870" width="400" height="80" rx="15" fill="#D9D9D9"/>
<path d="M116.062 521.031V524H105.398V521.031H116.062ZM106.18 501.246V524H102.723V501.246H106.18ZM114.637 510.758V513.707H105.398V510.758H114.637ZM115.926 501.246V504.234H105.398V501.246H115.926ZM126.316 510.426V513.395H118.25V510.426H126.316ZM131.023 501.246H134.246L140.301 519.039L146.297 501.246H149.52L141.531 524H139.012L131.023 501.246ZM129.793 501.246H132.703L133.23 516.148V524H129.793V501.246ZM147.859 501.246H150.77V524H147.332V516.148L147.859 501.246ZM163.973 504.43L157.527 524H154.012L161.902 501.246H164.109L163.973 504.43ZM169.207 524L162.82 504.352L162.703 501.246H164.949L172.703 524H169.207ZM169.09 515.582V518.551H157.527V515.582H169.09ZM179.617 501.246V524H176.16V501.246H179.617ZM197.762 521.031V524H187.586V521.031H197.762ZM188.367 501.246V524H184.91V501.246H188.367Z" fill="white"/>
<path d="M114.363 331.246H117.801V346.48C117.801 348.199 117.449 349.645 116.746 350.816C116.056 351.975 115.132 352.848 113.973 353.434C112.827 354.02 111.557 354.312 110.164 354.312C108.719 354.312 107.423 354.02 106.277 353.434C105.132 352.848 104.22 351.975 103.543 350.816C102.879 349.645 102.547 348.199 102.547 346.48V331.246H105.965V346.48C105.965 347.6 106.134 348.525 106.473 349.254C106.824 349.97 107.312 350.504 107.938 350.855C108.576 351.194 109.318 351.363 110.164 351.363C111.023 351.363 111.766 351.194 112.391 350.855C113.029 350.504 113.517 349.97 113.855 349.254C114.194 348.525 114.363 347.6 114.363 346.48V331.246ZM133.172 348.18C133.172 347.698 133.113 347.268 132.996 346.891C132.879 346.5 132.671 346.148 132.371 345.836C132.072 345.51 131.648 345.211 131.102 344.938C130.568 344.664 129.884 344.404 129.051 344.156C127.983 343.844 127.02 343.486 126.16 343.082C125.301 342.665 124.565 342.184 123.953 341.637C123.341 341.077 122.872 340.432 122.547 339.703C122.221 338.974 122.059 338.134 122.059 337.184C122.059 336.272 122.228 335.439 122.566 334.684C122.905 333.915 123.387 333.251 124.012 332.691C124.65 332.132 125.405 331.702 126.277 331.402C127.163 331.09 128.152 330.934 129.246 330.934C130.809 330.934 132.137 331.253 133.23 331.891C134.337 332.516 135.177 333.355 135.75 334.41C136.336 335.452 136.629 336.604 136.629 337.867H133.172C133.172 337.099 133.029 336.415 132.742 335.816C132.469 335.217 132.039 334.749 131.453 334.41C130.88 334.059 130.132 333.883 129.207 333.883C128.361 333.883 127.664 334.026 127.117 334.312C126.57 334.599 126.167 334.99 125.906 335.484C125.646 335.979 125.516 336.539 125.516 337.164C125.516 337.607 125.6 338.01 125.77 338.375C125.939 338.74 126.206 339.072 126.57 339.371C126.935 339.671 127.404 339.957 127.977 340.23C128.562 340.504 129.266 340.771 130.086 341.031C131.154 341.344 132.098 341.715 132.918 342.145C133.738 342.574 134.422 343.076 134.969 343.648C135.529 344.221 135.945 344.879 136.219 345.621C136.505 346.363 136.648 347.203 136.648 348.141C136.648 349.091 136.479 349.951 136.141 350.719C135.802 351.474 135.307 352.118 134.656 352.652C134.018 353.186 133.25 353.596 132.352 353.883C131.466 354.169 130.464 354.312 129.344 354.312C128.354 354.312 127.384 354.169 126.434 353.883C125.496 353.583 124.643 353.141 123.875 352.555C123.12 351.956 122.514 351.214 122.059 350.328C121.616 349.43 121.395 348.382 121.395 347.184H124.871C124.871 347.939 124.982 348.583 125.203 349.117C125.424 349.651 125.737 350.087 126.141 350.426C126.544 350.751 127.02 350.992 127.566 351.148C128.113 351.305 128.706 351.383 129.344 351.383C130.203 351.383 130.913 351.253 131.473 350.992C132.046 350.719 132.469 350.341 132.742 349.859C133.029 349.378 133.172 348.818 133.172 348.18ZM154.012 351.031V354H143.348V351.031H154.012ZM144.129 331.246V354H140.672V331.246H144.129ZM152.586 340.758V343.707H143.348V340.758H152.586ZM153.875 331.246V334.234H143.348V331.246H153.875ZM157.84 331.246H164.91C166.095 331.246 167.143 331.402 168.055 331.715C168.979 332.014 169.754 332.457 170.379 333.043C171.004 333.629 171.479 334.352 171.805 335.211C172.13 336.07 172.293 337.06 172.293 338.18C172.293 339.299 172.104 340.296 171.727 341.168C171.362 342.027 170.828 342.757 170.125 343.355C169.435 343.941 168.595 344.391 167.605 344.703L166.629 345.23H160.418L160.379 342.262H164.871C165.757 342.262 166.492 342.092 167.078 341.754C167.664 341.402 168.1 340.934 168.387 340.348C168.686 339.749 168.836 339.078 168.836 338.336C168.836 337.516 168.706 336.799 168.445 336.188C168.185 335.576 167.762 335.1 167.176 334.762C166.603 334.41 165.848 334.234 164.91 334.234H161.277V354H157.84V331.246ZM169.461 354L164.656 343.863L168.289 343.844L173.172 353.805V354H169.461ZM192.703 331.246V354H189.266L179.949 336.891V354H176.492V331.246H179.949L189.266 348.355V331.246H192.703ZM205.906 334.43L199.461 354H195.945L203.836 331.246H206.043L205.906 334.43ZM211.141 354L204.754 334.352L204.637 331.246H206.883L214.637 354H211.141ZM211.023 345.582V348.551H199.461V345.582H211.023ZM219.168 331.246H222.391L228.445 349.039L234.441 331.246H237.664L229.676 354H227.156L219.168 331.246ZM217.938 331.246H220.848L221.375 346.148V354H217.938V331.246ZM236.004 331.246H238.914V354H235.477V346.148L236.004 331.246ZM257.371 351.031V354H246.707V351.031H257.371ZM247.488 331.246V354H244.031V331.246H247.488ZM255.945 340.758V343.707H246.707V340.758H255.945ZM257.234 331.246V334.234H246.707V331.246H257.234Z" fill="white"/>
<path d="M110.902 685.445H105.59V682.457H110.902C111.84 682.457 112.602 682.288 113.188 681.949C113.773 681.598 114.203 681.122 114.477 680.523C114.75 679.924 114.887 679.234 114.887 678.453C114.887 677.711 114.75 677.021 114.477 676.383C114.203 675.745 113.773 675.23 113.188 674.84C112.602 674.436 111.84 674.234 110.902 674.234H106.469V694H103.012V671.246H110.902C112.491 671.246 113.839 671.559 114.945 672.184C116.052 672.796 116.892 673.642 117.465 674.723C118.051 675.79 118.344 677.021 118.344 678.414C118.344 679.508 118.174 680.491 117.836 681.363C117.51 682.223 117.029 682.958 116.391 683.57C115.766 684.182 114.991 684.651 114.066 684.977C113.142 685.289 112.087 685.445 110.902 685.445ZM130.395 674.43L123.949 694H120.434L128.324 671.246H130.531L130.395 674.43ZM135.629 694L129.242 674.352L129.125 671.246H131.371L139.125 694H135.629ZM135.512 685.582V688.551H123.949V685.582H135.512ZM153.09 688.18C153.09 687.698 153.031 687.268 152.914 686.891C152.797 686.5 152.589 686.148 152.289 685.836C151.99 685.51 151.566 685.211 151.02 684.938C150.486 684.664 149.802 684.404 148.969 684.156C147.901 683.844 146.938 683.486 146.078 683.082C145.219 682.665 144.483 682.184 143.871 681.637C143.259 681.077 142.79 680.432 142.465 679.703C142.139 678.974 141.977 678.134 141.977 677.184C141.977 676.272 142.146 675.439 142.484 674.684C142.823 673.915 143.305 673.251 143.93 672.691C144.568 672.132 145.323 671.702 146.195 671.402C147.081 671.09 148.07 670.934 149.164 670.934C150.727 670.934 152.055 671.253 153.148 671.891C154.255 672.516 155.095 673.355 155.668 674.41C156.254 675.452 156.547 676.604 156.547 677.867H153.09C153.09 677.099 152.947 676.415 152.66 675.816C152.387 675.217 151.957 674.749 151.371 674.41C150.798 674.059 150.049 673.883 149.125 673.883C148.279 673.883 147.582 674.026 147.035 674.312C146.488 674.599 146.085 674.99 145.824 675.484C145.564 675.979 145.434 676.539 145.434 677.164C145.434 677.607 145.518 678.01 145.688 678.375C145.857 678.74 146.124 679.072 146.488 679.371C146.853 679.671 147.322 679.957 147.895 680.23C148.48 680.504 149.184 680.771 150.004 681.031C151.072 681.344 152.016 681.715 152.836 682.145C153.656 682.574 154.34 683.076 154.887 683.648C155.447 684.221 155.863 684.879 156.137 685.621C156.423 686.363 156.566 687.203 156.566 688.141C156.566 689.091 156.397 689.951 156.059 690.719C155.72 691.474 155.225 692.118 154.574 692.652C153.936 693.186 153.168 693.596 152.27 693.883C151.384 694.169 150.382 694.312 149.262 694.312C148.272 694.312 147.302 694.169 146.352 693.883C145.414 693.583 144.561 693.141 143.793 692.555C143.038 691.956 142.432 691.214 141.977 690.328C141.534 689.43 141.312 688.382 141.312 687.184H144.789C144.789 687.939 144.9 688.583 145.121 689.117C145.342 689.651 145.655 690.087 146.059 690.426C146.462 690.751 146.938 690.992 147.484 691.148C148.031 691.305 148.624 691.383 149.262 691.383C150.121 691.383 150.831 691.253 151.391 690.992C151.964 690.719 152.387 690.341 152.66 689.859C152.947 689.378 153.09 688.818 153.09 688.18ZM171.254 688.18C171.254 687.698 171.195 687.268 171.078 686.891C170.961 686.5 170.753 686.148 170.453 685.836C170.154 685.51 169.73 685.211 169.184 684.938C168.65 684.664 167.966 684.404 167.133 684.156C166.065 683.844 165.102 683.486 164.242 683.082C163.383 682.665 162.647 682.184 162.035 681.637C161.423 681.077 160.954 680.432 160.629 679.703C160.303 678.974 160.141 678.134 160.141 677.184C160.141 676.272 160.31 675.439 160.648 674.684C160.987 673.915 161.469 673.251 162.094 672.691C162.732 672.132 163.487 671.702 164.359 671.402C165.245 671.09 166.234 670.934 167.328 670.934C168.891 670.934 170.219 671.253 171.312 671.891C172.419 672.516 173.259 673.355 173.832 674.41C174.418 675.452 174.711 676.604 174.711 677.867H171.254C171.254 677.099 171.111 676.415 170.824 675.816C170.551 675.217 170.121 674.749 169.535 674.41C168.962 674.059 168.214 673.883 167.289 673.883C166.443 673.883 165.746 674.026 165.199 674.312C164.652 674.599 164.249 674.99 163.988 675.484C163.728 675.979 163.598 676.539 163.598 677.164C163.598 677.607 163.682 678.01 163.852 678.375C164.021 678.74 164.288 679.072 164.652 679.371C165.017 679.671 165.486 679.957 166.059 680.23C166.645 680.504 167.348 680.771 168.168 681.031C169.236 681.344 170.18 681.715 171 682.145C171.82 682.574 172.504 683.076 173.051 683.648C173.611 684.221 174.027 684.879 174.301 685.621C174.587 686.363 174.73 687.203 174.73 688.141C174.73 689.091 174.561 689.951 174.223 690.719C173.884 691.474 173.389 692.118 172.738 692.652C172.1 693.186 171.332 693.596 170.434 693.883C169.548 694.169 168.546 694.312 167.426 694.312C166.436 694.312 165.466 694.169 164.516 693.883C163.578 693.583 162.725 693.141 161.957 692.555C161.202 691.956 160.596 691.214 160.141 690.328C159.698 689.43 159.477 688.382 159.477 687.184H162.953C162.953 687.939 163.064 688.583 163.285 689.117C163.507 689.651 163.819 690.087 164.223 690.426C164.626 690.751 165.102 690.992 165.648 691.148C166.195 691.305 166.788 691.383 167.426 691.383C168.285 691.383 168.995 691.253 169.555 690.992C170.128 690.719 170.551 690.341 170.824 689.859C171.111 689.378 171.254 688.818 171.254 688.18ZM184.027 688.57L187.953 671.246H190.297L189.594 676.07L185.336 694H183.051L184.027 688.57ZM180.785 671.246L183.871 688.238L184.457 694H182.152L177.387 671.246H180.785ZM195.004 688.199L198.07 671.246H201.488L196.703 694H194.398L195.004 688.199ZM191 671.246L194.867 688.629L195.824 694H193.5L189.379 676.07L188.695 671.246H191ZM221.254 681.988V683.277C221.254 684.996 221.052 686.539 220.648 687.906C220.258 689.26 219.691 690.419 218.949 691.383C218.207 692.333 217.315 693.062 216.273 693.57C215.245 694.065 214.092 694.312 212.816 694.312C211.566 694.312 210.421 694.065 209.379 693.57C208.35 693.062 207.458 692.333 206.703 691.383C205.948 690.419 205.362 689.26 204.945 687.906C204.529 686.539 204.32 684.996 204.32 683.277V681.988C204.32 680.27 204.522 678.733 204.926 677.379C205.342 676.012 205.928 674.846 206.684 673.883C207.439 672.919 208.331 672.19 209.359 671.695C210.401 671.188 211.54 670.934 212.777 670.934C214.053 670.934 215.212 671.188 216.254 671.695C217.296 672.19 218.188 672.919 218.93 673.883C219.672 674.846 220.245 676.012 220.648 677.379C221.052 678.733 221.254 680.27 221.254 681.988ZM217.836 683.277V681.949C217.836 680.66 217.719 679.521 217.484 678.531C217.263 677.542 216.931 676.708 216.488 676.031C216.059 675.354 215.531 674.84 214.906 674.488C214.281 674.137 213.572 673.961 212.777 673.961C212.022 673.961 211.332 674.137 210.707 674.488C210.095 674.84 209.568 675.354 209.125 676.031C208.682 676.708 208.337 677.542 208.09 678.531C207.855 679.521 207.738 680.66 207.738 681.949V683.277C207.738 684.566 207.855 685.712 208.09 686.715C208.337 687.704 208.682 688.544 209.125 689.234C209.581 689.911 210.121 690.426 210.746 690.777C211.371 691.129 212.061 691.305 212.816 691.305C213.624 691.305 214.333 691.129 214.945 690.777C215.57 690.426 216.098 689.911 216.527 689.234C216.957 688.544 217.283 687.704 217.504 686.715C217.725 685.712 217.836 684.566 217.836 683.277ZM225.766 671.246H232.836C234.021 671.246 235.069 671.402 235.98 671.715C236.905 672.014 237.68 672.457 238.305 673.043C238.93 673.629 239.405 674.352 239.73 675.211C240.056 676.07 240.219 677.06 240.219 678.18C240.219 679.299 240.03 680.296 239.652 681.168C239.288 682.027 238.754 682.757 238.051 683.355C237.361 683.941 236.521 684.391 235.531 684.703L234.555 685.23H228.344L228.305 682.262H232.797C233.682 682.262 234.418 682.092 235.004 681.754C235.59 681.402 236.026 680.934 236.312 680.348C236.612 679.749 236.762 679.078 236.762 678.336C236.762 677.516 236.632 676.799 236.371 676.188C236.111 675.576 235.688 675.1 235.102 674.762C234.529 674.41 233.773 674.234 232.836 674.234H229.203V694H225.766V671.246ZM237.387 694L232.582 683.863L236.215 683.844L241.098 693.805V694H237.387ZM250.16 694H245.941L245.961 691.031H250.16C251.553 691.031 252.693 690.719 253.578 690.094C254.477 689.469 255.134 688.577 255.551 687.418C255.98 686.246 256.195 684.859 256.195 683.258V681.969C256.195 680.732 256.072 679.632 255.824 678.668C255.59 677.704 255.232 676.897 254.75 676.246C254.268 675.582 253.663 675.081 252.934 674.742C252.204 674.404 251.352 674.234 250.375 674.234H245.844V671.246H250.375C251.768 671.246 253.031 671.5 254.164 672.008C255.297 672.503 256.267 673.225 257.074 674.176C257.895 675.113 258.526 676.246 258.969 677.574C259.411 678.889 259.633 680.367 259.633 682.008V683.258C259.633 685.432 259.242 687.327 258.461 688.941C257.693 690.556 256.599 691.806 255.18 692.691C253.773 693.564 252.1 694 250.16 694ZM247.875 671.246V694H244.418V671.246H247.875Z" fill="white"/>
<path d="M115.016 856.637H118.473C118.342 858.108 117.965 859.423 117.34 860.582C116.728 861.741 115.855 862.652 114.723 863.316C113.59 863.98 112.171 864.312 110.465 864.312C109.215 864.312 108.082 864.065 107.066 863.57C106.064 863.062 105.198 862.346 104.469 861.422C103.74 860.484 103.18 859.358 102.789 858.043C102.411 856.728 102.223 855.257 102.223 853.629V851.637C102.223 850.009 102.418 848.538 102.809 847.223C103.199 845.908 103.759 844.781 104.488 843.844C105.23 842.906 106.122 842.19 107.164 841.695C108.206 841.188 109.378 840.934 110.68 840.934C112.307 840.934 113.674 841.266 114.781 841.93C115.888 842.581 116.747 843.492 117.359 844.664C117.971 845.836 118.342 847.184 118.473 848.707H115.016C114.911 847.704 114.703 846.845 114.391 846.129C114.091 845.413 113.642 844.866 113.043 844.488C112.457 844.098 111.669 843.902 110.68 843.902C109.846 843.902 109.111 844.078 108.473 844.43C107.848 844.768 107.327 845.276 106.91 845.953C106.493 846.617 106.181 847.424 105.973 848.375C105.764 849.326 105.66 850.406 105.66 851.617V853.629C105.66 854.775 105.751 855.823 105.934 856.773C106.116 857.711 106.396 858.525 106.773 859.215C107.164 859.905 107.665 860.439 108.277 860.816C108.889 861.181 109.618 861.363 110.465 861.363C111.533 861.363 112.372 861.181 112.984 860.816C113.596 860.452 114.052 859.918 114.352 859.215C114.664 858.499 114.885 857.639 115.016 856.637ZM138.824 851.988V853.277C138.824 854.996 138.622 856.539 138.219 857.906C137.828 859.26 137.262 860.419 136.52 861.383C135.777 862.333 134.885 863.062 133.844 863.57C132.815 864.065 131.663 864.312 130.387 864.312C129.137 864.312 127.991 864.065 126.949 863.57C125.921 863.062 125.029 862.333 124.273 861.383C123.518 860.419 122.932 859.26 122.516 857.906C122.099 856.539 121.891 854.996 121.891 853.277V851.988C121.891 850.27 122.092 848.733 122.496 847.379C122.913 846.012 123.499 844.846 124.254 843.883C125.009 842.919 125.901 842.19 126.93 841.695C127.971 841.188 129.111 840.934 130.348 840.934C131.624 840.934 132.783 841.188 133.824 841.695C134.866 842.19 135.758 842.919 136.5 843.883C137.242 844.846 137.815 846.012 138.219 847.379C138.622 848.733 138.824 850.27 138.824 851.988ZM135.406 853.277V851.949C135.406 850.66 135.289 849.521 135.055 848.531C134.833 847.542 134.501 846.708 134.059 846.031C133.629 845.354 133.102 844.84 132.477 844.488C131.852 844.137 131.142 843.961 130.348 843.961C129.592 843.961 128.902 844.137 128.277 844.488C127.665 844.84 127.138 845.354 126.695 846.031C126.253 846.708 125.908 847.542 125.66 848.531C125.426 849.521 125.309 850.66 125.309 851.949V853.277C125.309 854.566 125.426 855.712 125.66 856.715C125.908 857.704 126.253 858.544 126.695 859.234C127.151 859.911 127.691 860.426 128.316 860.777C128.941 861.129 129.632 861.305 130.387 861.305C131.194 861.305 131.904 861.129 132.516 860.777C133.141 860.426 133.668 859.911 134.098 859.234C134.527 858.544 134.853 857.704 135.074 856.715C135.296 855.712 135.406 854.566 135.406 853.277ZM159.527 841.246V864H156.09L146.773 846.891V864H143.316V841.246H146.773L156.09 858.355V841.246H159.527ZM168.102 841.246V864H164.645V841.246H168.102ZM176.266 851.266V854.234H167.359V851.266H176.266ZM177.555 841.246V844.234H167.359V841.246H177.555ZM184.898 841.246V864H181.441V841.246H184.898ZM190.211 841.246H197.281C198.466 841.246 199.514 841.402 200.426 841.715C201.35 842.014 202.125 842.457 202.75 843.043C203.375 843.629 203.85 844.352 204.176 845.211C204.501 846.07 204.664 847.06 204.664 848.18C204.664 849.299 204.475 850.296 204.098 851.168C203.733 852.027 203.199 852.757 202.496 853.355C201.806 853.941 200.966 854.391 199.977 854.703L199 855.23H192.789L192.75 852.262H197.242C198.128 852.262 198.863 852.092 199.449 851.754C200.035 851.402 200.471 850.934 200.758 850.348C201.057 849.749 201.207 849.078 201.207 848.336C201.207 847.516 201.077 846.799 200.816 846.188C200.556 845.576 200.133 845.1 199.547 844.762C198.974 844.41 198.219 844.234 197.281 844.234H193.648V864H190.211V841.246ZM201.832 864L197.027 853.863L200.66 853.844L205.543 863.805V864H201.832ZM210.094 841.246H213.316L219.371 859.039L225.367 841.246H228.59L220.602 864H218.082L210.094 841.246ZM208.863 841.246H211.773L212.301 856.148V864H208.863V841.246ZM226.93 841.246H229.84V864H226.402V856.148L226.93 841.246ZM252.027 855.445H246.715V852.457H252.027C252.965 852.457 253.727 852.288 254.312 851.949C254.898 851.598 255.328 851.122 255.602 850.523C255.875 849.924 256.012 849.234 256.012 848.453C256.012 847.711 255.875 847.021 255.602 846.383C255.328 845.745 254.898 845.23 254.312 844.84C253.727 844.436 252.965 844.234 252.027 844.234H247.594V864H244.137V841.246H252.027C253.616 841.246 254.964 841.559 256.07 842.184C257.177 842.796 258.017 843.642 258.59 844.723C259.176 845.79 259.469 847.021 259.469 848.414C259.469 849.508 259.299 850.491 258.961 851.363C258.635 852.223 258.154 852.958 257.516 853.57C256.891 854.182 256.116 854.651 255.191 854.977C254.267 855.289 253.212 855.445 252.027 855.445ZM271.52 844.43L265.074 864H261.559L269.449 841.246H271.656L271.52 844.43ZM276.754 864L270.367 844.352L270.25 841.246H272.496L280.25 864H276.754ZM276.637 855.582V858.551H265.074V855.582H276.637ZM294.215 858.18C294.215 857.698 294.156 857.268 294.039 856.891C293.922 856.5 293.714 856.148 293.414 855.836C293.115 855.51 292.691 855.211 292.145 854.938C291.611 854.664 290.927 854.404 290.094 854.156C289.026 853.844 288.062 853.486 287.203 853.082C286.344 852.665 285.608 852.184 284.996 851.637C284.384 851.077 283.915 850.432 283.59 849.703C283.264 848.974 283.102 848.134 283.102 847.184C283.102 846.272 283.271 845.439 283.609 844.684C283.948 843.915 284.43 843.251 285.055 842.691C285.693 842.132 286.448 841.702 287.32 841.402C288.206 841.09 289.195 840.934 290.289 840.934C291.852 840.934 293.18 841.253 294.273 841.891C295.38 842.516 296.22 843.355 296.793 844.41C297.379 845.452 297.672 846.604 297.672 847.867H294.215C294.215 847.099 294.072 846.415 293.785 845.816C293.512 845.217 293.082 844.749 292.496 844.41C291.923 844.059 291.174 843.883 290.25 843.883C289.404 843.883 288.707 844.026 288.16 844.312C287.613 844.599 287.21 844.99 286.949 845.484C286.689 845.979 286.559 846.539 286.559 847.164C286.559 847.607 286.643 848.01 286.812 848.375C286.982 848.74 287.249 849.072 287.613 849.371C287.978 849.671 288.447 849.957 289.02 850.23C289.605 850.504 290.309 850.771 291.129 851.031C292.197 851.344 293.141 851.715 293.961 852.145C294.781 852.574 295.465 853.076 296.012 853.648C296.572 854.221 296.988 854.879 297.262 855.621C297.548 856.363 297.691 857.203 297.691 858.141C297.691 859.091 297.522 859.951 297.184 860.719C296.845 861.474 296.35 862.118 295.699 862.652C295.061 863.186 294.293 863.596 293.395 863.883C292.509 864.169 291.507 864.312 290.387 864.312C289.397 864.312 288.427 864.169 287.477 863.883C286.539 863.583 285.686 863.141 284.918 862.555C284.163 861.956 283.557 861.214 283.102 860.328C282.659 859.43 282.438 858.382 282.438 857.184H285.914C285.914 857.939 286.025 858.583 286.246 859.117C286.467 859.651 286.78 860.087 287.184 860.426C287.587 860.751 288.062 860.992 288.609 861.148C289.156 861.305 289.749 861.383 290.387 861.383C291.246 861.383 291.956 861.253 292.516 860.992C293.089 860.719 293.512 860.341 293.785 859.859C294.072 859.378 294.215 858.818 294.215 858.18ZM312.379 858.18C312.379 857.698 312.32 857.268 312.203 856.891C312.086 856.5 311.878 856.148 311.578 855.836C311.279 855.51 310.855 855.211 310.309 854.938C309.775 854.664 309.091 854.404 308.258 854.156C307.19 853.844 306.227 853.486 305.367 853.082C304.508 852.665 303.772 852.184 303.16 851.637C302.548 851.077 302.079 850.432 301.754 849.703C301.428 848.974 301.266 848.134 301.266 847.184C301.266 846.272 301.435 845.439 301.773 844.684C302.112 843.915 302.594 843.251 303.219 842.691C303.857 842.132 304.612 841.702 305.484 841.402C306.37 841.09 307.359 840.934 308.453 840.934C310.016 840.934 311.344 841.253 312.438 841.891C313.544 842.516 314.384 843.355 314.957 844.41C315.543 845.452 315.836 846.604 315.836 847.867H312.379C312.379 847.099 312.236 846.415 311.949 845.816C311.676 845.217 311.246 844.749 310.66 844.41C310.087 844.059 309.339 843.883 308.414 843.883C307.568 843.883 306.871 844.026 306.324 844.312C305.777 844.599 305.374 844.99 305.113 845.484C304.853 845.979 304.723 846.539 304.723 847.164C304.723 847.607 304.807 848.01 304.977 848.375C305.146 848.74 305.413 849.072 305.777 849.371C306.142 849.671 306.611 849.957 307.184 850.23C307.77 850.504 308.473 850.771 309.293 851.031C310.361 851.344 311.305 851.715 312.125 852.145C312.945 852.574 313.629 853.076 314.176 853.648C314.736 854.221 315.152 854.879 315.426 855.621C315.712 856.363 315.855 857.203 315.855 858.141C315.855 859.091 315.686 859.951 315.348 860.719C315.009 861.474 314.514 862.118 313.863 862.652C313.225 863.186 312.457 863.596 311.559 863.883C310.673 864.169 309.671 864.312 308.551 864.312C307.561 864.312 306.591 864.169 305.641 863.883C304.703 863.583 303.85 863.141 303.082 862.555C302.327 861.956 301.721 861.214 301.266 860.328C300.823 859.43 300.602 858.382 300.602 857.184H304.078C304.078 857.939 304.189 858.583 304.41 859.117C304.632 859.651 304.944 860.087 305.348 860.426C305.751 860.751 306.227 860.992 306.773 861.148C307.32 861.305 307.913 861.383 308.551 861.383C309.41 861.383 310.12 861.253 310.68 860.992C311.253 860.719 311.676 860.341 311.949 859.859C312.236 859.378 312.379 858.818 312.379 858.18ZM325.152 858.57L329.078 841.246H331.422L330.719 846.07L326.461 864H324.176L325.152 858.57ZM321.91 841.246L324.996 858.238L325.582 864H323.277L318.512 841.246H321.91ZM336.129 858.199L339.195 841.246H342.613L337.828 864H335.523L336.129 858.199ZM332.125 841.246L335.992 858.629L336.949 864H334.625L330.504 846.07L329.82 841.246H332.125ZM362.379 851.988V853.277C362.379 854.996 362.177 856.539 361.773 857.906C361.383 859.26 360.816 860.419 360.074 861.383C359.332 862.333 358.44 863.062 357.398 863.57C356.37 864.065 355.217 864.312 353.941 864.312C352.691 864.312 351.546 864.065 350.504 863.57C349.475 863.062 348.583 862.333 347.828 861.383C347.073 860.419 346.487 859.26 346.07 857.906C345.654 856.539 345.445 854.996 345.445 853.277V851.988C345.445 850.27 345.647 848.733 346.051 847.379C346.467 846.012 347.053 844.846 347.809 843.883C348.564 842.919 349.456 842.19 350.484 841.695C351.526 841.188 352.665 840.934 353.902 840.934C355.178 840.934 356.337 841.188 357.379 841.695C358.421 842.19 359.312 842.919 360.055 843.883C360.797 844.846 361.37 846.012 361.773 847.379C362.177 848.733 362.379 850.27 362.379 851.988ZM358.961 853.277V851.949C358.961 850.66 358.844 849.521 358.609 848.531C358.388 847.542 358.056 846.708 357.613 846.031C357.184 845.354 356.656 844.84 356.031 844.488C355.406 844.137 354.697 843.961 353.902 843.961C353.147 843.961 352.457 844.137 351.832 844.488C351.22 844.84 350.693 845.354 350.25 846.031C349.807 846.708 349.462 847.542 349.215 848.531C348.98 849.521 348.863 850.66 348.863 851.949V853.277C348.863 854.566 348.98 855.712 349.215 856.715C349.462 857.704 349.807 858.544 350.25 859.234C350.706 859.911 351.246 860.426 351.871 860.777C352.496 861.129 353.186 861.305 353.941 861.305C354.749 861.305 355.458 861.129 356.07 860.777C356.695 860.426 357.223 859.911 357.652 859.234C358.082 858.544 358.408 857.704 358.629 856.715C358.85 855.712 358.961 854.566 358.961 853.277ZM366.891 841.246H373.961C375.146 841.246 376.194 841.402 377.105 841.715C378.03 842.014 378.805 842.457 379.43 843.043C380.055 843.629 380.53 844.352 380.855 845.211C381.181 846.07 381.344 847.06 381.344 848.18C381.344 849.299 381.155 850.296 380.777 851.168C380.413 852.027 379.879 852.757 379.176 853.355C378.486 853.941 377.646 854.391 376.656 854.703L375.68 855.23H369.469L369.43 852.262H373.922C374.807 852.262 375.543 852.092 376.129 851.754C376.715 851.402 377.151 850.934 377.438 850.348C377.737 849.749 377.887 849.078 377.887 848.336C377.887 847.516 377.757 846.799 377.496 846.188C377.236 845.576 376.812 845.1 376.227 844.762C375.654 844.41 374.898 844.234 373.961 844.234H370.328V864H366.891V841.246ZM378.512 864L373.707 853.863L377.34 853.844L382.223 863.805V864H378.512ZM391.285 864H387.066L387.086 861.031H391.285C392.678 861.031 393.818 860.719 394.703 860.094C395.602 859.469 396.259 858.577 396.676 857.418C397.105 856.246 397.32 854.859 397.32 853.258V851.969C397.32 850.732 397.197 849.632 396.949 848.668C396.715 847.704 396.357 846.897 395.875 846.246C395.393 845.582 394.788 845.081 394.059 844.742C393.329 844.404 392.477 844.234 391.5 844.234H386.969V841.246H391.5C392.893 841.246 394.156 841.5 395.289 842.008C396.422 842.503 397.392 843.225 398.199 844.176C399.02 845.113 399.651 846.246 400.094 847.574C400.536 848.889 400.758 850.367 400.758 852.008V853.258C400.758 855.432 400.367 857.327 399.586 858.941C398.818 860.556 397.724 861.806 396.305 862.691C394.898 863.564 393.225 864 391.285 864ZM389 841.246V864H385.543V841.246H389Z" fill="white"/>
<g filter="url(#filter0_d_1_48)">
<rect x="100" y="1030.98" width="180" height="49.0196" rx="15" fill="#7FB58B"/>
</g>
<path d="M148.559 1063.18C148.559 1062.7 148.5 1062.27 148.383 1061.89C148.266 1061.5 148.057 1061.15 147.758 1060.84C147.458 1060.51 147.035 1060.21 146.488 1059.94C145.954 1059.66 145.271 1059.4 144.438 1059.16C143.37 1058.84 142.406 1058.49 141.547 1058.08C140.688 1057.67 139.952 1057.18 139.34 1056.64C138.728 1056.08 138.259 1055.43 137.934 1054.7C137.608 1053.97 137.445 1053.13 137.445 1052.18C137.445 1051.27 137.615 1050.44 137.953 1049.68C138.292 1048.92 138.773 1048.25 139.398 1047.69C140.036 1047.13 140.792 1046.7 141.664 1046.4C142.549 1046.09 143.539 1045.93 144.633 1045.93C146.195 1045.93 147.523 1046.25 148.617 1046.89C149.724 1047.52 150.564 1048.36 151.137 1049.41C151.723 1050.45 152.016 1051.6 152.016 1052.87H148.559C148.559 1052.1 148.415 1051.42 148.129 1050.82C147.855 1050.22 147.426 1049.75 146.84 1049.41C146.267 1049.06 145.518 1048.88 144.594 1048.88C143.747 1048.88 143.051 1049.03 142.504 1049.31C141.957 1049.6 141.553 1049.99 141.293 1050.48C141.033 1050.98 140.902 1051.54 140.902 1052.16C140.902 1052.61 140.987 1053.01 141.156 1053.38C141.326 1053.74 141.592 1054.07 141.957 1054.37C142.322 1054.67 142.79 1054.96 143.363 1055.23C143.949 1055.5 144.652 1055.77 145.473 1056.03C146.54 1056.34 147.484 1056.71 148.305 1057.14C149.125 1057.57 149.809 1058.08 150.355 1058.65C150.915 1059.22 151.332 1059.88 151.605 1060.62C151.892 1061.36 152.035 1062.2 152.035 1063.14C152.035 1064.09 151.866 1064.95 151.527 1065.72C151.189 1066.47 150.694 1067.12 150.043 1067.65C149.405 1068.19 148.637 1068.6 147.738 1068.88C146.853 1069.17 145.85 1069.31 144.73 1069.31C143.741 1069.31 142.771 1069.17 141.82 1068.88C140.883 1068.58 140.03 1068.14 139.262 1067.55C138.507 1066.96 137.901 1066.21 137.445 1065.33C137.003 1064.43 136.781 1063.38 136.781 1062.18H140.258C140.258 1062.94 140.368 1063.58 140.59 1064.12C140.811 1064.65 141.124 1065.09 141.527 1065.43C141.931 1065.75 142.406 1065.99 142.953 1066.15C143.5 1066.3 144.092 1066.38 144.73 1066.38C145.59 1066.38 146.299 1066.25 146.859 1065.99C147.432 1065.72 147.855 1065.34 148.129 1064.86C148.415 1064.38 148.559 1063.82 148.559 1063.18ZM159.672 1046.25V1069H156.215V1046.25H159.672ZM180.551 1057.44V1066.07C180.264 1066.49 179.835 1066.95 179.262 1067.46C178.689 1067.96 177.908 1068.4 176.918 1068.77C175.928 1069.13 174.652 1069.31 173.09 1069.31C171.801 1069.31 170.622 1069.07 169.555 1068.59C168.487 1068.1 167.556 1067.39 166.762 1066.46C165.98 1065.52 165.375 1064.38 164.945 1063.04C164.516 1061.69 164.301 1060.15 164.301 1058.43V1056.79C164.301 1055.09 164.49 1053.56 164.867 1052.22C165.245 1050.88 165.792 1049.74 166.508 1048.8C167.237 1047.87 168.122 1047.16 169.164 1046.68C170.219 1046.18 171.423 1045.93 172.777 1045.93C174.418 1045.93 175.779 1046.25 176.859 1046.87C177.94 1047.48 178.78 1048.33 179.379 1049.41C179.991 1050.49 180.382 1051.73 180.551 1053.12H177.133C177.016 1052.33 176.794 1051.61 176.469 1050.97C176.143 1050.33 175.681 1049.83 175.082 1049.47C174.496 1049.09 173.734 1048.9 172.797 1048.9C171.924 1048.9 171.169 1049.08 170.531 1049.43C169.906 1049.78 169.385 1050.3 168.969 1050.97C168.565 1051.65 168.266 1052.48 168.07 1053.45C167.875 1054.42 167.777 1055.52 167.777 1056.75V1058.43C167.777 1059.7 167.901 1060.82 168.148 1061.81C168.396 1062.79 168.754 1063.62 169.223 1064.29C169.704 1064.97 170.271 1065.48 170.922 1065.84C171.586 1066.19 172.328 1066.36 173.148 1066.36C174.451 1066.36 175.375 1066.19 175.922 1065.86C176.469 1065.5 176.866 1065.18 177.113 1064.9V1060.25H172.797V1057.44H180.551ZM201.566 1046.25V1069H198.129L188.812 1051.89V1069H185.355V1046.25H188.812L198.129 1063.36V1046.25H201.566ZM219.477 1046.25V1069H216.02V1046.25H219.477ZM240.98 1046.25V1069H237.543L228.227 1051.89V1069H224.77V1046.25H228.227L237.543 1063.36V1046.25H240.98Z" fill="white"/>
<path d="M423.406 1058.63H418.387L418.367 1055.89H422.938C423.641 1055.89 424.246 1055.77 424.754 1055.52C425.275 1055.26 425.678 1054.89 425.965 1054.41C426.251 1053.92 426.395 1053.32 426.395 1052.61C426.395 1051.83 426.251 1051.19 425.965 1050.7C425.691 1050.19 425.281 1049.82 424.734 1049.59C424.188 1049.35 423.517 1049.23 422.723 1049.23H419.285V1069H415.828V1046.25H422.723C423.816 1046.25 424.799 1046.37 425.672 1046.62C426.544 1046.86 427.293 1047.24 427.918 1047.75C428.543 1048.26 429.018 1048.9 429.344 1049.68C429.682 1050.46 429.852 1051.39 429.852 1052.46C429.852 1053.38 429.637 1054.23 429.207 1055C428.777 1055.75 428.159 1056.37 427.352 1056.85C426.544 1057.32 425.568 1057.6 424.422 1057.69L423.406 1058.63ZM423.289 1069H417.117L418.914 1066.03H423.289C424.07 1066.03 424.721 1065.89 425.242 1065.6C425.776 1065.32 426.18 1064.9 426.453 1064.37C426.727 1063.84 426.863 1063.2 426.863 1062.46C426.863 1061.69 426.746 1061.02 426.512 1060.45C426.277 1059.87 425.906 1059.43 425.398 1059.12C424.891 1058.79 424.227 1058.63 423.406 1058.63H419.402L419.422 1055.89H424.734L425.516 1056.93C426.596 1056.97 427.488 1057.26 428.191 1057.79C428.908 1058.31 429.441 1058.99 429.793 1059.82C430.145 1060.64 430.32 1061.53 430.32 1062.48C430.32 1063.56 430.158 1064.51 429.832 1065.33C429.507 1066.14 429.038 1066.81 428.426 1067.36C427.814 1067.91 427.072 1068.32 426.199 1068.59C425.34 1068.86 424.37 1069 423.289 1069ZM442.938 1049.43L436.492 1069H432.977L440.867 1046.25H443.074L442.938 1049.43ZM448.172 1069L441.785 1049.35L441.668 1046.25H443.914L451.668 1069H448.172ZM448.055 1060.58V1063.55H436.492V1060.58H448.055ZM466.824 1061.64H470.281C470.151 1063.11 469.773 1064.42 469.148 1065.58C468.536 1066.74 467.664 1067.65 466.531 1068.32C465.398 1068.98 463.979 1069.31 462.273 1069.31C461.023 1069.31 459.891 1069.07 458.875 1068.57C457.872 1068.06 457.007 1067.35 456.277 1066.42C455.548 1065.48 454.988 1064.36 454.598 1063.04C454.22 1061.73 454.031 1060.26 454.031 1058.63V1056.64C454.031 1055.01 454.227 1053.54 454.617 1052.22C455.008 1050.91 455.568 1049.78 456.297 1048.84C457.039 1047.91 457.931 1047.19 458.973 1046.7C460.014 1046.19 461.186 1045.93 462.488 1045.93C464.116 1045.93 465.483 1046.27 466.59 1046.93C467.697 1047.58 468.556 1048.49 469.168 1049.66C469.78 1050.84 470.151 1052.18 470.281 1053.71H466.824C466.72 1052.7 466.512 1051.85 466.199 1051.13C465.9 1050.41 465.451 1049.87 464.852 1049.49C464.266 1049.1 463.478 1048.9 462.488 1048.9C461.655 1048.9 460.919 1049.08 460.281 1049.43C459.656 1049.77 459.135 1050.28 458.719 1050.95C458.302 1051.62 457.99 1052.42 457.781 1053.38C457.573 1054.33 457.469 1055.41 457.469 1056.62V1058.63C457.469 1059.77 457.56 1060.82 457.742 1061.77C457.924 1062.71 458.204 1063.52 458.582 1064.21C458.973 1064.9 459.474 1065.44 460.086 1065.82C460.698 1066.18 461.427 1066.36 462.273 1066.36C463.341 1066.36 464.181 1066.18 464.793 1065.82C465.405 1065.45 465.861 1064.92 466.16 1064.21C466.473 1063.5 466.694 1062.64 466.824 1061.64ZM477.801 1046.25V1069H474.344V1046.25H477.801ZM490.066 1046.25L481.746 1057.12L476.922 1062.55L476.199 1058.88L479.715 1054.27L485.867 1046.25H490.066ZM486.395 1069L479.559 1058.14L481.863 1055.56L490.574 1069H486.395Z" fill="#AABB9D"/>
</g>
<defs>
<filter id="filter0_d_1_48" x="58" y="992.98" width="264" height="133.02" filterUnits="userSpaceOnUse" color-interpolation-filters="sRGB">
<feFlood flood-opacity="0" result="BackgroundImageFix"/>
<feColorMatrix in="SourceAlpha" type="matrix" values="0 0 0 0 0 0 0 0 0 0 0 0 0 0 0 0 0 0 127 0" result="hardAlpha"/>
<feMorphology radius="10" operator="dilate" in="SourceAlpha" result="effect1_dropShadow_1_48"/>
<feOffset dy="4"/>
<feGaussianBlur stdDeviation="16"/>
<feComposite in2="hardAlpha" operator="out"/>
<feColorMatrix type="matrix" values="0 0 0 0 0 0 0 0 0 0 0 0 0 0 0 0 0 0 0.2 0"/>
<feBlend mode="normal" in2="BackgroundImageFix" result="effect1_dropShadow_1_48"/>
<feBlend mode="normal" in="SourceGraphic" in2="effect1_dropShadow_1_48" result="shape"/>
</filter>
<linearGradient id="paint0_linear_1_48" x1="300" y1="0" x2="300" y2="1200" gradientUnits="userSpaceOnUse">
<stop stop-color="#4A5052"/>
<stop offset="1" stop-color="#3A3F40"/>
</linearGradient>
<clipPath id="clip0_1_48">
<rect width="600" height="1200" fill="white"/>
</clipPath>
<clipPath id="clip1_1_48">
<rect width="630" height="420" fill="white" transform="translate(-15 -42)"/>
</clipPath>
</defs>
</svg>
