<svg width="1260" height="630" viewBox="0 0 1260 630" fill="none" xmlns="http://www.w3.org/2000/svg">
<rect width="1260" height="630" fill="url(#paint0_linear_1_38)"/>
<rect x="690" y="160" width="520" height="80" rx="15" fill="#D9D9D9"/>
<rect x="690" y="320" width="520" height="80" rx="15" fill="#D9D9D9"/>
<path d="M706.062 151.031V154H695.398V151.031H706.062ZM696.18 131.246V154H692.723V131.246H696.18ZM704.637 140.758V143.707H695.398V140.758H704.637ZM705.926 131.246V134.234H695.398V131.246H705.926ZM716.316 140.426V143.395H708.25V140.426H716.316ZM721.023 131.246H724.246L730.301 149.039L736.297 131.246H739.52L731.531 154H729.012L721.023 131.246ZM719.793 131.246H722.703L723.23 146.148V154H719.793V131.246ZM737.859 131.246H740.77V154H737.332V146.148L737.859 131.246ZM753.973 134.43L747.527 154H744.012L751.902 131.246H754.109L753.973 134.43ZM759.207 154L752.82 134.352L752.703 131.246H754.949L762.703 154H759.207ZM759.09 145.582V148.551H747.527V145.582H759.09ZM769.617 131.246V154H766.16V131.246H769.617ZM787.762 151.031V154H777.586V151.031H787.762ZM778.367 131.246V154H774.91V131.246H778.367Z" fill="white"/>
<path d="M698.902 305.445H693.59V302.457H698.902C699.84 302.457 700.602 302.288 701.188 301.949C701.773 301.598 702.203 301.122 702.477 300.523C702.75 299.924 702.887 299.234 702.887 298.453C702.887 297.711 702.75 297.021 702.477 296.383C702.203 295.745 701.773 295.23 701.188 294.84C700.602 294.436 699.84 294.234 698.902 294.234H694.469V314H691.012V291.246H698.902C700.491 291.246 701.839 291.559 702.945 292.184C704.052 292.796 704.892 293.642 705.465 294.723C706.051 295.79 706.344 297.021 706.344 298.414C706.344 299.508 706.174 300.491 705.836 301.363C705.51 302.223 705.029 302.958 704.391 303.57C703.766 304.182 702.991 304.651 702.066 304.977C701.142 305.289 700.087 305.445 698.902 305.445ZM718.395 294.43L711.949 314H708.434L716.324 291.246H718.531L718.395 294.43ZM723.629 314L717.242 294.352L717.125 291.246H719.371L727.125 314H723.629ZM723.512 305.582V308.551H711.949V305.582H723.512ZM741.09 308.18C741.09 307.698 741.031 307.268 740.914 306.891C740.797 306.5 740.589 306.148 740.289 305.836C739.99 305.51 739.566 305.211 739.02 304.938C738.486 304.664 737.802 304.404 736.969 304.156C735.901 303.844 734.938 303.486 734.078 303.082C733.219 302.665 732.483 302.184 731.871 301.637C731.259 301.077 730.79 300.432 730.465 299.703C730.139 298.974 729.977 298.134 729.977 297.184C729.977 296.272 730.146 295.439 730.484 294.684C730.823 293.915 731.305 293.251 731.93 292.691C732.568 292.132 733.323 291.702 734.195 291.402C735.081 291.09 736.07 290.934 737.164 290.934C738.727 290.934 740.055 291.253 741.148 291.891C742.255 292.516 743.095 293.355 743.668 294.41C744.254 295.452 744.547 296.604 744.547 297.867H741.09C741.09 297.099 740.947 296.415 740.66 295.816C740.387 295.217 739.957 294.749 739.371 294.41C738.798 294.059 738.049 293.883 737.125 293.883C736.279 293.883 735.582 294.026 735.035 294.312C734.488 294.599 734.085 294.99 733.824 295.484C733.564 295.979 733.434 296.539 733.434 297.164C733.434 297.607 733.518 298.01 733.688 298.375C733.857 298.74 734.124 299.072 734.488 299.371C734.853 299.671 735.322 299.957 735.895 300.23C736.48 300.504 737.184 300.771 738.004 301.031C739.072 301.344 740.016 301.715 740.836 302.145C741.656 302.574 742.34 303.076 742.887 303.648C743.447 304.221 743.863 304.879 744.137 305.621C744.423 306.363 744.566 307.203 744.566 308.141C744.566 309.091 744.397 309.951 744.059 310.719C743.72 311.474 743.225 312.118 742.574 312.652C741.936 313.186 741.168 313.596 740.27 313.883C739.384 314.169 738.382 314.312 737.262 314.312C736.272 314.312 735.302 314.169 734.352 313.883C733.414 313.583 732.561 313.141 731.793 312.555C731.038 311.956 730.432 311.214 729.977 310.328C729.534 309.43 729.312 308.382 729.312 307.184H732.789C732.789 307.939 732.9 308.583 733.121 309.117C733.342 309.651 733.655 310.087 734.059 310.426C734.462 310.751 734.938 310.992 735.484 311.148C736.031 311.305 736.624 311.383 737.262 311.383C738.121 311.383 738.831 311.253 739.391 310.992C739.964 310.719 740.387 310.341 740.66 309.859C740.947 309.378 741.09 308.818 741.09 308.18ZM759.254 308.18C759.254 307.698 759.195 307.268 759.078 306.891C758.961 306.5 758.753 306.148 758.453 305.836C758.154 305.51 757.73 305.211 757.184 304.938C756.65 304.664 755.966 304.404 755.133 304.156C754.065 303.844 753.102 303.486 752.242 303.082C751.383 302.665 750.647 302.184 750.035 301.637C749.423 301.077 748.954 300.432 748.629 299.703C748.303 298.974 748.141 298.134 748.141 297.184C748.141 296.272 748.31 295.439 748.648 294.684C748.987 293.915 749.469 293.251 750.094 292.691C750.732 292.132 751.487 291.702 752.359 291.402C753.245 291.09 754.234 290.934 755.328 290.934C756.891 290.934 758.219 291.253 759.312 291.891C760.419 292.516 761.259 293.355 761.832 294.41C762.418 295.452 762.711 296.604 762.711 297.867H759.254C759.254 297.099 759.111 296.415 758.824 295.816C758.551 295.217 758.121 294.749 757.535 294.41C756.962 294.059 756.214 293.883 755.289 293.883C754.443 293.883 753.746 294.026 753.199 294.312C752.652 294.599 752.249 294.99 751.988 295.484C751.728 295.979 751.598 296.539 751.598 297.164C751.598 297.607 751.682 298.01 751.852 298.375C752.021 298.74 752.288 299.072 752.652 299.371C753.017 299.671 753.486 299.957 754.059 300.23C754.645 300.504 755.348 300.771 756.168 301.031C757.236 301.344 758.18 301.715 759 302.145C759.82 302.574 760.504 303.076 761.051 303.648C761.611 304.221 762.027 304.879 762.301 305.621C762.587 306.363 762.73 307.203 762.73 308.141C762.73 309.091 762.561 309.951 762.223 310.719C761.884 311.474 761.389 312.118 760.738 312.652C760.1 313.186 759.332 313.596 758.434 313.883C757.548 314.169 756.546 314.312 755.426 314.312C754.436 314.312 753.466 314.169 752.516 313.883C751.578 313.583 750.725 313.141 749.957 312.555C749.202 311.956 748.596 311.214 748.141 310.328C747.698 309.43 747.477 308.382 747.477 307.184H750.953C750.953 307.939 751.064 308.583 751.285 309.117C751.507 309.651 751.819 310.087 752.223 310.426C752.626 310.751 753.102 310.992 753.648 311.148C754.195 311.305 754.788 311.383 755.426 311.383C756.285 311.383 756.995 311.253 757.555 310.992C758.128 310.719 758.551 310.341 758.824 309.859C759.111 309.378 759.254 308.818 759.254 308.18ZM772.027 308.57L775.953 291.246H778.297L777.594 296.07L773.336 314H771.051L772.027 308.57ZM768.785 291.246L771.871 308.238L772.457 314H770.152L765.387 291.246H768.785ZM783.004 308.199L786.07 291.246H789.488L784.703 314H782.398L783.004 308.199ZM779 291.246L782.867 308.629L783.824 314H781.5L777.379 296.07L776.695 291.246H779ZM809.254 301.988V303.277C809.254 304.996 809.052 306.539 808.648 307.906C808.258 309.26 807.691 310.419 806.949 311.383C806.207 312.333 805.315 313.062 804.273 313.57C803.245 314.065 802.092 314.312 800.816 314.312C799.566 314.312 798.421 314.065 797.379 313.57C796.35 313.062 795.458 312.333 794.703 311.383C793.948 310.419 793.362 309.26 792.945 307.906C792.529 306.539 792.32 304.996 792.32 303.277V301.988C792.32 300.27 792.522 298.733 792.926 297.379C793.342 296.012 793.928 294.846 794.684 293.883C795.439 292.919 796.331 292.19 797.359 291.695C798.401 291.188 799.54 290.934 800.777 290.934C802.053 290.934 803.212 291.188 804.254 291.695C805.296 292.19 806.188 292.919 806.93 293.883C807.672 294.846 808.245 296.012 808.648 297.379C809.052 298.733 809.254 300.27 809.254 301.988ZM805.836 303.277V301.949C805.836 300.66 805.719 299.521 805.484 298.531C805.263 297.542 804.931 296.708 804.488 296.031C804.059 295.354 803.531 294.84 802.906 294.488C802.281 294.137 801.572 293.961 800.777 293.961C800.022 293.961 799.332 294.137 798.707 294.488C798.095 294.84 797.568 295.354 797.125 296.031C796.682 296.708 796.337 297.542 796.09 298.531C795.855 299.521 795.738 300.66 795.738 301.949V303.277C795.738 304.566 795.855 305.712 796.09 306.715C796.337 307.704 796.682 308.544 797.125 309.234C797.581 309.911 798.121 310.426 798.746 310.777C799.371 311.129 800.061 311.305 800.816 311.305C801.624 311.305 802.333 311.129 802.945 310.777C803.57 310.426 804.098 309.911 804.527 309.234C804.957 308.544 805.283 307.704 805.504 306.715C805.725 305.712 805.836 304.566 805.836 303.277ZM813.766 291.246H820.836C822.021 291.246 823.069 291.402 823.98 291.715C824.905 292.014 825.68 292.457 826.305 293.043C826.93 293.629 827.405 294.352 827.73 295.211C828.056 296.07 828.219 297.06 828.219 298.18C828.219 299.299 828.03 300.296 827.652 301.168C827.288 302.027 826.754 302.757 826.051 303.355C825.361 303.941 824.521 304.391 823.531 304.703L822.555 305.23H816.344L816.305 302.262H820.797C821.682 302.262 822.418 302.092 823.004 301.754C823.59 301.402 824.026 300.934 824.312 300.348C824.612 299.749 824.762 299.078 824.762 298.336C824.762 297.516 824.632 296.799 824.371 296.188C824.111 295.576 823.688 295.1 823.102 294.762C822.529 294.41 821.773 294.234 820.836 294.234H817.203V314H813.766V291.246ZM825.387 314L820.582 303.863L824.215 303.844L829.098 313.805V314H825.387ZM838.16 314H833.941L833.961 311.031H838.16C839.553 311.031 840.693 310.719 841.578 310.094C842.477 309.469 843.134 308.577 843.551 307.418C843.98 306.246 844.195 304.859 844.195 303.258V301.969C844.195 300.732 844.072 299.632 843.824 298.668C843.59 297.704 843.232 296.897 842.75 296.246C842.268 295.582 841.663 295.081 840.934 294.742C840.204 294.404 839.352 294.234 838.375 294.234H833.844V291.246H838.375C839.768 291.246 841.031 291.5 842.164 292.008C843.297 292.503 844.267 293.225 845.074 294.176C845.895 295.113 846.526 296.246 846.969 297.574C847.411 298.889 847.633 300.367 847.633 302.008V303.258C847.633 305.432 847.242 307.327 846.461 308.941C845.693 310.556 844.599 311.806 843.18 312.691C841.773 313.564 840.1 314 838.16 314ZM835.875 291.246V314H832.418V291.246H835.875Z" fill="white"/>
<path d="M1114.62 571.18C1114.62 570.698 1114.56 570.268 1114.45 569.891C1114.33 569.5 1114.12 569.148 1113.82 568.836C1113.52 568.51 1113.1 568.211 1112.55 567.938C1112.02 567.664 1111.33 567.404 1110.5 567.156C1109.43 566.844 1108.47 566.486 1107.61 566.082C1106.75 565.665 1106.01 565.184 1105.4 564.637C1104.79 564.077 1104.32 563.432 1104 562.703C1103.67 561.974 1103.51 561.134 1103.51 560.184C1103.51 559.272 1103.68 558.439 1104.02 557.684C1104.35 556.915 1104.84 556.251 1105.46 555.691C1106.1 555.132 1106.85 554.702 1107.73 554.402C1108.61 554.09 1109.6 553.934 1110.7 553.934C1112.26 553.934 1113.59 554.253 1114.68 554.891C1115.79 555.516 1116.63 556.355 1117.2 557.41C1117.79 558.452 1118.08 559.604 1118.08 560.867H1114.62C1114.62 560.099 1114.48 559.415 1114.19 558.816C1113.92 558.217 1113.49 557.749 1112.9 557.41C1112.33 557.059 1111.58 556.883 1110.66 556.883C1109.81 556.883 1109.11 557.026 1108.57 557.312C1108.02 557.599 1107.62 557.99 1107.36 558.484C1107.1 558.979 1106.96 559.539 1106.96 560.164C1106.96 560.607 1107.05 561.01 1107.22 561.375C1107.39 561.74 1107.65 562.072 1108.02 562.371C1108.38 562.671 1108.85 562.957 1109.43 563.23C1110.01 563.504 1110.71 563.771 1111.54 564.031C1112.6 564.344 1113.55 564.715 1114.37 565.145C1115.19 565.574 1115.87 566.076 1116.42 566.648C1116.98 567.221 1117.39 567.879 1117.67 568.621C1117.95 569.363 1118.1 570.203 1118.1 571.141C1118.1 572.091 1117.93 572.951 1117.59 573.719C1117.25 574.474 1116.76 575.118 1116.11 575.652C1115.47 576.186 1114.7 576.596 1113.8 576.883C1112.92 577.169 1111.91 577.312 1110.79 577.312C1109.8 577.312 1108.83 577.169 1107.88 576.883C1106.95 576.583 1106.09 576.141 1105.32 575.555C1104.57 574.956 1103.96 574.214 1103.51 573.328C1103.07 572.43 1102.84 571.382 1102.84 570.184H1106.32C1106.32 570.939 1106.43 571.583 1106.65 572.117C1106.87 572.651 1107.19 573.087 1107.59 573.426C1107.99 573.751 1108.47 573.992 1109.02 574.148C1109.56 574.305 1110.15 574.383 1110.79 574.383C1111.65 574.383 1112.36 574.253 1112.92 573.992C1113.49 573.719 1113.92 573.341 1114.19 572.859C1114.48 572.378 1114.62 571.818 1114.62 571.18ZM1125.73 554.246V577H1122.28V554.246H1125.73ZM1146.61 565.438V574.07C1146.33 574.487 1145.9 574.949 1145.32 575.457C1144.75 575.965 1143.97 576.401 1142.98 576.766C1141.99 577.13 1140.71 577.312 1139.15 577.312C1137.86 577.312 1136.68 577.072 1135.62 576.59C1134.55 576.095 1133.62 575.385 1132.82 574.461C1132.04 573.523 1131.44 572.384 1131.01 571.043C1130.58 569.689 1130.36 568.152 1130.36 566.434V564.793C1130.36 563.087 1130.55 561.564 1130.93 560.223C1131.31 558.882 1131.85 557.742 1132.57 556.805C1133.3 555.867 1134.18 555.158 1135.23 554.676C1136.28 554.181 1137.49 553.934 1138.84 553.934C1140.48 553.934 1141.84 554.246 1142.92 554.871C1144 555.483 1144.84 556.329 1145.44 557.41C1146.05 558.491 1146.44 559.728 1146.61 561.121H1143.2C1143.08 560.327 1142.86 559.611 1142.53 558.973C1142.21 558.335 1141.74 557.833 1141.14 557.469C1140.56 557.091 1139.8 556.902 1138.86 556.902C1137.99 556.902 1137.23 557.078 1136.59 557.43C1135.97 557.781 1135.45 558.296 1135.03 558.973C1134.63 559.65 1134.33 560.477 1134.13 561.453C1133.94 562.417 1133.84 563.517 1133.84 564.754V566.434C1133.84 567.697 1133.96 568.823 1134.21 569.812C1134.46 570.789 1134.82 571.616 1135.29 572.293C1135.77 572.97 1136.33 573.484 1136.98 573.836C1137.65 574.188 1138.39 574.363 1139.21 574.363C1140.51 574.363 1141.44 574.194 1141.98 573.855C1142.53 573.504 1142.93 573.185 1143.18 572.898V568.25H1138.86V565.438H1146.61ZM1167.63 554.246V577H1164.19L1154.88 559.891V577H1151.42V554.246H1154.88L1164.19 571.355V554.246H1167.63ZM1185.54 554.246V577H1182.08V554.246H1185.54ZM1207.04 554.246V577H1203.61L1194.29 559.891V577H1190.83V554.246H1194.29L1203.61 571.355V554.246H1207.04Z" fill="#AABB9D"/>
<g filter="url(#filter0_d_1_38)">
<rect x="688" y="450" width="160" height="50" rx="15" fill="#7FB58B"/>
</g>
<path d="M738.346 484.328V487H729.188V484.328H738.346ZM729.891 466.521V487H726.779V466.521H729.891ZM755.959 476.189V477.35C755.959 478.896 755.777 480.285 755.414 481.516C755.062 482.734 754.553 483.777 753.885 484.645C753.217 485.5 752.414 486.156 751.477 486.613C750.551 487.059 749.514 487.281 748.365 487.281C747.24 487.281 746.209 487.059 745.271 486.613C744.346 486.156 743.543 485.5 742.863 484.645C742.184 483.777 741.656 482.734 741.281 481.516C740.906 480.285 740.719 478.896 740.719 477.35V476.189C740.719 474.643 740.9 473.26 741.264 472.041C741.639 470.811 742.166 469.762 742.846 468.895C743.525 468.027 744.328 467.371 745.254 466.926C746.191 466.469 747.217 466.24 748.33 466.24C749.479 466.24 750.521 466.469 751.459 466.926C752.396 467.371 753.199 468.027 753.867 468.895C754.535 469.762 755.051 470.811 755.414 472.041C755.777 473.26 755.959 474.643 755.959 476.189ZM752.883 477.35V476.154C752.883 474.994 752.777 473.969 752.566 473.078C752.367 472.188 752.068 471.438 751.67 470.828C751.283 470.219 750.809 469.756 750.246 469.439C749.684 469.123 749.045 468.965 748.33 468.965C747.65 468.965 747.029 469.123 746.467 469.439C745.916 469.756 745.441 470.219 745.043 470.828C744.645 471.438 744.334 472.188 744.111 473.078C743.9 473.969 743.795 474.994 743.795 476.154V477.35C743.795 478.51 743.9 479.541 744.111 480.443C744.334 481.334 744.645 482.09 745.043 482.711C745.453 483.32 745.939 483.783 746.502 484.1C747.064 484.416 747.686 484.574 748.365 484.574C749.092 484.574 749.73 484.416 750.281 484.1C750.844 483.783 751.318 483.32 751.705 482.711C752.092 482.09 752.385 481.334 752.584 480.443C752.783 479.541 752.883 478.51 752.883 477.35ZM774.029 476.594V484.363C773.771 484.738 773.385 485.154 772.869 485.611C772.354 486.068 771.65 486.461 770.76 486.789C769.869 487.117 768.721 487.281 767.314 487.281C766.154 487.281 765.094 487.064 764.133 486.631C763.172 486.186 762.334 485.547 761.619 484.715C760.916 483.871 760.371 482.846 759.984 481.639C759.598 480.42 759.404 479.037 759.404 477.49V476.014C759.404 474.479 759.574 473.107 759.914 471.9C760.254 470.693 760.746 469.668 761.391 468.824C762.047 467.98 762.844 467.342 763.781 466.908C764.73 466.463 765.814 466.24 767.033 466.24C768.51 466.24 769.734 466.521 770.707 467.084C771.68 467.635 772.436 468.396 772.975 469.369C773.525 470.342 773.877 471.455 774.029 472.709H770.953C770.848 471.994 770.648 471.35 770.355 470.775C770.062 470.201 769.646 469.75 769.107 469.422C768.58 469.082 767.895 468.912 767.051 468.912C766.266 468.912 765.586 469.07 765.012 469.387C764.449 469.703 763.98 470.166 763.605 470.775C763.242 471.385 762.973 472.129 762.797 473.008C762.621 473.875 762.533 474.865 762.533 475.979V477.49C762.533 478.627 762.645 479.641 762.867 480.531C763.09 481.41 763.412 482.154 763.834 482.764C764.268 483.373 764.777 483.836 765.363 484.152C765.961 484.469 766.629 484.627 767.367 484.627C768.539 484.627 769.371 484.475 769.863 484.17C770.355 483.854 770.713 483.566 770.936 483.309V479.125H767.051V476.594H774.029ZM789.867 466.521V487H786.756V466.521H789.867ZM809.221 466.521V487H806.127L797.742 471.602V487H794.631V466.521H797.742L806.127 481.92V466.521H809.221Z" fill="white"/>
<rect x="154.5" y="121.5" width="90" height="270" rx="24" fill="#9FE3AE"/>
<rect x="270.742" y="121.5" width="90" height="180" rx="24" fill="#7FB58B"/>
<rect x="386.983" y="121.5" width="90" height="90" rx="24" fill="#78A682"/>
<path d="M46.7662 499.5C45.2942 499.5 44.0142 498.956 42.9262 497.868C41.9022 496.78 41.3902 495.5 41.3902 494.028V434.892C41.3902 433.42 41.9022 432.14 42.9262 431.052C44.0142 429.964 45.2942 429.42 46.7662 429.42H49.3582C50.8302 429.42 52.1102 429.964 53.1982 431.052C54.2862 432.14 54.8302 433.42 54.8302 434.892V459.756C54.8302 459.82 54.8622 459.852 54.9262 459.852C54.9902 459.852 55.0222 459.82 55.0222 459.756L74.3182 433.836C76.4302 430.892 79.3102 429.42 82.9582 429.42H87.7582C88.8462 429.42 89.6462 429.932 90.1582 430.956C90.6702 431.98 90.5742 432.908 89.8702 433.74L67.7902 462.348C67.4702 462.796 67.4702 463.244 67.7902 463.692L90.9262 495.084C91.6302 495.98 91.7262 496.94 91.2142 497.964C90.7022 498.988 89.8702 499.5 88.7182 499.5H83.9182C80.2702 499.5 77.4222 498.028 75.3742 495.084L55.0222 466.284C55.0222 466.22 54.9902 466.188 54.9262 466.188C54.8622 466.188 54.8302 466.22 54.8302 466.284V494.028C54.8302 495.5 54.2862 496.78 53.1982 497.868C52.1102 498.956 50.8302 499.5 49.3582 499.5H46.7662ZM126.892 441.324L118.444 471.468C118.38 471.66 118.412 471.852 118.54 472.044C118.668 472.236 118.828 472.332 119.02 472.332H134.956C135.148 472.332 135.308 472.236 135.436 472.044C135.564 471.852 135.596 471.66 135.532 471.468L127.084 441.324C127.084 441.26 127.052 441.228 126.988 441.228C126.924 441.228 126.892 441.26 126.892 441.324ZM102.028 499.5C100.684 499.5 99.6285 498.956 98.8605 497.868C98.0925 496.78 97.9325 495.596 98.3805 494.316L118.252 434.604C118.828 433.068 119.756 431.82 121.036 430.86C122.38 429.9 123.852 429.42 125.452 429.42H128.908C130.572 429.42 132.044 429.9 133.324 430.86C134.668 431.82 135.596 433.068 136.108 434.604L155.98 494.316C156.428 495.596 156.268 496.78 155.5 497.868C154.732 498.956 153.676 499.5 152.332 499.5H148.876C147.34 499.5 145.9 499.02 144.556 498.06C143.276 497.036 142.412 495.756 141.964 494.22L138.892 483.372C138.828 482.86 138.476 482.604 137.836 482.604H116.14C115.564 482.604 115.212 482.86 115.084 483.372L112.012 494.22C111.628 495.756 110.764 497.036 109.42 498.06C108.14 499.02 106.7 499.5 105.1 499.5H102.028ZM178.763 440.364V461.196C178.763 461.708 179.051 461.964 179.627 461.964H184.427C195.819 461.964 201.515 457.9 201.515 449.772C201.515 442.54 196.235 438.924 185.675 438.924C183.755 438.924 181.739 439.084 179.627 439.404C179.051 439.532 178.763 439.852 178.763 440.364ZM170.987 499.5C169.515 499.5 168.235 498.956 167.147 497.868C166.059 496.78 165.515 495.5 165.515 494.028V435.372C165.515 433.836 166.027 432.46 167.051 431.244C168.075 430.028 169.355 429.356 170.891 429.228C176.331 428.716 181.579 428.46 186.635 428.46C196.043 428.46 203.083 430.22 207.755 433.74C212.427 437.196 214.763 442.092 214.763 448.428C214.763 452.972 213.515 456.972 211.019 460.428C208.587 463.884 205.291 466.316 201.131 467.724C201.067 467.724 201.035 467.756 201.035 467.82C201.035 467.948 201.067 468.012 201.131 468.012C204.203 469.932 206.827 473.708 209.003 479.34L214.763 494.412C215.211 495.628 215.051 496.78 214.283 497.868C213.579 498.956 212.587 499.5 211.307 499.5H208.331C206.667 499.5 205.163 499.052 203.819 498.156C202.475 497.196 201.515 495.948 200.939 494.412L195.563 479.628C194.411 476.556 193.099 474.54 191.627 473.58C190.155 472.62 187.627 472.14 184.043 472.14H179.627C179.051 472.14 178.763 472.428 178.763 473.004V494.028C178.763 495.5 178.219 496.78 177.131 497.868C176.107 498.956 174.859 499.5 173.387 499.5H170.987ZM251.392 441.324L242.944 471.468C242.88 471.66 242.912 471.852 243.04 472.044C243.168 472.236 243.328 472.332 243.52 472.332H259.456C259.648 472.332 259.808 472.236 259.936 472.044C260.064 471.852 260.096 471.66 260.032 471.468L251.584 441.324C251.584 441.26 251.552 441.228 251.488 441.228C251.424 441.228 251.392 441.26 251.392 441.324ZM226.528 499.5C225.184 499.5 224.128 498.956 223.36 497.868C222.592 496.78 222.432 495.596 222.88 494.316L242.752 434.604C243.328 433.068 244.256 431.82 245.536 430.86C246.88 429.9 248.352 429.42 249.952 429.42H253.408C255.072 429.42 256.544 429.9 257.824 430.86C259.168 431.82 260.096 433.068 260.608 434.604L280.48 494.316C280.928 495.596 280.768 496.78 280 497.868C279.232 498.956 278.176 499.5 276.832 499.5H273.376C271.84 499.5 270.4 499.02 269.056 498.06C267.776 497.036 266.912 495.756 266.464 494.22L263.392 483.372C263.328 482.86 262.976 482.604 262.336 482.604H240.64C240.064 482.604 239.712 482.86 239.584 483.372L236.512 494.22C236.128 495.756 235.264 497.036 233.92 498.06C232.64 499.02 231.2 499.5 229.6 499.5H226.528ZM341.873 499.5C340.401 499.5 339.121 498.956 338.033 497.868C337.009 496.78 336.497 495.5 336.497 494.028V434.892C336.497 433.42 337.009 432.14 338.033 431.052C339.121 429.964 340.401 429.42 341.873 429.42H344.465C345.937 429.42 347.217 429.964 348.305 431.052C349.393 432.14 349.937 433.42 349.937 434.892V459.756C349.937 459.82 349.969 459.852 350.033 459.852C350.097 459.852 350.129 459.82 350.129 459.756L369.425 433.836C371.537 430.892 374.417 429.42 378.065 429.42H382.865C383.953 429.42 384.753 429.932 385.265 430.956C385.777 431.98 385.681 432.908 384.977 433.74L362.897 462.348C362.577 462.796 362.577 463.244 362.897 463.692L386.033 495.084C386.737 495.98 386.833 496.94 386.321 497.964C385.809 498.988 384.977 499.5 383.825 499.5H379.025C375.377 499.5 372.529 498.028 370.481 495.084L350.129 466.284C350.129 466.22 350.097 466.188 350.033 466.188C349.969 466.188 349.937 466.22 349.937 466.284V494.028C349.937 495.5 349.393 496.78 348.305 497.868C347.217 498.956 345.937 499.5 344.465 499.5H341.873ZM421.999 441.324L413.551 471.468C413.487 471.66 413.519 471.852 413.647 472.044C413.775 472.236 413.935 472.332 414.127 472.332H430.063C430.255 472.332 430.415 472.236 430.543 472.044C430.671 471.852 430.703 471.66 430.639 471.468L422.191 441.324C422.191 441.26 422.159 441.228 422.095 441.228C422.031 441.228 421.999 441.26 421.999 441.324ZM397.135 499.5C395.791 499.5 394.735 498.956 393.967 497.868C393.199 496.78 393.039 495.596 393.487 494.316L413.359 434.604C413.935 433.068 414.863 431.82 416.143 430.86C417.487 429.9 418.959 429.42 420.559 429.42H424.015C425.679 429.42 427.151 429.9 428.431 430.86C429.775 431.82 430.703 433.068 431.215 434.604L451.087 494.316C451.535 495.596 451.375 496.78 450.607 497.868C449.839 498.956 448.783 499.5 447.439 499.5H443.983C442.447 499.5 441.007 499.02 439.663 498.06C438.383 497.036 437.519 495.756 437.071 494.22L433.999 483.372C433.935 482.86 433.583 482.604 432.943 482.604H411.247C410.671 482.604 410.319 482.86 410.191 483.372L407.119 494.22C406.735 495.756 405.871 497.036 404.527 498.06C403.247 499.02 401.807 499.5 400.207 499.5H397.135ZM466.094 499.5C464.622 499.5 463.342 498.956 462.254 497.868C461.166 496.78 460.622 495.5 460.622 494.028V434.892C460.622 433.42 461.166 432.14 462.254 431.052C463.342 429.964 464.622 429.42 466.094 429.42H468.494C470.158 429.42 471.694 429.868 473.102 430.764C474.51 431.66 475.534 432.844 476.174 434.316L492.974 470.604C492.974 470.668 493.006 470.7 493.07 470.7C493.134 470.7 493.166 470.668 493.166 470.604L509.966 434.316C510.606 432.844 511.63 431.66 513.038 430.764C514.446 429.868 515.982 429.42 517.646 429.42H520.43C521.902 429.42 523.182 429.964 524.27 431.052C525.358 432.14 525.902 433.42 525.902 434.892V494.028C525.902 495.5 525.358 496.78 524.27 497.868C523.182 498.956 521.902 499.5 520.43 499.5H518.318C516.846 499.5 515.566 498.956 514.478 497.868C513.39 496.78 512.846 495.5 512.846 494.028V452.268C512.846 452.204 512.814 452.172 512.75 452.172C512.686 452.172 512.654 452.204 512.654 452.268L501.134 476.94C500.43 478.412 499.342 479.628 497.87 480.588C496.462 481.484 494.958 481.932 493.358 481.932H492.782C491.182 481.932 489.646 481.484 488.174 480.588C486.766 479.628 485.71 478.412 485.006 476.94L473.486 452.268C473.486 452.204 473.454 452.172 473.39 452.172C473.326 452.172 473.294 452.204 473.294 452.268V494.028C473.294 495.5 472.75 496.78 471.662 497.868C470.574 498.956 469.294 499.5 467.822 499.5H466.094ZM565.155 441.324L556.707 471.468C556.643 471.66 556.675 471.852 556.803 472.044C556.931 472.236 557.091 472.332 557.283 472.332H573.219C573.411 472.332 573.571 472.236 573.699 472.044C573.827 471.852 573.859 471.66 573.795 471.468L565.347 441.324C565.347 441.26 565.315 441.228 565.251 441.228C565.187 441.228 565.155 441.26 565.155 441.324ZM540.291 499.5C538.947 499.5 537.891 498.956 537.123 497.868C536.355 496.78 536.195 495.596 536.643 494.316L556.515 434.604C557.091 433.068 558.019 431.82 559.299 430.86C560.643 429.9 562.115 429.42 563.715 429.42H567.171C568.835 429.42 570.307 429.9 571.587 430.86C572.931 431.82 573.859 433.068 574.371 434.604L594.243 494.316C594.691 495.596 594.531 496.78 593.763 497.868C592.995 498.956 591.939 499.5 590.595 499.5H587.139C585.603 499.5 584.163 499.02 582.819 498.06C581.539 497.036 580.675 495.756 580.227 494.22L577.155 483.372C577.091 482.86 576.739 482.604 576.099 482.604H554.403C553.827 482.604 553.475 482.86 553.347 483.372L550.275 494.22C549.891 495.756 549.027 497.036 547.683 498.06C546.403 499.02 544.963 499.5 543.363 499.5H540.291Z" fill="#7FB58B"/>
<defs>
<filter id="filter0_d_1_38" x="656" y="422" width="224" height="114" filterUnits="userSpaceOnUse" color-interpolation-filters="sRGB">
<feFlood flood-opacity="0" result="BackgroundImageFix"/>
<feColorMatrix in="SourceAlpha" type="matrix" values="0 0 0 0 0 0 0 0 0 0 0 0 0 0 0 0 0 0 127 0" result="hardAlpha"/>
<feOffset dy="4"/>
<feGaussianBlur stdDeviation="16"/>
<feComposite in2="hardAlpha" operator="out"/>
<feColorMatrix type="matrix" values="0 0 0 0 0 0 0 0 0 0 0 0 0 0 0 0 0 0 0.2 0"/>
<feBlend mode="normal" in2="BackgroundImageFix" result="effect1_dropShadow_1_38"/>
<feBlend mode="normal" in="SourceGraphic" in2="effect1_dropShadow_1_38" result="shape"/>
</filter>
<linearGradient id="paint0_linear_1_38" x1="1260" y1="315" x2="-5.86733e-06" y2="315" gradientUnits="userSpaceOnUse">
<stop stop-color="#3A3F40"/>
<stop offset="1" stop-color="#474E50"/>
</linearGradient>
</defs>
</svg>
