<svg width="563" height="688" viewBox="0 0 563 688" fill="none" xmlns="http://www.w3.org/2000/svg">
<rect x="3" y="4" width="560" height="680" rx="8" fill="#3D4244"/>
<g filter="url(#filter0_d_24_552)">
<path d="M3 12C3 7.58172 6.58172 4 11 4H123V684H11C6.58172 684 3 680.418 3 676V12Z" fill="#363B3E"/>
</g>
<path d="M33.791 29.4688H35.7012V35.0703C35.7012 35.7344 35.5605 36.293 35.2793 36.7461C35.002 37.1992 34.6152 37.541 34.1191 37.7715C33.623 38.002 33.0488 38.1172 32.3965 38.1172C31.7402 38.1172 31.1621 38.002 30.6621 37.7715C30.166 37.541 29.7754 37.1992 29.4902 36.7461C29.209 36.293 29.0684 35.7344 29.0684 35.0703V29.4688H30.9844V35.0703C30.9844 35.4375 31.0391 35.7383 31.1484 35.9727C31.2617 36.2031 31.4238 36.373 31.6348 36.4824C31.8457 36.5879 32.0996 36.6406 32.3965 36.6406C32.6934 36.6406 32.9453 36.5879 33.1523 36.4824C33.3633 36.373 33.5215 36.2031 33.627 35.9727C33.7363 35.7383 33.791 35.4375 33.791 35.0703V29.4688ZM40.3477 36.2363C40.3477 36.1191 40.3105 36.0156 40.2363 35.9258C40.166 35.8359 40.0371 35.7539 39.8496 35.6797C39.666 35.6055 39.4062 35.5312 39.0703 35.457C38.7539 35.3906 38.459 35.3047 38.1855 35.1992C37.9121 35.0898 37.6738 34.959 37.4707 34.8066C37.2676 34.6504 37.1094 34.4668 36.9961 34.2559C36.8828 34.041 36.8262 33.7969 36.8262 33.5234C36.8262 33.2578 36.8828 33.0059 36.9961 32.7676C37.1133 32.5293 37.2812 32.3184 37.5 32.1348C37.7227 31.9512 37.9922 31.8066 38.3086 31.7012C38.6289 31.5957 38.9922 31.543 39.3984 31.543C39.957 31.543 40.4395 31.6309 40.8457 31.8066C41.252 31.9785 41.5645 32.2207 41.7832 32.5332C42.002 32.8418 42.1113 33.1953 42.1113 33.5938H40.2832C40.2832 33.4297 40.252 33.2871 40.1895 33.166C40.127 33.0449 40.0312 32.9512 39.9023 32.8848C39.7734 32.8145 39.6035 32.7793 39.3926 32.7793C39.2285 32.7793 39.084 32.8086 38.959 32.8672C38.8379 32.9219 38.7422 32.998 38.6719 33.0957C38.6055 33.1934 38.5723 33.3066 38.5723 33.4355C38.5723 33.5254 38.5918 33.6074 38.6309 33.6816C38.6738 33.752 38.7383 33.8184 38.8242 33.8809C38.9141 33.9395 39.0293 33.9922 39.1699 34.0391C39.3145 34.0859 39.4902 34.1309 39.6973 34.1738C40.1387 34.2559 40.541 34.3711 40.9043 34.5195C41.2715 34.668 41.5645 34.873 41.7832 35.1348C42.0059 35.3965 42.1172 35.7422 42.1172 36.1719C42.1172 36.4531 42.0527 36.7109 41.9238 36.9453C41.7988 37.1797 41.6172 37.3848 41.3789 37.5605C41.1406 37.7363 40.8555 37.873 40.5234 37.9707C40.1914 38.0684 39.8164 38.1172 39.3984 38.1172C38.8008 38.1172 38.2949 38.0098 37.8809 37.7949C37.4668 37.5801 37.1543 37.3105 36.9434 36.9863C36.7363 36.6582 36.6328 36.3223 36.6328 35.9785H38.3496C38.3574 36.1895 38.4102 36.3613 38.5078 36.4941C38.6094 36.627 38.7402 36.7246 38.9004 36.7871C39.0605 36.8457 39.2402 36.875 39.4395 36.875C39.6387 36.875 39.8047 36.8477 39.9375 36.793C40.0703 36.7383 40.1719 36.6641 40.2422 36.5703C40.3125 36.4727 40.3477 36.3613 40.3477 36.2363ZM46.125 38.1172C45.6211 38.1172 45.1699 38.0371 44.7715 37.877C44.373 37.7168 44.0352 37.4961 43.7578 37.2148C43.4844 36.9297 43.2754 36.6016 43.1309 36.2305C42.9863 35.8594 42.9141 35.4629 42.9141 35.041V34.8184C42.9141 34.3457 42.9805 33.9102 43.1133 33.5117C43.2461 33.1133 43.4395 32.7676 43.6934 32.4746C43.9512 32.1777 44.2676 31.9492 44.6426 31.7891C45.0176 31.625 45.4453 31.543 45.9258 31.543C46.375 31.543 46.7754 31.6172 47.127 31.7656C47.4785 31.9102 47.7754 32.1191 48.0176 32.3926C48.2598 32.6621 48.4434 32.9883 48.5684 33.3711C48.6973 33.75 48.7617 34.1758 48.7617 34.6484V35.3984H43.6523V34.2207H46.9688V34.0801C46.9688 33.8574 46.9277 33.6621 46.8457 33.4941C46.7676 33.3262 46.6504 33.1973 46.4941 33.1074C46.3418 33.0137 46.1484 32.9668 45.9141 32.9668C45.6914 32.9668 45.5059 33.0137 45.3574 33.1074C45.209 33.2012 45.0898 33.334 45 33.5059C44.9141 33.6738 44.8516 33.8711 44.8125 34.0977C44.7734 34.3203 44.7539 34.5605 44.7539 34.8184V35.041C44.7539 35.2871 44.7871 35.5117 44.8535 35.7148C44.9199 35.918 45.0176 36.0918 45.1465 36.2363C45.2754 36.3809 45.4316 36.4941 45.6152 36.5762C45.7988 36.6582 46.0078 36.6992 46.2422 36.6992C46.5312 36.6992 46.8066 36.6445 47.0684 36.5352C47.3301 36.4219 47.5566 36.2461 47.748 36.0078L48.6035 36.9863C48.4746 37.1738 48.293 37.3555 48.0586 37.5312C47.8281 37.7031 47.5508 37.8438 47.2266 37.9531C46.9023 38.0625 46.5352 38.1172 46.125 38.1172ZM51.4863 33.1367V38H49.6582V31.6602H51.375L51.4863 33.1367ZM53.3789 31.6133L53.3496 33.3184C53.2715 33.3066 53.1699 33.2969 53.0449 33.2891C52.9199 33.2773 52.8125 33.2715 52.7227 33.2715C52.4883 33.2715 52.2852 33.3008 52.1133 33.3594C51.9453 33.4141 51.8047 33.4961 51.6914 33.6055C51.582 33.7148 51.5 33.8516 51.4453 34.0156C51.3906 34.1758 51.3633 34.3613 51.3633 34.5723L51.0176 34.4023C51.0176 33.9844 51.0586 33.6016 51.1406 33.2539C51.2227 32.9062 51.3418 32.6055 51.498 32.3516C51.6543 32.0938 51.8457 31.8945 52.0723 31.7539C52.2988 31.6133 52.5566 31.543 52.8457 31.543C52.9395 31.543 53.0352 31.5488 53.1328 31.5605C53.2305 31.5723 53.3125 31.5898 53.3789 31.6133ZM61.6348 35.75C61.6348 35.6055 61.6133 35.4766 61.5703 35.3633C61.5273 35.2461 61.4492 35.1387 61.3359 35.041C61.2227 34.9434 61.0625 34.8457 60.8555 34.748C60.6484 34.6465 60.377 34.543 60.041 34.4375C59.6582 34.3125 59.293 34.1719 58.9453 34.0156C58.6016 33.8555 58.2949 33.6699 58.0254 33.459C57.7559 33.248 57.543 33.002 57.3867 32.7207C57.2344 32.4395 57.1582 32.1113 57.1582 31.7363C57.1582 31.373 57.2383 31.0449 57.3984 30.752C57.5586 30.459 57.7832 30.209 58.0723 30.002C58.3613 29.791 58.7012 29.6309 59.0918 29.5215C59.4824 29.4082 59.9121 29.3516 60.3809 29.3516C61.0059 29.3516 61.5547 29.4629 62.0273 29.6855C62.5039 29.9043 62.875 30.2129 63.1406 30.6113C63.4062 31.0059 63.5391 31.4648 63.5391 31.9883H61.6406C61.6406 31.7578 61.5918 31.5547 61.4941 31.3789C61.4004 31.1992 61.2559 31.0586 61.0605 30.957C60.8691 30.8555 60.6289 30.8047 60.3398 30.8047C60.0586 30.8047 59.8223 30.8477 59.6309 30.9336C59.4434 31.0156 59.3008 31.1289 59.2031 31.2734C59.1094 31.418 59.0625 31.5762 59.0625 31.748C59.0625 31.8848 59.0977 32.0098 59.168 32.123C59.2422 32.2324 59.3477 32.3359 59.4844 32.4336C59.625 32.5273 59.7969 32.6172 60 32.7031C60.2031 32.7891 60.4355 32.8711 60.6973 32.9492C61.1543 33.0938 61.5586 33.2539 61.9102 33.4297C62.2656 33.6055 62.5645 33.8047 62.8066 34.0273C63.0488 34.25 63.2305 34.502 63.3516 34.7832C63.4766 35.0645 63.5391 35.3828 63.5391 35.7383C63.5391 36.1172 63.4648 36.4531 63.3164 36.7461C63.1719 37.0391 62.9609 37.2891 62.6836 37.4961C62.4102 37.6992 62.082 37.8535 61.6992 37.959C61.3164 38.0645 60.8887 38.1172 60.416 38.1172C59.9863 38.1172 59.5625 38.0625 59.1445 37.9531C58.7266 37.8398 58.3477 37.668 58.0078 37.4375C57.6719 37.207 57.4023 36.9141 57.1992 36.5586C57 36.1992 56.9004 35.7734 56.9004 35.2812H58.8105C58.8105 35.5391 58.8477 35.7578 58.9219 35.9375C58.9961 36.1133 59.1016 36.2559 59.2383 36.3652C59.3789 36.4746 59.5488 36.5527 59.748 36.5996C59.9473 36.6465 60.1699 36.6699 60.416 36.6699C60.7012 36.6699 60.9316 36.6309 61.1074 36.5527C61.2871 36.4707 61.4199 36.3594 61.5059 36.2188C61.5918 36.0781 61.6348 35.9219 61.6348 35.75ZM67.5586 38.1172C67.0547 38.1172 66.6035 38.0371 66.2051 37.877C65.8066 37.7168 65.4688 37.4961 65.1914 37.2148C64.918 36.9297 64.709 36.6016 64.5645 36.2305C64.4199 35.8594 64.3477 35.4629 64.3477 35.041V34.8184C64.3477 34.3457 64.4141 33.9102 64.5469 33.5117C64.6797 33.1133 64.873 32.7676 65.127 32.4746C65.3848 32.1777 65.7012 31.9492 66.0762 31.7891C66.4512 31.625 66.8789 31.543 67.3594 31.543C67.8086 31.543 68.209 31.6172 68.5605 31.7656C68.9121 31.9102 69.209 32.1191 69.4512 32.3926C69.6934 32.6621 69.877 32.9883 70.002 33.3711C70.1309 33.75 70.1953 34.1758 70.1953 34.6484V35.3984H65.0859V34.2207H68.4023V34.0801C68.4023 33.8574 68.3613 33.6621 68.2793 33.4941C68.2012 33.3262 68.084 33.1973 67.9277 33.1074C67.7754 33.0137 67.582 32.9668 67.3477 32.9668C67.125 32.9668 66.9395 33.0137 66.791 33.1074C66.6426 33.2012 66.5234 33.334 66.4336 33.5059C66.3477 33.6738 66.2852 33.8711 66.2461 34.0977C66.207 34.3203 66.1875 34.5605 66.1875 34.8184V35.041C66.1875 35.2871 66.2207 35.5117 66.2871 35.7148C66.3535 35.918 66.4512 36.0918 66.5801 36.2363C66.709 36.3809 66.8652 36.4941 67.0488 36.5762C67.2324 36.6582 67.4414 36.6992 67.6758 36.6992C67.9648 36.6992 68.2402 36.6445 68.502 36.5352C68.7637 36.4219 68.9902 36.2461 69.1816 36.0078L70.0371 36.9863C69.9082 37.1738 69.7266 37.3555 69.4922 37.5312C69.2617 37.7031 68.9844 37.8438 68.6602 37.9531C68.3359 38.0625 67.9688 38.1172 67.5586 38.1172ZM73.7344 36.6934C73.9297 36.6934 74.0996 36.6562 74.2441 36.582C74.3887 36.5078 74.5 36.4043 74.5781 36.2715C74.6602 36.1348 74.7012 35.9707 74.7012 35.7793H76.4238C76.4238 36.2402 76.3047 36.6465 76.0664 36.998C75.832 37.3496 75.5156 37.625 75.1172 37.8242C74.7188 38.0195 74.2695 38.1172 73.7695 38.1172C73.2773 38.1172 72.8477 38.0371 72.4805 37.877C72.1133 37.7129 71.8066 37.4844 71.5605 37.1914C71.3145 36.8984 71.1289 36.5586 71.0039 36.1719C70.8828 35.7812 70.8223 35.3594 70.8223 34.9062V34.7539C70.8223 34.3047 70.8828 33.8848 71.0039 33.4941C71.1289 33.1035 71.3145 32.7617 71.5605 32.4688C71.8066 32.1758 72.1113 31.9492 72.4746 31.7891C72.8418 31.625 73.2715 31.543 73.7637 31.543C74.2832 31.543 74.7422 31.6426 75.1406 31.8418C75.543 32.041 75.8574 32.3281 76.084 32.7031C76.3105 33.0742 76.4238 33.5215 76.4238 34.0449H74.7012C74.7012 33.8418 74.6641 33.6602 74.5898 33.5C74.5195 33.3359 74.4102 33.207 74.2617 33.1133C74.1172 33.0156 73.9375 32.9668 73.7227 32.9668C73.5 32.9668 73.3164 33.0156 73.1719 33.1133C73.0312 33.207 72.9238 33.3379 72.8496 33.5059C72.7754 33.6738 72.7246 33.8652 72.6973 34.0801C72.6699 34.291 72.6562 34.5156 72.6562 34.7539V34.9062C72.6562 35.1484 72.6699 35.3789 72.6973 35.5977C72.7246 35.8125 72.7754 36.002 72.8496 36.166C72.9277 36.3301 73.0371 36.459 73.1777 36.5527C73.3184 36.6465 73.5039 36.6934 73.7344 36.6934ZM80.5547 31.6602V32.9434H76.793V31.6602H80.5547ZM77.6543 30.0898H79.4883V36.0137C79.4883 36.1895 79.5098 36.3242 79.5527 36.418C79.5957 36.5117 79.666 36.5781 79.7637 36.6172C79.8613 36.6523 79.9863 36.6699 80.1387 36.6699C80.248 36.6699 80.3418 36.666 80.4199 36.6582C80.498 36.6504 80.5703 36.6406 80.6367 36.6289V37.9531C80.4805 38.0039 80.3145 38.043 80.1387 38.0703C79.9629 38.1016 79.7715 38.1172 79.5645 38.1172C79.1699 38.1172 78.8281 38.0527 78.5391 37.9238C78.2539 37.7949 78.0352 37.5918 77.8828 37.3145C77.7305 37.0332 77.6543 36.668 77.6543 36.2188V30.0898ZM83.3613 31.6602V38H81.5273V31.6602H83.3613ZM81.416 30.0195C81.416 29.7539 81.5098 29.5371 81.6973 29.3691C81.8848 29.1973 82.1309 29.1113 82.4355 29.1113C82.7402 29.1113 82.9863 29.1973 83.1738 29.3691C83.3652 29.5371 83.4609 29.7539 83.4609 30.0195C83.4609 30.2812 83.3652 30.498 83.1738 30.6699C82.9863 30.8379 82.7402 30.9219 82.4355 30.9219C82.1309 30.9219 81.8848 30.8379 81.6973 30.6699C81.5098 30.498 81.416 30.2812 81.416 30.0195ZM84.416 34.8945V34.7715C84.416 34.3066 84.4824 33.8789 84.6152 33.4883C84.748 33.0938 84.9434 32.752 85.2012 32.4629C85.459 32.1738 85.7754 31.9492 86.1504 31.7891C86.5254 31.625 86.9551 31.543 87.4395 31.543C87.9316 31.543 88.3652 31.625 88.7402 31.7891C89.1191 31.9492 89.4375 32.1738 89.6953 32.4629C89.9531 32.752 90.1484 33.0938 90.2812 33.4883C90.4141 33.8789 90.4805 34.3066 90.4805 34.7715V34.8945C90.4805 35.3555 90.4141 35.7832 90.2812 36.1777C90.1484 36.5684 89.9531 36.9102 89.6953 37.2031C89.4375 37.4922 89.1211 37.7168 88.7461 37.877C88.3711 38.0371 87.9395 38.1172 87.4512 38.1172C86.9668 38.1172 86.5352 38.0371 86.1562 37.877C85.7773 37.7168 85.459 37.4922 85.2012 37.2031C84.9434 36.9102 84.748 36.5684 84.6152 36.1777C84.4824 35.7832 84.416 35.3555 84.416 34.8945ZM86.25 34.7715V34.8945C86.25 35.1445 86.2695 35.3789 86.3086 35.5977C86.3516 35.8164 86.4199 36.0078 86.5137 36.1719C86.6074 36.3359 86.7305 36.4648 86.8828 36.5586C87.0391 36.6484 87.2285 36.6934 87.4512 36.6934C87.6738 36.6934 87.8613 36.6484 88.0137 36.5586C88.166 36.4648 88.2891 36.3359 88.3828 36.1719C88.4766 36.0078 88.543 35.8164 88.582 35.5977C88.625 35.3789 88.6465 35.1445 88.6465 34.8945V34.7715C88.6465 34.5254 88.625 34.2949 88.582 34.0801C88.543 33.8613 88.4766 33.668 88.3828 33.5C88.2891 33.332 88.1641 33.2012 88.0078 33.1074C87.8555 33.0137 87.666 32.9668 87.4395 32.9668C87.2207 32.9668 87.0352 33.0137 86.8828 33.1074C86.7305 33.2012 86.6074 33.332 86.5137 33.5C86.4199 33.668 86.3516 33.8613 86.3086 34.0801C86.2695 34.2949 86.25 34.5254 86.25 34.7715ZM93.2344 33.0137V38H91.4004V31.6602H93.123L93.2344 33.0137ZM92.9941 34.6074L92.5371 34.6191C92.5371 34.1426 92.5957 33.7148 92.7129 33.3359C92.8301 32.957 92.9961 32.6348 93.2109 32.3691C93.4297 32.0996 93.6895 31.8945 93.9902 31.7539C94.2949 31.6133 94.6309 31.543 94.998 31.543C95.2949 31.543 95.5664 31.5859 95.8125 31.6719C96.0586 31.7578 96.2695 31.8965 96.4453 32.0879C96.625 32.2754 96.7617 32.5254 96.8555 32.8379C96.9492 33.1465 96.9961 33.5273 96.9961 33.9805V38H95.1562V33.9746C95.1562 33.709 95.1191 33.5039 95.0449 33.3594C94.9707 33.2148 94.8613 33.1133 94.7168 33.0547C94.5762 32.9961 94.4043 32.9668 94.2012 32.9668C93.9863 32.9668 93.8027 33.0098 93.6504 33.0957C93.498 33.1777 93.373 33.293 93.2754 33.4414C93.1777 33.5898 93.1055 33.7637 93.0586 33.9629C93.0156 34.1621 92.9941 34.377 92.9941 34.6074Z" fill="white"/>
<path d="M11.9434 134.469V143H11.2285V134.469H11.9434ZM14.8672 134.469V135.09H8.31055V134.469H14.8672ZM19.2793 141.863V138.594C19.2793 138.293 19.2168 138.033 19.0918 137.814C18.9668 137.596 18.7832 137.428 18.541 137.311C18.2988 137.193 18 137.135 17.6445 137.135C17.3164 137.135 17.0234 137.193 16.7656 137.311C16.5117 137.424 16.3105 137.578 16.1621 137.773C16.0176 137.965 15.9453 138.178 15.9453 138.412L15.2422 138.406C15.2422 138.168 15.3008 137.938 15.418 137.715C15.5352 137.492 15.7012 137.293 15.916 137.117C16.1309 136.941 16.3867 136.803 16.6836 136.701C16.9844 136.596 17.3145 136.543 17.6738 136.543C18.127 136.543 18.5254 136.619 18.8691 136.771C19.2168 136.924 19.4883 137.152 19.6836 137.457C19.8789 137.762 19.9766 138.145 19.9766 138.605V141.67C19.9766 141.889 19.9922 142.115 20.0234 142.35C20.0586 142.584 20.1074 142.777 20.1699 142.93V143H19.4258C19.3789 142.859 19.3418 142.684 19.3145 142.473C19.291 142.258 19.2793 142.055 19.2793 141.863ZM19.4434 139.309L19.4551 139.848H18.0781C17.7188 139.848 17.3965 139.881 17.1113 139.947C16.8301 140.01 16.5918 140.104 16.3965 140.229C16.2012 140.35 16.0508 140.496 15.9453 140.668C15.8438 140.84 15.793 141.035 15.793 141.254C15.793 141.48 15.8496 141.688 15.9629 141.875C16.0801 142.062 16.2441 142.213 16.4551 142.326C16.6699 142.436 16.9238 142.49 17.2168 142.49C17.6074 142.49 17.9512 142.418 18.248 142.273C18.5488 142.129 18.7969 141.939 18.9922 141.705C19.1875 141.471 19.3184 141.215 19.3848 140.938L19.6895 141.342C19.6387 141.537 19.5449 141.738 19.4082 141.945C19.2754 142.148 19.1016 142.34 18.8867 142.52C18.6719 142.695 18.418 142.84 18.125 142.953C17.8359 143.062 17.5078 143.117 17.1406 143.117C16.7266 143.117 16.3652 143.039 16.0566 142.883C15.752 142.727 15.5137 142.514 15.3418 142.244C15.1738 141.971 15.0898 141.662 15.0898 141.318C15.0898 141.006 15.1562 140.727 15.2891 140.48C15.4219 140.23 15.6133 140.02 15.8633 139.848C16.1172 139.672 16.4219 139.539 16.7773 139.449C17.1367 139.355 17.5391 139.309 17.9844 139.309H19.4434ZM25.6543 141.383C25.6543 141.211 25.6113 141.041 25.5254 140.873C25.4395 140.705 25.2734 140.551 25.0273 140.41C24.7852 140.27 24.4277 140.15 23.9551 140.053C23.6035 139.975 23.2891 139.887 23.0117 139.789C22.7383 139.691 22.5078 139.574 22.3203 139.438C22.1328 139.301 21.9902 139.137 21.8926 138.945C21.7949 138.754 21.7461 138.527 21.7461 138.266C21.7461 138.031 21.7969 137.811 21.8984 137.604C22.0039 137.393 22.1523 137.209 22.3438 137.053C22.5391 136.893 22.7734 136.768 23.0469 136.678C23.3242 136.588 23.6348 136.543 23.9785 136.543C24.4668 136.543 24.8848 136.627 25.2324 136.795C25.584 136.959 25.8516 137.184 26.0352 137.469C26.2227 137.754 26.3164 138.076 26.3164 138.436H25.6191C25.6191 138.217 25.5547 138.01 25.4258 137.814C25.3008 137.619 25.1152 137.459 24.8691 137.334C24.627 137.209 24.3301 137.146 23.9785 137.146C23.6152 137.146 23.3203 137.201 23.0938 137.311C22.8672 137.42 22.7012 137.559 22.5957 137.727C22.4941 137.895 22.4434 138.068 22.4434 138.248C22.4434 138.389 22.4648 138.518 22.5078 138.635C22.5547 138.748 22.6367 138.854 22.7539 138.951C22.875 139.049 23.0469 139.141 23.2695 139.227C23.4922 139.312 23.7812 139.396 24.1367 139.479C24.6484 139.592 25.0664 139.73 25.3906 139.895C25.7188 140.055 25.9609 140.254 26.1172 140.492C26.2734 140.727 26.3516 141.012 26.3516 141.348C26.3516 141.609 26.2969 141.85 26.1875 142.068C26.0781 142.283 25.9199 142.469 25.7129 142.625C25.5098 142.781 25.2637 142.902 24.9746 142.988C24.6895 143.074 24.3691 143.117 24.0137 143.117C23.4785 143.117 23.0254 143.029 22.6543 142.854C22.2871 142.674 22.0078 142.439 21.8164 142.15C21.6289 141.857 21.5352 141.547 21.5352 141.219H22.2324C22.2559 141.547 22.3594 141.807 22.543 141.998C22.7266 142.186 22.9512 142.318 23.2168 142.396C23.4863 142.475 23.752 142.514 24.0137 142.514C24.373 142.514 24.6738 142.461 24.916 142.355C25.1582 142.25 25.3418 142.111 25.4668 141.939C25.5918 141.768 25.6543 141.582 25.6543 141.383ZM28.6367 134V143H27.9395V134H28.6367ZM32.6152 136.66L29.6504 139.602L28.3906 140.82L28.2852 140.135L29.2988 139.039L31.7305 136.66H32.6152ZM32.0059 143L29.3574 139.707L29.7441 139.104L32.8496 143H32.0059ZM37.6191 141.383C37.6191 141.211 37.5762 141.041 37.4902 140.873C37.4043 140.705 37.2383 140.551 36.9922 140.41C36.75 140.27 36.3926 140.15 35.9199 140.053C35.5684 139.975 35.2539 139.887 34.9766 139.789C34.7031 139.691 34.4727 139.574 34.2852 139.438C34.0977 139.301 33.9551 139.137 33.8574 138.945C33.7598 138.754 33.7109 138.527 33.7109 138.266C33.7109 138.031 33.7617 137.811 33.8633 137.604C33.9688 137.393 34.1172 137.209 34.3086 137.053C34.5039 136.893 34.7383 136.768 35.0117 136.678C35.2891 136.588 35.5996 136.543 35.9434 136.543C36.4316 136.543 36.8496 136.627 37.1973 136.795C37.5488 136.959 37.8164 137.184 38 137.469C38.1875 137.754 38.2812 138.076 38.2812 138.436H37.584C37.584 138.217 37.5195 138.01 37.3906 137.814C37.2656 137.619 37.0801 137.459 36.834 137.334C36.5918 137.209 36.2949 137.146 35.9434 137.146C35.5801 137.146 35.2852 137.201 35.0586 137.311C34.832 137.42 34.666 137.559 34.5605 137.727C34.459 137.895 34.4082 138.068 34.4082 138.248C34.4082 138.389 34.4297 138.518 34.4727 138.635C34.5195 138.748 34.6016 138.854 34.7188 138.951C34.8398 139.049 35.0117 139.141 35.2344 139.227C35.457 139.312 35.7461 139.396 36.1016 139.479C36.6133 139.592 37.0312 139.73 37.3555 139.895C37.6836 140.055 37.9258 140.254 38.082 140.492C38.2383 140.727 38.3164 141.012 38.3164 141.348C38.3164 141.609 38.2617 141.85 38.1523 142.068C38.043 142.283 37.8848 142.469 37.6777 142.625C37.4746 142.781 37.2285 142.902 36.9395 142.988C36.6543 143.074 36.334 143.117 35.9785 143.117C35.4434 143.117 34.9902 143.029 34.6191 142.854C34.252 142.674 33.9727 142.439 33.7812 142.15C33.5938 141.857 33.5 141.547 33.5 141.219H34.1973C34.2207 141.547 34.3242 141.807 34.5078 141.998C34.6914 142.186 34.916 142.318 35.1816 142.396C35.4512 142.475 35.7168 142.514 35.9785 142.514C36.3379 142.514 36.6387 142.461 36.8809 142.355C37.123 142.25 37.3066 142.111 37.4316 141.939C37.5566 141.768 37.6191 141.582 37.6191 141.383Z" fill="white"/>
<path d="M11.8848 108.979L8.93164 117H8.18164L11.4043 108.469H11.9258L11.8848 108.979ZM14.5684 117L11.6094 108.979L11.5684 108.469H12.0898L15.3184 117H14.5684ZM14.041 113.988V114.609H9.51172V113.988H14.041ZM18.7578 116.514C19.0547 116.514 19.332 116.459 19.5898 116.35C19.8516 116.236 20.0664 116.07 20.2344 115.852C20.4062 115.629 20.5039 115.357 20.5273 115.037H21.1953C21.1758 115.439 21.0527 115.799 20.8262 116.115C20.6035 116.428 20.3105 116.674 19.9473 116.854C19.5879 117.029 19.1914 117.117 18.7578 117.117C18.3164 117.117 17.9258 117.037 17.5859 116.877C17.25 116.717 16.9688 116.494 16.7422 116.209C16.5156 115.92 16.3438 115.584 16.2266 115.201C16.1133 114.814 16.0566 114.398 16.0566 113.953V113.707C16.0566 113.262 16.1133 112.848 16.2266 112.465C16.3438 112.078 16.5156 111.742 16.7422 111.457C16.9688 111.168 17.25 110.943 17.5859 110.783C17.9219 110.623 18.3105 110.543 18.752 110.543C19.2051 110.543 19.6113 110.635 19.9707 110.818C20.334 111.002 20.623 111.262 20.8379 111.598C21.0566 111.934 21.1758 112.332 21.1953 112.793H20.5273C20.5078 112.453 20.418 112.16 20.2578 111.914C20.0977 111.668 19.8867 111.479 19.625 111.346C19.3633 111.213 19.0723 111.146 18.752 111.146C18.3926 111.146 18.0859 111.217 17.832 111.357C17.5781 111.494 17.3711 111.684 17.2109 111.926C17.0547 112.164 16.9395 112.438 16.8652 112.746C16.791 113.051 16.7539 113.371 16.7539 113.707V113.953C16.7539 114.293 16.7891 114.617 16.8594 114.926C16.9336 115.23 17.0488 115.502 17.2051 115.74C17.3652 115.979 17.5723 116.168 17.8262 116.309C18.084 116.445 18.3945 116.514 18.7578 116.514ZM25.0039 110.66V111.234H21.8281V110.66H25.0039ZM22.9941 109.031H23.6914V115.459C23.6914 115.752 23.7305 115.973 23.8086 116.121C23.8867 116.27 23.9883 116.369 24.1133 116.42C24.2383 116.471 24.373 116.496 24.5176 116.496C24.623 116.496 24.7246 116.49 24.8223 116.479C24.9199 116.463 25.0078 116.447 25.0859 116.432L25.1152 117.023C25.0293 117.051 24.918 117.072 24.7812 117.088C24.6445 117.107 24.5078 117.117 24.3711 117.117C24.1016 117.117 23.8633 117.068 23.6562 116.971C23.4492 116.869 23.2871 116.697 23.1699 116.455C23.0527 116.209 22.9941 115.875 22.9941 115.453V109.031ZM27.2539 110.66V117H26.5566V110.66H27.2539ZM26.4336 108.826C26.4336 108.693 26.4746 108.582 26.5566 108.492C26.6426 108.398 26.7598 108.352 26.9082 108.352C27.0566 108.352 27.1738 108.398 27.2598 108.492C27.3496 108.582 27.3945 108.693 27.3945 108.826C27.3945 108.955 27.3496 109.066 27.2598 109.16C27.1738 109.25 27.0566 109.295 26.9082 109.295C26.7598 109.295 26.6426 109.25 26.5566 109.16C26.4746 109.066 26.4336 108.955 26.4336 108.826ZM31.0391 116.326L33.0723 110.66H33.793L31.4199 117H30.9102L31.0391 116.326ZM29.1992 110.66L31.2559 116.344L31.3672 117H30.8516L28.4727 110.66H29.1992ZM35.7266 110.66V117H35.0293V110.66H35.7266ZM34.9062 108.826C34.9062 108.693 34.9473 108.582 35.0293 108.492C35.1152 108.398 35.2324 108.352 35.3809 108.352C35.5293 108.352 35.6465 108.398 35.7324 108.492C35.8223 108.582 35.8672 108.693 35.8672 108.826C35.8672 108.955 35.8223 109.066 35.7324 109.16C35.6465 109.25 35.5293 109.295 35.3809 109.295C35.2324 109.295 35.1152 109.25 35.0293 109.16C34.9473 109.066 34.9062 108.955 34.9062 108.826ZM40.0391 110.66V111.234H36.8633V110.66H40.0391ZM38.0293 109.031H38.7266V115.459C38.7266 115.752 38.7656 115.973 38.8438 116.121C38.9219 116.27 39.0234 116.369 39.1484 116.42C39.2734 116.471 39.4082 116.496 39.5527 116.496C39.6582 116.496 39.7598 116.49 39.8574 116.479C39.9551 116.463 40.043 116.447 40.1211 116.432L40.1504 117.023C40.0645 117.051 39.9531 117.072 39.8164 117.088C39.6797 117.107 39.543 117.117 39.4062 117.117C39.1367 117.117 38.8984 117.068 38.6914 116.971C38.4844 116.869 38.3223 116.697 38.2051 116.455C38.0879 116.209 38.0293 115.875 38.0293 115.453V109.031ZM43.3906 116.367L45.3652 110.66H46.1211L43.4375 118.02C43.3828 118.164 43.3125 118.324 43.2266 118.5C43.1445 118.676 43.0352 118.844 42.8984 119.004C42.7656 119.168 42.5977 119.301 42.3945 119.402C42.1953 119.508 41.9512 119.561 41.6621 119.561C41.5879 119.561 41.4922 119.551 41.375 119.531C41.2617 119.516 41.1797 119.5 41.1289 119.484L41.123 118.893C41.166 118.904 41.2285 118.914 41.3105 118.922C41.3926 118.93 41.4492 118.934 41.4805 118.934C41.7344 118.934 41.9473 118.891 42.1191 118.805C42.2949 118.719 42.4414 118.59 42.5586 118.418C42.6758 118.25 42.7793 118.039 42.8691 117.785L43.3906 116.367ZM41.5449 110.66L43.5664 116.104L43.7539 116.836L43.2441 117.123L40.7832 110.66H41.5449Z" fill="white"/>
<path d="M13.9121 88.9023C13.9121 88.668 13.873 88.459 13.7949 88.2754C13.7168 88.0918 13.5879 87.9277 13.4082 87.7832C13.2324 87.6348 12.9941 87.498 12.6934 87.373C12.3965 87.2441 12.0254 87.1172 11.5801 86.9922C11.1543 86.8711 10.7695 86.7383 10.4258 86.5938C10.082 86.4492 9.78711 86.2832 9.54102 86.0957C9.29883 85.9082 9.11328 85.6895 8.98438 85.4395C8.85547 85.1855 8.79102 84.8906 8.79102 84.5547C8.79102 84.2266 8.86133 83.9277 9.00195 83.6582C9.14258 83.3887 9.33984 83.1562 9.59375 82.9609C9.85156 82.7656 10.1543 82.6152 10.502 82.5098C10.8535 82.4043 11.2383 82.3516 11.6562 82.3516C12.2539 82.3516 12.7695 82.4648 13.2031 82.6914C13.6406 82.918 13.9785 83.2246 14.2168 83.6113C14.459 83.9941 14.5801 84.4238 14.5801 84.9004H13.8594C13.8594 84.5293 13.7715 84.1992 13.5957 83.9102C13.4238 83.6172 13.1738 83.3887 12.8457 83.2246C12.5215 83.0566 12.125 82.9727 11.6562 82.9727C11.1875 82.9727 10.793 83.0449 10.4727 83.1895C10.1562 83.3301 9.91602 83.5195 9.75195 83.7578C9.5918 83.9922 9.51172 84.2539 9.51172 84.543C9.51172 84.7461 9.55078 84.9336 9.62891 85.1055C9.70703 85.2734 9.83398 85.4316 10.0098 85.5801C10.1895 85.7246 10.4258 85.8613 10.7188 85.9902C11.0117 86.1152 11.373 86.2344 11.8027 86.3477C12.2559 86.4727 12.6582 86.6113 13.0098 86.7637C13.3613 86.916 13.6582 87.0918 13.9004 87.291C14.1426 87.4863 14.3262 87.7148 14.4512 87.9766C14.5762 88.2383 14.6387 88.543 14.6387 88.8906C14.6387 89.2383 14.5645 89.5508 14.416 89.8281C14.2715 90.1016 14.0664 90.334 13.8008 90.5254C13.5391 90.7168 13.2285 90.8633 12.8691 90.9648C12.5137 91.0664 12.125 91.1172 11.7031 91.1172C11.3242 91.1172 10.9473 91.0684 10.5723 90.9707C10.1973 90.873 9.85352 90.7227 9.54102 90.5195C9.23242 90.3125 8.98438 90.0469 8.79688 89.7227C8.61328 89.3984 8.52148 89.0117 8.52148 88.5625H9.23633C9.23633 88.9219 9.30859 89.2246 9.45312 89.4707C9.59766 89.7168 9.78906 89.916 10.0273 90.0684C10.2695 90.2207 10.5352 90.332 10.8242 90.4023C11.1172 90.4688 11.4102 90.502 11.7031 90.502C12.1523 90.502 12.541 90.4355 12.8691 90.3027C13.2012 90.1699 13.457 89.9844 13.6367 89.7461C13.8203 89.5039 13.9121 89.2227 13.9121 88.9023ZM18.4824 91.1172C18.0684 91.1172 17.6875 91.041 17.3398 90.8887C16.9961 90.7363 16.6953 90.5215 16.4375 90.2441C16.1836 89.9668 15.9863 89.6387 15.8457 89.2598C15.709 88.877 15.6406 88.459 15.6406 88.0059V87.7539C15.6406 87.2656 15.7129 86.8242 15.8574 86.4297C16.002 86.0352 16.2012 85.6973 16.4551 85.416C16.709 85.1348 16.998 84.9199 17.3223 84.7715C17.6504 84.6191 17.9941 84.543 18.3535 84.543C18.7559 84.543 19.1133 84.6152 19.4258 84.7598C19.7383 84.9004 20 85.1016 20.2109 85.3633C20.4258 85.6211 20.5879 85.9277 20.6973 86.2832C20.8066 86.6348 20.8613 87.0234 20.8613 87.4492V87.877H16.0625V87.2793H20.1641V87.1973C20.1562 86.8418 20.084 86.5098 19.9473 86.2012C19.8145 85.8887 19.6152 85.6348 19.3496 85.4395C19.084 85.2441 18.752 85.1465 18.3535 85.1465C18.0566 85.1465 17.7832 85.209 17.5332 85.334C17.2871 85.459 17.0742 85.6387 16.8945 85.873C16.7188 86.1035 16.582 86.3789 16.4844 86.6992C16.3906 87.0156 16.3438 87.3672 16.3438 87.7539V88.0059C16.3438 88.3574 16.3945 88.6855 16.4961 88.9902C16.6016 89.291 16.75 89.5566 16.9414 89.7871C17.1367 90.0176 17.3672 90.1973 17.6328 90.3262C17.8984 90.4551 18.1914 90.5195 18.5117 90.5195C18.8867 90.5195 19.2188 90.4512 19.5078 90.3145C19.7969 90.1738 20.0566 89.9531 20.2871 89.6523L20.7266 89.9922C20.5898 90.1953 20.418 90.3828 20.2109 90.5547C20.0078 90.7266 19.7637 90.8633 19.4785 90.9648C19.1934 91.0664 18.8613 91.1172 18.4824 91.1172ZM24.582 90.5137C24.8789 90.5137 25.1562 90.459 25.4141 90.3496C25.6758 90.2363 25.8906 90.0703 26.0586 89.8516C26.2305 89.6289 26.3281 89.3574 26.3516 89.0371H27.0195C27 89.4395 26.877 89.7988 26.6504 90.1152C26.4277 90.4277 26.1348 90.6738 25.7715 90.8535C25.4121 91.0293 25.0156 91.1172 24.582 91.1172C24.1406 91.1172 23.75 91.0371 23.4102 90.877C23.0742 90.7168 22.793 90.4941 22.5664 90.209C22.3398 89.9199 22.168 89.584 22.0508 89.2012C21.9375 88.8145 21.8809 88.3984 21.8809 87.9531V87.707C21.8809 87.2617 21.9375 86.8477 22.0508 86.4648C22.168 86.0781 22.3398 85.7422 22.5664 85.457C22.793 85.168 23.0742 84.9434 23.4102 84.7832C23.7461 84.623 24.1348 84.543 24.5762 84.543C25.0293 84.543 25.4355 84.6348 25.7949 84.8184C26.1582 85.002 26.4473 85.2617 26.6621 85.5977C26.8809 85.9336 27 86.332 27.0195 86.793H26.3516C26.332 86.4531 26.2422 86.1602 26.082 85.9141C25.9219 85.668 25.7109 85.4785 25.4492 85.3457C25.1875 85.2129 24.8965 85.1465 24.5762 85.1465C24.2168 85.1465 23.9102 85.2168 23.6562 85.3574C23.4023 85.4941 23.1953 85.6836 23.0352 85.9258C22.8789 86.1641 22.7637 86.4375 22.6895 86.7461C22.6152 87.0508 22.5781 87.3711 22.5781 87.707V87.9531C22.5781 88.293 22.6133 88.6172 22.6836 88.9258C22.7578 89.2305 22.873 89.502 23.0293 89.7402C23.1895 89.9785 23.3965 90.168 23.6504 90.3086C23.9082 90.4453 24.2188 90.5137 24.582 90.5137ZM32.4922 89.5352V84.6602H33.1953V91H32.5215L32.4922 89.5352ZM32.6211 88.3633L32.9844 88.3516C32.9844 88.75 32.9375 89.1172 32.8438 89.4531C32.75 89.7891 32.6035 90.082 32.4043 90.332C32.2051 90.582 31.9473 90.7754 31.6309 90.9121C31.3145 91.0488 30.9336 91.1172 30.4883 91.1172C30.1797 91.1172 29.8965 91.0742 29.6387 90.9883C29.3848 90.8984 29.166 90.7578 28.9824 90.5664C28.7988 90.375 28.6562 90.127 28.5547 89.8223C28.457 89.5176 28.4082 89.1484 28.4082 88.7148V84.6602H29.1055V88.7266C29.1055 89.0664 29.1426 89.3496 29.2168 89.5762C29.2949 89.8027 29.4004 89.9844 29.5332 90.1211C29.6699 90.2578 29.8262 90.3555 30.002 90.4141C30.1777 90.4727 30.3672 90.502 30.5703 90.502C31.0859 90.502 31.4922 90.4023 31.7891 90.2031C32.0898 90.0039 32.3027 89.7422 32.4277 89.418C32.5566 89.0898 32.6211 88.7383 32.6211 88.3633ZM35.7266 85.709V91H35.0293V84.6602H35.709L35.7266 85.709ZM37.9707 84.6133L37.9531 85.2578C37.875 85.2461 37.7988 85.2363 37.7246 85.2285C37.6504 85.2207 37.5703 85.2168 37.4844 85.2168C37.1797 85.2168 36.9121 85.2734 36.6816 85.3867C36.4551 85.4961 36.2637 85.6504 36.1074 85.8496C35.9512 86.0449 35.832 86.2754 35.75 86.541C35.668 86.8027 35.6211 87.084 35.6094 87.3848L35.3516 87.4844C35.3516 87.0703 35.3945 86.6855 35.4805 86.3301C35.5664 85.9746 35.6973 85.6641 35.873 85.3984C36.0527 85.1289 36.2773 84.9199 36.5469 84.7715C36.8203 84.6191 37.1406 84.543 37.5078 84.543C37.5977 84.543 37.6855 84.5508 37.7715 84.5664C37.8613 84.5781 37.9277 84.5938 37.9707 84.6133ZM39.8516 84.6602V91H39.1543V84.6602H39.8516ZM39.0312 82.8262C39.0312 82.6934 39.0723 82.582 39.1543 82.4922C39.2402 82.3984 39.3574 82.3516 39.5059 82.3516C39.6543 82.3516 39.7715 82.3984 39.8574 82.4922C39.9473 82.582 39.9922 82.6934 39.9922 82.8262C39.9922 82.9551 39.9473 83.0664 39.8574 83.1602C39.7715 83.25 39.6543 83.2949 39.5059 83.2949C39.3574 83.2949 39.2402 83.25 39.1543 83.1602C39.0723 83.0664 39.0312 82.9551 39.0312 82.8262ZM44.1641 84.6602V85.2344H40.9883V84.6602H44.1641ZM42.1543 83.0312H42.8516V89.459C42.8516 89.752 42.8906 89.9727 42.9688 90.1211C43.0469 90.2695 43.1484 90.3691 43.2734 90.4199C43.3984 90.4707 43.5332 90.4961 43.6777 90.4961C43.7832 90.4961 43.8848 90.4902 43.9824 90.4785C44.0801 90.4629 44.168 90.4473 44.2461 90.4316L44.2754 91.0234C44.1895 91.0508 44.0781 91.0723 43.9414 91.0879C43.8047 91.1074 43.668 91.1172 43.5312 91.1172C43.2617 91.1172 43.0234 91.0684 42.8164 90.9707C42.6094 90.8691 42.4473 90.6973 42.3301 90.4551C42.2129 90.209 42.1543 89.875 42.1543 89.4531V83.0312ZM47.5156 90.3672L49.4902 84.6602H50.2461L47.5625 92.0195C47.5078 92.1641 47.4375 92.3242 47.3516 92.5C47.2695 92.6758 47.1602 92.8438 47.0234 93.0039C46.8906 93.168 46.7227 93.3008 46.5195 93.4023C46.3203 93.5078 46.0762 93.5605 45.7871 93.5605C45.7129 93.5605 45.6172 93.5508 45.5 93.5312C45.3867 93.5156 45.3047 93.5 45.2539 93.4844L45.248 92.8926C45.291 92.9043 45.3535 92.9141 45.4355 92.9219C45.5176 92.9297 45.5742 92.9336 45.6055 92.9336C45.8594 92.9336 46.0723 92.8906 46.2441 92.8047C46.4199 92.7188 46.5664 92.5898 46.6836 92.418C46.8008 92.25 46.9043 92.0391 46.9941 91.7852L47.5156 90.3672ZM45.6699 84.6602L47.6914 90.1035L47.8789 90.8359L47.3691 91.123L44.9082 84.6602H45.6699Z" fill="white"/>
<path d="M9.96289 56.4688V65H9.24219V56.4688H9.96289ZM12.8164 60.0137V65H12.1191V58.6602H12.7871L12.8164 60.0137ZM12.6582 61.4375L12.3477 61.2617C12.3711 60.8867 12.4473 60.5352 12.5762 60.207C12.7051 59.8789 12.8789 59.5898 13.0977 59.3398C13.3203 59.0898 13.5801 58.8945 13.877 58.7539C14.1777 58.6133 14.5098 58.543 14.873 58.543C15.1895 58.543 15.4727 58.5859 15.7227 58.6719C15.9727 58.7578 16.1855 58.8945 16.3613 59.082C16.5371 59.2695 16.6699 59.5098 16.7598 59.8027C16.8535 60.0957 16.9004 60.4531 16.9004 60.875V65H16.1973V60.8691C16.1973 60.4316 16.1367 60.0898 16.0156 59.8438C15.8945 59.5938 15.7227 59.416 15.5 59.3105C15.2773 59.2051 15.0137 59.1523 14.709 59.1523C14.373 59.1523 14.0781 59.2266 13.8242 59.375C13.5742 59.5195 13.3633 59.709 13.1914 59.9434C13.0234 60.1738 12.8945 60.4219 12.8047 60.6875C12.7148 60.9492 12.666 61.1992 12.6582 61.4375ZM19.918 65H19.2207V57.875C19.2207 57.4414 19.2949 57.0762 19.4434 56.7793C19.5957 56.4824 19.8105 56.2578 20.0879 56.1055C20.3691 55.9531 20.7031 55.877 21.0898 55.877C21.2109 55.877 21.3359 55.8848 21.4648 55.9004C21.5938 55.9121 21.7188 55.9375 21.8398 55.9766L21.7871 56.5684C21.6895 56.541 21.5898 56.5234 21.4883 56.5156C21.3906 56.5039 21.2754 56.498 21.1426 56.498C20.8887 56.498 20.6699 56.5527 20.4863 56.6621C20.3027 56.7676 20.1621 56.9219 20.0645 57.125C19.9668 57.3281 19.918 57.5781 19.918 57.875V65ZM21.4297 58.6602V59.2344H18.1719V58.6602H21.4297ZM22.3027 61.9297V61.7363C22.3027 61.2754 22.3691 60.8496 22.502 60.459C22.6348 60.0684 22.8242 59.7305 23.0703 59.4453C23.3203 59.1602 23.6191 58.9395 23.9668 58.7832C24.3145 58.623 24.7012 58.543 25.127 58.543C25.5566 58.543 25.9453 58.623 26.293 58.7832C26.6406 58.9395 26.9395 59.1602 27.1895 59.4453C27.4395 59.7305 27.6309 60.0684 27.7637 60.459C27.8965 60.8496 27.9629 61.2754 27.9629 61.7363V61.9297C27.9629 62.3906 27.8965 62.8164 27.7637 63.207C27.6309 63.5938 27.4395 63.9297 27.1895 64.2148C26.9434 64.5 26.6465 64.7227 26.2988 64.8828C25.9512 65.0391 25.5645 65.1172 25.1387 65.1172C24.709 65.1172 24.3203 65.0391 23.9727 64.8828C23.625 64.7227 23.3262 64.5 23.0762 64.2148C22.8262 63.9297 22.6348 63.5938 22.502 63.207C22.3691 62.8164 22.3027 62.3906 22.3027 61.9297ZM23 61.7363V61.9297C23 62.2773 23.0469 62.6074 23.1406 62.9199C23.2344 63.2285 23.3711 63.5039 23.5508 63.7461C23.7305 63.9844 23.9531 64.1719 24.2188 64.3086C24.4844 64.4453 24.791 64.5137 25.1387 64.5137C25.4824 64.5137 25.7852 64.4453 26.0469 64.3086C26.3125 64.1719 26.5352 63.9844 26.7148 63.7461C26.8945 63.5039 27.0293 63.2285 27.1191 62.9199C27.2129 62.6074 27.2598 62.2773 27.2598 61.9297V61.7363C27.2598 61.3926 27.2129 61.0664 27.1191 60.7578C27.0293 60.4492 26.8926 60.1738 26.709 59.9316C26.5293 59.6895 26.3066 59.498 26.041 59.3574C25.7754 59.2168 25.4707 59.1465 25.127 59.1465C24.7832 59.1465 24.4785 59.2168 24.2129 59.3574C23.9512 59.498 23.7285 59.6895 23.5449 59.9316C23.3652 60.1738 23.2285 60.4492 23.1348 60.7578C23.0449 61.0664 23 61.3926 23 61.7363ZM30.1133 59.709V65H29.416V58.6602H30.0957L30.1133 59.709ZM32.3574 58.6133L32.3398 59.2578C32.2617 59.2461 32.1855 59.2363 32.1113 59.2285C32.0371 59.2207 31.957 59.2168 31.8711 59.2168C31.5664 59.2168 31.2988 59.2734 31.0684 59.3867C30.8418 59.4961 30.6504 59.6504 30.4941 59.8496C30.3379 60.0449 30.2188 60.2754 30.1367 60.541C30.0547 60.8027 30.0078 61.084 29.9961 61.3848L29.7383 61.4844C29.7383 61.0703 29.7812 60.6855 29.8672 60.3301C29.9531 59.9746 30.084 59.6641 30.2598 59.3984C30.4395 59.1289 30.6641 58.9199 30.9336 58.7715C31.207 58.6191 31.5273 58.543 31.8945 58.543C31.9844 58.543 32.0723 58.5508 32.1582 58.5664C32.248 58.5781 32.3145 58.5938 32.3574 58.6133ZM34.1211 59.9727V65H33.418V58.6602H34.0918L34.1211 59.9727ZM33.9922 61.4375L33.6523 61.2617C33.6758 60.8867 33.7461 60.5352 33.8633 60.207C33.9844 59.8789 34.1523 59.5898 34.3672 59.3398C34.582 59.0898 34.8398 58.8945 35.1406 58.7539C35.4414 58.6133 35.7832 58.543 36.166 58.543C36.4746 58.543 36.7539 58.5859 37.0039 58.6719C37.2578 58.7539 37.4727 58.8848 37.6484 59.0645C37.8281 59.2402 37.9668 59.4707 38.0645 59.7559C38.1621 60.041 38.2109 60.3828 38.2109 60.7812V65H37.5137V60.8047C37.5137 60.3828 37.4473 60.0527 37.3145 59.8145C37.1855 59.5762 37.0039 59.4062 36.7695 59.3047C36.5391 59.2031 36.2715 59.1523 35.9668 59.1523C35.6074 59.1523 35.3027 59.2266 35.0527 59.375C34.8066 59.5195 34.6055 59.709 34.4492 59.9434C34.2969 60.1738 34.1836 60.4219 34.1094 60.6875C34.0352 60.9492 33.9961 61.1992 33.9922 61.4375ZM38.2051 60.8867L37.7363 60.8984C37.7559 60.5898 37.8262 60.2949 37.9473 60.0137C38.0723 59.7324 38.2422 59.4824 38.457 59.2637C38.6719 59.041 38.9277 58.8652 39.2246 58.7363C39.5254 58.6074 39.8633 58.543 40.2383 58.543C40.5664 58.543 40.8594 58.5879 41.1172 58.6777C41.375 58.7637 41.5918 58.9023 41.7676 59.0938C41.9473 59.2812 42.084 59.5215 42.1777 59.8145C42.2715 60.1074 42.3184 60.459 42.3184 60.8691V65H41.6152V60.8633C41.6152 60.4141 41.5488 60.0664 41.416 59.8203C41.2871 59.5703 41.1074 59.3965 40.877 59.2988C40.6465 59.2012 40.377 59.1523 40.0684 59.1523C39.7637 59.1562 39.4961 59.2129 39.2656 59.3223C39.0352 59.4277 38.8418 59.5684 38.6855 59.7441C38.5332 59.916 38.416 60.1016 38.334 60.3008C38.2559 60.5 38.2129 60.6953 38.2051 60.8867ZM47.9551 63.8633V60.5938C47.9551 60.293 47.8926 60.0332 47.7676 59.8145C47.6426 59.5957 47.459 59.4277 47.2168 59.3105C46.9746 59.1934 46.6758 59.1348 46.3203 59.1348C45.9922 59.1348 45.6992 59.1934 45.4414 59.3105C45.1875 59.4238 44.9863 59.5781 44.8379 59.7734C44.6934 59.9648 44.6211 60.1777 44.6211 60.4121L43.918 60.4062C43.918 60.168 43.9766 59.9375 44.0938 59.7148C44.2109 59.4922 44.377 59.293 44.5918 59.1172C44.8066 58.9414 45.0625 58.8027 45.3594 58.7012C45.6602 58.5957 45.9902 58.543 46.3496 58.543C46.8027 58.543 47.2012 58.6191 47.5449 58.7715C47.8926 58.9238 48.1641 59.1523 48.3594 59.457C48.5547 59.7617 48.6523 60.1445 48.6523 60.6055V63.6699C48.6523 63.8887 48.668 64.1152 48.6992 64.3496C48.7344 64.584 48.7832 64.7773 48.8457 64.9297V65H48.1016C48.0547 64.8594 48.0176 64.6836 47.9902 64.4727C47.9668 64.2578 47.9551 64.0547 47.9551 63.8633ZM48.1191 61.3086L48.1309 61.8477H46.7539C46.3945 61.8477 46.0723 61.8809 45.7871 61.9473C45.5059 62.0098 45.2676 62.1035 45.0723 62.2285C44.877 62.3496 44.7266 62.4961 44.6211 62.668C44.5195 62.8398 44.4688 63.0352 44.4688 63.2539C44.4688 63.4805 44.5254 63.6875 44.6387 63.875C44.7559 64.0625 44.9199 64.2129 45.1309 64.3262C45.3457 64.4355 45.5996 64.4902 45.8926 64.4902C46.2832 64.4902 46.627 64.418 46.9238 64.2734C47.2246 64.1289 47.4727 63.9395 47.668 63.7051C47.8633 63.4707 47.9941 63.2148 48.0605 62.9375L48.3652 63.3418C48.3145 63.5371 48.2207 63.7383 48.084 63.9453C47.9512 64.1484 47.7773 64.3398 47.5625 64.5195C47.3477 64.6953 47.0938 64.8398 46.8008 64.9531C46.5117 65.0625 46.1836 65.1172 45.8164 65.1172C45.4023 65.1172 45.041 65.0391 44.7324 64.8828C44.4277 64.7266 44.1895 64.5137 44.0176 64.2441C43.8496 63.9707 43.7656 63.6621 43.7656 63.3184C43.7656 63.0059 43.832 62.7266 43.9648 62.4805C44.0977 62.2305 44.2891 62.0195 44.5391 61.8477C44.793 61.6719 45.0977 61.5391 45.4531 61.4492C45.8125 61.3555 46.2148 61.3086 46.6602 61.3086H48.1191ZM52.9297 58.6602V59.2344H49.7539V58.6602H52.9297ZM50.9199 57.0312H51.6172V63.459C51.6172 63.752 51.6562 63.9727 51.7344 64.1211C51.8125 64.2695 51.9141 64.3691 52.0391 64.4199C52.1641 64.4707 52.2988 64.4961 52.4434 64.4961C52.5488 64.4961 52.6504 64.4902 52.748 64.4785C52.8457 64.4629 52.9336 64.4473 53.0117 64.4316L53.041 65.0234C52.9551 65.0508 52.8438 65.0723 52.707 65.0879C52.5703 65.1074 52.4336 65.1172 52.2969 65.1172C52.0273 65.1172 51.7891 65.0684 51.582 64.9707C51.375 64.8691 51.2129 64.6973 51.0957 64.4551C50.9785 64.209 50.9199 63.875 50.9199 63.4531V57.0312ZM55.1797 58.6602V65H54.4824V58.6602H55.1797ZM54.3594 56.8262C54.3594 56.6934 54.4004 56.582 54.4824 56.4922C54.5684 56.3984 54.6855 56.3516 54.834 56.3516C54.9824 56.3516 55.0996 56.3984 55.1855 56.4922C55.2754 56.582 55.3203 56.6934 55.3203 56.8262C55.3203 56.9551 55.2754 57.0664 55.1855 57.1602C55.0996 57.25 54.9824 57.2949 54.834 57.2949C54.6855 57.2949 54.5684 57.25 54.4824 57.1602C54.4004 57.0664 54.3594 56.9551 54.3594 56.8262ZM56.709 61.9297V61.7363C56.709 61.2754 56.7754 60.8496 56.9082 60.459C57.041 60.0684 57.2305 59.7305 57.4766 59.4453C57.7266 59.1602 58.0254 58.9395 58.373 58.7832C58.7207 58.623 59.1074 58.543 59.5332 58.543C59.9629 58.543 60.3516 58.623 60.6992 58.7832C61.0469 58.9395 61.3457 59.1602 61.5957 59.4453C61.8457 59.7305 62.0371 60.0684 62.1699 60.459C62.3027 60.8496 62.3691 61.2754 62.3691 61.7363V61.9297C62.3691 62.3906 62.3027 62.8164 62.1699 63.207C62.0371 63.5938 61.8457 63.9297 61.5957 64.2148C61.3496 64.5 61.0527 64.7227 60.7051 64.8828C60.3574 65.0391 59.9707 65.1172 59.5449 65.1172C59.1152 65.1172 58.7266 65.0391 58.3789 64.8828C58.0312 64.7227 57.7324 64.5 57.4824 64.2148C57.2324 63.9297 57.041 63.5938 56.9082 63.207C56.7754 62.8164 56.709 62.3906 56.709 61.9297ZM57.4062 61.7363V61.9297C57.4062 62.2773 57.4531 62.6074 57.5469 62.9199C57.6406 63.2285 57.7773 63.5039 57.957 63.7461C58.1367 63.9844 58.3594 64.1719 58.625 64.3086C58.8906 64.4453 59.1973 64.5137 59.5449 64.5137C59.8887 64.5137 60.1914 64.4453 60.4531 64.3086C60.7188 64.1719 60.9414 63.9844 61.1211 63.7461C61.3008 63.5039 61.4355 63.2285 61.5254 62.9199C61.6191 62.6074 61.666 62.2773 61.666 61.9297V61.7363C61.666 61.3926 61.6191 61.0664 61.5254 60.7578C61.4355 60.4492 61.2988 60.1738 61.1152 59.9316C60.9355 59.6895 60.7129 59.498 60.4473 59.3574C60.1816 59.2168 59.877 59.1465 59.5332 59.1465C59.1895 59.1465 58.8848 59.2168 58.6191 59.3574C58.3574 59.498 58.1348 59.6895 57.9512 59.9316C57.7715 60.1738 57.6348 60.4492 57.541 60.7578C57.4512 61.0664 57.4062 61.3926 57.4062 61.7363ZM64.5195 60.0137V65H63.8223V58.6602H64.4902L64.5195 60.0137ZM64.3613 61.4375L64.0508 61.2617C64.0742 60.8867 64.1504 60.5352 64.2793 60.207C64.4082 59.8789 64.582 59.5898 64.8008 59.3398C65.0234 59.0898 65.2832 58.8945 65.5801 58.7539C65.8809 58.6133 66.2129 58.543 66.5762 58.543C66.8926 58.543 67.1758 58.5859 67.4258 58.6719C67.6758 58.7578 67.8887 58.8945 68.0645 59.082C68.2402 59.2695 68.373 59.5098 68.4629 59.8027C68.5566 60.0957 68.6035 60.4531 68.6035 60.875V65H67.9004V60.8691C67.9004 60.4316 67.8398 60.0898 67.7188 59.8438C67.5977 59.5938 67.4258 59.416 67.2031 59.3105C66.9805 59.2051 66.7168 59.1523 66.4121 59.1523C66.0762 59.1523 65.7812 59.2266 65.5273 59.375C65.2773 59.5195 65.0664 59.709 64.8945 59.9434C64.7266 60.1738 64.5977 60.4219 64.5078 60.6875C64.418 60.9492 64.3691 61.1992 64.3613 61.4375ZM74.2168 63.3828C74.2168 63.2109 74.1738 63.041 74.0879 62.873C74.002 62.7051 73.8359 62.5508 73.5898 62.4102C73.3477 62.2695 72.9902 62.1504 72.5176 62.0527C72.166 61.9746 71.8516 61.8867 71.5742 61.7891C71.3008 61.6914 71.0703 61.5742 70.8828 61.4375C70.6953 61.3008 70.5527 61.1367 70.4551 60.9453C70.3574 60.7539 70.3086 60.5273 70.3086 60.2656C70.3086 60.0312 70.3594 59.8105 70.4609 59.6035C70.5664 59.3926 70.7148 59.209 70.9062 59.0527C71.1016 58.8926 71.3359 58.7676 71.6094 58.6777C71.8867 58.5879 72.1973 58.543 72.541 58.543C73.0293 58.543 73.4473 58.627 73.7949 58.7949C74.1465 58.959 74.4141 59.1836 74.5977 59.4688C74.7852 59.7539 74.8789 60.0762 74.8789 60.4355H74.1816C74.1816 60.2168 74.1172 60.0098 73.9883 59.8145C73.8633 59.6191 73.6777 59.459 73.4316 59.334C73.1895 59.209 72.8926 59.1465 72.541 59.1465C72.1777 59.1465 71.8828 59.2012 71.6562 59.3105C71.4297 59.4199 71.2637 59.5586 71.1582 59.7266C71.0566 59.8945 71.0059 60.0684 71.0059 60.248C71.0059 60.3887 71.0273 60.5176 71.0703 60.6348C71.1172 60.748 71.1992 60.8535 71.3164 60.9512C71.4375 61.0488 71.6094 61.1406 71.832 61.2266C72.0547 61.3125 72.3438 61.3965 72.6992 61.4785C73.2109 61.5918 73.6289 61.7305 73.9531 61.8945C74.2812 62.0547 74.5234 62.2539 74.6797 62.4922C74.8359 62.7266 74.9141 63.0117 74.9141 63.3477C74.9141 63.6094 74.8594 63.8496 74.75 64.0684C74.6406 64.2832 74.4824 64.4688 74.2754 64.625C74.0723 64.7812 73.8262 64.9023 73.5371 64.9883C73.252 65.0742 72.9316 65.1172 72.5762 65.1172C72.041 65.1172 71.5879 65.0293 71.2168 64.8535C70.8496 64.6738 70.5703 64.4395 70.3789 64.1504C70.1914 63.8574 70.0977 63.5469 70.0977 63.2188H70.7949C70.8184 63.5469 70.9219 63.8066 71.1055 63.998C71.2891 64.1855 71.5137 64.3184 71.7793 64.3965C72.0488 64.4746 72.3145 64.5137 72.5762 64.5137C72.9355 64.5137 73.2363 64.4609 73.4785 64.3555C73.7207 64.25 73.9043 64.1113 74.0293 63.9395C74.1543 63.7676 74.2168 63.582 74.2168 63.3828Z" fill="white"/>
<path d="M8 152L118 152" stroke="#3D4244" stroke-linecap="round"/>
<path d="M8 126L118 126" stroke="#3D4244" stroke-linecap="round"/>
<path d="M8 100L118 100" stroke="#3D4244" stroke-linecap="round"/>
<path d="M8 74L118 74" stroke="#3D4244" stroke-linecap="round"/>
<path d="M8 48L118 48" stroke="#3D4244" stroke-linecap="round"/>
<defs>
<filter id="filter0_d_24_552" x="0" y="0" width="128" height="688" filterUnits="userSpaceOnUse" color-interpolation-filters="sRGB">
<feFlood flood-opacity="0" result="BackgroundImageFix"/>
<feColorMatrix in="SourceAlpha" type="matrix" values="0 0 0 0 0 0 0 0 0 0 0 0 0 0 0 0 0 0 127 0" result="hardAlpha"/>
<feOffset dx="1"/>
<feGaussianBlur stdDeviation="2"/>
<feComposite in2="hardAlpha" operator="out"/>
<feColorMatrix type="matrix" values="0 0 0 0 0 0 0 0 0 0 0 0 0 0 0 0 0 0 0.1 0"/>
<feBlend mode="normal" in2="BackgroundImageFix" result="effect1_dropShadow_24_552"/>
<feBlend mode="normal" in="SourceGraphic" in2="effect1_dropShadow_24_552" result="shape"/>
</filter>
</defs>
</svg>
