<svg width="1395" height="1356" viewBox="0 0 1395 1356" fill="none" xmlns="http://www.w3.org/2000/svg">
<rect width="1395" height="1356" fill="#1E1E1E"/>
<g clip-path="url(#clip0_0_1)">
<rect x="103.326" y="123.417" width="60" height="180" rx="16" fill="#9FE3AE"/>
<rect x="180.82" y="123.417" width="60" height="120" rx="16" fill="#7FB58B"/>
<rect x="258.314" y="123.417" width="60" height="60" rx="16" fill="#6E9777"/>
</g>
<rect x="552" y="89" width="420" height="420" fill="#484F51"/>
<circle cx="761.522" cy="298.522" r="191.344" fill="#484F51"/>
<rect x="655" y="170" width="60" height="180" rx="16" fill="#9FE3AE"/>
<rect x="732.494" y="170" width="60" height="120" rx="16" fill="#7FB58B"/>
<rect x="809.989" y="170" width="60" height="60" rx="16" fill="#78A682"/>
<path d="M583.178 422C582.196 422 581.343 421.637 580.618 420.912C579.935 420.187 579.594 419.333 579.594 418.352V378.928C579.594 377.947 579.935 377.093 580.618 376.368C581.343 375.643 582.196 375.28 583.178 375.28H584.906C585.887 375.28 586.74 375.643 587.466 376.368C588.191 377.093 588.554 377.947 588.554 378.928V395.504C588.554 395.547 588.575 395.568 588.618 395.568C588.66 395.568 588.682 395.547 588.682 395.504L601.546 378.224C602.954 376.261 604.874 375.28 607.306 375.28H610.506C611.231 375.28 611.764 375.621 612.106 376.304C612.447 376.987 612.383 377.605 611.914 378.16L597.194 397.232C596.98 397.531 596.98 397.829 597.194 398.128L612.618 419.056C613.087 419.653 613.151 420.293 612.81 420.976C612.468 421.659 611.914 422 611.146 422H607.946C605.514 422 603.615 421.019 602.25 419.056L588.682 399.856C588.682 399.813 588.66 399.792 588.618 399.792C588.575 399.792 588.554 399.813 588.554 399.856V418.352C588.554 419.333 588.191 420.187 587.466 420.912C586.74 421.637 585.887 422 584.906 422H583.178ZM636.595 383.216L630.963 403.312C630.92 403.44 630.942 403.568 631.027 403.696C631.112 403.824 631.219 403.888 631.347 403.888H641.971C642.099 403.888 642.206 403.824 642.291 403.696C642.376 403.568 642.398 403.44 642.355 403.312L636.723 383.216C636.723 383.173 636.702 383.152 636.659 383.152C636.616 383.152 636.595 383.173 636.595 383.216ZM620.019 422C619.123 422 618.419 421.637 617.907 420.912C617.395 420.187 617.288 419.397 617.587 418.544L630.835 378.736C631.219 377.712 631.838 376.88 632.691 376.24C633.587 375.6 634.568 375.28 635.635 375.28H637.939C639.048 375.28 640.03 375.6 640.883 376.24C641.779 376.88 642.398 377.712 642.739 378.736L655.987 418.544C656.286 419.397 656.179 420.187 655.667 420.912C655.155 421.637 654.451 422 653.555 422H651.251C650.227 422 649.267 421.68 648.371 421.04C647.518 420.357 646.942 419.504 646.643 418.48L644.595 411.248C644.552 410.907 644.318 410.736 643.891 410.736H629.427C629.043 410.736 628.808 410.907 628.723 411.248L626.675 418.48C626.419 419.504 625.843 420.357 624.947 421.04C624.094 421.68 623.134 422 622.067 422H620.019ZM671.176 382.576V396.464C671.176 396.805 671.368 396.976 671.752 396.976H674.952C682.546 396.976 686.344 394.267 686.344 388.848C686.344 384.027 682.824 381.616 675.784 381.616C674.504 381.616 673.16 381.723 671.752 381.936C671.368 382.021 671.176 382.235 671.176 382.576ZM665.992 422C665.01 422 664.157 421.637 663.432 420.912C662.706 420.187 662.344 419.333 662.344 418.352V379.248C662.344 378.224 662.685 377.307 663.368 376.496C664.05 375.685 664.904 375.237 665.928 375.152C669.554 374.811 673.053 374.64 676.424 374.64C682.696 374.64 687.389 375.813 690.504 378.16C693.618 380.464 695.176 383.728 695.176 387.952C695.176 390.981 694.344 393.648 692.68 395.952C691.058 398.256 688.861 399.877 686.088 400.816C686.045 400.816 686.024 400.837 686.024 400.88C686.024 400.965 686.045 401.008 686.088 401.008C688.136 402.288 689.885 404.805 691.336 408.56L695.176 418.608C695.474 419.419 695.368 420.187 694.856 420.912C694.386 421.637 693.725 422 692.872 422H690.888C689.778 422 688.776 421.701 687.88 421.104C686.984 420.464 686.344 419.632 685.96 418.608L682.376 408.752C681.608 406.704 680.733 405.36 679.752 404.72C678.77 404.08 677.085 403.76 674.696 403.76H671.752C671.368 403.76 671.176 403.952 671.176 404.336V418.352C671.176 419.333 670.813 420.187 670.088 420.912C669.405 421.637 668.573 422 667.592 422H665.992ZM719.595 383.216L713.963 403.312C713.92 403.44 713.942 403.568 714.027 403.696C714.112 403.824 714.219 403.888 714.347 403.888H724.971C725.099 403.888 725.206 403.824 725.291 403.696C725.376 403.568 725.398 403.44 725.355 403.312L719.723 383.216C719.723 383.173 719.702 383.152 719.659 383.152C719.616 383.152 719.595 383.173 719.595 383.216ZM703.019 422C702.123 422 701.419 421.637 700.907 420.912C700.395 420.187 700.288 419.397 700.587 418.544L713.835 378.736C714.219 377.712 714.838 376.88 715.691 376.24C716.587 375.6 717.568 375.28 718.635 375.28H720.939C722.048 375.28 723.03 375.6 723.883 376.24C724.779 376.88 725.398 377.712 725.739 378.736L738.987 418.544C739.286 419.397 739.179 420.187 738.667 420.912C738.155 421.637 737.451 422 736.555 422H734.251C733.227 422 732.267 421.68 731.371 421.04C730.518 420.357 729.942 419.504 729.643 418.48L727.595 411.248C727.552 410.907 727.318 410.736 726.891 410.736H712.427C712.043 410.736 711.808 410.907 711.723 411.248L709.675 418.48C709.419 419.504 708.843 420.357 707.947 421.04C707.094 421.68 706.134 422 705.067 422H703.019ZM779.915 422C778.934 422 778.08 421.637 777.355 420.912C776.672 420.187 776.331 419.333 776.331 418.352V378.928C776.331 377.947 776.672 377.093 777.355 376.368C778.08 375.643 778.934 375.28 779.915 375.28H781.643C782.624 375.28 783.478 375.643 784.203 376.368C784.928 377.093 785.291 377.947 785.291 378.928V395.504C785.291 395.547 785.312 395.568 785.355 395.568C785.398 395.568 785.419 395.547 785.419 395.504L798.283 378.224C799.691 376.261 801.611 375.28 804.043 375.28H807.243C807.968 375.28 808.502 375.621 808.843 376.304C809.184 376.987 809.12 377.605 808.651 378.16L793.931 397.232C793.718 397.531 793.718 397.829 793.931 398.128L809.355 419.056C809.824 419.653 809.888 420.293 809.547 420.976C809.206 421.659 808.651 422 807.883 422H804.683C802.251 422 800.352 421.019 798.987 419.056L785.419 399.856C785.419 399.813 785.398 399.792 785.355 399.792C785.312 399.792 785.291 399.813 785.291 399.856V418.352C785.291 419.333 784.928 420.187 784.203 420.912C783.478 421.637 782.624 422 781.643 422H779.915ZM833.333 383.216L827.701 403.312C827.658 403.44 827.679 403.568 827.765 403.696C827.85 403.824 827.957 403.888 828.085 403.888H838.709C838.837 403.888 838.943 403.824 839.029 403.696C839.114 403.568 839.135 403.44 839.093 403.312L833.461 383.216C833.461 383.173 833.439 383.152 833.397 383.152C833.354 383.152 833.333 383.173 833.333 383.216ZM816.757 422C815.861 422 815.157 421.637 814.645 420.912C814.133 420.187 814.026 419.397 814.325 418.544L827.573 378.736C827.957 377.712 828.575 376.88 829.429 376.24C830.325 375.6 831.306 375.28 832.373 375.28H834.677C835.786 375.28 836.767 375.6 837.621 376.24C838.517 376.88 839.135 377.712 839.477 378.736L852.725 418.544C853.023 419.397 852.917 420.187 852.405 420.912C851.893 421.637 851.189 422 850.293 422H847.989C846.965 422 846.005 421.68 845.109 421.04C844.255 420.357 843.679 419.504 843.381 418.48L841.333 411.248C841.29 410.907 841.055 410.736 840.629 410.736H826.165C825.781 410.736 825.546 410.907 825.461 411.248L823.413 418.48C823.157 419.504 822.581 420.357 821.685 421.04C820.831 421.68 819.871 422 818.805 422H816.757ZM862.729 422C861.748 422 860.894 421.637 860.169 420.912C859.444 420.187 859.081 419.333 859.081 418.352V378.928C859.081 377.947 859.444 377.093 860.169 376.368C860.894 375.643 861.748 375.28 862.729 375.28H864.329C865.438 375.28 866.462 375.579 867.401 376.176C868.34 376.773 869.022 377.563 869.449 378.544L880.649 402.736C880.649 402.779 880.67 402.8 880.713 402.8C880.756 402.8 880.777 402.779 880.777 402.736L891.977 378.544C892.404 377.563 893.086 376.773 894.025 376.176C894.964 375.579 895.988 375.28 897.097 375.28H898.953C899.934 375.28 900.788 375.643 901.513 376.368C902.238 377.093 902.601 377.947 902.601 378.928V418.352C902.601 419.333 902.238 420.187 901.513 420.912C900.788 421.637 899.934 422 898.953 422H897.545C896.564 422 895.71 421.637 894.985 420.912C894.26 420.187 893.897 419.333 893.897 418.352V390.512C893.897 390.469 893.876 390.448 893.833 390.448C893.79 390.448 893.769 390.469 893.769 390.512L886.089 406.96C885.62 407.941 884.894 408.752 883.913 409.392C882.974 409.989 881.972 410.288 880.905 410.288H880.521C879.454 410.288 878.43 409.989 877.449 409.392C876.51 408.752 875.806 407.941 875.337 406.96L867.657 390.512C867.657 390.469 867.636 390.448 867.593 390.448C867.55 390.448 867.529 390.469 867.529 390.512V418.352C867.529 419.333 867.166 420.187 866.441 420.912C865.716 421.637 864.862 422 863.881 422H862.729ZM928.77 383.216L923.138 403.312C923.095 403.44 923.117 403.568 923.202 403.696C923.287 403.824 923.394 403.888 923.522 403.888H934.146C934.274 403.888 934.381 403.824 934.466 403.696C934.551 403.568 934.573 403.44 934.53 403.312L928.898 383.216C928.898 383.173 928.877 383.152 928.834 383.152C928.791 383.152 928.77 383.173 928.77 383.216ZM912.194 422C911.298 422 910.594 421.637 910.082 420.912C909.57 420.187 909.463 419.397 909.762 418.544L923.01 378.736C923.394 377.712 924.013 376.88 924.866 376.24C925.762 375.6 926.743 375.28 927.81 375.28H930.114C931.223 375.28 932.205 375.6 933.058 376.24C933.954 376.88 934.573 377.712 934.914 378.736L948.162 418.544C948.461 419.397 948.354 420.187 947.842 420.912C947.33 421.637 946.626 422 945.73 422H943.426C942.402 422 941.442 421.68 940.546 421.04C939.693 420.357 939.117 419.504 938.818 418.48L936.77 411.248C936.727 410.907 936.493 410.736 936.066 410.736H921.602C921.218 410.736 920.983 410.907 920.898 411.248L918.85 418.48C918.594 419.504 918.018 420.357 917.122 421.04C916.269 421.68 915.309 422 914.242 422H912.194Z" fill="#7FB58B"/>
<g clip-path="url(#clip1_0_1)">
<rect x="131.326" y="693.417" width="60" height="180" rx="16" fill="#9FE3AE"/>
<rect x="208.82" y="693.417" width="60" height="120" rx="16" fill="#7FB58B"/>
<rect x="286.314" y="693.417" width="60" height="60" rx="16" fill="#6E9777"/>
<path d="M383.34 756C382.052 756 380.932 755.524 379.98 754.572C379.084 753.62 378.636 752.5 378.636 751.212V699.468C378.636 698.18 379.084 697.06 379.98 696.108C380.932 695.156 382.052 694.68 383.34 694.68H385.608C386.896 694.68 388.016 695.156 388.968 696.108C389.92 697.06 390.396 698.18 390.396 699.468V721.224C390.396 721.28 390.424 721.308 390.48 721.308C390.536 721.308 390.564 721.28 390.564 721.224L407.448 698.544C409.296 695.968 411.816 694.68 415.008 694.68H419.208C420.16 694.68 420.86 695.128 421.308 696.024C421.756 696.92 421.672 697.732 421.056 698.46L401.736 723.492C401.456 723.884 401.456 724.276 401.736 724.668L421.98 752.136C422.596 752.92 422.68 753.76 422.232 754.656C421.784 755.552 421.056 756 420.048 756H415.848C412.656 756 410.164 754.712 408.372 752.136L390.564 726.936C390.564 726.88 390.536 726.852 390.48 726.852C390.424 726.852 390.396 726.88 390.396 726.936V751.212C390.396 752.5 389.92 753.62 388.968 754.572C388.016 755.524 386.896 756 385.608 756H383.34ZM453.45 705.096L446.058 731.472C446.002 731.64 446.03 731.808 446.142 731.976C446.254 732.144 446.394 732.228 446.562 732.228H460.506C460.674 732.228 460.814 732.144 460.926 731.976C461.038 731.808 461.066 731.64 461.01 731.472L453.618 705.096C453.618 705.04 453.59 705.012 453.534 705.012C453.478 705.012 453.45 705.04 453.45 705.096ZM431.694 756C430.518 756 429.594 755.524 428.922 754.572C428.25 753.62 428.11 752.584 428.502 751.464L445.89 699.216C446.394 697.872 447.206 696.78 448.326 695.94C449.502 695.1 450.79 694.68 452.19 694.68H455.214C456.67 694.68 457.958 695.1 459.078 695.94C460.254 696.78 461.066 697.872 461.514 699.216L478.902 751.464C479.294 752.584 479.154 753.62 478.482 754.572C477.81 755.524 476.886 756 475.71 756H472.686C471.342 756 470.082 755.58 468.906 754.74C467.786 753.844 467.03 752.724 466.638 751.38L463.95 741.888C463.894 741.44 463.586 741.216 463.026 741.216H444.042C443.538 741.216 443.23 741.44 443.118 741.888L440.43 751.38C440.094 752.724 439.338 753.844 438.162 754.74C437.042 755.58 435.782 756 434.382 756H431.694ZM498.837 704.256V722.484C498.837 722.932 499.089 723.156 499.593 723.156H503.793C513.761 723.156 518.745 719.6 518.745 712.488C518.745 706.16 514.125 702.996 504.885 702.996C503.205 702.996 501.441 703.136 499.593 703.416C499.089 703.528 498.837 703.808 498.837 704.256ZM492.033 756C490.745 756 489.625 755.524 488.673 754.572C487.721 753.62 487.245 752.5 487.245 751.212V699.888C487.245 698.544 487.693 697.34 488.589 696.276C489.485 695.212 490.605 694.624 491.949 694.512C496.709 694.064 501.301 693.84 505.725 693.84C513.957 693.84 520.117 695.38 524.205 698.46C528.293 701.484 530.337 705.768 530.337 711.312C530.337 715.288 529.245 718.788 527.061 721.812C524.933 724.836 522.049 726.964 518.409 728.196C518.353 728.196 518.325 728.224 518.325 728.28C518.325 728.392 518.353 728.448 518.409 728.448C521.097 730.128 523.393 733.432 525.297 738.36L530.337 751.548C530.729 752.612 530.589 753.62 529.917 754.572C529.301 755.524 528.433 756 527.313 756H524.709C523.253 756 521.937 755.608 520.761 754.824C519.585 753.984 518.745 752.892 518.241 751.548L513.537 738.612C512.529 735.924 511.381 734.16 510.093 733.32C508.805 732.48 506.593 732.06 503.457 732.06H499.593C499.089 732.06 498.837 732.312 498.837 732.816V751.212C498.837 752.5 498.361 753.62 497.409 754.572C496.513 755.524 495.421 756 494.133 756H492.033ZM562.388 705.096L554.996 731.472C554.94 731.64 554.968 731.808 555.08 731.976C555.192 732.144 555.332 732.228 555.5 732.228H569.444C569.612 732.228 569.752 732.144 569.864 731.976C569.976 731.808 570.004 731.64 569.948 731.472L562.556 705.096C562.556 705.04 562.528 705.012 562.472 705.012C562.416 705.012 562.388 705.04 562.388 705.096ZM540.632 756C539.456 756 538.532 755.524 537.86 754.572C537.188 753.62 537.048 752.584 537.44 751.464L554.828 699.216C555.332 697.872 556.144 696.78 557.264 695.94C558.44 695.1 559.728 694.68 561.128 694.68H564.152C565.608 694.68 566.896 695.1 568.016 695.94C569.192 696.78 570.004 697.872 570.452 699.216L587.84 751.464C588.232 752.584 588.092 753.62 587.42 754.572C586.748 755.524 585.824 756 584.648 756H581.624C580.28 756 579.02 755.58 577.844 754.74C576.724 753.844 575.968 752.724 575.576 751.38L572.888 741.888C572.832 741.44 572.524 741.216 571.964 741.216H552.98C552.476 741.216 552.168 741.44 552.056 741.888L549.368 751.38C549.032 752.724 548.276 753.844 547.1 754.74C545.98 755.58 544.72 756 543.32 756H540.632ZM383.34 876C382.052 876 380.932 875.524 379.98 874.572C379.084 873.62 378.636 872.5 378.636 871.212V819.468C378.636 818.18 379.084 817.06 379.98 816.108C380.932 815.156 382.052 814.68 383.34 814.68H385.608C386.896 814.68 388.016 815.156 388.968 816.108C389.92 817.06 390.396 818.18 390.396 819.468V841.224C390.396 841.28 390.424 841.308 390.48 841.308C390.536 841.308 390.564 841.28 390.564 841.224L407.448 818.544C409.296 815.968 411.816 814.68 415.008 814.68H419.208C420.16 814.68 420.86 815.128 421.308 816.024C421.756 816.92 421.672 817.732 421.056 818.46L401.736 843.492C401.456 843.884 401.456 844.276 401.736 844.668L421.98 872.136C422.596 872.92 422.68 873.76 422.232 874.656C421.784 875.552 421.056 876 420.048 876H415.848C412.656 876 410.164 874.712 408.372 872.136L390.564 846.936C390.564 846.88 390.536 846.852 390.48 846.852C390.424 846.852 390.396 846.88 390.396 846.936V871.212C390.396 872.5 389.92 873.62 388.968 874.572C388.016 875.524 386.896 876 385.608 876H383.34ZM453.45 825.096L446.058 851.472C446.002 851.64 446.03 851.808 446.142 851.976C446.254 852.144 446.394 852.228 446.562 852.228H460.506C460.674 852.228 460.814 852.144 460.926 851.976C461.038 851.808 461.066 851.64 461.01 851.472L453.618 825.096C453.618 825.04 453.59 825.012 453.534 825.012C453.478 825.012 453.45 825.04 453.45 825.096ZM431.694 876C430.518 876 429.594 875.524 428.922 874.572C428.25 873.62 428.11 872.584 428.502 871.464L445.89 819.216C446.394 817.872 447.206 816.78 448.326 815.94C449.502 815.1 450.79 814.68 452.19 814.68H455.214C456.67 814.68 457.958 815.1 459.078 815.94C460.254 816.78 461.066 817.872 461.514 819.216L478.902 871.464C479.294 872.584 479.154 873.62 478.482 874.572C477.81 875.524 476.886 876 475.71 876H472.686C471.342 876 470.082 875.58 468.906 874.74C467.786 873.844 467.03 872.724 466.638 871.38L463.95 861.888C463.894 861.44 463.586 861.216 463.026 861.216H444.042C443.538 861.216 443.23 861.44 443.118 861.888L440.43 871.38C440.094 872.724 439.338 873.844 438.162 874.74C437.042 875.58 435.782 876 434.382 876H431.694ZM492.033 876C490.745 876 489.625 875.524 488.673 874.572C487.721 873.62 487.245 872.5 487.245 871.212V819.468C487.245 818.18 487.721 817.06 488.673 816.108C489.625 815.156 490.745 814.68 492.033 814.68H494.133C495.589 814.68 496.933 815.072 498.165 815.856C499.397 816.64 500.293 817.676 500.853 818.964L515.553 850.716C515.553 850.772 515.581 850.8 515.637 850.8C515.693 850.8 515.721 850.772 515.721 850.716L530.421 818.964C530.981 817.676 531.877 816.64 533.109 815.856C534.341 815.072 535.685 814.68 537.141 814.68H539.577C540.865 814.68 541.985 815.156 542.937 816.108C543.889 817.06 544.365 818.18 544.365 819.468V871.212C544.365 872.5 543.889 873.62 542.937 874.572C541.985 875.524 540.865 876 539.577 876H537.729C536.441 876 535.321 875.524 534.369 874.572C533.417 873.62 532.941 872.5 532.941 871.212V834.672C532.941 834.616 532.913 834.588 532.857 834.588C532.801 834.588 532.773 834.616 532.773 834.672L522.693 856.26C522.077 857.548 521.125 858.612 519.837 859.452C518.605 860.236 517.289 860.628 515.889 860.628H515.385C513.985 860.628 512.641 860.236 511.353 859.452C510.121 858.612 509.197 857.548 508.581 856.26L498.501 834.672C498.501 834.616 498.473 834.588 498.417 834.588C498.361 834.588 498.333 834.616 498.333 834.672V871.212C498.333 872.5 497.857 873.62 496.905 874.572C495.953 875.524 494.833 876 493.545 876H492.033ZM578.712 825.096L571.32 851.472C571.264 851.64 571.292 851.808 571.404 851.976C571.516 852.144 571.656 852.228 571.824 852.228H585.768C585.936 852.228 586.076 852.144 586.188 851.976C586.3 851.808 586.328 851.64 586.272 851.472L578.88 825.096C578.88 825.04 578.852 825.012 578.796 825.012C578.74 825.012 578.712 825.04 578.712 825.096ZM556.956 876C555.78 876 554.856 875.524 554.184 874.572C553.512 873.62 553.372 872.584 553.764 871.464L571.152 819.216C571.656 817.872 572.468 816.78 573.588 815.94C574.764 815.1 576.052 814.68 577.452 814.68H580.476C581.932 814.68 583.22 815.1 584.34 815.94C585.516 816.78 586.328 817.872 586.776 819.216L604.164 871.464C604.556 872.584 604.416 873.62 603.744 874.572C603.072 875.524 602.148 876 600.972 876H597.948C596.604 876 595.344 875.58 594.168 874.74C593.048 873.844 592.292 872.724 591.9 871.38L589.212 861.888C589.156 861.44 588.848 861.216 588.288 861.216H569.304C568.8 861.216 568.492 861.44 568.38 861.888L565.692 871.38C565.356 872.724 564.6 873.844 563.424 874.74C562.304 875.58 561.044 876 559.644 876H556.956Z" fill="#7FB58B"/>
</g>
<path fill-rule="evenodd" clip-rule="evenodd" d="M704.088 1313C705.46 1297.34 722.877 1283.26 750.183 1273.14C766.079 1198.82 806.615 1146 854.111 1146C901.626 1146 942.176 1198.87 958.059 1273.23C985.225 1283.35 1002.54 1297.39 1003.91 1313H704.088ZM853.99 1356C838.414 1356 824.98 1345.77 818.796 1331H889.184C883 1345.77 869.566 1356 853.99 1356Z" fill="#9FE3AE"/>
<path fill-rule="evenodd" clip-rule="evenodd" d="M1115 700C1115 688.954 1123.95 680 1135 680H1375C1386.05 680 1395 688.954 1395 700C1395 711.046 1386.05 720 1375 720H1135C1123.95 720 1115 711.046 1115 700ZM1115 780C1115 768.954 1123.95 760 1135 760H1375C1386.05 760 1395 768.954 1395 780C1395 791.046 1386.05 800 1375 800H1135C1123.95 800 1115 791.046 1115 780ZM1135 840C1123.95 840 1115 848.954 1115 860C1115 871.046 1123.95 880 1135 880H1375C1386.05 880 1395 871.046 1395 860C1395 848.954 1386.05 840 1375 840H1135Z" fill="#9FE3AE"/>
<defs>
<clipPath id="clip0_0_1">
<rect width="420" height="420" fill="white"/>
</clipPath>
<clipPath id="clip1_0_1">
<rect width="630" height="420" fill="white" transform="translate(61 570)"/>
</clipPath>
</defs>
</svg>
