<svg width="630" height="420" viewBox="0 0 630 420" fill="none" xmlns="http://www.w3.org/2000/svg">
<g clip-path="url(#clip0_1_23)">
<rect x="70.3257" y="123.417" width="60" height="180" rx="16" fill="#9FE3AE"/>
<rect x="147.82" y="123.417" width="60" height="120" rx="16" fill="#7FB58B"/>
<rect x="225.314" y="123.417" width="60" height="60" rx="16" fill="#6E9777"/>
<path d="M322.34 186C321.052 186 319.932 185.524 318.98 184.572C318.084 183.62 317.636 182.5 317.636 181.212V129.468C317.636 128.18 318.084 127.06 318.98 126.108C319.932 125.156 321.052 124.68 322.34 124.68H324.608C325.896 124.68 327.016 125.156 327.968 126.108C328.92 127.06 329.396 128.18 329.396 129.468V151.224C329.396 151.28 329.424 151.308 329.48 151.308C329.536 151.308 329.564 151.28 329.564 151.224L346.448 128.544C348.296 125.968 350.816 124.68 354.008 124.68H358.208C359.16 124.68 359.86 125.128 360.308 126.024C360.756 126.92 360.672 127.732 360.056 128.46L340.736 153.492C340.456 153.884 340.456 154.276 340.736 154.668L360.98 182.136C361.596 182.92 361.68 183.76 361.232 184.656C360.784 185.552 360.056 186 359.048 186H354.848C351.656 186 349.164 184.712 347.372 182.136L329.564 156.936C329.564 156.88 329.536 156.852 329.48 156.852C329.424 156.852 329.396 156.88 329.396 156.936V181.212C329.396 182.5 328.92 183.62 327.968 184.572C327.016 185.524 325.896 186 324.608 186H322.34ZM392.45 135.096L385.058 161.472C385.002 161.64 385.03 161.808 385.142 161.976C385.254 162.144 385.394 162.228 385.562 162.228H399.506C399.674 162.228 399.814 162.144 399.926 161.976C400.038 161.808 400.066 161.64 400.01 161.472L392.618 135.096C392.618 135.04 392.59 135.012 392.534 135.012C392.478 135.012 392.45 135.04 392.45 135.096ZM370.694 186C369.518 186 368.594 185.524 367.922 184.572C367.25 183.62 367.11 182.584 367.502 181.464L384.89 129.216C385.394 127.872 386.206 126.78 387.326 125.94C388.502 125.1 389.79 124.68 391.19 124.68H394.214C395.67 124.68 396.958 125.1 398.078 125.94C399.254 126.78 400.066 127.872 400.514 129.216L417.902 181.464C418.294 182.584 418.154 183.62 417.482 184.572C416.81 185.524 415.886 186 414.71 186H411.686C410.342 186 409.082 185.58 407.906 184.74C406.786 183.844 406.03 182.724 405.638 181.38L402.95 171.888C402.894 171.44 402.586 171.216 402.026 171.216H383.042C382.538 171.216 382.23 171.44 382.118 171.888L379.43 181.38C379.094 182.724 378.338 183.844 377.162 184.74C376.042 185.58 374.782 186 373.382 186H370.694ZM437.837 134.256V152.484C437.837 152.932 438.089 153.156 438.593 153.156H442.793C452.761 153.156 457.745 149.6 457.745 142.488C457.745 136.16 453.125 132.996 443.885 132.996C442.205 132.996 440.441 133.136 438.593 133.416C438.089 133.528 437.837 133.808 437.837 134.256ZM431.033 186C429.745 186 428.625 185.524 427.673 184.572C426.721 183.62 426.245 182.5 426.245 181.212V129.888C426.245 128.544 426.693 127.34 427.589 126.276C428.485 125.212 429.605 124.624 430.949 124.512C435.709 124.064 440.301 123.84 444.725 123.84C452.957 123.84 459.117 125.38 463.205 128.46C467.293 131.484 469.337 135.768 469.337 141.312C469.337 145.288 468.245 148.788 466.061 151.812C463.933 154.836 461.049 156.964 457.409 158.196C457.353 158.196 457.325 158.224 457.325 158.28C457.325 158.392 457.353 158.448 457.409 158.448C460.097 160.128 462.393 163.432 464.297 168.36L469.337 181.548C469.729 182.612 469.589 183.62 468.917 184.572C468.301 185.524 467.433 186 466.313 186H463.709C462.253 186 460.937 185.608 459.761 184.824C458.585 183.984 457.745 182.892 457.241 181.548L452.537 168.612C451.529 165.924 450.381 164.16 449.093 163.32C447.805 162.48 445.593 162.06 442.457 162.06H438.593C438.089 162.06 437.837 162.312 437.837 162.816V181.212C437.837 182.5 437.361 183.62 436.409 184.572C435.513 185.524 434.421 186 433.133 186H431.033ZM501.388 135.096L493.996 161.472C493.94 161.64 493.968 161.808 494.08 161.976C494.192 162.144 494.332 162.228 494.5 162.228H508.444C508.612 162.228 508.752 162.144 508.864 161.976C508.976 161.808 509.004 161.64 508.948 161.472L501.556 135.096C501.556 135.04 501.528 135.012 501.472 135.012C501.416 135.012 501.388 135.04 501.388 135.096ZM479.632 186C478.456 186 477.532 185.524 476.86 184.572C476.188 183.62 476.048 182.584 476.44 181.464L493.828 129.216C494.332 127.872 495.144 126.78 496.264 125.94C497.44 125.1 498.728 124.68 500.128 124.68H503.152C504.608 124.68 505.896 125.1 507.016 125.94C508.192 126.78 509.004 127.872 509.452 129.216L526.84 181.464C527.232 182.584 527.092 183.62 526.42 184.572C525.748 185.524 524.824 186 523.648 186H520.624C519.28 186 518.02 185.58 516.844 184.74C515.724 183.844 514.968 182.724 514.576 181.38L511.888 171.888C511.832 171.44 511.524 171.216 510.964 171.216H491.98C491.476 171.216 491.168 171.44 491.056 171.888L488.368 181.38C488.032 182.724 487.276 183.844 486.1 184.74C484.98 185.58 483.72 186 482.32 186H479.632ZM322.34 306C321.052 306 319.932 305.524 318.98 304.572C318.084 303.62 317.636 302.5 317.636 301.212V249.468C317.636 248.18 318.084 247.06 318.98 246.108C319.932 245.156 321.052 244.68 322.34 244.68H324.608C325.896 244.68 327.016 245.156 327.968 246.108C328.92 247.06 329.396 248.18 329.396 249.468V271.224C329.396 271.28 329.424 271.308 329.48 271.308C329.536 271.308 329.564 271.28 329.564 271.224L346.448 248.544C348.296 245.968 350.816 244.68 354.008 244.68H358.208C359.16 244.68 359.86 245.128 360.308 246.024C360.756 246.92 360.672 247.732 360.056 248.46L340.736 273.492C340.456 273.884 340.456 274.276 340.736 274.668L360.98 302.136C361.596 302.92 361.68 303.76 361.232 304.656C360.784 305.552 360.056 306 359.048 306H354.848C351.656 306 349.164 304.712 347.372 302.136L329.564 276.936C329.564 276.88 329.536 276.852 329.48 276.852C329.424 276.852 329.396 276.88 329.396 276.936V301.212C329.396 302.5 328.92 303.62 327.968 304.572C327.016 305.524 325.896 306 324.608 306H322.34ZM392.45 255.096L385.058 281.472C385.002 281.64 385.03 281.808 385.142 281.976C385.254 282.144 385.394 282.228 385.562 282.228H399.506C399.674 282.228 399.814 282.144 399.926 281.976C400.038 281.808 400.066 281.64 400.01 281.472L392.618 255.096C392.618 255.04 392.59 255.012 392.534 255.012C392.478 255.012 392.45 255.04 392.45 255.096ZM370.694 306C369.518 306 368.594 305.524 367.922 304.572C367.25 303.62 367.11 302.584 367.502 301.464L384.89 249.216C385.394 247.872 386.206 246.78 387.326 245.94C388.502 245.1 389.79 244.68 391.19 244.68H394.214C395.67 244.68 396.958 245.1 398.078 245.94C399.254 246.78 400.066 247.872 400.514 249.216L417.902 301.464C418.294 302.584 418.154 303.62 417.482 304.572C416.81 305.524 415.886 306 414.71 306H411.686C410.342 306 409.082 305.58 407.906 304.74C406.786 303.844 406.03 302.724 405.638 301.38L402.95 291.888C402.894 291.44 402.586 291.216 402.026 291.216H383.042C382.538 291.216 382.23 291.44 382.118 291.888L379.43 301.38C379.094 302.724 378.338 303.844 377.162 304.74C376.042 305.58 374.782 306 373.382 306H370.694ZM431.033 306C429.745 306 428.625 305.524 427.673 304.572C426.721 303.62 426.245 302.5 426.245 301.212V249.468C426.245 248.18 426.721 247.06 427.673 246.108C428.625 245.156 429.745 244.68 431.033 244.68H433.133C434.589 244.68 435.933 245.072 437.165 245.856C438.397 246.64 439.293 247.676 439.853 248.964L454.553 280.716C454.553 280.772 454.581 280.8 454.637 280.8C454.693 280.8 454.721 280.772 454.721 280.716L469.421 248.964C469.981 247.676 470.877 246.64 472.109 245.856C473.341 245.072 474.685 244.68 476.141 244.68H478.577C479.865 244.68 480.985 245.156 481.937 246.108C482.889 247.06 483.365 248.18 483.365 249.468V301.212C483.365 302.5 482.889 303.62 481.937 304.572C480.985 305.524 479.865 306 478.577 306H476.729C475.441 306 474.321 305.524 473.369 304.572C472.417 303.62 471.941 302.5 471.941 301.212V264.672C471.941 264.616 471.913 264.588 471.857 264.588C471.801 264.588 471.773 264.616 471.773 264.672L461.693 286.26C461.077 287.548 460.125 288.612 458.837 289.452C457.605 290.236 456.289 290.628 454.889 290.628H454.385C452.985 290.628 451.641 290.236 450.353 289.452C449.121 288.612 448.197 287.548 447.581 286.26L437.501 264.672C437.501 264.616 437.473 264.588 437.417 264.588C437.361 264.588 437.333 264.616 437.333 264.672V301.212C437.333 302.5 436.857 303.62 435.905 304.572C434.953 305.524 433.833 306 432.545 306H431.033ZM517.712 255.096L510.32 281.472C510.264 281.64 510.292 281.808 510.404 281.976C510.516 282.144 510.656 282.228 510.824 282.228H524.768C524.936 282.228 525.076 282.144 525.188 281.976C525.3 281.808 525.328 281.64 525.272 281.472L517.88 255.096C517.88 255.04 517.852 255.012 517.796 255.012C517.74 255.012 517.712 255.04 517.712 255.096ZM495.956 306C494.78 306 493.856 305.524 493.184 304.572C492.512 303.62 492.372 302.584 492.764 301.464L510.152 249.216C510.656 247.872 511.468 246.78 512.588 245.94C513.764 245.1 515.052 244.68 516.452 244.68H519.476C520.932 244.68 522.22 245.1 523.34 245.94C524.516 246.78 525.328 247.872 525.776 249.216L543.164 301.464C543.556 302.584 543.416 303.62 542.744 304.572C542.072 305.524 541.148 306 539.972 306H536.948C535.604 306 534.344 305.58 533.168 304.74C532.048 303.844 531.292 302.724 530.9 301.38L528.212 291.888C528.156 291.44 527.848 291.216 527.288 291.216H508.304C507.8 291.216 507.492 291.44 507.38 291.888L504.692 301.38C504.356 302.724 503.6 303.844 502.424 304.74C501.304 305.58 500.044 306 498.644 306H495.956Z" fill="#7FB58B"/>
</g>
<defs>
<clipPath id="clip0_1_23">
<rect width="630" height="420" fill="white"/>
</clipPath>
</defs>
</svg>
