<svg width="540" height="502" viewBox="0 0 540 502" fill="none" xmlns="http://www.w3.org/2000/svg">
<rect x="140" y="112" width="400" height="200" rx="4" fill="#484F51"/>
<path d="M182.807 138.193H184.418C184.375 138.764 184.217 139.27 183.943 139.711C183.67 140.148 183.289 140.492 182.801 140.742C182.312 140.992 181.721 141.117 181.025 141.117C180.49 141.117 180.008 141.023 179.578 140.836C179.152 140.645 178.787 140.373 178.482 140.021C178.182 139.666 177.951 139.24 177.791 138.744C177.631 138.244 177.551 137.684 177.551 137.062V136.412C177.551 135.791 177.633 135.23 177.797 134.73C177.961 134.23 178.195 133.805 178.5 133.453C178.809 133.098 179.178 132.824 179.607 132.633C180.041 132.441 180.525 132.346 181.061 132.346C181.756 132.346 182.344 132.475 182.824 132.732C183.305 132.986 183.678 133.336 183.943 133.781C184.209 134.227 184.369 134.738 184.424 135.316H182.812C182.781 134.957 182.703 134.652 182.578 134.402C182.457 134.152 182.273 133.963 182.027 133.834C181.785 133.701 181.463 133.635 181.061 133.635C180.748 133.635 180.473 133.693 180.234 133.811C180 133.928 179.805 134.104 179.648 134.338C179.492 134.568 179.375 134.857 179.297 135.205C179.219 135.549 179.18 135.947 179.18 136.4V137.062C179.18 137.496 179.215 137.885 179.285 138.229C179.355 138.572 179.465 138.863 179.613 139.102C179.762 139.34 179.953 139.521 180.188 139.646C180.422 139.771 180.701 139.834 181.025 139.834C181.42 139.834 181.74 139.771 181.986 139.646C182.236 139.521 182.426 139.338 182.555 139.096C182.688 138.854 182.771 138.553 182.807 138.193ZM189.322 139.494V134.66H190.881V141H189.416L189.322 139.494ZM189.521 138.182L190.002 138.17C190.002 138.596 189.955 138.988 189.861 139.348C189.768 139.707 189.621 140.02 189.422 140.285C189.227 140.547 188.979 140.752 188.678 140.9C188.377 141.045 188.021 141.117 187.611 141.117C187.299 141.117 187.014 141.074 186.756 140.988C186.498 140.898 186.275 140.76 186.088 140.572C185.904 140.381 185.762 140.137 185.66 139.84C185.559 139.539 185.508 139.178 185.508 138.756V134.66H187.055V138.768C187.055 138.979 187.078 139.154 187.125 139.295C187.176 139.436 187.244 139.551 187.33 139.641C187.42 139.727 187.523 139.789 187.641 139.828C187.762 139.863 187.891 139.881 188.027 139.881C188.402 139.881 188.697 139.807 188.912 139.658C189.131 139.506 189.287 139.303 189.381 139.049C189.475 138.791 189.521 138.502 189.521 138.182ZM193.799 135.955V141H192.252V134.66H193.717L193.799 135.955ZM195.727 134.619L195.703 136.061C195.617 136.045 195.52 136.033 195.41 136.025C195.305 136.018 195.205 136.014 195.111 136.014C194.873 136.014 194.664 136.047 194.484 136.113C194.305 136.176 194.154 136.268 194.033 136.389C193.916 136.51 193.826 136.658 193.764 136.834C193.701 137.006 193.666 137.201 193.658 137.42L193.324 137.379C193.324 136.977 193.365 136.604 193.447 136.26C193.529 135.916 193.648 135.615 193.805 135.357C193.961 135.1 194.156 134.9 194.391 134.76C194.629 134.615 194.902 134.543 195.211 134.543C195.297 134.543 195.389 134.551 195.486 134.566C195.588 134.578 195.668 134.596 195.727 134.619ZM198.123 135.955V141H196.576V134.66H198.041L198.123 135.955ZM200.051 134.619L200.027 136.061C199.941 136.045 199.844 136.033 199.734 136.025C199.629 136.018 199.529 136.014 199.436 136.014C199.197 136.014 198.988 136.047 198.809 136.113C198.629 136.176 198.479 136.268 198.357 136.389C198.24 136.51 198.15 136.658 198.088 136.834C198.025 137.006 197.99 137.201 197.982 137.42L197.648 137.379C197.648 136.977 197.689 136.604 197.771 136.26C197.854 135.916 197.973 135.615 198.129 135.357C198.285 135.1 198.48 134.9 198.715 134.76C198.953 134.615 199.227 134.543 199.535 134.543C199.621 134.543 199.713 134.551 199.811 134.566C199.912 134.578 199.992 134.596 200.051 134.619ZM203.631 141.117C203.15 141.117 202.719 141.039 202.336 140.883C201.953 140.727 201.627 140.51 201.357 140.232C201.092 139.951 200.887 139.625 200.742 139.254C200.602 138.879 200.531 138.477 200.531 138.047V137.812C200.531 137.324 200.602 136.881 200.742 136.482C200.883 136.08 201.082 135.734 201.34 135.445C201.598 135.156 201.906 134.934 202.266 134.777C202.625 134.621 203.021 134.543 203.455 134.543C203.904 134.543 204.301 134.619 204.645 134.771C204.988 134.92 205.275 135.131 205.506 135.404C205.736 135.678 205.91 136.006 206.027 136.389C206.145 136.768 206.203 137.188 206.203 137.648V138.299H201.234V137.232H204.68V137.115C204.672 136.869 204.625 136.645 204.539 136.441C204.453 136.234 204.32 136.07 204.141 135.949C203.961 135.824 203.729 135.762 203.443 135.762C203.213 135.762 203.012 135.812 202.84 135.914C202.672 136.012 202.531 136.152 202.418 136.336C202.309 136.516 202.227 136.73 202.172 136.98C202.117 137.23 202.09 137.508 202.09 137.812V138.047C202.09 138.312 202.125 138.559 202.195 138.785C202.27 139.012 202.377 139.209 202.518 139.377C202.662 139.541 202.834 139.67 203.033 139.764C203.236 139.854 203.467 139.898 203.725 139.898C204.049 139.898 204.342 139.836 204.604 139.711C204.869 139.582 205.1 139.393 205.295 139.143L206.074 139.951C205.941 140.146 205.762 140.334 205.535 140.514C205.312 140.693 205.043 140.84 204.727 140.953C204.41 141.062 204.045 141.117 203.631 141.117ZM208.758 136.014V141H207.211V134.66H208.664L208.758 136.014ZM208.512 137.602H208.055C208.059 137.141 208.121 136.723 208.242 136.348C208.363 135.973 208.533 135.65 208.752 135.381C208.975 135.111 209.238 134.904 209.543 134.76C209.848 134.615 210.188 134.543 210.562 134.543C210.867 134.543 211.143 134.586 211.389 134.672C211.635 134.758 211.846 134.895 212.021 135.082C212.201 135.27 212.338 135.516 212.432 135.82C212.529 136.121 212.578 136.492 212.578 136.934V141H211.02V136.922C211.02 136.633 210.977 136.404 210.891 136.236C210.809 136.068 210.688 135.949 210.527 135.879C210.371 135.809 210.178 135.773 209.947 135.773C209.709 135.773 209.5 135.822 209.32 135.92C209.145 136.014 208.996 136.145 208.875 136.312C208.758 136.48 208.668 136.674 208.605 136.893C208.543 137.111 208.512 137.348 208.512 137.602ZM216.943 134.66V135.773H213.311V134.66H216.943ZM214.283 133.102H215.836V139.172C215.836 139.359 215.861 139.504 215.912 139.605C215.963 139.707 216.039 139.775 216.141 139.811C216.242 139.846 216.363 139.863 216.504 139.863C216.605 139.863 216.699 139.857 216.785 139.846C216.871 139.834 216.943 139.822 217.002 139.811L217.008 140.971C216.879 141.014 216.732 141.049 216.568 141.076C216.408 141.104 216.227 141.117 216.023 141.117C215.676 141.117 215.371 141.059 215.109 140.941C214.848 140.82 214.645 140.627 214.5 140.361C214.355 140.092 214.283 139.736 214.283 139.295V133.102ZM222.51 135.879V143.438H220.957V134.66H222.393L222.51 135.879ZM226.582 137.766V137.889C226.582 138.35 226.527 138.777 226.418 139.172C226.312 139.562 226.156 139.904 225.949 140.197C225.742 140.486 225.484 140.713 225.176 140.877C224.871 141.037 224.52 141.117 224.121 141.117C223.73 141.117 223.391 141.043 223.102 140.895C222.812 140.742 222.568 140.527 222.369 140.25C222.17 139.973 222.01 139.65 221.889 139.283C221.771 138.912 221.684 138.508 221.625 138.07V137.678C221.684 137.213 221.771 136.791 221.889 136.412C222.01 136.029 222.17 135.699 222.369 135.422C222.568 135.141 222.811 134.924 223.096 134.771C223.385 134.619 223.723 134.543 224.109 134.543C224.512 134.543 224.865 134.619 225.17 134.771C225.479 134.924 225.738 135.143 225.949 135.428C226.16 135.713 226.318 136.053 226.424 136.447C226.529 136.842 226.582 137.281 226.582 137.766ZM225.029 137.889V137.766C225.029 137.484 225.004 137.225 224.953 136.986C224.902 136.744 224.824 136.533 224.719 136.354C224.613 136.17 224.477 136.027 224.309 135.926C224.141 135.824 223.938 135.773 223.699 135.773C223.461 135.773 223.256 135.812 223.084 135.891C222.912 135.969 222.771 136.08 222.662 136.225C222.553 136.369 222.467 136.541 222.404 136.74C222.346 136.936 222.307 137.152 222.287 137.391V138.363C222.322 138.652 222.391 138.912 222.492 139.143C222.594 139.373 222.742 139.557 222.938 139.693C223.137 139.83 223.395 139.898 223.711 139.898C223.949 139.898 224.152 139.846 224.32 139.74C224.488 139.635 224.625 139.49 224.73 139.307C224.836 139.119 224.912 138.904 224.959 138.662C225.006 138.42 225.029 138.162 225.029 137.889ZM231.205 139.652V136.729C231.205 136.514 231.168 136.328 231.094 136.172C231.02 136.016 230.906 135.895 230.754 135.809C230.602 135.723 230.408 135.68 230.174 135.68C229.967 135.68 229.785 135.715 229.629 135.785C229.477 135.855 229.359 135.955 229.277 136.084C229.195 136.209 229.154 136.354 229.154 136.518H227.602C227.602 136.256 227.664 136.008 227.789 135.773C227.914 135.535 228.092 135.324 228.322 135.141C228.557 134.953 228.836 134.807 229.16 134.701C229.488 134.596 229.855 134.543 230.262 134.543C230.742 134.543 231.17 134.625 231.545 134.789C231.924 134.949 232.221 135.191 232.436 135.516C232.654 135.84 232.764 136.248 232.764 136.74V139.506C232.764 139.822 232.783 140.094 232.822 140.32C232.865 140.543 232.928 140.736 233.01 140.9V141H231.434C231.359 140.84 231.303 140.637 231.264 140.391C231.225 140.141 231.205 139.895 231.205 139.652ZM231.422 137.139L231.434 138.059H230.455C230.213 138.059 230 138.084 229.816 138.135C229.633 138.182 229.482 138.252 229.365 138.346C229.248 138.436 229.16 138.545 229.102 138.674C229.043 138.799 229.014 138.941 229.014 139.102C229.014 139.258 229.049 139.398 229.119 139.523C229.193 139.648 229.299 139.748 229.436 139.822C229.576 139.893 229.74 139.928 229.928 139.928C230.201 139.928 230.439 139.873 230.643 139.764C230.846 139.65 231.004 139.514 231.117 139.354C231.23 139.193 231.291 139.041 231.299 138.896L231.744 139.564C231.689 139.725 231.607 139.895 231.498 140.074C231.389 140.254 231.248 140.422 231.076 140.578C230.904 140.734 230.697 140.863 230.455 140.965C230.213 141.066 229.932 141.117 229.611 141.117C229.201 141.117 228.834 141.035 228.51 140.871C228.186 140.707 227.93 140.482 227.742 140.197C227.555 139.912 227.461 139.588 227.461 139.225C227.461 138.889 227.523 138.592 227.648 138.334C227.773 138.076 227.959 137.859 228.205 137.684C228.451 137.504 228.756 137.369 229.119 137.279C229.486 137.186 229.906 137.139 230.379 137.139H231.422ZM237.645 139.266C237.645 139.133 237.609 139.014 237.539 138.908C237.469 138.803 237.336 138.707 237.141 138.621C236.949 138.531 236.668 138.447 236.297 138.369C235.969 138.299 235.666 138.211 235.389 138.105C235.111 138 234.873 137.873 234.674 137.725C234.475 137.572 234.318 137.395 234.205 137.191C234.096 136.984 234.041 136.746 234.041 136.477C234.041 136.215 234.098 135.969 234.211 135.738C234.324 135.504 234.488 135.299 234.703 135.123C234.918 134.943 235.18 134.803 235.488 134.701C235.797 134.596 236.145 134.543 236.531 134.543C237.07 134.543 237.533 134.631 237.92 134.807C238.311 134.982 238.609 135.225 238.816 135.533C239.023 135.838 239.127 136.182 239.127 136.564H237.58C237.58 136.396 237.541 136.244 237.463 136.107C237.389 135.971 237.273 135.861 237.117 135.779C236.961 135.693 236.764 135.65 236.525 135.65C236.311 135.65 236.129 135.686 235.98 135.756C235.836 135.826 235.727 135.918 235.652 136.031C235.578 136.145 235.541 136.27 235.541 136.406C235.541 136.508 235.561 136.6 235.6 136.682C235.643 136.76 235.711 136.832 235.805 136.898C235.898 136.965 236.025 137.025 236.186 137.08C236.35 137.135 236.551 137.188 236.789 137.238C237.262 137.332 237.674 137.457 238.025 137.613C238.381 137.766 238.658 137.969 238.857 138.223C239.057 138.477 239.156 138.801 239.156 139.195C239.156 139.477 239.096 139.734 238.975 139.969C238.854 140.199 238.678 140.4 238.447 140.572C238.217 140.744 237.941 140.879 237.621 140.977C237.301 141.07 236.939 141.117 236.537 141.117C235.955 141.117 235.463 141.014 235.061 140.807C234.658 140.596 234.354 140.33 234.146 140.01C233.939 139.686 233.836 139.35 233.836 139.002H235.318C235.33 139.248 235.396 139.445 235.518 139.594C235.639 139.742 235.791 139.85 235.975 139.916C236.162 139.979 236.359 140.01 236.566 140.01C236.801 140.01 236.998 139.979 237.158 139.916C237.318 139.85 237.439 139.762 237.521 139.652C237.604 139.539 237.645 139.41 237.645 139.266ZM243.82 139.266C243.82 139.133 243.785 139.014 243.715 138.908C243.645 138.803 243.512 138.707 243.316 138.621C243.125 138.531 242.844 138.447 242.473 138.369C242.145 138.299 241.842 138.211 241.564 138.105C241.287 138 241.049 137.873 240.85 137.725C240.65 137.572 240.494 137.395 240.381 137.191C240.271 136.984 240.217 136.746 240.217 136.477C240.217 136.215 240.273 135.969 240.387 135.738C240.5 135.504 240.664 135.299 240.879 135.123C241.094 134.943 241.355 134.803 241.664 134.701C241.973 134.596 242.32 134.543 242.707 134.543C243.246 134.543 243.709 134.631 244.096 134.807C244.486 134.982 244.785 135.225 244.992 135.533C245.199 135.838 245.303 136.182 245.303 136.564H243.756C243.756 136.396 243.717 136.244 243.639 136.107C243.564 135.971 243.449 135.861 243.293 135.779C243.137 135.693 242.939 135.65 242.701 135.65C242.486 135.65 242.305 135.686 242.156 135.756C242.012 135.826 241.902 135.918 241.828 136.031C241.754 136.145 241.717 136.27 241.717 136.406C241.717 136.508 241.736 136.6 241.775 136.682C241.818 136.76 241.887 136.832 241.98 136.898C242.074 136.965 242.201 137.025 242.361 137.08C242.525 137.135 242.727 137.188 242.965 137.238C243.438 137.332 243.85 137.457 244.201 137.613C244.557 137.766 244.834 137.969 245.033 138.223C245.232 138.477 245.332 138.801 245.332 139.195C245.332 139.477 245.271 139.734 245.15 139.969C245.029 140.199 244.854 140.4 244.623 140.572C244.393 140.744 244.117 140.879 243.797 140.977C243.477 141.07 243.115 141.117 242.713 141.117C242.131 141.117 241.639 141.014 241.236 140.807C240.834 140.596 240.529 140.33 240.322 140.01C240.115 139.686 240.012 139.35 240.012 139.002H241.494C241.506 139.248 241.572 139.445 241.693 139.594C241.814 139.742 241.967 139.85 242.15 139.916C242.338 139.979 242.535 140.01 242.742 140.01C242.977 140.01 243.174 139.979 243.334 139.916C243.494 139.85 243.615 139.762 243.697 139.652C243.779 139.539 243.82 139.41 243.82 139.266ZM248.273 139.477L249.662 134.66H250.646L250.354 136.324L248.953 141H248.104L248.273 139.477ZM247.506 134.66L248.549 139.488L248.643 141H247.664L246 134.66H247.506ZM251.936 139.418L252.955 134.66H254.455L252.803 141H251.824L251.936 139.418ZM250.799 134.66L252.176 139.43L252.357 141H251.508L250.096 136.324L249.809 134.66H250.799ZM255.094 137.895V137.771C255.094 137.307 255.16 136.879 255.293 136.488C255.426 136.094 255.619 135.752 255.873 135.463C256.127 135.174 256.438 134.949 256.805 134.789C257.172 134.625 257.59 134.543 258.059 134.543C258.535 134.543 258.957 134.625 259.324 134.789C259.695 134.949 260.008 135.174 260.262 135.463C260.516 135.752 260.709 136.094 260.842 136.488C260.975 136.879 261.041 137.307 261.041 137.771V137.895C261.041 138.355 260.975 138.783 260.842 139.178C260.709 139.568 260.516 139.91 260.262 140.203C260.008 140.492 259.697 140.717 259.33 140.877C258.963 141.037 258.543 141.117 258.07 141.117C257.602 141.117 257.182 141.037 256.811 140.877C256.439 140.717 256.127 140.492 255.873 140.203C255.619 139.91 255.426 139.568 255.293 139.178C255.16 138.783 255.094 138.355 255.094 137.895ZM256.641 137.771V137.895C256.641 138.172 256.668 138.432 256.723 138.674C256.777 138.916 256.861 139.129 256.975 139.312C257.088 139.496 257.234 139.641 257.414 139.746C257.598 139.848 257.816 139.898 258.07 139.898C258.32 139.898 258.535 139.848 258.715 139.746C258.895 139.641 259.041 139.496 259.154 139.312C259.271 139.129 259.357 138.916 259.412 138.674C259.467 138.432 259.494 138.172 259.494 137.895V137.771C259.494 137.498 259.467 137.242 259.412 137.004C259.357 136.762 259.271 136.549 259.154 136.365C259.041 136.178 258.893 136.031 258.709 135.926C258.529 135.816 258.312 135.762 258.059 135.762C257.809 135.762 257.594 135.816 257.414 135.926C257.234 136.031 257.088 136.178 256.975 136.365C256.861 136.549 256.777 136.762 256.723 137.004C256.668 137.242 256.641 137.498 256.641 137.771ZM263.713 135.955V141H262.166V134.66H263.631L263.713 135.955ZM265.641 134.619L265.617 136.061C265.531 136.045 265.434 136.033 265.324 136.025C265.219 136.018 265.119 136.014 265.025 136.014C264.787 136.014 264.578 136.047 264.398 136.113C264.219 136.176 264.068 136.268 263.947 136.389C263.83 136.51 263.74 136.658 263.678 136.834C263.615 137.006 263.58 137.201 263.572 137.42L263.238 137.379C263.238 136.977 263.279 136.604 263.361 136.26C263.443 135.916 263.562 135.615 263.719 135.357C263.875 135.1 264.07 134.9 264.305 134.76C264.543 134.615 264.816 134.543 265.125 134.543C265.211 134.543 265.303 134.551 265.4 134.566C265.502 134.578 265.582 134.596 265.641 134.619ZM270.176 139.652V132H271.734V141H270.328L270.176 139.652ZM266.104 137.906V137.783C266.104 137.299 266.158 136.859 266.268 136.465C266.381 136.066 266.545 135.725 266.76 135.439C266.975 135.154 267.234 134.934 267.539 134.777C267.848 134.621 268.197 134.543 268.588 134.543C268.967 134.543 269.297 134.619 269.578 134.771C269.863 134.924 270.105 135.141 270.305 135.422C270.508 135.703 270.67 136.037 270.791 136.424C270.912 136.807 271 137.229 271.055 137.689V138.023C271 138.473 270.912 138.885 270.791 139.26C270.67 139.635 270.508 139.963 270.305 140.244C270.105 140.521 269.863 140.736 269.578 140.889C269.293 141.041 268.959 141.117 268.576 141.117C268.189 141.117 267.842 141.037 267.533 140.877C267.229 140.717 266.969 140.492 266.754 140.203C266.543 139.914 266.381 139.574 266.268 139.184C266.158 138.793 266.104 138.367 266.104 137.906ZM267.656 137.783V137.906C267.656 138.18 267.68 138.436 267.727 138.674C267.773 138.912 267.85 139.123 267.955 139.307C268.061 139.486 268.195 139.627 268.359 139.729C268.527 139.83 268.73 139.881 268.969 139.881C269.273 139.881 269.523 139.814 269.719 139.682C269.918 139.545 270.072 139.359 270.182 139.125C270.291 138.887 270.361 138.619 270.393 138.322V137.402C270.377 137.168 270.336 136.951 270.27 136.752C270.207 136.553 270.117 136.381 270 136.236C269.887 136.092 269.746 135.979 269.578 135.896C269.41 135.814 269.211 135.773 268.98 135.773C268.742 135.773 268.539 135.826 268.371 135.932C268.203 136.033 268.066 136.176 267.961 136.359C267.855 136.543 267.777 136.756 267.727 136.998C267.68 137.24 267.656 137.502 267.656 137.783ZM273.17 140.244C273.17 140.01 273.25 139.812 273.41 139.652C273.57 139.492 273.787 139.412 274.061 139.412C274.334 139.412 274.551 139.492 274.711 139.652C274.871 139.812 274.951 140.01 274.951 140.244C274.951 140.475 274.871 140.67 274.711 140.83C274.551 140.986 274.334 141.064 274.061 141.064C273.787 141.064 273.57 140.986 273.41 140.83C273.25 140.67 273.17 140.475 273.17 140.244ZM273.176 135.328C273.176 135.094 273.256 134.896 273.416 134.736C273.576 134.576 273.793 134.496 274.066 134.496C274.34 134.496 274.557 134.576 274.717 134.736C274.877 134.896 274.957 135.094 274.957 135.328C274.957 135.559 274.877 135.754 274.717 135.914C274.557 136.07 274.34 136.148 274.066 136.148C273.793 136.148 273.576 136.07 273.416 135.914C273.256 135.754 273.176 135.559 273.176 135.328Z" fill="white"/>
<path d="M375.449 238.316V237.996C375.449 237.116 375.688 236.43 376.164 235.938C376.641 235.443 377.238 235.195 377.957 235.195C378.678 235.195 379.229 235.384 379.609 235.762C379.992 236.137 380.21 236.589 380.262 237.117L380.266 237.156H379.465L379.461 237.117C379.43 236.812 379.296 236.533 379.059 236.277C378.822 236.02 378.454 235.891 377.957 235.891C377.462 235.891 377.055 236.078 376.734 236.453C376.417 236.826 376.258 237.34 376.258 237.996V238.316C376.258 238.973 376.417 239.488 376.734 239.863C377.055 240.236 377.462 240.422 377.957 240.422C378.454 240.422 378.822 240.294 379.059 240.039C379.296 239.781 379.43 239.5 379.461 239.195L379.465 239.156H380.266L380.262 239.195C380.21 239.724 379.992 240.177 379.609 240.555C379.229 240.93 378.678 241.117 377.957 241.117C377.238 241.117 376.641 240.871 376.164 240.379C375.688 239.884 375.449 239.197 375.449 238.316ZM381.188 241V235H381.961V237.297C382.125 237.099 382.322 236.945 382.551 236.836C382.783 236.724 383.042 236.668 383.328 236.668C383.779 236.668 384.137 236.794 384.402 237.047C384.671 237.299 384.805 237.724 384.805 238.32V241H384.027V238.312C384.027 237.961 383.945 237.71 383.781 237.559C383.62 237.408 383.389 237.332 383.09 237.332C382.835 237.332 382.611 237.398 382.418 237.531C382.225 237.661 382.073 237.831 381.961 238.039V241H381.188ZM385.695 239.75C385.695 239.318 385.875 238.982 386.234 238.742C386.594 238.5 387.049 238.379 387.602 238.379H388.629V238.043C388.629 237.809 388.557 237.618 388.414 237.473C388.273 237.324 388.03 237.25 387.684 237.25C387.34 237.25 387.094 237.316 386.945 237.449C386.797 237.579 386.723 237.732 386.723 237.906V237.926H385.949V237.906C385.949 237.565 386.107 237.267 386.422 237.012C386.74 236.757 387.168 236.629 387.707 236.629C388.243 236.629 388.66 236.747 388.957 236.984C389.254 237.221 389.402 237.574 389.402 238.043V240.062C389.402 240.232 389.415 240.392 389.441 240.543C389.47 240.691 389.509 240.823 389.559 240.938V241H388.809C388.77 240.932 388.734 240.844 388.703 240.734C388.672 240.625 388.652 240.517 388.645 240.41C388.538 240.585 388.366 240.74 388.129 240.875C387.892 241.01 387.586 241.078 387.211 241.078C386.792 241.078 386.434 240.965 386.137 240.738C385.842 240.509 385.695 240.18 385.695 239.75ZM386.469 239.711C386.469 239.945 386.543 240.129 386.691 240.262C386.842 240.392 387.076 240.457 387.391 240.457C387.706 240.457 387.991 240.358 388.246 240.16C388.501 239.96 388.629 239.749 388.629 239.527V238.938H387.684C387.285 238.938 386.983 239.008 386.777 239.148C386.572 239.286 386.469 239.474 386.469 239.711ZM390.555 241V236.746H391.258L391.293 237.309H391.312C391.479 237.103 391.68 236.945 391.914 236.836C392.148 236.724 392.409 236.668 392.695 236.668C393.146 236.668 393.504 236.794 393.77 237.047C394.038 237.299 394.172 237.724 394.172 238.32V241H393.395V238.312C393.395 237.961 393.312 237.71 393.148 237.559C392.987 237.408 392.757 237.332 392.457 237.332C392.202 237.332 391.978 237.398 391.785 237.531C391.592 237.661 391.44 237.831 391.328 238.039V241H390.555ZM395.215 242.109L395.664 241.516C395.794 241.651 395.975 241.77 396.207 241.871C396.441 241.973 396.703 242.023 396.992 242.023C397.378 242.023 397.681 241.923 397.902 241.723C398.126 241.525 398.238 241.245 398.238 240.883V240.496C398.105 240.673 397.927 240.815 397.703 240.922C397.482 241.026 397.214 241.078 396.898 241.078C396.336 241.078 395.885 240.876 395.547 240.473C395.211 240.066 395.043 239.553 395.043 238.934V238.809C395.043 238.189 395.211 237.677 395.547 237.273C395.885 236.87 396.336 236.668 396.898 236.668C397.214 236.668 397.49 236.73 397.727 236.855C397.964 236.978 398.139 237.126 398.254 237.301H398.273L398.309 236.746H399.012V240.883C399.012 241.469 398.827 241.918 398.457 242.23C398.087 242.546 397.607 242.703 397.016 242.703C396.648 242.703 396.31 242.647 396 242.535C395.69 242.423 395.428 242.281 395.215 242.109ZM395.836 238.934C395.836 239.355 395.935 239.711 396.133 240C396.333 240.286 396.647 240.43 397.074 240.43C397.361 240.43 397.604 240.357 397.805 240.211C398.005 240.062 398.15 239.895 398.238 239.707V238.039C398.15 237.852 398.005 237.685 397.805 237.539C397.604 237.391 397.361 237.316 397.074 237.316C396.647 237.316 396.333 237.461 396.133 237.75C395.935 238.036 395.836 238.389 395.836 238.809V238.934ZM399.926 238.934V238.809C399.926 238.168 400.109 237.645 400.477 237.238C400.846 236.832 401.333 236.629 401.938 236.629C402.547 236.629 403.014 236.819 403.34 237.199C403.668 237.579 403.832 238.092 403.832 238.738V239.066H400.406V238.445H403.047V238.457C403.047 238.116 402.962 237.833 402.793 237.609C402.626 237.383 402.341 237.27 401.938 237.27C401.539 237.27 401.234 237.418 401.023 237.715C400.815 238.012 400.711 238.376 400.711 238.809V238.934C400.711 239.366 400.82 239.732 401.039 240.031C401.26 240.328 401.602 240.477 402.062 240.477C402.346 240.477 402.59 240.419 402.793 240.305C402.999 240.19 403.164 240.053 403.289 239.895L403.789 240.316C403.651 240.514 403.434 240.698 403.137 240.867C402.842 241.034 402.484 241.117 402.062 241.117C401.372 241.117 400.844 240.914 400.477 240.508C400.109 240.102 399.926 239.577 399.926 238.934Z" fill="#6E9777"/>
<path d="M313.234 95.3164V94.9961C313.234 94.1159 313.473 93.4297 313.949 92.9375C314.426 92.4427 315.023 92.1953 315.742 92.1953C316.464 92.1953 317.014 92.3841 317.395 92.7617C317.777 93.1367 317.995 93.5885 318.047 94.1172L318.051 94.1562H317.25L317.246 94.1172C317.215 93.8125 317.081 93.5326 316.844 93.2773C316.607 93.0195 316.24 92.8906 315.742 92.8906C315.247 92.8906 314.84 93.0781 314.52 93.4531C314.202 93.8255 314.043 94.3398 314.043 94.9961V95.3164C314.043 95.9727 314.202 96.4883 314.52 96.8633C314.84 97.2357 315.247 97.4219 315.742 97.4219C316.24 97.4219 316.607 97.2943 316.844 97.0391C317.081 96.7812 317.215 96.5 317.246 96.1953L317.25 96.1562H318.051L318.047 96.1953C317.995 96.724 317.777 97.1771 317.395 97.5547C317.014 97.9297 316.464 98.1172 315.742 98.1172C315.023 98.1172 314.426 97.8711 313.949 97.3789C313.473 96.8841 313.234 96.1966 313.234 95.3164ZM318.973 98V92H319.746V94.2969C319.91 94.099 320.107 93.9453 320.336 93.8359C320.568 93.724 320.827 93.668 321.113 93.668C321.564 93.668 321.922 93.7943 322.188 94.0469C322.456 94.2995 322.59 94.724 322.59 95.3203V98H321.812V95.3125C321.812 94.9609 321.73 94.7096 321.566 94.5586C321.405 94.4076 321.174 94.332 320.875 94.332C320.62 94.332 320.396 94.3984 320.203 94.5312C320.01 94.6615 319.858 94.8307 319.746 95.0391V98H318.973ZM323.48 96.75C323.48 96.3177 323.66 95.9818 324.02 95.7422C324.379 95.5 324.835 95.3789 325.387 95.3789H326.414V95.043C326.414 94.8086 326.342 94.6185 326.199 94.4727C326.059 94.3242 325.815 94.25 325.469 94.25C325.125 94.25 324.879 94.3164 324.73 94.4492C324.582 94.5794 324.508 94.7318 324.508 94.9062V94.9258H323.734V94.9062C323.734 94.5651 323.892 94.2669 324.207 94.0117C324.525 93.7565 324.953 93.6289 325.492 93.6289C326.029 93.6289 326.445 93.7474 326.742 93.9844C327.039 94.2214 327.188 94.5742 327.188 95.043V97.0625C327.188 97.2318 327.201 97.3919 327.227 97.543C327.255 97.6914 327.294 97.8229 327.344 97.9375V98H326.594C326.555 97.9323 326.52 97.8438 326.488 97.7344C326.457 97.625 326.438 97.5169 326.43 97.4102C326.323 97.5846 326.151 97.7396 325.914 97.875C325.677 98.0104 325.371 98.0781 324.996 98.0781C324.577 98.0781 324.219 97.9648 323.922 97.7383C323.628 97.5091 323.48 97.1797 323.48 96.75ZM324.254 96.7109C324.254 96.9453 324.328 97.1289 324.477 97.2617C324.628 97.3919 324.861 97.457 325.176 97.457C325.491 97.457 325.776 97.3581 326.031 97.1602C326.286 96.9596 326.414 96.7487 326.414 96.5273V95.9375H325.469C325.07 95.9375 324.768 96.0078 324.562 96.1484C324.357 96.2865 324.254 96.474 324.254 96.7109ZM328.34 98V93.7461H329.043L329.078 94.3086H329.098C329.264 94.1029 329.465 93.9453 329.699 93.8359C329.934 93.724 330.194 93.668 330.48 93.668C330.931 93.668 331.289 93.7943 331.555 94.0469C331.823 94.2995 331.957 94.724 331.957 95.3203V98H331.18V95.3125C331.18 94.9609 331.098 94.7096 330.934 94.5586C330.772 94.4076 330.542 94.332 330.242 94.332C329.987 94.332 329.763 94.3984 329.57 94.5312C329.378 94.6615 329.225 94.8307 329.113 95.0391V98H328.34ZM333 99.1094L333.449 98.5156C333.579 98.651 333.76 98.7695 333.992 98.8711C334.227 98.9727 334.488 99.0234 334.777 99.0234C335.163 99.0234 335.466 98.9232 335.688 98.7227C335.911 98.5247 336.023 98.2448 336.023 97.8828V97.4961C335.891 97.6732 335.712 97.8151 335.488 97.9219C335.267 98.026 334.999 98.0781 334.684 98.0781C334.121 98.0781 333.671 97.8763 333.332 97.4727C332.996 97.0664 332.828 96.5534 332.828 95.9336V95.8086C332.828 95.1888 332.996 94.6771 333.332 94.2734C333.671 93.8698 334.121 93.668 334.684 93.668C334.999 93.668 335.275 93.7305 335.512 93.8555C335.749 93.9779 335.924 94.1263 336.039 94.3008H336.059L336.094 93.7461H336.797V97.8828C336.797 98.4688 336.612 98.918 336.242 99.2305C335.872 99.5456 335.392 99.7031 334.801 99.7031C334.434 99.7031 334.095 99.6471 333.785 99.5352C333.475 99.4232 333.214 99.2812 333 99.1094ZM333.621 95.9336C333.621 96.3555 333.72 96.7109 333.918 97C334.118 97.2865 334.432 97.4297 334.859 97.4297C335.146 97.4297 335.389 97.3568 335.59 97.2109C335.79 97.0625 335.935 96.8945 336.023 96.707V95.0391C335.935 94.8516 335.79 94.6849 335.59 94.5391C335.389 94.3906 335.146 94.3164 334.859 94.3164C334.432 94.3164 334.118 94.4609 333.918 94.75C333.72 95.0365 333.621 95.3893 333.621 95.8086V95.9336ZM337.711 95.9336V95.8086C337.711 95.168 337.895 94.6445 338.262 94.2383C338.632 93.832 339.118 93.6289 339.723 93.6289C340.332 93.6289 340.799 93.819 341.125 94.1992C341.453 94.5794 341.617 95.0924 341.617 95.7383V96.0664H338.191V95.4453H340.832V95.457C340.832 95.1159 340.747 94.8333 340.578 94.6094C340.411 94.3828 340.126 94.2695 339.723 94.2695C339.324 94.2695 339.02 94.418 338.809 94.7148C338.6 95.0117 338.496 95.3763 338.496 95.8086V95.9336C338.496 96.3659 338.605 96.7318 338.824 97.0312C339.046 97.3281 339.387 97.4766 339.848 97.4766C340.132 97.4766 340.375 97.4193 340.578 97.3047C340.784 97.1901 340.949 97.0534 341.074 96.8945L341.574 97.3164C341.436 97.5143 341.219 97.6979 340.922 97.8672C340.628 98.0339 340.27 98.1172 339.848 98.1172C339.158 98.1172 338.629 97.9141 338.262 97.5078C337.895 97.1016 337.711 96.5768 337.711 95.9336ZM344.223 96.75C344.223 96.3177 344.402 95.9818 344.762 95.7422C345.121 95.5 345.577 95.3789 346.129 95.3789H347.156V95.043C347.156 94.8086 347.085 94.6185 346.941 94.4727C346.801 94.3242 346.557 94.25 346.211 94.25C345.867 94.25 345.621 94.3164 345.473 94.4492C345.324 94.5794 345.25 94.7318 345.25 94.9062V94.9258H344.477V94.9062C344.477 94.5651 344.634 94.2669 344.949 94.0117C345.267 93.7565 345.695 93.6289 346.234 93.6289C346.771 93.6289 347.188 93.7474 347.484 93.9844C347.781 94.2214 347.93 94.5742 347.93 95.043V97.0625C347.93 97.2318 347.943 97.3919 347.969 97.543C347.997 97.6914 348.036 97.8229 348.086 97.9375V98H347.336C347.297 97.9323 347.262 97.8438 347.23 97.7344C347.199 97.625 347.18 97.5169 347.172 97.4102C347.065 97.5846 346.893 97.7396 346.656 97.875C346.419 98.0104 346.113 98.0781 345.738 98.0781C345.319 98.0781 344.961 97.9648 344.664 97.7383C344.37 97.5091 344.223 97.1797 344.223 96.75ZM344.996 96.7109C344.996 96.9453 345.07 97.1289 345.219 97.2617C345.37 97.3919 345.603 97.457 345.918 97.457C346.233 97.457 346.518 97.3581 346.773 97.1602C347.029 96.9596 347.156 96.7487 347.156 96.5273V95.9375H346.211C345.812 95.9375 345.51 96.0078 345.305 96.1484C345.099 96.2865 344.996 96.474 344.996 96.7109ZM348.434 93.7461H349.207L350.25 96.5469C350.289 96.6536 350.323 96.7526 350.352 96.8438C350.38 96.9323 350.404 97.0286 350.422 97.1328H350.445C350.464 97.0286 350.487 96.9323 350.516 96.8438C350.547 96.7526 350.582 96.6536 350.621 96.5469L351.656 93.7461H352.395L350.73 98H350.098L348.434 93.7461ZM352.676 96.75C352.676 96.3177 352.855 95.9818 353.215 95.7422C353.574 95.5 354.03 95.3789 354.582 95.3789H355.609V95.043C355.609 94.8086 355.538 94.6185 355.395 94.4727C355.254 94.3242 355.01 94.25 354.664 94.25C354.32 94.25 354.074 94.3164 353.926 94.4492C353.777 94.5794 353.703 94.7318 353.703 94.9062V94.9258H352.93V94.9062C352.93 94.5651 353.087 94.2669 353.402 94.0117C353.72 93.7565 354.148 93.6289 354.688 93.6289C355.224 93.6289 355.641 93.7474 355.938 93.9844C356.234 94.2214 356.383 94.5742 356.383 95.043V97.0625C356.383 97.2318 356.396 97.3919 356.422 97.543C356.451 97.6914 356.49 97.8229 356.539 97.9375V98H355.789C355.75 97.9323 355.715 97.8438 355.684 97.7344C355.652 97.625 355.633 97.5169 355.625 97.4102C355.518 97.5846 355.346 97.7396 355.109 97.875C354.872 98.0104 354.566 98.0781 354.191 98.0781C353.772 98.0781 353.414 97.9648 353.117 97.7383C352.823 97.5091 352.676 97.1797 352.676 96.75ZM353.449 96.7109C353.449 96.9453 353.523 97.1289 353.672 97.2617C353.823 97.3919 354.056 97.457 354.371 97.457C354.686 97.457 354.971 97.3581 355.227 97.1602C355.482 96.9596 355.609 96.7487 355.609 96.5273V95.9375H354.664C354.266 95.9375 353.964 96.0078 353.758 96.1484C353.552 96.2865 353.449 96.474 353.449 96.7109ZM356.957 94.3555V93.7461H359.484V94.3555H356.957ZM357.75 96.9375V94.1094V93.9922V92.875H358.523V96.9375C358.523 97.1198 358.562 97.25 358.641 97.3281C358.719 97.4062 358.841 97.4453 359.008 97.4453C359.086 97.4453 359.161 97.4375 359.234 97.4219C359.31 97.4062 359.387 97.3854 359.465 97.3594V98C359.392 98.0312 359.298 98.0586 359.184 98.082C359.069 98.1055 358.944 98.1172 358.809 98.1172C358.486 98.1172 358.228 98.0221 358.035 97.832C357.845 97.6419 357.75 97.3438 357.75 96.9375ZM360.035 96.75C360.035 96.3177 360.215 95.9818 360.574 95.7422C360.934 95.5 361.389 95.3789 361.941 95.3789H362.969V95.043C362.969 94.8086 362.897 94.6185 362.754 94.4727C362.613 94.3242 362.37 94.25 362.023 94.25C361.68 94.25 361.434 94.3164 361.285 94.4492C361.137 94.5794 361.062 94.7318 361.062 94.9062V94.9258H360.289V94.9062C360.289 94.5651 360.447 94.2669 360.762 94.0117C361.079 93.7565 361.508 93.6289 362.047 93.6289C362.583 93.6289 363 93.7474 363.297 93.9844C363.594 94.2214 363.742 94.5742 363.742 95.043V97.0625C363.742 97.2318 363.755 97.3919 363.781 97.543C363.81 97.6914 363.849 97.8229 363.898 97.9375V98H363.148C363.109 97.9323 363.074 97.8438 363.043 97.7344C363.012 97.625 362.992 97.5169 362.984 97.4102C362.878 97.5846 362.706 97.7396 362.469 97.875C362.232 98.0104 361.926 98.0781 361.551 98.0781C361.132 98.0781 360.773 97.9648 360.477 97.7383C360.182 97.5091 360.035 97.1797 360.035 96.75ZM360.809 96.7109C360.809 96.9453 360.883 97.1289 361.031 97.2617C361.182 97.3919 361.415 97.457 361.73 97.457C362.046 97.457 362.331 97.3581 362.586 97.1602C362.841 96.9596 362.969 96.7487 362.969 96.5273V95.9375H362.023C361.625 95.9375 361.323 96.0078 361.117 96.1484C360.911 96.2865 360.809 96.474 360.809 96.7109ZM364.895 98V93.7461H365.598L365.633 94.2969H365.652C365.767 94.1198 365.917 93.9648 366.102 93.832C366.289 93.6966 366.512 93.6289 366.77 93.6289C366.829 93.6289 366.892 93.6354 366.957 93.6484C367.025 93.6615 367.072 93.6732 367.098 93.6836V94.4219C367.043 94.4115 366.986 94.4036 366.926 94.3984C366.866 94.3932 366.799 94.3906 366.727 94.3906C366.469 94.3906 366.25 94.4544 366.07 94.582C365.891 94.7096 365.757 94.8672 365.668 95.0547V98H364.895Z" fill="#6E9777"/>
<rect x="282" y="124" width="120" height="26" rx="2" fill="#DDDDDD"/>
<path d="M285.756 136.852L286.934 135.234L285.164 134.707L285.439 133.828L287.209 134.479L287.156 132.463H288.047L287.988 134.514L289.734 133.863L290.004 134.76L288.205 135.293L289.359 136.881L288.633 137.426L287.549 135.738L286.488 137.385L285.756 136.852ZM290.924 136.852L292.102 135.234L290.332 134.707L290.607 133.828L292.377 134.479L292.324 132.463H293.215L293.156 134.514L294.902 133.863L295.172 134.76L293.373 135.293L294.527 136.881L293.801 137.426L292.717 135.738L291.656 137.385L290.924 136.852ZM296.092 136.852L297.27 135.234L295.5 134.707L295.775 133.828L297.545 134.479L297.492 132.463H298.383L298.324 134.514L300.07 133.863L300.34 134.76L298.541 135.293L299.695 136.881L298.969 137.426L297.885 135.738L296.824 137.385L296.092 136.852ZM301.26 136.852L302.438 135.234L300.668 134.707L300.943 133.828L302.713 134.479L302.66 132.463H303.551L303.492 134.514L305.238 133.863L305.508 134.76L303.709 135.293L304.863 136.881L304.137 137.426L303.053 135.738L301.992 137.385L301.26 136.852ZM306.428 136.852L307.605 135.234L305.836 134.707L306.111 133.828L307.881 134.479L307.828 132.463H308.719L308.66 134.514L310.406 133.863L310.676 134.76L308.877 135.293L310.031 136.881L309.305 137.426L308.221 135.738L307.16 137.385L306.428 136.852ZM311.596 136.852L312.773 135.234L311.004 134.707L311.279 133.828L313.049 134.479L312.996 132.463H313.887L313.828 134.514L315.574 133.863L315.844 134.76L314.045 135.293L315.199 136.881L314.473 137.426L313.389 135.738L312.328 137.385L311.596 136.852ZM316.764 136.852L317.941 135.234L316.172 134.707L316.447 133.828L318.217 134.479L318.164 132.463H319.055L318.996 134.514L320.742 133.863L321.012 134.76L319.213 135.293L320.367 136.881L319.641 137.426L318.557 135.738L317.496 137.385L316.764 136.852ZM321.932 136.852L323.109 135.234L321.34 134.707L321.615 133.828L323.385 134.479L323.332 132.463H324.223L324.164 134.514L325.91 133.863L326.18 134.76L324.381 135.293L325.535 136.881L324.809 137.426L323.725 135.738L322.664 137.385L321.932 136.852ZM327.1 136.852L328.277 135.234L326.508 134.707L326.783 133.828L328.553 134.479L328.5 132.463H329.391L329.332 134.514L331.078 133.863L331.348 134.76L329.549 135.293L330.703 136.881L329.977 137.426L328.893 135.738L327.832 137.385L327.1 136.852Z" fill="#484F51"/>
<path d="M202.67 172.469V181H201.053L197.426 175.082V181H195.814V172.469H197.426L201.064 178.393V172.469H202.67ZM207.041 181.117C206.561 181.117 206.129 181.039 205.746 180.883C205.363 180.727 205.037 180.51 204.768 180.232C204.502 179.951 204.297 179.625 204.152 179.254C204.012 178.879 203.941 178.477 203.941 178.047V177.812C203.941 177.324 204.012 176.881 204.152 176.482C204.293 176.08 204.492 175.734 204.75 175.445C205.008 175.156 205.316 174.934 205.676 174.777C206.035 174.621 206.432 174.543 206.865 174.543C207.314 174.543 207.711 174.619 208.055 174.771C208.398 174.92 208.686 175.131 208.916 175.404C209.146 175.678 209.32 176.006 209.438 176.389C209.555 176.768 209.613 177.188 209.613 177.648V178.299H204.645V177.232H208.09V177.115C208.082 176.869 208.035 176.645 207.949 176.441C207.863 176.234 207.73 176.07 207.551 175.949C207.371 175.824 207.139 175.762 206.854 175.762C206.623 175.762 206.422 175.812 206.25 175.914C206.082 176.012 205.941 176.152 205.828 176.336C205.719 176.516 205.637 176.73 205.582 176.98C205.527 177.23 205.5 177.508 205.5 177.812V178.047C205.5 178.312 205.535 178.559 205.605 178.785C205.68 179.012 205.787 179.209 205.928 179.377C206.072 179.541 206.244 179.67 206.443 179.764C206.646 179.854 206.877 179.898 207.135 179.898C207.459 179.898 207.752 179.836 208.014 179.711C208.279 179.582 208.51 179.393 208.705 179.143L209.484 179.951C209.352 180.146 209.172 180.334 208.945 180.514C208.723 180.693 208.453 180.84 208.137 180.953C207.82 181.062 207.455 181.117 207.041 181.117ZM212.414 179.477L213.803 174.66H214.787L214.494 176.324L213.094 181H212.244L212.414 179.477ZM211.646 174.66L212.689 179.488L212.783 181H211.805L210.141 174.66H211.646ZM216.076 179.418L217.096 174.66H218.596L216.943 181H215.965L216.076 179.418ZM214.939 174.66L216.316 179.43L216.498 181H215.648L214.236 176.324L213.949 174.66H214.939ZM224.045 175.879V183.438H222.492V174.66H223.928L224.045 175.879ZM228.117 177.766V177.889C228.117 178.35 228.062 178.777 227.953 179.172C227.848 179.562 227.691 179.904 227.484 180.197C227.277 180.486 227.02 180.713 226.711 180.877C226.406 181.037 226.055 181.117 225.656 181.117C225.266 181.117 224.926 181.043 224.637 180.895C224.348 180.742 224.104 180.527 223.904 180.25C223.705 179.973 223.545 179.65 223.424 179.283C223.307 178.912 223.219 178.508 223.16 178.07V177.678C223.219 177.213 223.307 176.791 223.424 176.412C223.545 176.029 223.705 175.699 223.904 175.422C224.104 175.141 224.346 174.924 224.631 174.771C224.92 174.619 225.258 174.543 225.645 174.543C226.047 174.543 226.4 174.619 226.705 174.771C227.014 174.924 227.273 175.143 227.484 175.428C227.695 175.713 227.854 176.053 227.959 176.447C228.064 176.842 228.117 177.281 228.117 177.766ZM226.564 177.889V177.766C226.564 177.484 226.539 177.225 226.488 176.986C226.438 176.744 226.359 176.533 226.254 176.354C226.148 176.17 226.012 176.027 225.844 175.926C225.676 175.824 225.473 175.773 225.234 175.773C224.996 175.773 224.791 175.812 224.619 175.891C224.447 175.969 224.307 176.08 224.197 176.225C224.088 176.369 224.002 176.541 223.939 176.74C223.881 176.936 223.842 177.152 223.822 177.391V178.363C223.857 178.652 223.926 178.912 224.027 179.143C224.129 179.373 224.277 179.557 224.473 179.693C224.672 179.83 224.93 179.898 225.246 179.898C225.484 179.898 225.688 179.846 225.855 179.74C226.023 179.635 226.16 179.49 226.266 179.307C226.371 179.119 226.447 178.904 226.494 178.662C226.541 178.42 226.564 178.162 226.564 177.889ZM232.74 179.652V176.729C232.74 176.514 232.703 176.328 232.629 176.172C232.555 176.016 232.441 175.895 232.289 175.809C232.137 175.723 231.943 175.68 231.709 175.68C231.502 175.68 231.32 175.715 231.164 175.785C231.012 175.855 230.895 175.955 230.812 176.084C230.73 176.209 230.689 176.354 230.689 176.518H229.137C229.137 176.256 229.199 176.008 229.324 175.773C229.449 175.535 229.627 175.324 229.857 175.141C230.092 174.953 230.371 174.807 230.695 174.701C231.023 174.596 231.391 174.543 231.797 174.543C232.277 174.543 232.705 174.625 233.08 174.789C233.459 174.949 233.756 175.191 233.971 175.516C234.189 175.84 234.299 176.248 234.299 176.74V179.506C234.299 179.822 234.318 180.094 234.357 180.32C234.4 180.543 234.463 180.736 234.545 180.9V181H232.969C232.895 180.84 232.838 180.637 232.799 180.391C232.76 180.141 232.74 179.895 232.74 179.652ZM232.957 177.139L232.969 178.059H231.99C231.748 178.059 231.535 178.084 231.352 178.135C231.168 178.182 231.018 178.252 230.9 178.346C230.783 178.436 230.695 178.545 230.637 178.674C230.578 178.799 230.549 178.941 230.549 179.102C230.549 179.258 230.584 179.398 230.654 179.523C230.729 179.648 230.834 179.748 230.971 179.822C231.111 179.893 231.275 179.928 231.463 179.928C231.736 179.928 231.975 179.873 232.178 179.764C232.381 179.65 232.539 179.514 232.652 179.354C232.766 179.193 232.826 179.041 232.834 178.896L233.279 179.564C233.225 179.725 233.143 179.895 233.033 180.074C232.924 180.254 232.783 180.422 232.611 180.578C232.439 180.734 232.232 180.863 231.99 180.965C231.748 181.066 231.467 181.117 231.146 181.117C230.736 181.117 230.369 181.035 230.045 180.871C229.721 180.707 229.465 180.482 229.277 180.197C229.09 179.912 228.996 179.588 228.996 179.225C228.996 178.889 229.059 178.592 229.184 178.334C229.309 178.076 229.494 177.859 229.74 177.684C229.986 177.504 230.291 177.369 230.654 177.279C231.021 177.186 231.441 177.139 231.914 177.139H232.957ZM239.18 179.266C239.18 179.133 239.145 179.014 239.074 178.908C239.004 178.803 238.871 178.707 238.676 178.621C238.484 178.531 238.203 178.447 237.832 178.369C237.504 178.299 237.201 178.211 236.924 178.105C236.646 178 236.408 177.873 236.209 177.725C236.01 177.572 235.854 177.395 235.74 177.191C235.631 176.984 235.576 176.746 235.576 176.477C235.576 176.215 235.633 175.969 235.746 175.738C235.859 175.504 236.023 175.299 236.238 175.123C236.453 174.943 236.715 174.803 237.023 174.701C237.332 174.596 237.68 174.543 238.066 174.543C238.605 174.543 239.068 174.631 239.455 174.807C239.846 174.982 240.145 175.225 240.352 175.533C240.559 175.838 240.662 176.182 240.662 176.564H239.115C239.115 176.396 239.076 176.244 238.998 176.107C238.924 175.971 238.809 175.861 238.652 175.779C238.496 175.693 238.299 175.65 238.061 175.65C237.846 175.65 237.664 175.686 237.516 175.756C237.371 175.826 237.262 175.918 237.188 176.031C237.113 176.145 237.076 176.27 237.076 176.406C237.076 176.508 237.096 176.6 237.135 176.682C237.178 176.76 237.246 176.832 237.34 176.898C237.434 176.965 237.561 177.025 237.721 177.08C237.885 177.135 238.086 177.188 238.324 177.238C238.797 177.332 239.209 177.457 239.561 177.613C239.916 177.766 240.193 177.969 240.393 178.223C240.592 178.477 240.691 178.801 240.691 179.195C240.691 179.477 240.631 179.734 240.51 179.969C240.389 180.199 240.213 180.4 239.982 180.572C239.752 180.744 239.477 180.879 239.156 180.977C238.836 181.07 238.475 181.117 238.072 181.117C237.49 181.117 236.998 181.014 236.596 180.807C236.193 180.596 235.889 180.33 235.682 180.01C235.475 179.686 235.371 179.35 235.371 179.002H236.854C236.865 179.248 236.932 179.445 237.053 179.594C237.174 179.742 237.326 179.85 237.51 179.916C237.697 179.979 237.895 180.01 238.102 180.01C238.336 180.01 238.533 179.979 238.693 179.916C238.854 179.85 238.975 179.762 239.057 179.652C239.139 179.539 239.18 179.41 239.18 179.266ZM245.355 179.266C245.355 179.133 245.32 179.014 245.25 178.908C245.18 178.803 245.047 178.707 244.852 178.621C244.66 178.531 244.379 178.447 244.008 178.369C243.68 178.299 243.377 178.211 243.1 178.105C242.822 178 242.584 177.873 242.385 177.725C242.186 177.572 242.029 177.395 241.916 177.191C241.807 176.984 241.752 176.746 241.752 176.477C241.752 176.215 241.809 175.969 241.922 175.738C242.035 175.504 242.199 175.299 242.414 175.123C242.629 174.943 242.891 174.803 243.199 174.701C243.508 174.596 243.855 174.543 244.242 174.543C244.781 174.543 245.244 174.631 245.631 174.807C246.021 174.982 246.32 175.225 246.527 175.533C246.734 175.838 246.838 176.182 246.838 176.564H245.291C245.291 176.396 245.252 176.244 245.174 176.107C245.1 175.971 244.984 175.861 244.828 175.779C244.672 175.693 244.475 175.65 244.236 175.65C244.021 175.65 243.84 175.686 243.691 175.756C243.547 175.826 243.438 175.918 243.363 176.031C243.289 176.145 243.252 176.27 243.252 176.406C243.252 176.508 243.271 176.6 243.311 176.682C243.354 176.76 243.422 176.832 243.516 176.898C243.609 176.965 243.736 177.025 243.896 177.08C244.061 177.135 244.262 177.188 244.5 177.238C244.973 177.332 245.385 177.457 245.736 177.613C246.092 177.766 246.369 177.969 246.568 178.223C246.768 178.477 246.867 178.801 246.867 179.195C246.867 179.477 246.807 179.734 246.686 179.969C246.564 180.199 246.389 180.4 246.158 180.572C245.928 180.744 245.652 180.879 245.332 180.977C245.012 181.07 244.65 181.117 244.248 181.117C243.666 181.117 243.174 181.014 242.771 180.807C242.369 180.596 242.064 180.33 241.857 180.01C241.65 179.686 241.547 179.35 241.547 179.002H243.029C243.041 179.248 243.107 179.445 243.229 179.594C243.35 179.742 243.502 179.85 243.686 179.916C243.873 179.979 244.07 180.01 244.277 180.01C244.512 180.01 244.709 179.979 244.869 179.916C245.029 179.85 245.15 179.762 245.232 179.652C245.314 179.539 245.355 179.41 245.355 179.266ZM249.809 179.477L251.197 174.66H252.182L251.889 176.324L250.488 181H249.639L249.809 179.477ZM249.041 174.66L250.084 179.488L250.178 181H249.199L247.535 174.66H249.041ZM253.471 179.418L254.49 174.66H255.99L254.338 181H253.359L253.471 179.418ZM252.334 174.66L253.711 179.43L253.893 181H253.043L251.631 176.324L251.344 174.66H252.334ZM256.629 177.895V177.771C256.629 177.307 256.695 176.879 256.828 176.488C256.961 176.094 257.154 175.752 257.408 175.463C257.662 175.174 257.973 174.949 258.34 174.789C258.707 174.625 259.125 174.543 259.594 174.543C260.07 174.543 260.492 174.625 260.859 174.789C261.23 174.949 261.543 175.174 261.797 175.463C262.051 175.752 262.244 176.094 262.377 176.488C262.51 176.879 262.576 177.307 262.576 177.771V177.895C262.576 178.355 262.51 178.783 262.377 179.178C262.244 179.568 262.051 179.91 261.797 180.203C261.543 180.492 261.232 180.717 260.865 180.877C260.498 181.037 260.078 181.117 259.605 181.117C259.137 181.117 258.717 181.037 258.346 180.877C257.975 180.717 257.662 180.492 257.408 180.203C257.154 179.91 256.961 179.568 256.828 179.178C256.695 178.783 256.629 178.355 256.629 177.895ZM258.176 177.771V177.895C258.176 178.172 258.203 178.432 258.258 178.674C258.312 178.916 258.396 179.129 258.51 179.312C258.623 179.496 258.77 179.641 258.949 179.746C259.133 179.848 259.352 179.898 259.605 179.898C259.855 179.898 260.07 179.848 260.25 179.746C260.43 179.641 260.576 179.496 260.689 179.312C260.807 179.129 260.893 178.916 260.947 178.674C261.002 178.432 261.029 178.172 261.029 177.895V177.771C261.029 177.498 261.002 177.242 260.947 177.004C260.893 176.762 260.807 176.549 260.689 176.365C260.576 176.178 260.428 176.031 260.244 175.926C260.064 175.816 259.848 175.762 259.594 175.762C259.344 175.762 259.129 175.816 258.949 175.926C258.77 176.031 258.623 176.178 258.51 176.365C258.396 176.549 258.312 176.762 258.258 177.004C258.203 177.242 258.176 177.498 258.176 177.771ZM265.248 175.955V181H263.701V174.66H265.166L265.248 175.955ZM267.176 174.619L267.152 176.061C267.066 176.045 266.969 176.033 266.859 176.025C266.754 176.018 266.654 176.014 266.561 176.014C266.322 176.014 266.113 176.047 265.934 176.113C265.754 176.176 265.604 176.268 265.482 176.389C265.365 176.51 265.275 176.658 265.213 176.834C265.15 177.006 265.115 177.201 265.107 177.42L264.773 177.379C264.773 176.977 264.814 176.604 264.896 176.26C264.979 175.916 265.098 175.615 265.254 175.357C265.41 175.1 265.605 174.9 265.84 174.76C266.078 174.615 266.352 174.543 266.66 174.543C266.746 174.543 266.838 174.551 266.936 174.566C267.037 174.578 267.117 174.596 267.176 174.619ZM271.711 179.652V172H273.27V181H271.863L271.711 179.652ZM267.639 177.906V177.783C267.639 177.299 267.693 176.859 267.803 176.465C267.916 176.066 268.08 175.725 268.295 175.439C268.51 175.154 268.77 174.934 269.074 174.777C269.383 174.621 269.732 174.543 270.123 174.543C270.502 174.543 270.832 174.619 271.113 174.771C271.398 174.924 271.641 175.141 271.84 175.422C272.043 175.703 272.205 176.037 272.326 176.424C272.447 176.807 272.535 177.229 272.59 177.689V178.023C272.535 178.473 272.447 178.885 272.326 179.26C272.205 179.635 272.043 179.963 271.84 180.244C271.641 180.521 271.398 180.736 271.113 180.889C270.828 181.041 270.494 181.117 270.111 181.117C269.725 181.117 269.377 181.037 269.068 180.877C268.764 180.717 268.504 180.492 268.289 180.203C268.078 179.914 267.916 179.574 267.803 179.184C267.693 178.793 267.639 178.367 267.639 177.906ZM269.191 177.783V177.906C269.191 178.18 269.215 178.436 269.262 178.674C269.309 178.912 269.385 179.123 269.49 179.307C269.596 179.486 269.73 179.627 269.895 179.729C270.062 179.83 270.266 179.881 270.504 179.881C270.809 179.881 271.059 179.814 271.254 179.682C271.453 179.545 271.607 179.359 271.717 179.125C271.826 178.887 271.896 178.619 271.928 178.322V177.402C271.912 177.168 271.871 176.951 271.805 176.752C271.742 176.553 271.652 176.381 271.535 176.236C271.422 176.092 271.281 175.979 271.113 175.896C270.945 175.814 270.746 175.773 270.516 175.773C270.277 175.773 270.074 175.826 269.906 175.932C269.738 176.033 269.602 176.176 269.496 176.359C269.391 176.543 269.312 176.756 269.262 176.998C269.215 177.24 269.191 177.502 269.191 177.783ZM274.705 180.244C274.705 180.01 274.785 179.812 274.945 179.652C275.105 179.492 275.322 179.412 275.596 179.412C275.869 179.412 276.086 179.492 276.246 179.652C276.406 179.812 276.486 180.01 276.486 180.244C276.486 180.475 276.406 180.67 276.246 180.83C276.086 180.986 275.869 181.064 275.596 181.064C275.322 181.064 275.105 180.986 274.945 180.83C274.785 180.67 274.705 180.475 274.705 180.244ZM274.711 175.328C274.711 175.094 274.791 174.896 274.951 174.736C275.111 174.576 275.328 174.496 275.602 174.496C275.875 174.496 276.092 174.576 276.252 174.736C276.412 174.896 276.492 175.094 276.492 175.328C276.492 175.559 276.412 175.754 276.252 175.914C276.092 176.07 275.875 176.148 275.602 176.148C275.328 176.148 275.111 176.07 274.951 175.914C274.791 175.754 274.711 175.559 274.711 175.328Z" fill="white"/>
<rect x="282" y="164" width="120" height="26" rx="2" fill="#DDDDDD"/>
<path d="M285.756 176.852L286.934 175.234L285.164 174.707L285.439 173.828L287.209 174.479L287.156 172.463H288.047L287.988 174.514L289.734 173.863L290.004 174.76L288.205 175.293L289.359 176.881L288.633 177.426L287.549 175.738L286.488 177.385L285.756 176.852ZM290.924 176.852L292.102 175.234L290.332 174.707L290.607 173.828L292.377 174.479L292.324 172.463H293.215L293.156 174.514L294.902 173.863L295.172 174.76L293.373 175.293L294.527 176.881L293.801 177.426L292.717 175.738L291.656 177.385L290.924 176.852ZM296.092 176.852L297.27 175.234L295.5 174.707L295.775 173.828L297.545 174.479L297.492 172.463H298.383L298.324 174.514L300.07 173.863L300.34 174.76L298.541 175.293L299.695 176.881L298.969 177.426L297.885 175.738L296.824 177.385L296.092 176.852ZM301.26 176.852L302.438 175.234L300.668 174.707L300.943 173.828L302.713 174.479L302.66 172.463H303.551L303.492 174.514L305.238 173.863L305.508 174.76L303.709 175.293L304.863 176.881L304.137 177.426L303.053 175.738L301.992 177.385L301.26 176.852ZM306.428 176.852L307.605 175.234L305.836 174.707L306.111 173.828L307.881 174.479L307.828 172.463H308.719L308.66 174.514L310.406 173.863L310.676 174.76L308.877 175.293L310.031 176.881L309.305 177.426L308.221 175.738L307.16 177.385L306.428 176.852ZM311.596 176.852L312.773 175.234L311.004 174.707L311.279 173.828L313.049 174.479L312.996 172.463H313.887L313.828 174.514L315.574 173.863L315.844 174.76L314.045 175.293L315.199 176.881L314.473 177.426L313.389 175.738L312.328 177.385L311.596 176.852ZM316.764 176.852L317.941 175.234L316.172 174.707L316.447 173.828L318.217 174.479L318.164 172.463H319.055L318.996 174.514L320.742 173.863L321.012 174.76L319.213 175.293L320.367 176.881L319.641 177.426L318.557 175.738L317.496 177.385L316.764 176.852ZM321.932 176.852L323.109 175.234L321.34 174.707L321.615 173.828L323.385 174.479L323.332 172.463H324.223L324.164 174.514L325.91 173.863L326.18 174.76L324.381 175.293L325.535 176.881L324.809 177.426L323.725 175.738L322.664 177.385L321.932 176.852ZM327.1 176.852L328.277 175.234L326.508 174.707L326.783 173.828L328.553 174.479L328.5 172.463H329.391L329.332 174.514L331.078 173.863L331.348 174.76L329.549 175.293L330.703 176.881L329.977 177.426L328.893 175.738L327.832 177.385L327.1 176.852Z" fill="#484F51"/>
<path d="M156.807 218.193H158.418C158.375 218.764 158.217 219.27 157.943 219.711C157.67 220.148 157.289 220.492 156.801 220.742C156.312 220.992 155.721 221.117 155.025 221.117C154.49 221.117 154.008 221.023 153.578 220.836C153.152 220.645 152.787 220.373 152.482 220.021C152.182 219.666 151.951 219.24 151.791 218.744C151.631 218.244 151.551 217.684 151.551 217.062V216.412C151.551 215.791 151.633 215.23 151.797 214.73C151.961 214.23 152.195 213.805 152.5 213.453C152.809 213.098 153.178 212.824 153.607 212.633C154.041 212.441 154.525 212.346 155.061 212.346C155.756 212.346 156.344 212.475 156.824 212.732C157.305 212.986 157.678 213.336 157.943 213.781C158.209 214.227 158.369 214.738 158.424 215.316H156.812C156.781 214.957 156.703 214.652 156.578 214.402C156.457 214.152 156.273 213.963 156.027 213.834C155.785 213.701 155.463 213.635 155.061 213.635C154.748 213.635 154.473 213.693 154.234 213.811C154 213.928 153.805 214.104 153.648 214.338C153.492 214.568 153.375 214.857 153.297 215.205C153.219 215.549 153.18 215.947 153.18 216.4V217.062C153.18 217.496 153.215 217.885 153.285 218.229C153.355 218.572 153.465 218.863 153.613 219.102C153.762 219.34 153.953 219.521 154.188 219.646C154.422 219.771 154.701 219.834 155.025 219.834C155.42 219.834 155.74 219.771 155.986 219.646C156.236 219.521 156.426 219.338 156.555 219.096C156.688 218.854 156.771 218.553 156.807 218.193ZM159.273 217.895V217.771C159.273 217.307 159.34 216.879 159.473 216.488C159.605 216.094 159.799 215.752 160.053 215.463C160.307 215.174 160.617 214.949 160.984 214.789C161.352 214.625 161.77 214.543 162.238 214.543C162.715 214.543 163.137 214.625 163.504 214.789C163.875 214.949 164.188 215.174 164.441 215.463C164.695 215.752 164.889 216.094 165.021 216.488C165.154 216.879 165.221 217.307 165.221 217.771V217.895C165.221 218.355 165.154 218.783 165.021 219.178C164.889 219.568 164.695 219.91 164.441 220.203C164.188 220.492 163.877 220.717 163.51 220.877C163.143 221.037 162.723 221.117 162.25 221.117C161.781 221.117 161.361 221.037 160.99 220.877C160.619 220.717 160.307 220.492 160.053 220.203C159.799 219.91 159.605 219.568 159.473 219.178C159.34 218.783 159.273 218.355 159.273 217.895ZM160.82 217.771V217.895C160.82 218.172 160.848 218.432 160.902 218.674C160.957 218.916 161.041 219.129 161.154 219.312C161.268 219.496 161.414 219.641 161.594 219.746C161.777 219.848 161.996 219.898 162.25 219.898C162.5 219.898 162.715 219.848 162.895 219.746C163.074 219.641 163.221 219.496 163.334 219.312C163.451 219.129 163.537 218.916 163.592 218.674C163.646 218.432 163.674 218.172 163.674 217.895V217.771C163.674 217.498 163.646 217.242 163.592 217.004C163.537 216.762 163.451 216.549 163.334 216.365C163.221 216.178 163.072 216.031 162.889 215.926C162.709 215.816 162.492 215.762 162.238 215.762C161.988 215.762 161.773 215.816 161.594 215.926C161.414 216.031 161.268 216.178 161.154 216.365C161.041 216.549 160.957 216.762 160.902 217.004C160.848 217.242 160.82 217.498 160.82 217.771ZM167.863 216.014V221H166.316V214.66H167.77L167.863 216.014ZM167.617 217.602H167.16C167.164 217.141 167.227 216.723 167.348 216.348C167.469 215.973 167.639 215.65 167.857 215.381C168.08 215.111 168.344 214.904 168.648 214.76C168.953 214.615 169.293 214.543 169.668 214.543C169.973 214.543 170.248 214.586 170.494 214.672C170.74 214.758 170.951 214.895 171.127 215.082C171.307 215.27 171.443 215.516 171.537 215.82C171.635 216.121 171.684 216.492 171.684 216.934V221H170.125V216.922C170.125 216.633 170.082 216.404 169.996 216.236C169.914 216.068 169.793 215.949 169.633 215.879C169.477 215.809 169.283 215.773 169.053 215.773C168.814 215.773 168.605 215.822 168.426 215.92C168.25 216.014 168.102 216.145 167.98 216.312C167.863 216.48 167.773 216.674 167.711 216.893C167.648 217.111 167.617 217.348 167.617 217.602ZM175.006 221H173.447V214.309C173.447 213.785 173.553 213.344 173.764 212.984C173.979 212.621 174.285 212.346 174.684 212.158C175.086 211.971 175.564 211.877 176.119 211.877C176.443 211.877 176.756 211.91 177.057 211.977C177.361 212.039 177.674 212.121 177.994 212.223L177.766 213.477C177.559 213.41 177.332 213.348 177.086 213.289C176.844 213.23 176.557 213.201 176.225 213.201C175.814 213.201 175.508 213.295 175.305 213.482C175.105 213.67 175.006 213.945 175.006 214.309V221ZM176.271 214.66V215.773H172.492V214.66H176.271ZM178.721 214.66V221H177.168V214.66H178.721ZM181.768 215.955V221H180.221V214.66H181.686L181.768 215.955ZM183.695 214.619L183.672 216.061C183.586 216.045 183.488 216.033 183.379 216.025C183.273 216.018 183.174 216.014 183.08 216.014C182.842 216.014 182.633 216.047 182.453 216.113C182.273 216.176 182.123 216.268 182.002 216.389C181.885 216.51 181.795 216.658 181.732 216.834C181.67 217.006 181.635 217.201 181.627 217.42L181.293 217.379C181.293 216.977 181.334 216.604 181.416 216.26C181.498 215.916 181.617 215.615 181.773 215.357C181.93 215.1 182.125 214.9 182.359 214.76C182.598 214.615 182.871 214.543 183.18 214.543C183.266 214.543 183.357 214.551 183.455 214.566C183.557 214.578 183.637 214.596 183.695 214.619ZM186.086 215.961V221H184.539V214.66H185.998L186.086 215.961ZM185.857 217.602H185.383C185.383 217.16 185.436 216.754 185.541 216.383C185.65 216.012 185.811 215.689 186.021 215.416C186.232 215.139 186.492 214.924 186.801 214.771C187.113 214.619 187.475 214.543 187.885 214.543C188.17 214.543 188.432 214.586 188.67 214.672C188.908 214.754 189.113 214.885 189.285 215.064C189.461 215.24 189.596 215.471 189.689 215.756C189.783 216.037 189.83 216.375 189.83 216.77V221H188.283V216.928C188.283 216.631 188.24 216.398 188.154 216.23C188.072 216.062 187.953 215.945 187.797 215.879C187.641 215.809 187.453 215.773 187.234 215.773C186.992 215.773 186.783 215.822 186.607 215.92C186.436 216.014 186.293 216.145 186.18 216.312C186.07 216.48 185.988 216.674 185.934 216.893C185.883 217.111 185.857 217.348 185.857 217.602ZM189.713 217.314L189.074 217.432C189.078 217.033 189.133 216.66 189.238 216.312C189.344 215.961 189.498 215.654 189.701 215.393C189.908 215.127 190.164 214.92 190.469 214.771C190.777 214.619 191.133 214.543 191.535 214.543C191.848 214.543 192.129 214.588 192.379 214.678C192.633 214.764 192.85 214.902 193.029 215.094C193.209 215.281 193.346 215.525 193.439 215.826C193.537 216.127 193.586 216.494 193.586 216.928V221H192.027V216.922C192.027 216.613 191.984 216.377 191.898 216.213C191.816 216.049 191.697 215.936 191.541 215.873C191.385 215.807 191.201 215.773 190.99 215.773C190.775 215.773 190.588 215.814 190.428 215.896C190.271 215.975 190.139 216.084 190.029 216.225C189.924 216.365 189.844 216.529 189.789 216.717C189.738 216.9 189.713 217.1 189.713 217.314ZM199.48 216.014V221H197.934V214.66H199.387L199.48 216.014ZM199.234 217.602H198.777C198.781 217.141 198.844 216.723 198.965 216.348C199.086 215.973 199.256 215.65 199.475 215.381C199.697 215.111 199.961 214.904 200.266 214.76C200.57 214.615 200.91 214.543 201.285 214.543C201.59 214.543 201.865 214.586 202.111 214.672C202.357 214.758 202.568 214.895 202.744 215.082C202.924 215.27 203.061 215.516 203.154 215.82C203.252 216.121 203.301 216.492 203.301 216.934V221H201.742V216.922C201.742 216.633 201.699 216.404 201.613 216.236C201.531 216.068 201.41 215.949 201.25 215.879C201.094 215.809 200.9 215.773 200.67 215.773C200.432 215.773 200.223 215.822 200.043 215.92C199.867 216.014 199.719 216.145 199.598 216.312C199.48 216.48 199.391 216.674 199.328 216.893C199.266 217.111 199.234 217.348 199.234 217.602ZM207.514 221.117C207.033 221.117 206.602 221.039 206.219 220.883C205.836 220.727 205.51 220.51 205.24 220.232C204.975 219.951 204.77 219.625 204.625 219.254C204.484 218.879 204.414 218.477 204.414 218.047V217.812C204.414 217.324 204.484 216.881 204.625 216.482C204.766 216.08 204.965 215.734 205.223 215.445C205.48 215.156 205.789 214.934 206.148 214.777C206.508 214.621 206.904 214.543 207.338 214.543C207.787 214.543 208.184 214.619 208.527 214.771C208.871 214.92 209.158 215.131 209.389 215.404C209.619 215.678 209.793 216.006 209.91 216.389C210.027 216.768 210.086 217.188 210.086 217.648V218.299H205.117V217.232H208.562V217.115C208.555 216.869 208.508 216.645 208.422 216.441C208.336 216.234 208.203 216.07 208.023 215.949C207.844 215.824 207.611 215.762 207.326 215.762C207.096 215.762 206.895 215.812 206.723 215.914C206.555 216.012 206.414 216.152 206.301 216.336C206.191 216.516 206.109 216.73 206.055 216.98C206 217.23 205.973 217.508 205.973 217.812V218.047C205.973 218.312 206.008 218.559 206.078 218.785C206.152 219.012 206.26 219.209 206.4 219.377C206.545 219.541 206.717 219.67 206.916 219.764C207.119 219.854 207.35 219.898 207.607 219.898C207.932 219.898 208.225 219.836 208.486 219.711C208.752 219.582 208.982 219.393 209.178 219.143L209.957 219.951C209.824 220.146 209.645 220.334 209.418 220.514C209.195 220.693 208.926 220.84 208.609 220.953C208.293 221.062 207.928 221.117 207.514 221.117ZM212.887 219.477L214.275 214.66H215.26L214.967 216.324L213.566 221H212.717L212.887 219.477ZM212.119 214.66L213.162 219.488L213.256 221H212.277L210.613 214.66H212.119ZM216.549 219.418L217.568 214.66H219.068L217.416 221H216.438L216.549 219.418ZM215.412 214.66L216.789 219.43L216.971 221H216.121L214.709 216.324L214.422 214.66H215.412ZM224.518 215.879V223.438H222.965V214.66H224.4L224.518 215.879ZM228.59 217.766V217.889C228.59 218.35 228.535 218.777 228.426 219.172C228.32 219.562 228.164 219.904 227.957 220.197C227.75 220.486 227.492 220.713 227.184 220.877C226.879 221.037 226.527 221.117 226.129 221.117C225.738 221.117 225.398 221.043 225.109 220.895C224.82 220.742 224.576 220.527 224.377 220.25C224.178 219.973 224.018 219.65 223.896 219.283C223.779 218.912 223.691 218.508 223.633 218.07V217.678C223.691 217.213 223.779 216.791 223.896 216.412C224.018 216.029 224.178 215.699 224.377 215.422C224.576 215.141 224.818 214.924 225.104 214.771C225.393 214.619 225.73 214.543 226.117 214.543C226.52 214.543 226.873 214.619 227.178 214.771C227.486 214.924 227.746 215.143 227.957 215.428C228.168 215.713 228.326 216.053 228.432 216.447C228.537 216.842 228.59 217.281 228.59 217.766ZM227.037 217.889V217.766C227.037 217.484 227.012 217.225 226.961 216.986C226.91 216.744 226.832 216.533 226.727 216.354C226.621 216.17 226.484 216.027 226.316 215.926C226.148 215.824 225.945 215.773 225.707 215.773C225.469 215.773 225.264 215.812 225.092 215.891C224.92 215.969 224.779 216.08 224.67 216.225C224.561 216.369 224.475 216.541 224.412 216.74C224.354 216.936 224.314 217.152 224.295 217.391V218.363C224.33 218.652 224.398 218.912 224.5 219.143C224.602 219.373 224.75 219.557 224.945 219.693C225.145 219.83 225.402 219.898 225.719 219.898C225.957 219.898 226.16 219.846 226.328 219.74C226.496 219.635 226.633 219.49 226.738 219.307C226.844 219.119 226.92 218.904 226.967 218.662C227.014 218.42 227.037 218.162 227.037 217.889ZM233.213 219.652V216.729C233.213 216.514 233.176 216.328 233.102 216.172C233.027 216.016 232.914 215.895 232.762 215.809C232.609 215.723 232.416 215.68 232.182 215.68C231.975 215.68 231.793 215.715 231.637 215.785C231.484 215.855 231.367 215.955 231.285 216.084C231.203 216.209 231.162 216.354 231.162 216.518H229.609C229.609 216.256 229.672 216.008 229.797 215.773C229.922 215.535 230.1 215.324 230.33 215.141C230.564 214.953 230.844 214.807 231.168 214.701C231.496 214.596 231.863 214.543 232.27 214.543C232.75 214.543 233.178 214.625 233.553 214.789C233.932 214.949 234.229 215.191 234.443 215.516C234.662 215.84 234.771 216.248 234.771 216.74V219.506C234.771 219.822 234.791 220.094 234.83 220.32C234.873 220.543 234.936 220.736 235.018 220.9V221H233.441C233.367 220.84 233.311 220.637 233.271 220.391C233.232 220.141 233.213 219.895 233.213 219.652ZM233.43 217.139L233.441 218.059H232.463C232.221 218.059 232.008 218.084 231.824 218.135C231.641 218.182 231.49 218.252 231.373 218.346C231.256 218.436 231.168 218.545 231.109 218.674C231.051 218.799 231.021 218.941 231.021 219.102C231.021 219.258 231.057 219.398 231.127 219.523C231.201 219.648 231.307 219.748 231.443 219.822C231.584 219.893 231.748 219.928 231.936 219.928C232.209 219.928 232.447 219.873 232.65 219.764C232.854 219.65 233.012 219.514 233.125 219.354C233.238 219.193 233.299 219.041 233.307 218.896L233.752 219.564C233.697 219.725 233.615 219.895 233.506 220.074C233.396 220.254 233.256 220.422 233.084 220.578C232.912 220.734 232.705 220.863 232.463 220.965C232.221 221.066 231.939 221.117 231.619 221.117C231.209 221.117 230.842 221.035 230.518 220.871C230.193 220.707 229.938 220.482 229.75 220.197C229.562 219.912 229.469 219.588 229.469 219.225C229.469 218.889 229.531 218.592 229.656 218.334C229.781 218.076 229.967 217.859 230.213 217.684C230.459 217.504 230.764 217.369 231.127 217.279C231.494 217.186 231.914 217.139 232.387 217.139H233.43ZM239.652 219.266C239.652 219.133 239.617 219.014 239.547 218.908C239.477 218.803 239.344 218.707 239.148 218.621C238.957 218.531 238.676 218.447 238.305 218.369C237.977 218.299 237.674 218.211 237.396 218.105C237.119 218 236.881 217.873 236.682 217.725C236.482 217.572 236.326 217.395 236.213 217.191C236.104 216.984 236.049 216.746 236.049 216.477C236.049 216.215 236.105 215.969 236.219 215.738C236.332 215.504 236.496 215.299 236.711 215.123C236.926 214.943 237.188 214.803 237.496 214.701C237.805 214.596 238.152 214.543 238.539 214.543C239.078 214.543 239.541 214.631 239.928 214.807C240.318 214.982 240.617 215.225 240.824 215.533C241.031 215.838 241.135 216.182 241.135 216.564H239.588C239.588 216.396 239.549 216.244 239.471 216.107C239.396 215.971 239.281 215.861 239.125 215.779C238.969 215.693 238.771 215.65 238.533 215.65C238.318 215.65 238.137 215.686 237.988 215.756C237.844 215.826 237.734 215.918 237.66 216.031C237.586 216.145 237.549 216.27 237.549 216.406C237.549 216.508 237.568 216.6 237.607 216.682C237.65 216.76 237.719 216.832 237.812 216.898C237.906 216.965 238.033 217.025 238.193 217.08C238.357 217.135 238.559 217.188 238.797 217.238C239.27 217.332 239.682 217.457 240.033 217.613C240.389 217.766 240.666 217.969 240.865 218.223C241.064 218.477 241.164 218.801 241.164 219.195C241.164 219.477 241.104 219.734 240.982 219.969C240.861 220.199 240.686 220.4 240.455 220.572C240.225 220.744 239.949 220.879 239.629 220.977C239.309 221.07 238.947 221.117 238.545 221.117C237.963 221.117 237.471 221.014 237.068 220.807C236.666 220.596 236.361 220.33 236.154 220.01C235.947 219.686 235.844 219.35 235.844 219.002H237.326C237.338 219.248 237.404 219.445 237.525 219.594C237.646 219.742 237.799 219.85 237.982 219.916C238.17 219.979 238.367 220.01 238.574 220.01C238.809 220.01 239.006 219.979 239.166 219.916C239.326 219.85 239.447 219.762 239.529 219.652C239.611 219.539 239.652 219.41 239.652 219.266ZM245.828 219.266C245.828 219.133 245.793 219.014 245.723 218.908C245.652 218.803 245.52 218.707 245.324 218.621C245.133 218.531 244.852 218.447 244.48 218.369C244.152 218.299 243.85 218.211 243.572 218.105C243.295 218 243.057 217.873 242.857 217.725C242.658 217.572 242.502 217.395 242.389 217.191C242.279 216.984 242.225 216.746 242.225 216.477C242.225 216.215 242.281 215.969 242.395 215.738C242.508 215.504 242.672 215.299 242.887 215.123C243.102 214.943 243.363 214.803 243.672 214.701C243.98 214.596 244.328 214.543 244.715 214.543C245.254 214.543 245.717 214.631 246.104 214.807C246.494 214.982 246.793 215.225 247 215.533C247.207 215.838 247.311 216.182 247.311 216.564H245.764C245.764 216.396 245.725 216.244 245.646 216.107C245.572 215.971 245.457 215.861 245.301 215.779C245.145 215.693 244.947 215.65 244.709 215.65C244.494 215.65 244.312 215.686 244.164 215.756C244.02 215.826 243.91 215.918 243.836 216.031C243.762 216.145 243.725 216.27 243.725 216.406C243.725 216.508 243.744 216.6 243.783 216.682C243.826 216.76 243.895 216.832 243.988 216.898C244.082 216.965 244.209 217.025 244.369 217.08C244.533 217.135 244.734 217.188 244.973 217.238C245.445 217.332 245.857 217.457 246.209 217.613C246.564 217.766 246.842 217.969 247.041 218.223C247.24 218.477 247.34 218.801 247.34 219.195C247.34 219.477 247.279 219.734 247.158 219.969C247.037 220.199 246.861 220.4 246.631 220.572C246.4 220.744 246.125 220.879 245.805 220.977C245.484 221.07 245.123 221.117 244.721 221.117C244.139 221.117 243.646 221.014 243.244 220.807C242.842 220.596 242.537 220.33 242.33 220.01C242.123 219.686 242.02 219.35 242.02 219.002H243.502C243.514 219.248 243.58 219.445 243.701 219.594C243.822 219.742 243.975 219.85 244.158 219.916C244.346 219.979 244.543 220.01 244.75 220.01C244.984 220.01 245.182 219.979 245.342 219.916C245.502 219.85 245.623 219.762 245.705 219.652C245.787 219.539 245.828 219.41 245.828 219.266ZM250.281 219.477L251.67 214.66H252.654L252.361 216.324L250.961 221H250.111L250.281 219.477ZM249.514 214.66L250.557 219.488L250.65 221H249.672L248.008 214.66H249.514ZM253.943 219.418L254.963 214.66H256.463L254.811 221H253.832L253.943 219.418ZM252.807 214.66L254.184 219.43L254.365 221H253.516L252.104 216.324L251.816 214.66H252.807ZM257.102 217.895V217.771C257.102 217.307 257.168 216.879 257.301 216.488C257.434 216.094 257.627 215.752 257.881 215.463C258.135 215.174 258.445 214.949 258.812 214.789C259.18 214.625 259.598 214.543 260.066 214.543C260.543 214.543 260.965 214.625 261.332 214.789C261.703 214.949 262.016 215.174 262.27 215.463C262.523 215.752 262.717 216.094 262.85 216.488C262.982 216.879 263.049 217.307 263.049 217.771V217.895C263.049 218.355 262.982 218.783 262.85 219.178C262.717 219.568 262.523 219.91 262.27 220.203C262.016 220.492 261.705 220.717 261.338 220.877C260.971 221.037 260.551 221.117 260.078 221.117C259.609 221.117 259.189 221.037 258.818 220.877C258.447 220.717 258.135 220.492 257.881 220.203C257.627 219.91 257.434 219.568 257.301 219.178C257.168 218.783 257.102 218.355 257.102 217.895ZM258.648 217.771V217.895C258.648 218.172 258.676 218.432 258.73 218.674C258.785 218.916 258.869 219.129 258.982 219.312C259.096 219.496 259.242 219.641 259.422 219.746C259.605 219.848 259.824 219.898 260.078 219.898C260.328 219.898 260.543 219.848 260.723 219.746C260.902 219.641 261.049 219.496 261.162 219.312C261.279 219.129 261.365 218.916 261.42 218.674C261.475 218.432 261.502 218.172 261.502 217.895V217.771C261.502 217.498 261.475 217.242 261.42 217.004C261.365 216.762 261.279 216.549 261.162 216.365C261.049 216.178 260.9 216.031 260.717 215.926C260.537 215.816 260.32 215.762 260.066 215.762C259.816 215.762 259.602 215.816 259.422 215.926C259.242 216.031 259.096 216.178 258.982 216.365C258.869 216.549 258.785 216.762 258.73 217.004C258.676 217.242 258.648 217.498 258.648 217.771ZM265.721 215.955V221H264.174V214.66H265.639L265.721 215.955ZM267.648 214.619L267.625 216.061C267.539 216.045 267.441 216.033 267.332 216.025C267.227 216.018 267.127 216.014 267.033 216.014C266.795 216.014 266.586 216.047 266.406 216.113C266.227 216.176 266.076 216.268 265.955 216.389C265.838 216.51 265.748 216.658 265.686 216.834C265.623 217.006 265.588 217.201 265.58 217.42L265.246 217.379C265.246 216.977 265.287 216.604 265.369 216.26C265.451 215.916 265.57 215.615 265.727 215.357C265.883 215.1 266.078 214.9 266.312 214.76C266.551 214.615 266.824 214.543 267.133 214.543C267.219 214.543 267.311 214.551 267.408 214.566C267.51 214.578 267.59 214.596 267.648 214.619ZM272.184 219.652V212H273.742V221H272.336L272.184 219.652ZM268.111 217.906V217.783C268.111 217.299 268.166 216.859 268.275 216.465C268.389 216.066 268.553 215.725 268.768 215.439C268.982 215.154 269.242 214.934 269.547 214.777C269.855 214.621 270.205 214.543 270.596 214.543C270.975 214.543 271.305 214.619 271.586 214.771C271.871 214.924 272.113 215.141 272.312 215.422C272.516 215.703 272.678 216.037 272.799 216.424C272.92 216.807 273.008 217.229 273.062 217.689V218.023C273.008 218.473 272.92 218.885 272.799 219.26C272.678 219.635 272.516 219.963 272.312 220.244C272.113 220.521 271.871 220.736 271.586 220.889C271.301 221.041 270.967 221.117 270.584 221.117C270.197 221.117 269.85 221.037 269.541 220.877C269.236 220.717 268.977 220.492 268.762 220.203C268.551 219.914 268.389 219.574 268.275 219.184C268.166 218.793 268.111 218.367 268.111 217.906ZM269.664 217.783V217.906C269.664 218.18 269.688 218.436 269.734 218.674C269.781 218.912 269.857 219.123 269.963 219.307C270.068 219.486 270.203 219.627 270.367 219.729C270.535 219.83 270.738 219.881 270.977 219.881C271.281 219.881 271.531 219.814 271.727 219.682C271.926 219.545 272.08 219.359 272.189 219.125C272.299 218.887 272.369 218.619 272.4 218.322V217.402C272.385 217.168 272.344 216.951 272.277 216.752C272.215 216.553 272.125 216.381 272.008 216.236C271.895 216.092 271.754 215.979 271.586 215.896C271.418 215.814 271.219 215.773 270.988 215.773C270.75 215.773 270.547 215.826 270.379 215.932C270.211 216.033 270.074 216.176 269.969 216.359C269.863 216.543 269.785 216.756 269.734 216.998C269.688 217.24 269.664 217.502 269.664 217.783ZM275.178 220.244C275.178 220.01 275.258 219.812 275.418 219.652C275.578 219.492 275.795 219.412 276.068 219.412C276.342 219.412 276.559 219.492 276.719 219.652C276.879 219.812 276.959 220.01 276.959 220.244C276.959 220.475 276.879 220.67 276.719 220.83C276.559 220.986 276.342 221.064 276.068 221.064C275.795 221.064 275.578 220.986 275.418 220.83C275.258 220.67 275.178 220.475 275.178 220.244ZM275.184 215.328C275.184 215.094 275.264 214.896 275.424 214.736C275.584 214.576 275.801 214.496 276.074 214.496C276.348 214.496 276.564 214.576 276.725 214.736C276.885 214.896 276.965 215.094 276.965 215.328C276.965 215.559 276.885 215.754 276.725 215.914C276.564 216.07 276.348 216.148 276.074 216.148C275.801 216.148 275.584 216.07 275.424 215.914C275.264 215.754 275.184 215.559 275.184 215.328Z" fill="white"/>
<rect x="282" y="204" width="120" height="26" rx="2" fill="#DDDDDD"/>
<path d="M285.756 216.852L286.934 215.234L285.164 214.707L285.439 213.828L287.209 214.479L287.156 212.463H288.047L287.988 214.514L289.734 213.863L290.004 214.76L288.205 215.293L289.359 216.881L288.633 217.426L287.549 215.738L286.488 217.385L285.756 216.852ZM290.924 216.852L292.102 215.234L290.332 214.707L290.607 213.828L292.377 214.479L292.324 212.463H293.215L293.156 214.514L294.902 213.863L295.172 214.76L293.373 215.293L294.527 216.881L293.801 217.426L292.717 215.738L291.656 217.385L290.924 216.852ZM296.092 216.852L297.27 215.234L295.5 214.707L295.775 213.828L297.545 214.479L297.492 212.463H298.383L298.324 214.514L300.07 213.863L300.34 214.76L298.541 215.293L299.695 216.881L298.969 217.426L297.885 215.738L296.824 217.385L296.092 216.852ZM301.26 216.852L302.438 215.234L300.668 214.707L300.943 213.828L302.713 214.479L302.66 212.463H303.551L303.492 214.514L305.238 213.863L305.508 214.76L303.709 215.293L304.863 216.881L304.137 217.426L303.053 215.738L301.992 217.385L301.26 216.852ZM306.428 216.852L307.605 215.234L305.836 214.707L306.111 213.828L307.881 214.479L307.828 212.463H308.719L308.66 214.514L310.406 213.863L310.676 214.76L308.877 215.293L310.031 216.881L309.305 217.426L308.221 215.738L307.16 217.385L306.428 216.852ZM311.596 216.852L312.773 215.234L311.004 214.707L311.279 213.828L313.049 214.479L312.996 212.463H313.887L313.828 214.514L315.574 213.863L315.844 214.76L314.045 215.293L315.199 216.881L314.473 217.426L313.389 215.738L312.328 217.385L311.596 216.852ZM316.764 216.852L317.941 215.234L316.172 214.707L316.447 213.828L318.217 214.479L318.164 212.463H319.055L318.996 214.514L320.742 213.863L321.012 214.76L319.213 215.293L320.367 216.881L319.641 217.426L318.557 215.738L317.496 217.385L316.764 216.852ZM321.932 216.852L323.109 215.234L321.34 214.707L321.615 213.828L323.385 214.479L323.332 212.463H324.223L324.164 214.514L325.91 213.863L326.18 214.76L324.381 215.293L325.535 216.881L324.809 217.426L323.725 215.738L322.664 217.385L321.932 216.852ZM327.1 216.852L328.277 215.234L326.508 214.707L326.783 213.828L328.553 214.479L328.5 212.463H329.391L329.332 214.514L331.078 213.863L331.348 214.76L329.549 215.293L330.703 216.881L329.977 217.426L328.893 215.738L327.832 217.385L327.1 216.852Z" fill="#484F51"/>
<circle cx="340" cy="43" r="43" fill="#6E9777"/>
<rect y="43" width="120" height="26" fill="#484F51" fill-opacity="0.2"/>
</svg>
