<svg width="540" height="212" viewBox="0 0 540 212" fill="none" xmlns="http://www.w3.org/2000/svg">
<rect x="140" y="112" width="400" height="100" rx="4" fill="#484F51"/>
<path d="M177.561 138.469H179.172V144.135C179.172 144.787 179.031 145.336 178.75 145.781C178.469 146.223 178.086 146.557 177.602 146.783C177.117 147.006 176.566 147.117 175.949 147.117C175.324 147.117 174.768 147.006 174.279 146.783C173.791 146.557 173.408 146.223 173.131 145.781C172.854 145.336 172.715 144.787 172.715 144.135V138.469H174.326V144.135C174.326 144.533 174.393 144.859 174.525 145.113C174.658 145.363 174.846 145.549 175.088 145.67C175.33 145.791 175.617 145.852 175.949 145.852C176.285 145.852 176.572 145.791 176.811 145.67C177.053 145.549 177.238 145.363 177.367 145.113C177.496 144.859 177.561 144.533 177.561 144.135V138.469ZM184.07 145.266C184.07 145.133 184.035 145.014 183.965 144.908C183.895 144.803 183.762 144.707 183.566 144.621C183.375 144.531 183.094 144.447 182.723 144.369C182.395 144.299 182.092 144.211 181.814 144.105C181.537 144 181.299 143.873 181.1 143.725C180.9 143.572 180.744 143.395 180.631 143.191C180.521 142.984 180.467 142.746 180.467 142.477C180.467 142.215 180.523 141.969 180.637 141.738C180.75 141.504 180.914 141.299 181.129 141.123C181.344 140.943 181.605 140.803 181.914 140.701C182.223 140.596 182.57 140.543 182.957 140.543C183.496 140.543 183.959 140.631 184.346 140.807C184.736 140.982 185.035 141.225 185.242 141.533C185.449 141.838 185.553 142.182 185.553 142.564H184.006C184.006 142.396 183.967 142.244 183.889 142.107C183.814 141.971 183.699 141.861 183.543 141.779C183.387 141.693 183.189 141.65 182.951 141.65C182.736 141.65 182.555 141.686 182.406 141.756C182.262 141.826 182.152 141.918 182.078 142.031C182.004 142.145 181.967 142.27 181.967 142.406C181.967 142.508 181.986 142.6 182.025 142.682C182.068 142.76 182.137 142.832 182.23 142.898C182.324 142.965 182.451 143.025 182.611 143.08C182.775 143.135 182.977 143.188 183.215 143.238C183.688 143.332 184.1 143.457 184.451 143.613C184.807 143.766 185.084 143.969 185.283 144.223C185.482 144.477 185.582 144.801 185.582 145.195C185.582 145.477 185.521 145.734 185.4 145.969C185.279 146.199 185.104 146.4 184.873 146.572C184.643 146.744 184.367 146.879 184.047 146.977C183.727 147.07 183.365 147.117 182.963 147.117C182.381 147.117 181.889 147.014 181.486 146.807C181.084 146.596 180.779 146.33 180.572 146.01C180.365 145.686 180.262 145.35 180.262 145.002H181.744C181.756 145.248 181.822 145.445 181.943 145.594C182.064 145.742 182.217 145.85 182.4 145.916C182.588 145.979 182.785 146.01 182.992 146.01C183.227 146.01 183.424 145.979 183.584 145.916C183.744 145.85 183.865 145.762 183.947 145.652C184.029 145.539 184.07 145.41 184.07 145.266ZM189.607 147.117C189.127 147.117 188.695 147.039 188.312 146.883C187.93 146.727 187.604 146.51 187.334 146.232C187.068 145.951 186.863 145.625 186.719 145.254C186.578 144.879 186.508 144.477 186.508 144.047V143.812C186.508 143.324 186.578 142.881 186.719 142.482C186.859 142.08 187.059 141.734 187.316 141.445C187.574 141.156 187.883 140.934 188.242 140.777C188.602 140.621 188.998 140.543 189.432 140.543C189.881 140.543 190.277 140.619 190.621 140.771C190.965 140.92 191.252 141.131 191.482 141.404C191.713 141.678 191.887 142.006 192.004 142.389C192.121 142.768 192.18 143.188 192.18 143.648V144.299H187.211V143.232H190.656V143.115C190.648 142.869 190.602 142.645 190.516 142.441C190.43 142.234 190.297 142.07 190.117 141.949C189.938 141.824 189.705 141.762 189.42 141.762C189.189 141.762 188.988 141.812 188.816 141.914C188.648 142.012 188.508 142.152 188.395 142.336C188.285 142.516 188.203 142.73 188.148 142.98C188.094 143.23 188.066 143.508 188.066 143.812V144.047C188.066 144.312 188.102 144.559 188.172 144.785C188.246 145.012 188.354 145.209 188.494 145.377C188.639 145.541 188.811 145.67 189.01 145.764C189.213 145.854 189.443 145.898 189.701 145.898C190.025 145.898 190.318 145.836 190.58 145.711C190.846 145.582 191.076 145.393 191.271 145.143L192.051 145.951C191.918 146.146 191.738 146.334 191.512 146.514C191.289 146.693 191.02 146.84 190.703 146.953C190.387 147.062 190.021 147.117 189.607 147.117ZM194.764 141.955V147H193.217V140.66H194.682L194.764 141.955ZM196.691 140.619L196.668 142.061C196.582 142.045 196.484 142.033 196.375 142.025C196.27 142.018 196.17 142.014 196.076 142.014C195.838 142.014 195.629 142.047 195.449 142.113C195.27 142.176 195.119 142.268 194.998 142.389C194.881 142.51 194.791 142.658 194.729 142.834C194.666 143.006 194.631 143.201 194.623 143.42L194.289 143.379C194.289 142.977 194.33 142.604 194.412 142.26C194.494 141.916 194.613 141.615 194.77 141.357C194.926 141.1 195.121 140.9 195.355 140.76C195.594 140.615 195.867 140.543 196.176 140.543C196.262 140.543 196.354 140.551 196.451 140.566C196.553 140.578 196.633 140.596 196.691 140.619ZM199.059 142.014V147H197.512V140.66H198.965L199.059 142.014ZM198.812 143.602H198.355C198.359 143.141 198.422 142.723 198.543 142.348C198.664 141.973 198.834 141.65 199.053 141.381C199.275 141.111 199.539 140.904 199.844 140.76C200.148 140.615 200.488 140.543 200.863 140.543C201.168 140.543 201.443 140.586 201.689 140.672C201.936 140.758 202.146 140.895 202.322 141.082C202.502 141.27 202.639 141.516 202.732 141.82C202.83 142.121 202.879 142.492 202.879 142.934V147H201.32V142.922C201.32 142.633 201.277 142.404 201.191 142.236C201.109 142.068 200.988 141.949 200.828 141.879C200.672 141.809 200.479 141.773 200.248 141.773C200.01 141.773 199.801 141.822 199.621 141.92C199.445 142.014 199.297 142.145 199.176 142.312C199.059 142.48 198.969 142.674 198.906 142.893C198.844 143.111 198.812 143.348 198.812 143.602ZM207.736 145.652V142.729C207.736 142.514 207.699 142.328 207.625 142.172C207.551 142.016 207.438 141.895 207.285 141.809C207.133 141.723 206.939 141.68 206.705 141.68C206.498 141.68 206.316 141.715 206.16 141.785C206.008 141.855 205.891 141.955 205.809 142.084C205.727 142.209 205.686 142.354 205.686 142.518H204.133C204.133 142.256 204.195 142.008 204.32 141.773C204.445 141.535 204.623 141.324 204.854 141.141C205.088 140.953 205.367 140.807 205.691 140.701C206.02 140.596 206.387 140.543 206.793 140.543C207.273 140.543 207.701 140.625 208.076 140.789C208.455 140.949 208.752 141.191 208.967 141.516C209.186 141.84 209.295 142.248 209.295 142.74V145.506C209.295 145.822 209.314 146.094 209.354 146.32C209.396 146.543 209.459 146.736 209.541 146.9V147H207.965C207.891 146.84 207.834 146.637 207.795 146.391C207.756 146.141 207.736 145.895 207.736 145.652ZM207.953 143.139L207.965 144.059H206.986C206.744 144.059 206.531 144.084 206.348 144.135C206.164 144.182 206.014 144.252 205.896 144.346C205.779 144.436 205.691 144.545 205.633 144.674C205.574 144.799 205.545 144.941 205.545 145.102C205.545 145.258 205.58 145.398 205.65 145.523C205.725 145.648 205.83 145.748 205.967 145.822C206.107 145.893 206.271 145.928 206.459 145.928C206.732 145.928 206.971 145.873 207.174 145.764C207.377 145.65 207.535 145.514 207.648 145.354C207.762 145.193 207.822 145.041 207.83 144.896L208.275 145.564C208.221 145.725 208.139 145.895 208.029 146.074C207.92 146.254 207.779 146.422 207.607 146.578C207.436 146.734 207.229 146.863 206.986 146.965C206.744 147.066 206.463 147.117 206.143 147.117C205.732 147.117 205.365 147.035 205.041 146.871C204.717 146.707 204.461 146.482 204.273 146.197C204.086 145.912 203.992 145.588 203.992 145.225C203.992 144.889 204.055 144.592 204.18 144.334C204.305 144.076 204.49 143.859 204.736 143.684C204.982 143.504 205.287 143.369 205.65 143.279C206.018 143.186 206.438 143.139 206.91 143.139H207.953ZM212.23 141.961V147H210.684V140.66H212.143L212.23 141.961ZM212.002 143.602H211.527C211.527 143.16 211.58 142.754 211.686 142.383C211.795 142.012 211.955 141.689 212.166 141.416C212.377 141.139 212.637 140.924 212.945 140.771C213.258 140.619 213.619 140.543 214.029 140.543C214.314 140.543 214.576 140.586 214.814 140.672C215.053 140.754 215.258 140.885 215.43 141.064C215.605 141.24 215.74 141.471 215.834 141.756C215.928 142.037 215.975 142.375 215.975 142.77V147H214.428V142.928C214.428 142.631 214.385 142.398 214.299 142.23C214.217 142.062 214.098 141.945 213.941 141.879C213.785 141.809 213.598 141.773 213.379 141.773C213.137 141.773 212.928 141.822 212.752 141.92C212.58 142.014 212.438 142.145 212.324 142.312C212.215 142.48 212.133 142.674 212.078 142.893C212.027 143.111 212.002 143.348 212.002 143.602ZM215.857 143.314L215.219 143.432C215.223 143.033 215.277 142.66 215.383 142.312C215.488 141.961 215.643 141.654 215.846 141.393C216.053 141.127 216.309 140.92 216.613 140.771C216.922 140.619 217.277 140.543 217.68 140.543C217.992 140.543 218.273 140.588 218.523 140.678C218.777 140.764 218.994 140.902 219.174 141.094C219.354 141.281 219.49 141.525 219.584 141.826C219.682 142.127 219.73 142.494 219.73 142.928V147H218.172V142.922C218.172 142.613 218.129 142.377 218.043 142.213C217.961 142.049 217.842 141.936 217.686 141.873C217.529 141.807 217.346 141.773 217.135 141.773C216.92 141.773 216.732 141.814 216.572 141.896C216.416 141.975 216.283 142.084 216.174 142.225C216.068 142.365 215.988 142.529 215.934 142.717C215.883 142.9 215.857 143.1 215.857 143.314ZM223.967 147.117C223.486 147.117 223.055 147.039 222.672 146.883C222.289 146.727 221.963 146.51 221.693 146.232C221.428 145.951 221.223 145.625 221.078 145.254C220.938 144.879 220.867 144.477 220.867 144.047V143.812C220.867 143.324 220.938 142.881 221.078 142.482C221.219 142.08 221.418 141.734 221.676 141.445C221.934 141.156 222.242 140.934 222.602 140.777C222.961 140.621 223.357 140.543 223.791 140.543C224.24 140.543 224.637 140.619 224.98 140.771C225.324 140.92 225.611 141.131 225.842 141.404C226.072 141.678 226.246 142.006 226.363 142.389C226.48 142.768 226.539 143.188 226.539 143.648V144.299H221.57V143.232H225.016V143.115C225.008 142.869 224.961 142.645 224.875 142.441C224.789 142.234 224.656 142.07 224.477 141.949C224.297 141.824 224.064 141.762 223.779 141.762C223.549 141.762 223.348 141.812 223.176 141.914C223.008 142.012 222.867 142.152 222.754 142.336C222.645 142.516 222.562 142.73 222.508 142.98C222.453 143.23 222.426 143.508 222.426 143.812V144.047C222.426 144.312 222.461 144.559 222.531 144.785C222.605 145.012 222.713 145.209 222.854 145.377C222.998 145.541 223.17 145.67 223.369 145.764C223.572 145.854 223.803 145.898 224.061 145.898C224.385 145.898 224.678 145.836 224.939 145.711C225.205 145.582 225.436 145.393 225.631 145.143L226.41 145.951C226.277 146.146 226.098 146.334 225.871 146.514C225.648 146.693 225.379 146.84 225.062 146.953C224.746 147.062 224.381 147.117 223.967 147.117ZM227.611 146.244C227.611 146.01 227.691 145.812 227.852 145.652C228.012 145.492 228.229 145.412 228.502 145.412C228.775 145.412 228.992 145.492 229.152 145.652C229.312 145.812 229.393 146.01 229.393 146.244C229.393 146.475 229.312 146.67 229.152 146.83C228.992 146.986 228.775 147.064 228.502 147.064C228.229 147.064 228.012 146.986 227.852 146.83C227.691 146.67 227.611 146.475 227.611 146.244ZM227.617 141.328C227.617 141.094 227.697 140.896 227.857 140.736C228.018 140.576 228.234 140.496 228.508 140.496C228.781 140.496 228.998 140.576 229.158 140.736C229.318 140.896 229.398 141.094 229.398 141.328C229.398 141.559 229.318 141.754 229.158 141.914C228.998 142.07 228.781 142.148 228.508 142.148C228.234 142.148 228.018 142.07 227.857 141.914C227.697 141.754 227.617 141.559 227.617 141.328Z" fill="white"/>
<path d="M365.664 146V140.312H369.457V140.98H366.465V142.73H369.086V143.402H366.465V145.332H369.5V146H365.664ZM370.012 143.934V143.809C370.012 143.189 370.18 142.677 370.516 142.273C370.854 141.87 371.305 141.668 371.867 141.668C372.182 141.668 372.451 141.721 372.672 141.828C372.896 141.932 373.074 142.073 373.207 142.25V140H373.98V146H373.277L373.242 145.445H373.223C373.108 145.62 372.932 145.77 372.695 145.895C372.458 146.017 372.182 146.078 371.867 146.078C371.305 146.078 370.854 145.876 370.516 145.473C370.18 145.066 370.012 144.553 370.012 143.934ZM370.805 143.934C370.805 144.355 370.904 144.711 371.102 145C371.302 145.286 371.616 145.43 372.043 145.43C372.329 145.43 372.573 145.357 372.773 145.211C372.974 145.062 373.118 144.895 373.207 144.707V143.039C373.118 142.852 372.974 142.685 372.773 142.539C372.573 142.391 372.329 142.316 372.043 142.316C371.616 142.316 371.302 142.461 371.102 142.75C370.904 143.036 370.805 143.389 370.805 143.809V143.934ZM375.176 146V141.746H375.949V146H375.176ZM375.102 140.535C375.102 140.41 375.141 140.305 375.219 140.219C375.299 140.133 375.414 140.09 375.562 140.09C375.711 140.09 375.824 140.133 375.902 140.219C375.983 140.305 376.023 140.41 376.023 140.535C376.023 140.663 375.983 140.77 375.902 140.855C375.824 140.941 375.711 140.984 375.562 140.984C375.414 140.984 375.299 140.941 375.219 140.855C375.141 140.77 375.102 140.663 375.102 140.535ZM376.562 142.355V141.746H379.09V142.355H376.562ZM377.355 144.938V142.109V141.992V140.875H378.129V144.938C378.129 145.12 378.168 145.25 378.246 145.328C378.324 145.406 378.447 145.445 378.613 145.445C378.691 145.445 378.767 145.438 378.84 145.422C378.915 145.406 378.992 145.385 379.07 145.359V146C378.997 146.031 378.904 146.059 378.789 146.082C378.674 146.105 378.549 146.117 378.414 146.117C378.091 146.117 377.833 146.022 377.641 145.832C377.451 145.642 377.355 145.344 377.355 144.938Z" fill="#6E9777"/>
<path d="M397.352 144.422V144.375H398.152V144.422C398.152 144.755 398.275 145.007 398.52 145.176C398.767 145.342 399.112 145.426 399.555 145.426C399.997 145.426 400.336 145.341 400.57 145.172C400.807 145 400.926 144.776 400.926 144.5C400.926 144.25 400.819 144.049 400.605 143.898C400.392 143.747 399.951 143.589 399.281 143.422C398.612 143.253 398.143 143.048 397.875 142.809C397.607 142.566 397.473 142.22 397.473 141.77C397.473 141.319 397.652 140.944 398.012 140.645C398.374 140.345 398.875 140.195 399.516 140.195C400.154 140.195 400.66 140.358 401.035 140.684C401.413 141.007 401.602 141.401 401.602 141.867V141.914H400.805V141.867C400.805 141.573 400.697 141.336 400.48 141.156C400.264 140.977 399.941 140.887 399.512 140.887C399.087 140.887 398.773 140.964 398.57 141.117C398.367 141.268 398.266 141.461 398.266 141.695C398.266 141.951 398.367 142.151 398.57 142.297C398.776 142.44 399.172 142.585 399.758 142.73C400.432 142.9 400.927 143.116 401.242 143.379C401.56 143.642 401.719 144.012 401.719 144.488C401.719 144.965 401.523 145.355 401.133 145.66C400.745 145.965 400.219 146.117 399.555 146.117C398.891 146.117 398.357 145.966 397.953 145.664C397.552 145.359 397.352 144.945 397.352 144.422ZM402.383 144.75C402.383 144.318 402.562 143.982 402.922 143.742C403.281 143.5 403.737 143.379 404.289 143.379H405.316V143.043C405.316 142.809 405.245 142.618 405.102 142.473C404.961 142.324 404.717 142.25 404.371 142.25C404.027 142.25 403.781 142.316 403.633 142.449C403.484 142.579 403.41 142.732 403.41 142.906V142.926H402.637V142.906C402.637 142.565 402.794 142.267 403.109 142.012C403.427 141.757 403.855 141.629 404.395 141.629C404.931 141.629 405.348 141.747 405.645 141.984C405.941 142.221 406.09 142.574 406.09 143.043V145.062C406.09 145.232 406.103 145.392 406.129 145.543C406.158 145.691 406.197 145.823 406.246 145.938V146H405.496C405.457 145.932 405.422 145.844 405.391 145.734C405.359 145.625 405.34 145.517 405.332 145.41C405.225 145.585 405.053 145.74 404.816 145.875C404.579 146.01 404.273 146.078 403.898 146.078C403.479 146.078 403.121 145.965 402.824 145.738C402.53 145.509 402.383 145.18 402.383 144.75ZM403.156 144.711C403.156 144.945 403.23 145.129 403.379 145.262C403.53 145.392 403.763 145.457 404.078 145.457C404.393 145.457 404.678 145.358 404.934 145.16C405.189 144.96 405.316 144.749 405.316 144.527V143.938H404.371C403.973 143.938 403.671 144.008 403.465 144.148C403.259 144.286 403.156 144.474 403.156 144.711ZM406.594 141.746H407.367L408.41 144.547C408.449 144.654 408.483 144.753 408.512 144.844C408.54 144.932 408.564 145.029 408.582 145.133H408.605C408.624 145.029 408.647 144.932 408.676 144.844C408.707 144.753 408.742 144.654 408.781 144.547L409.816 141.746H410.555L408.891 146H408.258L406.594 141.746ZM410.824 143.934V143.809C410.824 143.168 411.008 142.645 411.375 142.238C411.745 141.832 412.232 141.629 412.836 141.629C413.445 141.629 413.913 141.819 414.238 142.199C414.566 142.579 414.73 143.092 414.73 143.738V144.066H411.305V143.445H413.945V143.457C413.945 143.116 413.861 142.833 413.691 142.609C413.525 142.383 413.24 142.27 412.836 142.27C412.438 142.27 412.133 142.418 411.922 142.715C411.714 143.012 411.609 143.376 411.609 143.809V143.934C411.609 144.366 411.719 144.732 411.938 145.031C412.159 145.328 412.5 145.477 412.961 145.477C413.245 145.477 413.488 145.419 413.691 145.305C413.897 145.19 414.062 145.053 414.188 144.895L414.688 145.316C414.549 145.514 414.332 145.698 414.035 145.867C413.741 146.034 413.383 146.117 412.961 146.117C412.271 146.117 411.742 145.914 411.375 145.508C411.008 145.102 410.824 144.577 410.824 143.934Z" fill="#7A867D"/>
<path d="M397.352 183.422V183.375H398.152V183.422C398.152 183.755 398.275 184.007 398.52 184.176C398.767 184.342 399.112 184.426 399.555 184.426C399.997 184.426 400.336 184.341 400.57 184.172C400.807 184 400.926 183.776 400.926 183.5C400.926 183.25 400.819 183.049 400.605 182.898C400.392 182.747 399.951 182.589 399.281 182.422C398.612 182.253 398.143 182.048 397.875 181.809C397.607 181.566 397.473 181.22 397.473 180.77C397.473 180.319 397.652 179.944 398.012 179.645C398.374 179.345 398.875 179.195 399.516 179.195C400.154 179.195 400.66 179.358 401.035 179.684C401.413 180.007 401.602 180.401 401.602 180.867V180.914H400.805V180.867C400.805 180.573 400.697 180.336 400.48 180.156C400.264 179.977 399.941 179.887 399.512 179.887C399.087 179.887 398.773 179.964 398.57 180.117C398.367 180.268 398.266 180.461 398.266 180.695C398.266 180.951 398.367 181.151 398.57 181.297C398.776 181.44 399.172 181.585 399.758 181.73C400.432 181.9 400.927 182.116 401.242 182.379C401.56 182.642 401.719 183.012 401.719 183.488C401.719 183.965 401.523 184.355 401.133 184.66C400.745 184.965 400.219 185.117 399.555 185.117C398.891 185.117 398.357 184.966 397.953 184.664C397.552 184.359 397.352 183.945 397.352 183.422ZM402.383 183.75C402.383 183.318 402.562 182.982 402.922 182.742C403.281 182.5 403.737 182.379 404.289 182.379H405.316V182.043C405.316 181.809 405.245 181.618 405.102 181.473C404.961 181.324 404.717 181.25 404.371 181.25C404.027 181.25 403.781 181.316 403.633 181.449C403.484 181.579 403.41 181.732 403.41 181.906V181.926H402.637V181.906C402.637 181.565 402.794 181.267 403.109 181.012C403.427 180.757 403.855 180.629 404.395 180.629C404.931 180.629 405.348 180.747 405.645 180.984C405.941 181.221 406.09 181.574 406.09 182.043V184.062C406.09 184.232 406.103 184.392 406.129 184.543C406.158 184.691 406.197 184.823 406.246 184.938V185H405.496C405.457 184.932 405.422 184.844 405.391 184.734C405.359 184.625 405.34 184.517 405.332 184.41C405.225 184.585 405.053 184.74 404.816 184.875C404.579 185.01 404.273 185.078 403.898 185.078C403.479 185.078 403.121 184.965 402.824 184.738C402.53 184.509 402.383 184.18 402.383 183.75ZM403.156 183.711C403.156 183.945 403.23 184.129 403.379 184.262C403.53 184.392 403.763 184.457 404.078 184.457C404.393 184.457 404.678 184.358 404.934 184.16C405.189 183.96 405.316 183.749 405.316 183.527V182.938H404.371C403.973 182.938 403.671 183.008 403.465 183.148C403.259 183.286 403.156 183.474 403.156 183.711ZM406.594 180.746H407.367L408.41 183.547C408.449 183.654 408.483 183.753 408.512 183.844C408.54 183.932 408.564 184.029 408.582 184.133H408.605C408.624 184.029 408.647 183.932 408.676 183.844C408.707 183.753 408.742 183.654 408.781 183.547L409.816 180.746H410.555L408.891 185H408.258L406.594 180.746ZM410.824 182.934V182.809C410.824 182.168 411.008 181.645 411.375 181.238C411.745 180.832 412.232 180.629 412.836 180.629C413.445 180.629 413.913 180.819 414.238 181.199C414.566 181.579 414.73 182.092 414.73 182.738V183.066H411.305V182.445H413.945V182.457C413.945 182.116 413.861 181.833 413.691 181.609C413.525 181.383 413.24 181.27 412.836 181.27C412.438 181.27 412.133 181.418 411.922 181.715C411.714 182.012 411.609 182.376 411.609 182.809V182.934C411.609 183.366 411.719 183.732 411.938 184.031C412.159 184.328 412.5 184.477 412.961 184.477C413.245 184.477 413.488 184.419 413.691 184.305C413.897 184.19 414.062 184.053 414.188 183.895L414.688 184.316C414.549 184.514 414.332 184.698 414.035 184.867C413.741 185.034 413.383 185.117 412.961 185.117C412.271 185.117 411.742 184.914 411.375 184.508C411.008 184.102 410.824 183.577 410.824 182.934Z" fill="#7A867D"/>
<path d="M313.234 95.3164V94.9961C313.234 94.1159 313.473 93.4297 313.949 92.9375C314.426 92.4427 315.023 92.1953 315.742 92.1953C316.464 92.1953 317.014 92.3841 317.395 92.7617C317.777 93.1367 317.995 93.5885 318.047 94.1172L318.051 94.1562H317.25L317.246 94.1172C317.215 93.8125 317.081 93.5326 316.844 93.2773C316.607 93.0195 316.24 92.8906 315.742 92.8906C315.247 92.8906 314.84 93.0781 314.52 93.4531C314.202 93.8255 314.043 94.3398 314.043 94.9961V95.3164C314.043 95.9727 314.202 96.4883 314.52 96.8633C314.84 97.2357 315.247 97.4219 315.742 97.4219C316.24 97.4219 316.607 97.2943 316.844 97.0391C317.081 96.7812 317.215 96.5 317.246 96.1953L317.25 96.1562H318.051L318.047 96.1953C317.995 96.724 317.777 97.1771 317.395 97.5547C317.014 97.9297 316.464 98.1172 315.742 98.1172C315.023 98.1172 314.426 97.8711 313.949 97.3789C313.473 96.8841 313.234 96.1966 313.234 95.3164ZM318.973 98V92H319.746V94.2969C319.91 94.099 320.107 93.9453 320.336 93.8359C320.568 93.724 320.827 93.668 321.113 93.668C321.564 93.668 321.922 93.7943 322.188 94.0469C322.456 94.2995 322.59 94.724 322.59 95.3203V98H321.812V95.3125C321.812 94.9609 321.73 94.7096 321.566 94.5586C321.405 94.4076 321.174 94.332 320.875 94.332C320.62 94.332 320.396 94.3984 320.203 94.5312C320.01 94.6615 319.858 94.8307 319.746 95.0391V98H318.973ZM323.48 96.75C323.48 96.3177 323.66 95.9818 324.02 95.7422C324.379 95.5 324.835 95.3789 325.387 95.3789H326.414V95.043C326.414 94.8086 326.342 94.6185 326.199 94.4727C326.059 94.3242 325.815 94.25 325.469 94.25C325.125 94.25 324.879 94.3164 324.73 94.4492C324.582 94.5794 324.508 94.7318 324.508 94.9062V94.9258H323.734V94.9062C323.734 94.5651 323.892 94.2669 324.207 94.0117C324.525 93.7565 324.953 93.6289 325.492 93.6289C326.029 93.6289 326.445 93.7474 326.742 93.9844C327.039 94.2214 327.188 94.5742 327.188 95.043V97.0625C327.188 97.2318 327.201 97.3919 327.227 97.543C327.255 97.6914 327.294 97.8229 327.344 97.9375V98H326.594C326.555 97.9323 326.52 97.8438 326.488 97.7344C326.457 97.625 326.438 97.5169 326.43 97.4102C326.323 97.5846 326.151 97.7396 325.914 97.875C325.677 98.0104 325.371 98.0781 324.996 98.0781C324.577 98.0781 324.219 97.9648 323.922 97.7383C323.628 97.5091 323.48 97.1797 323.48 96.75ZM324.254 96.7109C324.254 96.9453 324.328 97.1289 324.477 97.2617C324.628 97.3919 324.861 97.457 325.176 97.457C325.491 97.457 325.776 97.3581 326.031 97.1602C326.286 96.9596 326.414 96.7487 326.414 96.5273V95.9375H325.469C325.07 95.9375 324.768 96.0078 324.562 96.1484C324.357 96.2865 324.254 96.474 324.254 96.7109ZM328.34 98V93.7461H329.043L329.078 94.3086H329.098C329.264 94.1029 329.465 93.9453 329.699 93.8359C329.934 93.724 330.194 93.668 330.48 93.668C330.931 93.668 331.289 93.7943 331.555 94.0469C331.823 94.2995 331.957 94.724 331.957 95.3203V98H331.18V95.3125C331.18 94.9609 331.098 94.7096 330.934 94.5586C330.772 94.4076 330.542 94.332 330.242 94.332C329.987 94.332 329.763 94.3984 329.57 94.5312C329.378 94.6615 329.225 94.8307 329.113 95.0391V98H328.34ZM333 99.1094L333.449 98.5156C333.579 98.651 333.76 98.7695 333.992 98.8711C334.227 98.9727 334.488 99.0234 334.777 99.0234C335.163 99.0234 335.466 98.9232 335.688 98.7227C335.911 98.5247 336.023 98.2448 336.023 97.8828V97.4961C335.891 97.6732 335.712 97.8151 335.488 97.9219C335.267 98.026 334.999 98.0781 334.684 98.0781C334.121 98.0781 333.671 97.8763 333.332 97.4727C332.996 97.0664 332.828 96.5534 332.828 95.9336V95.8086C332.828 95.1888 332.996 94.6771 333.332 94.2734C333.671 93.8698 334.121 93.668 334.684 93.668C334.999 93.668 335.275 93.7305 335.512 93.8555C335.749 93.9779 335.924 94.1263 336.039 94.3008H336.059L336.094 93.7461H336.797V97.8828C336.797 98.4688 336.612 98.918 336.242 99.2305C335.872 99.5456 335.392 99.7031 334.801 99.7031C334.434 99.7031 334.095 99.6471 333.785 99.5352C333.475 99.4232 333.214 99.2812 333 99.1094ZM333.621 95.9336C333.621 96.3555 333.72 96.7109 333.918 97C334.118 97.2865 334.432 97.4297 334.859 97.4297C335.146 97.4297 335.389 97.3568 335.59 97.2109C335.79 97.0625 335.935 96.8945 336.023 96.707V95.0391C335.935 94.8516 335.79 94.6849 335.59 94.5391C335.389 94.3906 335.146 94.3164 334.859 94.3164C334.432 94.3164 334.118 94.4609 333.918 94.75C333.72 95.0365 333.621 95.3893 333.621 95.8086V95.9336ZM337.711 95.9336V95.8086C337.711 95.168 337.895 94.6445 338.262 94.2383C338.632 93.832 339.118 93.6289 339.723 93.6289C340.332 93.6289 340.799 93.819 341.125 94.1992C341.453 94.5794 341.617 95.0924 341.617 95.7383V96.0664H338.191V95.4453H340.832V95.457C340.832 95.1159 340.747 94.8333 340.578 94.6094C340.411 94.3828 340.126 94.2695 339.723 94.2695C339.324 94.2695 339.02 94.418 338.809 94.7148C338.6 95.0117 338.496 95.3763 338.496 95.8086V95.9336C338.496 96.3659 338.605 96.7318 338.824 97.0312C339.046 97.3281 339.387 97.4766 339.848 97.4766C340.132 97.4766 340.375 97.4193 340.578 97.3047C340.784 97.1901 340.949 97.0534 341.074 96.8945L341.574 97.3164C341.436 97.5143 341.219 97.6979 340.922 97.8672C340.628 98.0339 340.27 98.1172 339.848 98.1172C339.158 98.1172 338.629 97.9141 338.262 97.5078C337.895 97.1016 337.711 96.5768 337.711 95.9336ZM344.223 96.75C344.223 96.3177 344.402 95.9818 344.762 95.7422C345.121 95.5 345.577 95.3789 346.129 95.3789H347.156V95.043C347.156 94.8086 347.085 94.6185 346.941 94.4727C346.801 94.3242 346.557 94.25 346.211 94.25C345.867 94.25 345.621 94.3164 345.473 94.4492C345.324 94.5794 345.25 94.7318 345.25 94.9062V94.9258H344.477V94.9062C344.477 94.5651 344.634 94.2669 344.949 94.0117C345.267 93.7565 345.695 93.6289 346.234 93.6289C346.771 93.6289 347.188 93.7474 347.484 93.9844C347.781 94.2214 347.93 94.5742 347.93 95.043V97.0625C347.93 97.2318 347.943 97.3919 347.969 97.543C347.997 97.6914 348.036 97.8229 348.086 97.9375V98H347.336C347.297 97.9323 347.262 97.8438 347.23 97.7344C347.199 97.625 347.18 97.5169 347.172 97.4102C347.065 97.5846 346.893 97.7396 346.656 97.875C346.419 98.0104 346.113 98.0781 345.738 98.0781C345.319 98.0781 344.961 97.9648 344.664 97.7383C344.37 97.5091 344.223 97.1797 344.223 96.75ZM344.996 96.7109C344.996 96.9453 345.07 97.1289 345.219 97.2617C345.37 97.3919 345.603 97.457 345.918 97.457C346.233 97.457 346.518 97.3581 346.773 97.1602C347.029 96.9596 347.156 96.7487 347.156 96.5273V95.9375H346.211C345.812 95.9375 345.51 96.0078 345.305 96.1484C345.099 96.2865 344.996 96.474 344.996 96.7109ZM348.434 93.7461H349.207L350.25 96.5469C350.289 96.6536 350.323 96.7526 350.352 96.8438C350.38 96.9323 350.404 97.0286 350.422 97.1328H350.445C350.464 97.0286 350.487 96.9323 350.516 96.8438C350.547 96.7526 350.582 96.6536 350.621 96.5469L351.656 93.7461H352.395L350.73 98H350.098L348.434 93.7461ZM352.676 96.75C352.676 96.3177 352.855 95.9818 353.215 95.7422C353.574 95.5 354.03 95.3789 354.582 95.3789H355.609V95.043C355.609 94.8086 355.538 94.6185 355.395 94.4727C355.254 94.3242 355.01 94.25 354.664 94.25C354.32 94.25 354.074 94.3164 353.926 94.4492C353.777 94.5794 353.703 94.7318 353.703 94.9062V94.9258H352.93V94.9062C352.93 94.5651 353.087 94.2669 353.402 94.0117C353.72 93.7565 354.148 93.6289 354.688 93.6289C355.224 93.6289 355.641 93.7474 355.938 93.9844C356.234 94.2214 356.383 94.5742 356.383 95.043V97.0625C356.383 97.2318 356.396 97.3919 356.422 97.543C356.451 97.6914 356.49 97.8229 356.539 97.9375V98H355.789C355.75 97.9323 355.715 97.8438 355.684 97.7344C355.652 97.625 355.633 97.5169 355.625 97.4102C355.518 97.5846 355.346 97.7396 355.109 97.875C354.872 98.0104 354.566 98.0781 354.191 98.0781C353.772 98.0781 353.414 97.9648 353.117 97.7383C352.823 97.5091 352.676 97.1797 352.676 96.75ZM353.449 96.7109C353.449 96.9453 353.523 97.1289 353.672 97.2617C353.823 97.3919 354.056 97.457 354.371 97.457C354.686 97.457 354.971 97.3581 355.227 97.1602C355.482 96.9596 355.609 96.7487 355.609 96.5273V95.9375H354.664C354.266 95.9375 353.964 96.0078 353.758 96.1484C353.552 96.2865 353.449 96.474 353.449 96.7109ZM356.957 94.3555V93.7461H359.484V94.3555H356.957ZM357.75 96.9375V94.1094V93.9922V92.875H358.523V96.9375C358.523 97.1198 358.562 97.25 358.641 97.3281C358.719 97.4062 358.841 97.4453 359.008 97.4453C359.086 97.4453 359.161 97.4375 359.234 97.4219C359.31 97.4062 359.387 97.3854 359.465 97.3594V98C359.392 98.0312 359.298 98.0586 359.184 98.082C359.069 98.1055 358.944 98.1172 358.809 98.1172C358.486 98.1172 358.228 98.0221 358.035 97.832C357.845 97.6419 357.75 97.3438 357.75 96.9375ZM360.035 96.75C360.035 96.3177 360.215 95.9818 360.574 95.7422C360.934 95.5 361.389 95.3789 361.941 95.3789H362.969V95.043C362.969 94.8086 362.897 94.6185 362.754 94.4727C362.613 94.3242 362.37 94.25 362.023 94.25C361.68 94.25 361.434 94.3164 361.285 94.4492C361.137 94.5794 361.062 94.7318 361.062 94.9062V94.9258H360.289V94.9062C360.289 94.5651 360.447 94.2669 360.762 94.0117C361.079 93.7565 361.508 93.6289 362.047 93.6289C362.583 93.6289 363 93.7474 363.297 93.9844C363.594 94.2214 363.742 94.5742 363.742 95.043V97.0625C363.742 97.2318 363.755 97.3919 363.781 97.543C363.81 97.6914 363.849 97.8229 363.898 97.9375V98H363.148C363.109 97.9323 363.074 97.8438 363.043 97.7344C363.012 97.625 362.992 97.5169 362.984 97.4102C362.878 97.5846 362.706 97.7396 362.469 97.875C362.232 98.0104 361.926 98.0781 361.551 98.0781C361.132 98.0781 360.773 97.9648 360.477 97.7383C360.182 97.5091 360.035 97.1797 360.035 96.75ZM360.809 96.7109C360.809 96.9453 360.883 97.1289 361.031 97.2617C361.182 97.3919 361.415 97.457 361.73 97.457C362.046 97.457 362.331 97.3581 362.586 97.1602C362.841 96.9596 362.969 96.7487 362.969 96.5273V95.9375H362.023C361.625 95.9375 361.323 96.0078 361.117 96.1484C360.911 96.2865 360.809 96.474 360.809 96.7109ZM364.895 98V93.7461H365.598L365.633 94.2969H365.652C365.767 94.1198 365.917 93.9648 366.102 93.832C366.289 93.6966 366.512 93.6289 366.77 93.6289C366.829 93.6289 366.892 93.6354 366.957 93.6484C367.025 93.6615 367.072 93.6732 367.098 93.6836V94.4219C367.043 94.4115 366.986 94.4036 366.926 94.3984C366.866 94.3932 366.799 94.3906 366.727 94.3906C366.469 94.3906 366.25 94.4544 366.07 94.582C365.891 94.7096 365.757 94.8672 365.668 95.0547V98H364.895Z" fill="#6E9777"/>
<path d="M365.664 185V179.312H369.383V179.891H366.34V181.777H368.996V182.355H366.34V184.422H369.426V185H365.664ZM369.969 182.934V182.809C369.969 182.189 370.133 181.677 370.461 181.273C370.792 180.87 371.242 180.668 371.812 180.668C372.148 180.668 372.434 180.723 372.668 180.832C372.902 180.941 373.091 181.087 373.234 181.27V179H373.891V185H373.293L373.266 184.426H373.25C373.128 184.605 372.941 184.759 372.691 184.887C372.441 185.014 372.148 185.078 371.812 185.078C371.242 185.078 370.792 184.876 370.461 184.473C370.133 184.066 369.969 183.553 369.969 182.934ZM370.637 182.934C370.637 183.382 370.742 183.758 370.953 184.062C371.167 184.367 371.505 184.52 371.969 184.52C372.284 184.52 372.549 184.444 372.766 184.293C372.982 184.139 373.138 183.966 373.234 183.773V181.973C373.138 181.78 372.982 181.608 372.766 181.457C372.549 181.303 372.284 181.227 371.969 181.227C371.505 181.227 371.167 181.38 370.953 181.688C370.742 181.992 370.637 182.366 370.637 182.809V182.934ZM375.09 185V180.746H375.746V185H375.09ZM375 179.5C375 179.383 375.035 179.285 375.105 179.207C375.178 179.129 375.283 179.09 375.418 179.09C375.551 179.09 375.654 179.129 375.727 179.207C375.799 179.285 375.836 179.383 375.836 179.5C375.836 179.617 375.799 179.715 375.727 179.793C375.654 179.871 375.551 179.91 375.418 179.91C375.283 179.91 375.178 179.871 375.105 179.793C375.035 179.715 375 179.617 375 179.5ZM376.359 181.281V180.746H378.91V181.281H376.359ZM377.211 183.934V181.062V180.961V179.875H377.867V183.934C377.867 184.15 377.91 184.305 377.996 184.398C378.082 184.492 378.217 184.539 378.402 184.539C378.483 184.539 378.561 184.531 378.637 184.516C378.712 184.5 378.789 184.479 378.867 184.453V185.008C378.797 185.036 378.707 185.061 378.598 185.082C378.488 185.105 378.368 185.117 378.238 185.117C377.926 185.117 377.676 185.022 377.488 184.832C377.303 184.642 377.211 184.342 377.211 183.934Z" fill="#6E9777"/>
<path d="M194.545 185.117C194.064 185.117 193.633 185.039 193.25 184.883C192.867 184.727 192.541 184.51 192.271 184.232C192.006 183.951 191.801 183.625 191.656 183.254C191.516 182.879 191.445 182.477 191.445 182.047V181.812C191.445 181.324 191.516 180.881 191.656 180.482C191.797 180.08 191.996 179.734 192.254 179.445C192.512 179.156 192.82 178.934 193.18 178.777C193.539 178.621 193.936 178.543 194.369 178.543C194.818 178.543 195.215 178.619 195.559 178.771C195.902 178.92 196.189 179.131 196.42 179.404C196.65 179.678 196.824 180.006 196.941 180.389C197.059 180.768 197.117 181.188 197.117 181.648V182.299H192.148V181.232H195.594V181.115C195.586 180.869 195.539 180.645 195.453 180.441C195.367 180.234 195.234 180.07 195.055 179.949C194.875 179.824 194.643 179.762 194.357 179.762C194.127 179.762 193.926 179.812 193.754 179.914C193.586 180.012 193.445 180.152 193.332 180.336C193.223 180.516 193.141 180.73 193.086 180.98C193.031 181.23 193.004 181.508 193.004 181.812V182.047C193.004 182.312 193.039 182.559 193.109 182.785C193.184 183.012 193.291 183.209 193.432 183.377C193.576 183.541 193.748 183.67 193.947 183.764C194.15 183.854 194.381 183.898 194.639 183.898C194.963 183.898 195.256 183.836 195.518 183.711C195.783 183.582 196.014 183.393 196.209 183.143L196.988 183.951C196.855 184.146 196.676 184.334 196.449 184.514C196.227 184.693 195.957 184.84 195.641 184.953C195.324 185.062 194.959 185.117 194.545 185.117ZM201.236 180.734V181.959H198.031V180.734H201.236ZM204.102 179.961V185H202.555V178.66H204.014L204.102 179.961ZM203.873 181.602H203.398C203.398 181.16 203.451 180.754 203.557 180.383C203.666 180.012 203.826 179.689 204.037 179.416C204.248 179.139 204.508 178.924 204.816 178.771C205.129 178.619 205.49 178.543 205.9 178.543C206.186 178.543 206.447 178.586 206.686 178.672C206.924 178.754 207.129 178.885 207.301 179.064C207.477 179.24 207.611 179.471 207.705 179.756C207.799 180.037 207.846 180.375 207.846 180.77V185H206.299V180.928C206.299 180.631 206.256 180.398 206.17 180.23C206.088 180.062 205.969 179.945 205.812 179.879C205.656 179.809 205.469 179.773 205.25 179.773C205.008 179.773 204.799 179.822 204.623 179.92C204.451 180.014 204.309 180.145 204.195 180.312C204.086 180.48 204.004 180.674 203.949 180.893C203.898 181.111 203.873 181.348 203.873 181.602ZM207.729 181.314L207.09 181.432C207.094 181.033 207.148 180.66 207.254 180.312C207.359 179.961 207.514 179.654 207.717 179.393C207.924 179.127 208.18 178.92 208.484 178.771C208.793 178.619 209.148 178.543 209.551 178.543C209.863 178.543 210.145 178.588 210.395 178.678C210.648 178.764 210.865 178.902 211.045 179.094C211.225 179.281 211.361 179.525 211.455 179.826C211.553 180.127 211.602 180.494 211.602 180.928V185H210.043V180.922C210.043 180.613 210 180.377 209.914 180.213C209.832 180.049 209.713 179.936 209.557 179.873C209.4 179.807 209.217 179.773 209.006 179.773C208.791 179.773 208.604 179.814 208.443 179.896C208.287 179.975 208.154 180.084 208.045 180.225C207.939 180.365 207.859 180.529 207.805 180.717C207.754 180.9 207.729 181.1 207.729 181.314ZM216.482 183.652V180.729C216.482 180.514 216.445 180.328 216.371 180.172C216.297 180.016 216.184 179.895 216.031 179.809C215.879 179.723 215.686 179.68 215.451 179.68C215.244 179.68 215.062 179.715 214.906 179.785C214.754 179.855 214.637 179.955 214.555 180.084C214.473 180.209 214.432 180.354 214.432 180.518H212.879C212.879 180.256 212.941 180.008 213.066 179.773C213.191 179.535 213.369 179.324 213.6 179.141C213.834 178.953 214.113 178.807 214.438 178.701C214.766 178.596 215.133 178.543 215.539 178.543C216.02 178.543 216.447 178.625 216.822 178.789C217.201 178.949 217.498 179.191 217.713 179.516C217.932 179.84 218.041 180.248 218.041 180.74V183.506C218.041 183.822 218.061 184.094 218.1 184.32C218.143 184.543 218.205 184.736 218.287 184.9V185H216.711C216.637 184.84 216.58 184.637 216.541 184.391C216.502 184.141 216.482 183.895 216.482 183.652ZM216.699 181.139L216.711 182.059H215.732C215.49 182.059 215.277 182.084 215.094 182.135C214.91 182.182 214.76 182.252 214.643 182.346C214.525 182.436 214.438 182.545 214.379 182.674C214.32 182.799 214.291 182.941 214.291 183.102C214.291 183.258 214.326 183.398 214.396 183.523C214.471 183.648 214.576 183.748 214.713 183.822C214.854 183.893 215.018 183.928 215.205 183.928C215.479 183.928 215.717 183.873 215.92 183.764C216.123 183.65 216.281 183.514 216.395 183.354C216.508 183.193 216.568 183.041 216.576 182.896L217.021 183.564C216.967 183.725 216.885 183.895 216.775 184.074C216.666 184.254 216.525 184.422 216.354 184.578C216.182 184.734 215.975 184.863 215.732 184.965C215.49 185.066 215.209 185.117 214.889 185.117C214.479 185.117 214.111 185.035 213.787 184.871C213.463 184.707 213.207 184.482 213.02 184.197C212.832 183.912 212.738 183.588 212.738 183.225C212.738 182.889 212.801 182.592 212.926 182.334C213.051 182.076 213.236 181.859 213.482 181.684C213.729 181.504 214.033 181.369 214.396 181.279C214.764 181.186 215.184 181.139 215.656 181.139H216.699ZM221.076 178.66V185H219.523V178.66H221.076ZM219.418 177.002C219.418 176.771 219.496 176.58 219.652 176.428C219.812 176.275 220.027 176.199 220.297 176.199C220.566 176.199 220.779 176.275 220.936 176.428C221.096 176.58 221.176 176.771 221.176 177.002C221.176 177.229 221.096 177.418 220.936 177.57C220.779 177.723 220.566 177.799 220.297 177.799C220.027 177.799 219.812 177.723 219.652 177.57C219.496 177.418 219.418 177.229 219.418 177.002ZM224.193 176V185H222.641V176H224.193ZM225.705 184.244C225.705 184.01 225.785 183.812 225.945 183.652C226.105 183.492 226.322 183.412 226.596 183.412C226.869 183.412 227.086 183.492 227.246 183.652C227.406 183.812 227.486 184.01 227.486 184.244C227.486 184.475 227.406 184.67 227.246 184.83C227.086 184.986 226.869 185.064 226.596 185.064C226.322 185.064 226.105 184.986 225.945 184.83C225.785 184.67 225.705 184.475 225.705 184.244ZM225.711 179.328C225.711 179.094 225.791 178.896 225.951 178.736C226.111 178.576 226.328 178.496 226.602 178.496C226.875 178.496 227.092 178.576 227.252 178.736C227.412 178.896 227.492 179.094 227.492 179.328C227.492 179.559 227.412 179.754 227.252 179.914C227.092 180.07 226.875 180.148 226.602 180.148C226.328 180.148 226.111 180.07 225.951 179.914C225.791 179.754 225.711 179.559 225.711 179.328Z" fill="white"/>
<rect x="235" y="168" width="122" height="26" rx="2" fill="#DDDDDD"/>
<rect x="235" y="130" width="122" height="26" rx="2" fill="#DDDDDD"/>
<path d="M245.871 138.469H246.996V144.24C246.996 144.881 246.854 145.414 246.568 145.84C246.283 146.266 245.904 146.586 245.432 146.801C244.963 147.012 244.453 147.117 243.902 147.117C243.324 147.117 242.801 147.012 242.332 146.801C241.867 146.586 241.498 146.266 241.225 145.84C240.955 145.414 240.82 144.881 240.82 144.24V138.469H241.939V144.24C241.939 144.686 242.021 145.053 242.186 145.342C242.35 145.631 242.578 145.846 242.871 145.986C243.168 146.127 243.512 146.197 243.902 146.197C244.297 146.197 244.641 146.127 244.934 145.986C245.23 145.846 245.461 145.631 245.625 145.342C245.789 145.053 245.871 144.686 245.871 144.24V138.469ZM252.299 145.318C252.299 145.162 252.264 145.018 252.193 144.885C252.127 144.748 251.988 144.625 251.777 144.516C251.57 144.402 251.258 144.305 250.84 144.223C250.488 144.148 250.17 144.061 249.885 143.959C249.604 143.857 249.363 143.734 249.164 143.59C248.969 143.445 248.818 143.275 248.713 143.08C248.607 142.885 248.555 142.656 248.555 142.395C248.555 142.145 248.609 141.908 248.719 141.686C248.832 141.463 248.99 141.266 249.193 141.094C249.4 140.922 249.648 140.787 249.938 140.689C250.227 140.592 250.549 140.543 250.904 140.543C251.412 140.543 251.846 140.633 252.205 140.812C252.564 140.992 252.84 141.232 253.031 141.533C253.223 141.83 253.318 142.16 253.318 142.523H252.234C252.234 142.348 252.182 142.178 252.076 142.014C251.975 141.846 251.824 141.707 251.625 141.598C251.43 141.488 251.189 141.434 250.904 141.434C250.604 141.434 250.359 141.48 250.172 141.574C249.988 141.664 249.854 141.779 249.768 141.92C249.686 142.061 249.645 142.209 249.645 142.365C249.645 142.482 249.664 142.588 249.703 142.682C249.746 142.771 249.82 142.855 249.926 142.934C250.031 143.008 250.18 143.078 250.371 143.145C250.562 143.211 250.807 143.277 251.104 143.344C251.623 143.461 252.051 143.602 252.387 143.766C252.723 143.93 252.973 144.131 253.137 144.369C253.301 144.607 253.383 144.896 253.383 145.236C253.383 145.514 253.324 145.768 253.207 145.998C253.094 146.229 252.928 146.428 252.709 146.596C252.494 146.76 252.236 146.889 251.936 146.982C251.639 147.072 251.305 147.117 250.934 147.117C250.375 147.117 249.902 147.018 249.516 146.818C249.129 146.619 248.836 146.361 248.637 146.045C248.438 145.729 248.338 145.395 248.338 145.043H249.428C249.443 145.34 249.529 145.576 249.686 145.752C249.842 145.924 250.033 146.047 250.26 146.121C250.486 146.191 250.711 146.227 250.934 146.227C251.23 146.227 251.479 146.188 251.678 146.109C251.881 146.031 252.035 145.924 252.141 145.787C252.246 145.65 252.299 145.494 252.299 145.318ZM257.438 147.117C256.996 147.117 256.596 147.043 256.236 146.895C255.881 146.742 255.574 146.529 255.316 146.256C255.062 145.982 254.867 145.658 254.73 145.283C254.594 144.908 254.525 144.498 254.525 144.053V143.807C254.525 143.291 254.602 142.832 254.754 142.43C254.906 142.023 255.113 141.68 255.375 141.398C255.637 141.117 255.934 140.904 256.266 140.76C256.598 140.615 256.941 140.543 257.297 140.543C257.75 140.543 258.141 140.621 258.469 140.777C258.801 140.934 259.072 141.152 259.283 141.434C259.494 141.711 259.65 142.039 259.752 142.418C259.854 142.793 259.904 143.203 259.904 143.648V144.135H255.17V143.25H258.82V143.168C258.805 142.887 258.746 142.613 258.645 142.348C258.547 142.082 258.391 141.863 258.176 141.691C257.961 141.52 257.668 141.434 257.297 141.434C257.051 141.434 256.824 141.486 256.617 141.592C256.41 141.693 256.232 141.846 256.084 142.049C255.936 142.252 255.82 142.5 255.738 142.793C255.656 143.086 255.615 143.424 255.615 143.807V144.053C255.615 144.354 255.656 144.637 255.738 144.902C255.824 145.164 255.947 145.395 256.107 145.594C256.271 145.793 256.469 145.949 256.699 146.062C256.934 146.176 257.199 146.232 257.496 146.232C257.879 146.232 258.203 146.154 258.469 145.998C258.734 145.842 258.967 145.633 259.166 145.371L259.822 145.893C259.686 146.1 259.512 146.297 259.301 146.484C259.09 146.672 258.83 146.824 258.521 146.941C258.217 147.059 257.855 147.117 257.438 147.117ZM262.254 141.656V147H261.17V140.66H262.225L262.254 141.656ZM264.234 140.625L264.229 141.633C264.139 141.613 264.053 141.602 263.971 141.598C263.893 141.59 263.803 141.586 263.701 141.586C263.451 141.586 263.23 141.625 263.039 141.703C262.848 141.781 262.686 141.891 262.553 142.031C262.42 142.172 262.314 142.34 262.236 142.535C262.162 142.727 262.113 142.938 262.09 143.168L261.785 143.344C261.785 142.961 261.822 142.602 261.896 142.266C261.975 141.93 262.094 141.633 262.254 141.375C262.414 141.113 262.617 140.91 262.863 140.766C263.113 140.617 263.41 140.543 263.754 140.543C263.832 140.543 263.922 140.553 264.023 140.572C264.125 140.588 264.195 140.605 264.234 140.625ZM265.166 142.852L266.344 141.234L264.574 140.707L264.85 139.828L266.619 140.479L266.566 138.463H267.457L267.398 140.514L269.145 139.863L269.414 140.76L267.615 141.293L268.77 142.881L268.043 143.426L266.959 141.738L265.898 143.385L265.166 142.852ZM270.334 142.852L271.512 141.234L269.742 140.707L270.018 139.828L271.787 140.479L271.734 138.463H272.625L272.566 140.514L274.312 139.863L274.582 140.76L272.783 141.293L273.938 142.881L273.211 143.426L272.127 141.738L271.066 143.385L270.334 142.852ZM275.502 142.852L276.68 141.234L274.91 140.707L275.186 139.828L276.955 140.479L276.902 138.463H277.793L277.734 140.514L279.48 139.863L279.75 140.76L277.951 141.293L279.105 142.881L278.379 143.426L277.295 141.738L276.234 143.385L275.502 142.852ZM283.371 147.117C282.93 147.117 282.529 147.043 282.17 146.895C281.814 146.742 281.508 146.529 281.25 146.256C280.996 145.982 280.801 145.658 280.664 145.283C280.527 144.908 280.459 144.498 280.459 144.053V143.807C280.459 143.291 280.535 142.832 280.688 142.43C280.84 142.023 281.047 141.68 281.309 141.398C281.57 141.117 281.867 140.904 282.199 140.76C282.531 140.615 282.875 140.543 283.23 140.543C283.684 140.543 284.074 140.621 284.402 140.777C284.734 140.934 285.006 141.152 285.217 141.434C285.428 141.711 285.584 142.039 285.686 142.418C285.787 142.793 285.838 143.203 285.838 143.648V144.135H281.104V143.25H284.754V143.168C284.738 142.887 284.68 142.613 284.578 142.348C284.48 142.082 284.324 141.863 284.109 141.691C283.895 141.52 283.602 141.434 283.23 141.434C282.984 141.434 282.758 141.486 282.551 141.592C282.344 141.693 282.166 141.846 282.018 142.049C281.869 142.252 281.754 142.5 281.672 142.793C281.59 143.086 281.549 143.424 281.549 143.807V144.053C281.549 144.354 281.59 144.637 281.672 144.902C281.758 145.164 281.881 145.395 282.041 145.594C282.205 145.793 282.402 145.949 282.633 146.062C282.867 146.176 283.133 146.232 283.43 146.232C283.812 146.232 284.137 146.154 284.402 145.998C284.668 145.842 284.9 145.633 285.1 145.371L285.756 145.893C285.619 146.1 285.445 146.297 285.234 146.484C285.023 146.672 284.764 146.824 284.455 146.941C284.15 147.059 283.789 147.117 283.371 147.117Z" fill="#484F51"/>
<path d="M243.457 185.117C243.016 185.117 242.615 185.043 242.256 184.895C241.9 184.742 241.594 184.529 241.336 184.256C241.082 183.982 240.887 183.658 240.75 183.283C240.613 182.908 240.545 182.498 240.545 182.053V181.807C240.545 181.291 240.621 180.832 240.773 180.43C240.926 180.023 241.133 179.68 241.395 179.398C241.656 179.117 241.953 178.904 242.285 178.76C242.617 178.615 242.961 178.543 243.316 178.543C243.77 178.543 244.16 178.621 244.488 178.777C244.82 178.934 245.092 179.152 245.303 179.434C245.514 179.711 245.67 180.039 245.771 180.418C245.873 180.793 245.924 181.203 245.924 181.648V182.135H241.189V181.25H244.84V181.168C244.824 180.887 244.766 180.613 244.664 180.348C244.566 180.082 244.41 179.863 244.195 179.691C243.98 179.52 243.688 179.434 243.316 179.434C243.07 179.434 242.844 179.486 242.637 179.592C242.43 179.693 242.252 179.846 242.104 180.049C241.955 180.252 241.84 180.5 241.758 180.793C241.676 181.086 241.635 181.424 241.635 181.807V182.053C241.635 182.354 241.676 182.637 241.758 182.902C241.844 183.164 241.967 183.395 242.127 183.594C242.291 183.793 242.488 183.949 242.719 184.062C242.953 184.176 243.219 184.232 243.516 184.232C243.898 184.232 244.223 184.154 244.488 183.998C244.754 183.842 244.986 183.633 245.186 183.371L245.842 183.893C245.705 184.1 245.531 184.297 245.32 184.484C245.109 184.672 244.85 184.824 244.541 184.941C244.236 185.059 243.875 185.117 243.457 185.117ZM248.268 179.92V185H247.178V178.66H248.209L248.268 179.92ZM248.045 181.59L247.541 181.572C247.545 181.139 247.602 180.738 247.711 180.371C247.82 180 247.982 179.678 248.197 179.404C248.412 179.131 248.68 178.92 249 178.771C249.32 178.619 249.691 178.543 250.113 178.543C250.41 178.543 250.684 178.586 250.934 178.672C251.184 178.754 251.4 178.885 251.584 179.064C251.768 179.244 251.91 179.475 252.012 179.756C252.113 180.037 252.164 180.377 252.164 180.775V185H251.08V180.828C251.08 180.496 251.023 180.23 250.91 180.031C250.801 179.832 250.645 179.688 250.441 179.598C250.238 179.504 250 179.457 249.727 179.457C249.406 179.457 249.139 179.514 248.924 179.627C248.709 179.74 248.537 179.896 248.408 180.096C248.279 180.295 248.186 180.523 248.127 180.781C248.072 181.035 248.045 181.305 248.045 181.59ZM252.152 180.992L251.426 181.215C251.43 180.867 251.486 180.533 251.596 180.213C251.709 179.893 251.871 179.607 252.082 179.357C252.297 179.107 252.561 178.91 252.873 178.766C253.186 178.617 253.543 178.543 253.945 178.543C254.285 178.543 254.586 178.588 254.848 178.678C255.113 178.768 255.336 178.906 255.516 179.094C255.699 179.277 255.838 179.514 255.932 179.803C256.025 180.092 256.072 180.436 256.072 180.834V185H254.982V180.822C254.982 180.467 254.926 180.191 254.812 179.996C254.703 179.797 254.547 179.658 254.344 179.58C254.145 179.498 253.906 179.457 253.629 179.457C253.391 179.457 253.18 179.498 252.996 179.58C252.812 179.662 252.658 179.775 252.533 179.92C252.408 180.061 252.312 180.223 252.246 180.406C252.184 180.59 252.152 180.785 252.152 180.992ZM257.643 180.852L258.82 179.234L257.051 178.707L257.326 177.828L259.096 178.479L259.043 176.463H259.934L259.875 178.514L261.621 177.863L261.891 178.76L260.092 179.293L261.246 180.881L260.52 181.426L259.436 179.738L258.375 181.385L257.643 180.852ZM262.811 180.852L263.988 179.234L262.219 178.707L262.494 177.828L264.264 178.479L264.211 176.463H265.102L265.043 178.514L266.789 177.863L267.059 178.76L265.26 179.293L266.414 180.881L265.688 181.426L264.604 179.738L263.543 181.385L262.811 180.852ZM277.395 182.053C277.379 182.412 277.324 182.773 277.23 183.137C277.137 183.496 276.996 183.826 276.809 184.127C276.621 184.428 276.377 184.67 276.076 184.854C275.779 185.033 275.42 185.123 274.998 185.123C274.729 185.123 274.492 185.076 274.289 184.982C274.09 184.885 273.926 184.746 273.797 184.566C273.672 184.387 273.584 184.17 273.533 183.916C273.486 183.662 273.479 183.379 273.51 183.066L273.809 179.82H274.67L274.371 183.066C274.348 183.352 274.354 183.584 274.389 183.764C274.428 183.943 274.486 184.082 274.564 184.18C274.643 184.273 274.73 184.338 274.828 184.373C274.93 184.408 275.027 184.426 275.121 184.426C275.355 184.426 275.564 184.365 275.748 184.244C275.932 184.119 276.086 183.949 276.211 183.734C276.34 183.516 276.439 183.264 276.51 182.979C276.58 182.689 276.623 182.381 276.639 182.053C276.666 181.471 276.639 180.936 276.557 180.447C276.479 179.959 276.344 179.525 276.152 179.146C275.965 178.768 275.719 178.447 275.414 178.186C275.109 177.924 274.746 177.725 274.324 177.588C273.902 177.451 273.42 177.383 272.877 177.383C272.385 177.383 271.93 177.459 271.512 177.611C271.098 177.76 270.725 177.975 270.393 178.256C270.064 178.537 269.781 178.875 269.543 179.27C269.309 179.664 269.123 180.109 268.986 180.605C268.854 181.098 268.775 181.629 268.752 182.199C268.725 182.785 268.756 183.324 268.846 183.816C268.936 184.305 269.08 184.74 269.279 185.123C269.482 185.51 269.738 185.836 270.047 186.102C270.355 186.371 270.713 186.574 271.119 186.711C271.525 186.852 271.979 186.922 272.479 186.922C272.822 186.922 273.17 186.881 273.521 186.799C273.877 186.717 274.174 186.605 274.412 186.465L274.635 187.133C274.361 187.309 274.02 187.439 273.609 187.525C273.203 187.611 272.818 187.654 272.455 187.654C271.861 187.654 271.318 187.572 270.826 187.408C270.338 187.248 269.904 187.012 269.525 186.699C269.15 186.391 268.838 186.014 268.588 185.568C268.338 185.127 268.154 184.623 268.037 184.057C267.92 183.49 267.875 182.871 267.902 182.199C267.93 181.559 268.025 180.955 268.189 180.389C268.357 179.822 268.586 179.309 268.875 178.848C269.164 178.387 269.508 177.99 269.906 177.658C270.309 177.322 270.76 177.064 271.26 176.885C271.764 176.705 272.311 176.615 272.9 176.615C273.502 176.615 274.047 176.697 274.535 176.861C275.023 177.025 275.451 177.262 275.818 177.57C276.189 177.879 276.496 178.256 276.738 178.701C276.98 179.146 277.156 179.65 277.266 180.213C277.379 180.775 277.422 181.389 277.395 182.053ZM271.377 182.551C271.35 182.824 271.35 183.068 271.377 183.283C271.404 183.498 271.457 183.68 271.535 183.828C271.613 183.977 271.715 184.09 271.84 184.168C271.969 184.242 272.119 184.279 272.291 184.279C272.404 184.279 272.523 184.252 272.648 184.197C272.773 184.139 272.896 184.049 273.018 183.928C273.139 183.807 273.252 183.648 273.357 183.453C273.463 183.258 273.551 183.023 273.621 182.75L274.008 183.172C273.918 183.492 273.801 183.773 273.656 184.016C273.516 184.258 273.357 184.461 273.182 184.625C273.006 184.789 272.818 184.914 272.619 185C272.424 185.082 272.225 185.123 272.021 185.123C271.736 185.123 271.486 185.062 271.271 184.941C271.057 184.816 270.883 184.641 270.75 184.414C270.617 184.188 270.523 183.918 270.469 183.605C270.418 183.289 270.41 182.938 270.445 182.551C270.48 182.141 270.553 181.762 270.662 181.414C270.771 181.066 270.906 180.756 271.066 180.482C271.23 180.209 271.414 179.977 271.617 179.785C271.824 179.594 272.043 179.449 272.273 179.352C272.504 179.25 272.74 179.199 272.982 179.199C273.404 179.199 273.736 179.262 273.979 179.387C274.221 179.508 274.451 179.652 274.67 179.82L274.172 180.4C274.059 180.291 273.91 180.189 273.727 180.096C273.543 180.002 273.326 179.955 273.076 179.955C272.861 179.955 272.66 180.01 272.473 180.119C272.285 180.229 272.115 180.393 271.963 180.611C271.814 180.83 271.689 181.102 271.588 181.426C271.486 181.746 271.416 182.121 271.377 182.551ZM282.938 178.66H283.922V184.865C283.922 185.424 283.809 185.9 283.582 186.295C283.355 186.689 283.039 186.988 282.633 187.191C282.23 187.398 281.766 187.502 281.238 187.502C281.02 187.502 280.762 187.467 280.465 187.396C280.172 187.33 279.883 187.215 279.598 187.051C279.316 186.891 279.08 186.674 278.889 186.4L279.457 185.756C279.723 186.076 280 186.299 280.289 186.424C280.582 186.549 280.871 186.611 281.156 186.611C281.5 186.611 281.797 186.547 282.047 186.418C282.297 186.289 282.49 186.098 282.627 185.844C282.768 185.594 282.838 185.285 282.838 184.918V180.055L282.938 178.66ZM278.572 181.9V181.777C278.572 181.293 278.629 180.854 278.742 180.459C278.859 180.061 279.025 179.719 279.24 179.434C279.459 179.148 279.723 178.93 280.031 178.777C280.34 178.621 280.688 178.543 281.074 178.543C281.473 178.543 281.82 178.613 282.117 178.754C282.418 178.891 282.672 179.092 282.879 179.357C283.09 179.619 283.256 179.936 283.377 180.307C283.498 180.678 283.582 181.098 283.629 181.566V182.105C283.586 182.57 283.502 182.988 283.377 183.359C283.256 183.73 283.09 184.047 282.879 184.309C282.672 184.57 282.418 184.771 282.117 184.912C281.816 185.049 281.465 185.117 281.062 185.117C280.684 185.117 280.34 185.037 280.031 184.877C279.727 184.717 279.465 184.492 279.246 184.203C279.027 183.914 278.859 183.574 278.742 183.184C278.629 182.789 278.572 182.361 278.572 181.9ZM279.656 181.777V181.9C279.656 182.217 279.688 182.514 279.75 182.791C279.816 183.068 279.916 183.312 280.049 183.523C280.186 183.734 280.359 183.9 280.57 184.021C280.781 184.139 281.033 184.197 281.326 184.197C281.686 184.197 281.982 184.121 282.217 183.969C282.451 183.816 282.637 183.615 282.773 183.365C282.914 183.115 283.023 182.844 283.102 182.551V181.139C283.059 180.924 282.992 180.717 282.902 180.518C282.816 180.314 282.703 180.135 282.562 179.979C282.426 179.818 282.256 179.691 282.053 179.598C281.85 179.504 281.611 179.457 281.338 179.457C281.041 179.457 280.785 179.52 280.57 179.645C280.359 179.766 280.186 179.934 280.049 180.148C279.916 180.359 279.816 180.605 279.75 180.887C279.688 181.164 279.656 181.461 279.656 181.777ZM286.646 179.92V185H285.557V178.66H286.588L286.646 179.92ZM286.424 181.59L285.92 181.572C285.924 181.139 285.98 180.738 286.09 180.371C286.199 180 286.361 179.678 286.576 179.404C286.791 179.131 287.059 178.92 287.379 178.771C287.699 178.619 288.07 178.543 288.492 178.543C288.789 178.543 289.062 178.586 289.312 178.672C289.562 178.754 289.779 178.885 289.963 179.064C290.146 179.244 290.289 179.475 290.391 179.756C290.492 180.037 290.543 180.377 290.543 180.775V185H289.459V180.828C289.459 180.496 289.402 180.23 289.289 180.031C289.18 179.832 289.023 179.688 288.82 179.598C288.617 179.504 288.379 179.457 288.105 179.457C287.785 179.457 287.518 179.514 287.303 179.627C287.088 179.74 286.916 179.896 286.787 180.096C286.658 180.295 286.564 180.523 286.506 180.781C286.451 181.035 286.424 181.305 286.424 181.59ZM290.531 180.992L289.805 181.215C289.809 180.867 289.865 180.533 289.975 180.213C290.088 179.893 290.25 179.607 290.461 179.357C290.676 179.107 290.939 178.91 291.252 178.766C291.564 178.617 291.922 178.543 292.324 178.543C292.664 178.543 292.965 178.588 293.227 178.678C293.492 178.768 293.715 178.906 293.895 179.094C294.078 179.277 294.217 179.514 294.311 179.803C294.404 180.092 294.451 180.436 294.451 180.834V185H293.361V180.822C293.361 180.467 293.305 180.191 293.191 179.996C293.082 179.797 292.926 179.658 292.723 179.58C292.523 179.498 292.285 179.457 292.008 179.457C291.77 179.457 291.559 179.498 291.375 179.58C291.191 179.662 291.037 179.775 290.912 179.92C290.787 180.061 290.691 180.223 290.625 180.406C290.562 180.59 290.531 180.785 290.531 180.992ZM296.021 180.852L297.199 179.234L295.43 178.707L295.705 177.828L297.475 178.479L297.422 176.463H298.312L298.254 178.514L300 177.863L300.27 178.76L298.471 179.293L299.625 180.881L298.898 181.426L297.814 179.738L296.754 181.385L296.021 180.852ZM301.189 180.852L302.367 179.234L300.598 178.707L300.873 177.828L302.643 178.479L302.59 176.463H303.48L303.422 178.514L305.168 177.863L305.438 178.76L303.639 179.293L304.793 180.881L304.066 181.426L302.982 179.738L301.922 181.385L301.189 180.852ZM306.445 184.426C306.445 184.242 306.502 184.088 306.615 183.963C306.732 183.834 306.9 183.77 307.119 183.77C307.338 183.77 307.504 183.834 307.617 183.963C307.734 184.088 307.793 184.242 307.793 184.426C307.793 184.605 307.734 184.758 307.617 184.883C307.504 185.008 307.338 185.07 307.119 185.07C306.9 185.07 306.732 185.008 306.615 184.883C306.502 184.758 306.445 184.605 306.445 184.426ZM312.129 184.227C312.387 184.227 312.625 184.174 312.844 184.068C313.062 183.963 313.242 183.818 313.383 183.635C313.523 183.447 313.604 183.234 313.623 182.996H314.654C314.635 183.371 314.508 183.721 314.273 184.045C314.043 184.365 313.74 184.625 313.365 184.824C312.99 185.02 312.578 185.117 312.129 185.117C311.652 185.117 311.236 185.033 310.881 184.865C310.529 184.697 310.236 184.467 310.002 184.174C309.771 183.881 309.598 183.545 309.48 183.166C309.367 182.783 309.311 182.379 309.311 181.953V181.707C309.311 181.281 309.367 180.879 309.48 180.5C309.598 180.117 309.771 179.779 310.002 179.486C310.236 179.193 310.529 178.963 310.881 178.795C311.236 178.627 311.652 178.543 312.129 178.543C312.625 178.543 313.059 178.645 313.43 178.848C313.801 179.047 314.092 179.32 314.303 179.668C314.518 180.012 314.635 180.402 314.654 180.84H313.623C313.604 180.578 313.529 180.342 313.4 180.131C313.275 179.92 313.104 179.752 312.885 179.627C312.67 179.498 312.418 179.434 312.129 179.434C311.797 179.434 311.518 179.5 311.291 179.633C311.068 179.762 310.891 179.938 310.758 180.16C310.629 180.379 310.535 180.623 310.477 180.893C310.422 181.158 310.395 181.43 310.395 181.707V181.953C310.395 182.23 310.422 182.504 310.477 182.773C310.531 183.043 310.623 183.287 310.752 183.506C310.885 183.725 311.062 183.9 311.285 184.033C311.512 184.162 311.793 184.227 312.129 184.227ZM315.586 181.9V181.766C315.586 181.309 315.652 180.885 315.785 180.494C315.918 180.1 316.109 179.758 316.359 179.469C316.609 179.176 316.912 178.949 317.268 178.789C317.623 178.625 318.021 178.543 318.463 178.543C318.908 178.543 319.309 178.625 319.664 178.789C320.023 178.949 320.328 179.176 320.578 179.469C320.832 179.758 321.025 180.1 321.158 180.494C321.291 180.885 321.357 181.309 321.357 181.766V181.9C321.357 182.357 321.291 182.781 321.158 183.172C321.025 183.562 320.832 183.904 320.578 184.197C320.328 184.486 320.025 184.713 319.67 184.877C319.318 185.037 318.92 185.117 318.475 185.117C318.029 185.117 317.629 185.037 317.273 184.877C316.918 184.713 316.613 184.486 316.359 184.197C316.109 183.904 315.918 183.562 315.785 183.172C315.652 182.781 315.586 182.357 315.586 181.9ZM316.67 181.766V181.9C316.67 182.217 316.707 182.516 316.781 182.797C316.855 183.074 316.967 183.32 317.115 183.535C317.268 183.75 317.457 183.92 317.684 184.045C317.91 184.166 318.174 184.227 318.475 184.227C318.771 184.227 319.031 184.166 319.254 184.045C319.48 183.92 319.668 183.75 319.816 183.535C319.965 183.32 320.076 183.074 320.15 182.797C320.229 182.516 320.268 182.217 320.268 181.9V181.766C320.268 181.453 320.229 181.158 320.15 180.881C320.076 180.6 319.963 180.352 319.811 180.137C319.662 179.918 319.475 179.746 319.248 179.621C319.025 179.496 318.764 179.434 318.463 179.434C318.166 179.434 317.904 179.496 317.678 179.621C317.455 179.746 317.268 179.918 317.115 180.137C316.967 180.352 316.855 180.6 316.781 180.881C316.707 181.158 316.67 181.453 316.67 181.766ZM323.795 179.92V185H322.705V178.66H323.736L323.795 179.92ZM323.572 181.59L323.068 181.572C323.072 181.139 323.129 180.738 323.238 180.371C323.348 180 323.51 179.678 323.725 179.404C323.939 179.131 324.207 178.92 324.527 178.771C324.848 178.619 325.219 178.543 325.641 178.543C325.938 178.543 326.211 178.586 326.461 178.672C326.711 178.754 326.928 178.885 327.111 179.064C327.295 179.244 327.438 179.475 327.539 179.756C327.641 180.037 327.691 180.377 327.691 180.775V185H326.607V180.828C326.607 180.496 326.551 180.23 326.438 180.031C326.328 179.832 326.172 179.688 325.969 179.598C325.766 179.504 325.527 179.457 325.254 179.457C324.934 179.457 324.666 179.514 324.451 179.627C324.236 179.74 324.064 179.896 323.936 180.096C323.807 180.295 323.713 180.523 323.654 180.781C323.6 181.035 323.572 181.305 323.572 181.59ZM327.68 180.992L326.953 181.215C326.957 180.867 327.014 180.533 327.123 180.213C327.236 179.893 327.398 179.607 327.609 179.357C327.824 179.107 328.088 178.91 328.4 178.766C328.713 178.617 329.07 178.543 329.473 178.543C329.812 178.543 330.113 178.588 330.375 178.678C330.641 178.768 330.863 178.906 331.043 179.094C331.227 179.277 331.365 179.514 331.459 179.803C331.553 180.092 331.6 180.436 331.6 180.834V185H330.51V180.822C330.51 180.467 330.453 180.191 330.34 179.996C330.23 179.797 330.074 179.658 329.871 179.58C329.672 179.498 329.434 179.457 329.156 179.457C328.918 179.457 328.707 179.498 328.523 179.58C328.34 179.662 328.186 179.775 328.061 179.92C327.936 180.061 327.84 180.223 327.773 180.406C327.711 180.59 327.68 180.785 327.68 180.992Z" fill="#484F51"/>
<circle cx="340" cy="43" r="43" fill="#6E9777"/>
<rect y="17" width="120" height="26" fill="#484F51" fill-opacity="0.2"/>
</svg>
