<svg width="180" height="360" viewBox="0 0 180 360" fill="none" xmlns="http://www.w3.org/2000/svg">
<rect width="180" height="360" rx="4" fill="#3F4547"/>
<line x1="5" y1="24.5" x2="175" y2="24.5" stroke="#687275"/>
<path d="M10.9375 19V10.4688H12.6777V13.9434H16.3398V10.4688H18.0859V19H16.3398V15.2617H12.6777V19H10.9375ZM19.8496 19V12.7246H21.543V19H19.8496ZM19.7031 11.0137C19.7031 10.7598 19.7891 10.5469 19.9609 10.375C20.1328 10.2031 20.377 10.1172 20.6934 10.1172C21.0137 10.1172 21.2578 10.2031 21.4258 10.375C21.5977 10.5469 21.6836 10.7598 21.6836 11.0137C21.6836 11.2715 21.5977 11.4863 21.4258 11.6582C21.2578 11.8301 21.0137 11.916 20.6934 11.916C20.377 11.916 20.1328 11.8301 19.9609 11.6582C19.7891 11.4863 19.7031 11.2715 19.7031 11.0137ZM22.7676 17.043H24.4375V17.1309C24.4375 17.4355 24.5449 17.6602 24.7598 17.8047C24.9746 17.9492 25.2637 18.0215 25.627 18.0215C26.002 18.0215 26.2832 17.9551 26.4707 17.8223C26.6621 17.6855 26.7578 17.502 26.7578 17.2715C26.7578 17.041 26.666 16.8711 26.4824 16.7617C26.2988 16.6484 25.8457 16.5215 25.123 16.3809C24.373 16.2363 23.8223 16.0078 23.4707 15.6953C23.1191 15.3789 22.9434 14.9688 22.9434 14.4648C22.9434 13.8867 23.1836 13.4219 23.6641 13.0703C24.1445 12.7188 24.7949 12.543 25.6152 12.543C26.4316 12.543 27.084 12.7246 27.5723 13.0879C28.0645 13.4512 28.3105 13.9375 28.3105 14.5469V14.6172H26.6465V14.5352C26.6465 14.2773 26.5605 14.0742 26.3887 13.9258C26.2207 13.7773 25.9609 13.7031 25.6094 13.7031C25.2578 13.7031 25.002 13.7637 24.8418 13.8848C24.6855 14.0059 24.6074 14.1621 24.6074 14.3535C24.6074 14.5488 24.6992 14.7051 24.8828 14.8223C25.0664 14.9395 25.5293 15.0684 26.2715 15.209C27.0176 15.3535 27.5645 15.5801 27.9121 15.8887C28.2637 16.1973 28.4395 16.6191 28.4395 17.1543C28.4395 17.7715 28.2012 18.2637 27.7246 18.6309C27.252 18.9941 26.5547 19.1758 25.6328 19.1758C24.7148 19.1758 24.0078 18.9941 23.5117 18.6309C23.0156 18.2637 22.7676 17.7559 22.7676 17.1074V17.043ZM28.8789 13.9434V12.7246H32.7402V13.9434H28.8789ZM29.8516 17.1836V13.3809L29.8574 13.2109V11.3477H31.5391V17.1602C31.5391 17.4375 31.5918 17.6328 31.6973 17.7461C31.8027 17.8555 31.9531 17.9102 32.1484 17.9102C32.2461 17.9102 32.3418 17.8984 32.4355 17.875C32.5293 17.8516 32.6211 17.8223 32.7109 17.7871V18.9941C32.6172 19.041 32.4883 19.082 32.3242 19.1172C32.1602 19.1562 31.9824 19.1758 31.791 19.1758C31.2051 19.1758 30.7344 19.0156 30.3789 18.6953C30.0273 18.375 29.8516 17.8711 29.8516 17.1836ZM33.3379 15.9531V15.7656C33.3379 14.793 33.6367 14.0137 34.2344 13.4277C34.832 12.8418 35.6152 12.5488 36.584 12.5488C37.5566 12.5488 38.3418 12.8418 38.9395 13.4277C39.5371 14.0137 39.8359 14.793 39.8359 15.7656V15.9531C39.8359 16.9258 39.5371 17.707 38.9395 18.2969C38.3418 18.8828 37.5566 19.1758 36.584 19.1758C35.6152 19.1758 34.832 18.8828 34.2344 18.2969C33.6367 17.707 33.3379 16.9258 33.3379 15.9531ZM35.0664 15.7012V16.0176C35.0664 16.6035 35.1973 17.0645 35.459 17.4004C35.7207 17.7363 36.0957 17.9043 36.584 17.9043C37.0762 17.9043 37.4512 17.7363 37.709 17.4004C37.9707 17.0645 38.1016 16.6035 38.1016 16.0176V15.7012C38.1016 15.1191 37.9688 14.6602 37.7031 14.3242C37.4414 13.9883 37.0684 13.8203 36.584 13.8203C36.0996 13.8203 35.7246 13.9883 35.459 14.3242C35.1973 14.6602 35.0664 15.1191 35.0664 15.7012ZM41.0898 19V12.7246H42.6895L42.7305 13.4277H42.7598C42.8926 13.1934 43.0723 12.9902 43.2988 12.8184C43.5293 12.6426 43.793 12.5547 44.0898 12.5547C44.1719 12.5547 44.2559 12.5645 44.3418 12.584C44.4277 12.6035 44.4883 12.6211 44.5234 12.6367V14.0898C44.4531 14.0742 44.377 14.0625 44.2949 14.0547C44.2168 14.043 44.1309 14.0371 44.0371 14.0371C43.7441 14.0371 43.4863 14.1211 43.2637 14.2891C43.0449 14.4531 42.8848 14.6582 42.7832 14.9043V19H41.0898ZM45.373 21.4375L45.3906 20.1895C45.4883 20.2207 45.6035 20.2461 45.7363 20.2656C45.8691 20.2891 45.9922 20.3008 46.1055 20.3008C46.3828 20.3008 46.6191 20.2129 46.8145 20.0371C47.0098 19.8652 47.1875 19.5078 47.3477 18.9648L47.2598 18.959L44.7988 12.7246H46.5098L47.8398 16.4277C47.8906 16.5801 47.9355 16.7266 47.9746 16.8672C48.0137 17.0039 48.0449 17.1426 48.0684 17.2832H48.1094C48.1367 17.1426 48.168 17.0039 48.2031 16.8672C48.2383 16.7266 48.2812 16.5801 48.332 16.4277L49.5918 12.7246H51.1504L48.5078 19.7617C48.2852 20.3438 47.9844 20.7891 47.6055 21.0977C47.2305 21.4102 46.7676 21.5664 46.2168 21.5664C46.0449 21.5664 45.8887 21.5547 45.748 21.5312C45.6113 21.5078 45.4863 21.4766 45.373 21.4375Z" fill="white"/>
<rect x="5" y="32" width="170" height="40" rx="2" fill="#687275"/>
<path d="M151.574 68V63.6914H152.57L152.602 64.2227H152.621C152.772 64.0247 152.96 63.8737 153.184 63.7695C153.408 63.6654 153.652 63.6133 153.918 63.6133C154.236 63.6133 154.508 63.6758 154.734 63.8008C154.961 63.9232 155.13 64.1081 155.242 64.3555H155.254C155.428 64.1029 155.642 63.9167 155.895 63.7969C156.147 63.6745 156.423 63.6133 156.723 63.6133C157.191 63.6133 157.565 63.7487 157.844 64.0195C158.122 64.2878 158.262 64.7357 158.262 65.3633V68H157.199V65.3555C157.197 65.0169 157.128 64.7747 156.992 64.6289C156.857 64.4805 156.665 64.4062 156.418 64.4062C156.199 64.4062 156.008 64.4701 155.844 64.5977C155.682 64.7227 155.551 64.8841 155.449 65.082V68H154.387V65.3555C154.384 65.0169 154.314 64.7747 154.176 64.6289C154.04 64.4805 153.848 64.4062 153.598 64.4062C153.382 64.4062 153.191 64.4701 153.027 64.5977C152.866 64.7227 152.736 64.8841 152.637 65.082V68H151.574ZM159.125 65.9062V65.7812C159.125 65.1354 159.331 64.6068 159.742 64.1953C160.154 63.7812 160.701 63.5742 161.383 63.5742C162.068 63.5742 162.615 63.7812 163.023 64.1953C163.435 64.6068 163.641 65.1354 163.641 65.7812V65.9062C163.641 66.5573 163.435 67.0885 163.023 67.5C162.615 67.9115 162.069 68.1172 161.387 68.1172C160.702 68.1172 160.154 67.9115 159.742 67.5C159.331 67.0885 159.125 66.5573 159.125 65.9062ZM160.215 65.7812V65.9102C160.215 66.3112 160.314 66.6484 160.512 66.9219C160.71 67.1953 161 67.332 161.383 67.332C161.766 67.332 162.056 67.1953 162.254 66.9219C162.452 66.6484 162.551 66.3099 162.551 65.9062V65.7812C162.551 65.3828 162.452 65.0469 162.254 64.7734C162.056 64.4974 161.766 64.3594 161.383 64.3594C161 64.3594 160.71 64.4974 160.512 64.7734C160.314 65.0469 160.215 65.3828 160.215 65.7812ZM164.543 68V63.6914H165.539L165.57 64.1992H165.59C165.691 64.0326 165.824 63.8867 165.988 63.7617C166.155 63.6367 166.353 63.5742 166.582 63.5742C166.639 63.5742 166.698 63.5807 166.758 63.5938C166.82 63.6068 166.865 63.6198 166.891 63.6328V64.5312C166.836 64.5208 166.78 64.513 166.723 64.5078C166.668 64.5026 166.607 64.5 166.539 64.5C166.312 64.5 166.118 64.5599 165.957 64.6797C165.798 64.7969 165.681 64.9427 165.605 65.1172V68H164.543ZM167.262 65.9062V65.7812C167.262 65.1328 167.46 64.6029 167.855 64.1914C168.251 63.7799 168.772 63.5742 169.418 63.5742C170.074 63.5742 170.579 63.7669 170.934 64.1523C171.29 64.5378 171.469 65.0573 171.469 65.7109V66.1094H167.996V65.3867H170.402L170.398 65.3477C170.396 65.1029 170.319 64.8711 170.168 64.6523C170.02 64.4336 169.763 64.3242 169.398 64.3242C169.055 64.3242 168.788 64.4648 168.598 64.7461C168.41 65.0273 168.316 65.3724 168.316 65.7812V65.9062C168.316 66.3151 168.417 66.6602 168.617 66.9414C168.818 67.2227 169.124 67.3633 169.535 67.3633C169.798 67.3633 170.025 67.306 170.215 67.1914C170.408 67.0768 170.561 66.9401 170.676 66.7812L171.371 67.3125C171.236 67.5182 171.007 67.7044 170.684 67.8711C170.363 68.0352 169.98 68.1172 169.535 68.1172C168.803 68.1172 168.241 67.9115 167.848 67.5C167.457 67.0885 167.262 66.5573 167.262 65.9062Z" fill="#3F4547"/>
<path d="M10.2461 65V64.2969L12.4922 62.1016C12.737 61.862 12.9193 61.6406 13.0391 61.4375C13.1589 61.2344 13.2188 61.0221 13.2188 60.8008C13.2188 60.5664 13.1406 60.3763 12.9844 60.2305C12.8281 60.082 12.6133 60.0078 12.3398 60.0078C12.0612 60.0078 11.832 60.0964 11.6523 60.2734C11.4753 60.4505 11.3776 60.7057 11.3594 61.0391V61.0781H10.2461V61.0391C10.2461 60.4896 10.4453 60.0456 10.8438 59.707C11.2422 59.3659 11.7435 59.1953 12.3477 59.1953C12.957 59.1953 13.4388 59.3464 13.793 59.6484C14.1497 59.9505 14.3281 60.3203 14.3281 60.7578C14.3281 61.112 14.2331 61.4349 14.043 61.7266C13.8555 62.0182 13.6003 62.319 13.2773 62.6289L11.707 64.1523H14.4766V65H10.2461ZM14.957 63.0469V61.2617C14.957 60.6445 15.1315 60.1458 15.4805 59.7656C15.832 59.3854 16.3359 59.1953 16.9922 59.1953C17.6432 59.1953 18.1458 59.3854 18.5 59.7656C18.8568 60.1458 19.0352 60.6445 19.0352 61.2617V63.0469C19.0352 63.6641 18.8568 64.1641 18.5 64.5469C18.1458 64.9271 17.6432 65.1172 16.9922 65.1172C16.3359 65.1172 15.832 64.9271 15.4805 64.5469C15.1315 64.1641 14.957 63.6641 14.957 63.0469ZM16.0781 63.0859C16.0781 63.4375 16.1471 63.7279 16.2852 63.957C16.4232 64.1862 16.6589 64.3008 16.9922 64.3008C17.3255 64.3008 17.5625 64.1862 17.7031 63.957C17.8438 63.7279 17.9141 63.4375 17.9141 63.0859V61.2227C17.9141 60.8737 17.8438 60.5846 17.7031 60.3555C17.5625 60.1237 17.3255 60.0078 16.9922 60.0078C16.6589 60.0078 16.4232 60.1237 16.2852 60.3555C16.1471 60.5846 16.0781 60.8737 16.0781 61.2227V63.0859ZM19.9648 64.457C19.9648 64.2826 20.0234 64.1341 20.1406 64.0117C20.2578 63.8893 20.4271 63.8281 20.6484 63.8281C20.8698 63.8281 21.0404 63.8893 21.1602 64.0117C21.2799 64.1341 21.3398 64.2826 21.3398 64.457C21.3398 64.6315 21.2799 64.7799 21.1602 64.9023C21.043 65.0247 20.8724 65.0859 20.6484 65.0859C20.4297 65.0859 20.2604 65.0247 20.1406 64.9023C20.0234 64.7799 19.9648 64.6315 19.9648 64.457ZM22.2695 63.0469V61.2617C22.2695 60.6445 22.444 60.1458 22.793 59.7656C23.1445 59.3854 23.6484 59.1953 24.3047 59.1953C24.9557 59.1953 25.4583 59.3854 25.8125 59.7656C26.1693 60.1458 26.3477 60.6445 26.3477 61.2617V63.0469C26.3477 63.6641 26.1693 64.1641 25.8125 64.5469C25.4583 64.9271 24.9557 65.1172 24.3047 65.1172C23.6484 65.1172 23.1445 64.9271 22.793 64.5469C22.444 64.1641 22.2695 63.6641 22.2695 63.0469ZM23.3906 63.0859C23.3906 63.4375 23.4596 63.7279 23.5977 63.957C23.7357 64.1862 23.9714 64.3008 24.3047 64.3008C24.638 64.3008 24.875 64.1862 25.0156 63.957C25.1562 63.7279 25.2266 63.4375 25.2266 63.0859V61.2227C25.2266 60.8737 25.1562 60.5846 25.0156 60.3555C24.875 60.1237 24.638 60.0078 24.3047 60.0078C23.9714 60.0078 23.7357 60.1237 23.5977 60.3555C23.4596 60.5846 23.3906 60.8737 23.3906 61.2227V63.0859ZM26.8867 65V64.2969L29.1328 62.1016C29.3776 61.862 29.5599 61.6406 29.6797 61.4375C29.7995 61.2344 29.8594 61.0221 29.8594 60.8008C29.8594 60.5664 29.7812 60.3763 29.625 60.2305C29.4688 60.082 29.2539 60.0078 28.9805 60.0078C28.7018 60.0078 28.4727 60.0964 28.293 60.2734C28.1159 60.4505 28.0182 60.7057 28 61.0391V61.0781H26.8867V61.0391C26.8867 60.4896 27.0859 60.0456 27.4844 59.707C27.8828 59.3659 28.3841 59.1953 28.9883 59.1953C29.5977 59.1953 30.0794 59.3464 30.4336 59.6484C30.7904 59.9505 30.9688 60.3203 30.9688 60.7578C30.9688 61.112 30.8737 61.4349 30.6836 61.7266C30.4961 62.0182 30.2409 62.319 29.918 62.6289L28.3477 64.1523H31.1172V65H26.8867ZM31.9414 64.457C31.9414 64.2826 32 64.1341 32.1172 64.0117C32.2344 63.8893 32.4036 63.8281 32.625 63.8281C32.8464 63.8281 33.0169 63.8893 33.1367 64.0117C33.2565 64.1341 33.3164 64.2826 33.3164 64.457C33.3164 64.6315 33.2565 64.7799 33.1367 64.9023C33.0195 65.0247 32.849 65.0859 32.625 65.0859C32.4062 65.0859 32.237 65.0247 32.1172 64.9023C32 64.7799 31.9414 64.6315 31.9414 64.457ZM34.1992 65V64.2969L36.4453 62.1016C36.6901 61.862 36.8724 61.6406 36.9922 61.4375C37.112 61.2344 37.1719 61.0221 37.1719 60.8008C37.1719 60.5664 37.0938 60.3763 36.9375 60.2305C36.7812 60.082 36.5664 60.0078 36.293 60.0078C36.0143 60.0078 35.7852 60.0964 35.6055 60.2734C35.4284 60.4505 35.3307 60.7057 35.3125 61.0391V61.0781H34.1992V61.0391C34.1992 60.4896 34.3984 60.0456 34.7969 59.707C35.1953 59.3659 35.6966 59.1953 36.3008 59.1953C36.9102 59.1953 37.3919 59.3464 37.7461 59.6484C38.1029 59.9505 38.2812 60.3203 38.2812 60.7578C38.2812 61.112 38.1862 61.4349 37.9961 61.7266C37.8086 62.0182 37.5534 62.319 37.2305 62.6289L35.6602 64.1523H38.4297V65H34.1992ZM38.9102 63.0469V61.2617C38.9102 60.6445 39.0846 60.1458 39.4336 59.7656C39.7852 59.3854 40.2891 59.1953 40.9453 59.1953C41.5964 59.1953 42.099 59.3854 42.4531 59.7656C42.8099 60.1458 42.9883 60.6445 42.9883 61.2617V63.0469C42.9883 63.6641 42.8099 64.1641 42.4531 64.5469C42.099 64.9271 41.5964 65.1172 40.9453 65.1172C40.2891 65.1172 39.7852 64.9271 39.4336 64.5469C39.0846 64.1641 38.9102 63.6641 38.9102 63.0469ZM40.0312 63.0859C40.0312 63.4375 40.1003 63.7279 40.2383 63.957C40.3763 64.1862 40.612 64.3008 40.9453 64.3008C41.2786 64.3008 41.5156 64.1862 41.6562 63.957C41.7969 63.7279 41.8672 63.4375 41.8672 63.0859V61.2227C41.8672 60.8737 41.7969 60.5846 41.6562 60.3555C41.5156 60.1237 41.2786 60.0078 40.9453 60.0078C40.612 60.0078 40.3763 60.1237 40.2383 60.3555C40.1003 60.5846 40.0312 60.8737 40.0312 61.2227V63.0859ZM43.5273 65V64.2969L45.7734 62.1016C46.0182 61.862 46.2005 61.6406 46.3203 61.4375C46.4401 61.2344 46.5 61.0221 46.5 60.8008C46.5 60.5664 46.4219 60.3763 46.2656 60.2305C46.1094 60.082 45.8945 60.0078 45.6211 60.0078C45.3424 60.0078 45.1133 60.0964 44.9336 60.2734C44.7565 60.4505 44.6589 60.7057 44.6406 61.0391V61.0781H43.5273V61.0391C43.5273 60.4896 43.7266 60.0456 44.125 59.707C44.5234 59.3659 45.0247 59.1953 45.6289 59.1953C46.2383 59.1953 46.7201 59.3464 47.0742 59.6484C47.431 59.9505 47.6094 60.3203 47.6094 60.7578C47.6094 61.112 47.5143 61.4349 47.3242 61.7266C47.1367 62.0182 46.8815 62.319 46.5586 62.6289L44.9883 64.1523H47.7578V65H43.5273ZM48.2383 63.0469V61.2617C48.2383 60.6445 48.4128 60.1458 48.7617 59.7656C49.1133 59.3854 49.6172 59.1953 50.2734 59.1953C50.9245 59.1953 51.4271 59.3854 51.7812 59.7656C52.138 60.1458 52.3164 60.6445 52.3164 61.2617V63.0469C52.3164 63.6641 52.138 64.1641 51.7812 64.5469C51.4271 64.9271 50.9245 65.1172 50.2734 65.1172C49.6172 65.1172 49.1133 64.9271 48.7617 64.5469C48.4128 64.1641 48.2383 63.6641 48.2383 63.0469ZM49.3594 63.0859C49.3594 63.4375 49.4284 63.7279 49.5664 63.957C49.7044 64.1862 49.9401 64.3008 50.2734 64.3008C50.6068 64.3008 50.8438 64.1862 50.9844 63.957C51.125 63.7279 51.1953 63.4375 51.1953 63.0859V61.2227C51.1953 60.8737 51.125 60.5846 50.9844 60.3555C50.8438 60.1237 50.6068 60.0078 50.2734 60.0078C49.9401 60.0078 49.7044 60.1237 49.5664 60.3555C49.4284 60.5846 49.3594 60.8737 49.3594 61.2227V63.0859ZM56.7617 65V64.2969L59.0078 62.1016C59.2526 61.862 59.4349 61.6406 59.5547 61.4375C59.6745 61.2344 59.7344 61.0221 59.7344 60.8008C59.7344 60.5664 59.6562 60.3763 59.5 60.2305C59.3438 60.082 59.1289 60.0078 58.8555 60.0078C58.5768 60.0078 58.3477 60.0964 58.168 60.2734C57.9909 60.4505 57.8932 60.7057 57.875 61.0391V61.0781H56.7617V61.0391C56.7617 60.4896 56.9609 60.0456 57.3594 59.707C57.7578 59.3659 58.2591 59.1953 58.8633 59.1953C59.4727 59.1953 59.9544 59.3464 60.3086 59.6484C60.6654 59.9505 60.8438 60.3203 60.8438 60.7578C60.8438 61.112 60.7487 61.4349 60.5586 61.7266C60.3711 62.0182 60.1159 62.319 59.793 62.6289L58.2227 64.1523H60.9922V65H56.7617ZM61.4727 63.0469V61.2617C61.4727 60.6445 61.6471 60.1458 61.9961 59.7656C62.3477 59.3854 62.8516 59.1953 63.5078 59.1953C64.1589 59.1953 64.6615 59.3854 65.0156 59.7656C65.3724 60.1458 65.5508 60.6445 65.5508 61.2617V63.0469C65.5508 63.6641 65.3724 64.1641 65.0156 64.5469C64.6615 64.9271 64.1589 65.1172 63.5078 65.1172C62.8516 65.1172 62.3477 64.9271 61.9961 64.5469C61.6471 64.1641 61.4727 63.6641 61.4727 63.0469ZM62.5938 63.0859C62.5938 63.4375 62.6628 63.7279 62.8008 63.957C62.9388 64.1862 63.1745 64.3008 63.5078 64.3008C63.8411 64.3008 64.0781 64.1862 64.2188 63.957C64.3594 63.7279 64.4297 63.4375 64.4297 63.0859V61.2227C64.4297 60.8737 64.3594 60.5846 64.2188 60.3555C64.0781 60.1237 63.8411 60.0078 63.5078 60.0078C63.1745 60.0078 62.9388 60.1237 62.8008 60.3555C62.6628 60.5846 62.5938 60.8737 62.5938 61.2227V63.0859ZM66.5234 64.4883C66.5234 64.3216 66.5807 64.1797 66.6953 64.0625C66.8099 63.9453 66.9766 63.8867 67.1953 63.8867C67.4115 63.8867 67.5781 63.9453 67.6953 64.0625C67.8125 64.1797 67.8711 64.3216 67.8711 64.4883C67.8711 64.6497 67.8125 64.7904 67.6953 64.9102C67.5807 65.0273 67.4141 65.0859 67.1953 65.0859C66.9766 65.0859 66.8099 65.0273 66.6953 64.9102C66.5807 64.7904 66.5234 64.6497 66.5234 64.4883ZM66.5234 61.207C66.5234 61.043 66.5807 60.9023 66.6953 60.7852C66.8099 60.6654 66.9766 60.6055 67.1953 60.6055C67.4141 60.6055 67.5807 60.6654 67.6953 60.7852C67.8125 60.9023 67.8711 61.043 67.8711 61.207C67.8711 61.3737 67.8125 61.5156 67.6953 61.6328C67.5781 61.7474 67.4115 61.8047 67.1953 61.8047C66.9766 61.8047 66.8099 61.7474 66.6953 61.6328C66.5807 61.5156 66.5234 61.3737 66.5234 61.207ZM68.793 65V64.2969L71.0391 62.1016C71.2839 61.862 71.4661 61.6406 71.5859 61.4375C71.7057 61.2344 71.7656 61.0221 71.7656 60.8008C71.7656 60.5664 71.6875 60.3763 71.5312 60.2305C71.375 60.082 71.1602 60.0078 70.8867 60.0078C70.6081 60.0078 70.3789 60.0964 70.1992 60.2734C70.0221 60.4505 69.9245 60.7057 69.9062 61.0391V61.0781H68.793V61.0391C68.793 60.4896 68.9922 60.0456 69.3906 59.707C69.7891 59.3659 70.2904 59.1953 70.8945 59.1953C71.5039 59.1953 71.9857 59.3464 72.3398 59.6484C72.6966 59.9505 72.875 60.3203 72.875 60.7578C72.875 61.112 72.7799 61.4349 72.5898 61.7266C72.4023 62.0182 72.1471 62.319 71.8242 62.6289L70.2539 64.1523H73.0234V65H68.793ZM73.5039 63.0469V61.2617C73.5039 60.6445 73.6784 60.1458 74.0273 59.7656C74.3789 59.3854 74.8828 59.1953 75.5391 59.1953C76.1901 59.1953 76.6927 59.3854 77.0469 59.7656C77.4036 60.1458 77.582 60.6445 77.582 61.2617V63.0469C77.582 63.6641 77.4036 64.1641 77.0469 64.5469C76.6927 64.9271 76.1901 65.1172 75.5391 65.1172C74.8828 65.1172 74.3789 64.9271 74.0273 64.5469C73.6784 64.1641 73.5039 63.6641 73.5039 63.0469ZM74.625 63.0859C74.625 63.4375 74.694 63.7279 74.832 63.957C74.9701 64.1862 75.2057 64.3008 75.5391 64.3008C75.8724 64.3008 76.1094 64.1862 76.25 63.957C76.3906 63.7279 76.4609 63.4375 76.4609 63.0859V61.2227C76.4609 60.8737 76.3906 60.5846 76.25 60.3555C76.1094 60.1237 75.8724 60.0078 75.5391 60.0078C75.2057 60.0078 74.9701 60.1237 74.832 60.3555C74.694 60.5846 74.625 60.8737 74.625 61.2227V63.0859Z" fill="white"/>
<path d="M9.98828 45L12.0352 39.2852H13.2266L15.2812 45H14.1133L12.7305 40.9023C12.6966 40.806 12.6667 40.7135 12.6406 40.625C12.6146 40.5365 12.5898 40.4453 12.5664 40.3516H12.5312C12.5104 40.4453 12.4857 40.5365 12.457 40.625C12.431 40.7135 12.401 40.806 12.3672 40.9023L10.9844 45H9.98828ZM10.9492 43.6562L11.2422 42.8594L13.9414 42.8633L14.2344 43.6602L10.9492 43.6562ZM15.6016 42.9062V42.7812C15.6016 42.1328 15.7995 41.6029 16.1953 41.1914C16.5911 40.7799 17.1341 40.5742 17.8242 40.5742C18.4753 40.5742 18.9701 40.7318 19.3086 41.0469C19.6471 41.362 19.8164 41.7135 19.8164 42.1016L19.8203 42.1289H18.7656V42.1094C18.7656 41.9062 18.6901 41.7279 18.5391 41.5742C18.3906 41.4206 18.1523 41.3438 17.8242 41.3438C17.4388 41.3438 17.1536 41.4831 16.9688 41.7617C16.7839 42.0378 16.6914 42.3776 16.6914 42.7812V42.9102C16.6914 43.3138 16.7839 43.6549 16.9688 43.9336C17.1536 44.2096 17.4388 44.3477 17.8242 44.3477C18.1497 44.3477 18.388 44.2708 18.5391 44.1172C18.6901 43.9635 18.7656 43.7865 18.7656 43.5859V43.5625H19.8164V43.5859C19.8164 43.9766 19.6471 44.3294 19.3086 44.6445C18.9701 44.9596 18.4753 45.1172 17.8242 45.1172C17.1341 45.1172 16.5911 44.9115 16.1953 44.5C15.7995 44.0885 15.6016 43.5573 15.6016 42.9062ZM20.1016 41.4375V40.6914H22.7617V41.4375H20.1016ZM20.8203 43.8242V41.125V41.0078V39.875H21.8828V43.8242C21.8828 44.0065 21.918 44.1367 21.9883 44.2148C22.0612 44.293 22.1706 44.332 22.3164 44.332C22.3867 44.332 22.4557 44.3242 22.5234 44.3086C22.5938 44.2904 22.6628 44.2695 22.7305 44.2461V45C22.6628 45.0312 22.5755 45.0586 22.4688 45.082C22.362 45.1055 22.2448 45.1172 22.1172 45.1172C21.724 45.1172 21.4089 45.013 21.1719 44.8047C20.9375 44.5964 20.8203 44.2695 20.8203 43.8242ZM23.5586 45V40.6914H24.6211V45H23.5586ZM23.4727 39.5547C23.4727 39.3984 23.526 39.2682 23.6328 39.1641C23.7396 39.0573 23.8919 39.0039 24.0898 39.0039C24.2878 39.0039 24.4388 39.0573 24.543 39.1641C24.6497 39.2708 24.7031 39.4023 24.7031 39.5586C24.7031 39.7148 24.6497 39.8464 24.543 39.9531C24.4388 40.0573 24.2878 40.1094 24.0898 40.1094C23.8919 40.1094 23.7396 40.0573 23.6328 39.9531C23.526 39.8464 23.4727 39.7135 23.4727 39.5547ZM25.1875 40.6914H26.2656L27.2656 43.3711C27.3047 43.4779 27.3346 43.5716 27.3555 43.6523C27.3763 43.7331 27.3945 43.8268 27.4102 43.9336H27.4336C27.4466 43.8216 27.4635 43.7266 27.4844 43.6484C27.5078 43.5677 27.5391 43.4753 27.5781 43.3711L28.5586 40.6914H29.5742L27.8594 45H26.8984L25.1875 40.6914ZM30.1445 45V40.6914H31.207V45H30.1445ZM30.0586 39.5547C30.0586 39.3984 30.112 39.2682 30.2188 39.1641C30.3255 39.0573 30.4779 39.0039 30.6758 39.0039C30.8737 39.0039 31.0247 39.0573 31.1289 39.1641C31.2357 39.2708 31.2891 39.4023 31.2891 39.5586C31.2891 39.7148 31.2357 39.8464 31.1289 39.9531C31.0247 40.0573 30.8737 40.1094 30.6758 40.1094C30.4779 40.1094 30.3255 40.0573 30.2188 39.9531C30.112 39.8464 30.0586 39.7135 30.0586 39.5547ZM31.8125 41.4375V40.6914H34.4727V41.4375H31.8125ZM32.5312 43.8242V41.125V41.0078V39.875H33.5938V43.8242C33.5938 44.0065 33.6289 44.1367 33.6992 44.2148C33.7721 44.293 33.8815 44.332 34.0273 44.332C34.0977 44.332 34.1667 44.3242 34.2344 44.3086C34.3047 44.2904 34.3737 44.2695 34.4414 44.2461V45C34.3737 45.0312 34.2865 45.0586 34.1797 45.082C34.0729 45.1055 33.9557 45.1172 33.8281 45.1172C33.4349 45.1172 33.1198 45.013 32.8828 44.8047C32.6484 44.5964 32.5312 44.2695 32.5312 43.8242ZM35.0195 46.625V45.8438C35.0898 45.8672 35.1771 45.888 35.2812 45.9062C35.388 45.9271 35.4831 45.9375 35.5664 45.9375C35.7643 45.9375 35.9284 45.8737 36.0586 45.7461C36.1914 45.6211 36.3216 45.3594 36.4492 44.9609H36.3555L34.6367 40.6914H35.6992L36.6875 43.3047C36.7266 43.4089 36.7643 43.5182 36.8008 43.6328C36.8398 43.7474 36.8685 43.8581 36.8867 43.9648H36.9102C36.9284 43.8581 36.9544 43.7487 36.9883 43.6367C37.0247 43.5221 37.0612 43.4128 37.0977 43.3086L38.0117 40.6914H39.0391L37.1289 45.5469C36.9831 45.9115 36.7878 46.1979 36.543 46.4062C36.3008 46.6172 35.9935 46.7227 35.6211 46.7227C35.5091 46.7227 35.3997 46.7122 35.293 46.6914C35.1888 46.6732 35.0977 46.651 35.0195 46.625ZM39.6367 45V39.3125H40.8594L43.0977 43.0391C43.1445 43.1172 43.1888 43.207 43.2305 43.3086C43.2747 43.4076 43.3125 43.4948 43.3438 43.5703H43.3789C43.3711 43.4844 43.3646 43.3737 43.3594 43.2383C43.3542 43.1003 43.3516 42.9883 43.3516 42.9023V39.3125H44.293V45H43.0742L40.8164 41.2773C40.7669 41.1966 40.7227 41.1172 40.6836 41.0391C40.6471 40.9583 40.6146 40.8802 40.5859 40.8047H40.5508C40.5586 40.8906 40.5651 40.9831 40.5703 41.082C40.5755 41.1784 40.5781 41.2695 40.5781 41.3555V45H39.6367ZM45.3008 43.7344C45.3008 43.2891 45.4961 42.9414 45.8867 42.6914C46.2773 42.4414 46.7721 42.3164 47.3711 42.3164H48.2773V41.9883C48.2773 41.7852 48.2135 41.6198 48.0859 41.4922C47.9609 41.3646 47.7474 41.3008 47.4453 41.3008C47.1432 41.3008 46.9258 41.3607 46.793 41.4805C46.6628 41.6003 46.5977 41.7383 46.5977 41.8945V41.918H45.5352V41.8945C45.5352 41.5404 45.7096 41.2318 46.0586 40.9688C46.4076 40.7057 46.8776 40.5742 47.4688 40.5742C48.0573 40.5742 48.5156 40.6927 48.8438 40.9297C49.1719 41.1667 49.3359 41.5195 49.3359 41.9883V44.0625C49.3359 44.2318 49.349 44.3919 49.375 44.543C49.4036 44.6914 49.4414 44.8229 49.4883 44.9375V45H48.4492C48.4128 44.9349 48.3802 44.8503 48.3516 44.7461C48.3229 44.6393 48.3047 44.5339 48.2969 44.4297C48.1979 44.6016 48.0299 44.7526 47.793 44.8828C47.556 45.013 47.2565 45.0781 46.8945 45.0781C46.4544 45.0781 46.0781 44.9635 45.7656 44.7344C45.4557 44.5026 45.3008 44.1693 45.3008 43.7344ZM46.3633 43.6992C46.3633 43.9023 46.4258 44.0625 46.5508 44.1797C46.6784 44.2943 46.8737 44.3516 47.1367 44.3516C47.4232 44.3516 47.6849 44.2617 47.9219 44.082C48.1589 43.9023 48.2773 43.7109 48.2773 43.5078V42.9766H47.4453C47.0911 42.9766 46.8216 43.0417 46.6367 43.1719C46.4544 43.3021 46.3633 43.4779 46.3633 43.6992ZM50.5273 45V40.6914H51.5234L51.5547 41.2227H51.5742C51.7253 41.0247 51.9128 40.8737 52.1367 40.7695C52.3607 40.6654 52.6055 40.6133 52.8711 40.6133C53.1888 40.6133 53.4609 40.6758 53.6875 40.8008C53.9141 40.9232 54.0833 41.1081 54.1953 41.3555H54.207C54.3815 41.1029 54.5951 40.9167 54.8477 40.7969C55.1003 40.6745 55.3763 40.6133 55.6758 40.6133C56.1445 40.6133 56.5182 40.7487 56.7969 41.0195C57.0755 41.2878 57.2148 41.7357 57.2148 42.3633V45H56.1523V42.3555C56.1497 42.0169 56.0807 41.7747 55.9453 41.6289C55.8099 41.4805 55.6185 41.4062 55.3711 41.4062C55.1523 41.4062 54.9609 41.4701 54.7969 41.5977C54.6354 41.7227 54.5039 41.8841 54.4023 42.082V45H53.3398V42.3555C53.3372 42.0169 53.2669 41.7747 53.1289 41.6289C52.9935 41.4805 52.8008 41.4062 52.5508 41.4062C52.3346 41.4062 52.1445 41.4701 51.9805 41.5977C51.819 41.7227 51.6888 41.8841 51.5898 42.082V45H50.5273ZM58.082 42.9062V42.7812C58.082 42.1328 58.2799 41.6029 58.6758 41.1914C59.0716 40.7799 59.5924 40.5742 60.2383 40.5742C60.8945 40.5742 61.3997 40.7669 61.7539 41.1523C62.1107 41.5378 62.2891 42.0573 62.2891 42.7109V43.1094H58.8164V42.3867H61.2227L61.2188 42.3477C61.2161 42.1029 61.1393 41.8711 60.9883 41.6523C60.8398 41.4336 60.5833 41.3242 60.2188 41.3242C59.875 41.3242 59.6081 41.4648 59.418 41.7461C59.2305 42.0273 59.1367 42.3724 59.1367 42.7812V42.9062C59.1367 43.3151 59.237 43.6602 59.4375 43.9414C59.638 44.2227 59.944 44.3633 60.3555 44.3633C60.6185 44.3633 60.8451 44.306 61.0352 44.1914C61.2279 44.0768 61.3815 43.9401 61.4961 43.7812L62.1914 44.3125C62.056 44.5182 61.8268 44.7044 61.5039 44.8711C61.1836 45.0352 60.8008 45.1172 60.3555 45.1172C59.6237 45.1172 59.0612 44.9115 58.668 44.5C58.2773 44.0885 58.082 43.5573 58.082 42.9062Z" fill="white"/>
</svg>
