<svg width="379" height="360" viewBox="0 0 379 360" fill="none" xmlns="http://www.w3.org/2000/svg">
<rect width="379" height="360" fill="#1E1E1E"/>
<rect x="199" width="180" height="360" rx="4" fill="#3F4547"/>
<line x1="204" y1="24.5" x2="374" y2="24.5" stroke="#687275"/>
<path d="M209.938 19V10.4688H211.678V13.9434H215.34V10.4688H217.086V19H215.34V15.2617H211.678V19H209.938ZM218.85 19V12.7246H220.543V19H218.85ZM218.703 11.0137C218.703 10.7598 218.789 10.5469 218.961 10.375C219.133 10.2031 219.377 10.1172 219.693 10.1172C220.014 10.1172 220.258 10.2031 220.426 10.375C220.598 10.5469 220.684 10.7598 220.684 11.0137C220.684 11.2715 220.598 11.4863 220.426 11.6582C220.258 11.8301 220.014 11.916 219.693 11.916C219.377 11.916 219.133 11.8301 218.961 11.6582C218.789 11.4863 218.703 11.2715 218.703 11.0137ZM221.768 17.043H223.438V17.1309C223.438 17.4355 223.545 17.6602 223.76 17.8047C223.975 17.9492 224.264 18.0215 224.627 18.0215C225.002 18.0215 225.283 17.9551 225.471 17.8223C225.662 17.6855 225.758 17.502 225.758 17.2715C225.758 17.041 225.666 16.8711 225.482 16.7617C225.299 16.6484 224.846 16.5215 224.123 16.3809C223.373 16.2363 222.822 16.0078 222.471 15.6953C222.119 15.3789 221.943 14.9688 221.943 14.4648C221.943 13.8867 222.184 13.4219 222.664 13.0703C223.145 12.7188 223.795 12.543 224.615 12.543C225.432 12.543 226.084 12.7246 226.572 13.0879C227.064 13.4512 227.311 13.9375 227.311 14.5469V14.6172H225.646V14.5352C225.646 14.2773 225.561 14.0742 225.389 13.9258C225.221 13.7773 224.961 13.7031 224.609 13.7031C224.258 13.7031 224.002 13.7637 223.842 13.8848C223.686 14.0059 223.607 14.1621 223.607 14.3535C223.607 14.5488 223.699 14.7051 223.883 14.8223C224.066 14.9395 224.529 15.0684 225.271 15.209C226.018 15.3535 226.564 15.5801 226.912 15.8887C227.264 16.1973 227.439 16.6191 227.439 17.1543C227.439 17.7715 227.201 18.2637 226.725 18.6309C226.252 18.9941 225.555 19.1758 224.633 19.1758C223.715 19.1758 223.008 18.9941 222.512 18.6309C222.016 18.2637 221.768 17.7559 221.768 17.1074V17.043ZM227.879 13.9434V12.7246H231.74V13.9434H227.879ZM228.852 17.1836V13.3809L228.857 13.2109V11.3477H230.539V17.1602C230.539 17.4375 230.592 17.6328 230.697 17.7461C230.803 17.8555 230.953 17.9102 231.148 17.9102C231.246 17.9102 231.342 17.8984 231.436 17.875C231.529 17.8516 231.621 17.8223 231.711 17.7871V18.9941C231.617 19.041 231.488 19.082 231.324 19.1172C231.16 19.1562 230.982 19.1758 230.791 19.1758C230.205 19.1758 229.734 19.0156 229.379 18.6953C229.027 18.375 228.852 17.8711 228.852 17.1836ZM232.338 15.9531V15.7656C232.338 14.793 232.637 14.0137 233.234 13.4277C233.832 12.8418 234.615 12.5488 235.584 12.5488C236.557 12.5488 237.342 12.8418 237.939 13.4277C238.537 14.0137 238.836 14.793 238.836 15.7656V15.9531C238.836 16.9258 238.537 17.707 237.939 18.2969C237.342 18.8828 236.557 19.1758 235.584 19.1758C234.615 19.1758 233.832 18.8828 233.234 18.2969C232.637 17.707 232.338 16.9258 232.338 15.9531ZM234.066 15.7012V16.0176C234.066 16.6035 234.197 17.0645 234.459 17.4004C234.721 17.7363 235.096 17.9043 235.584 17.9043C236.076 17.9043 236.451 17.7363 236.709 17.4004C236.971 17.0645 237.102 16.6035 237.102 16.0176V15.7012C237.102 15.1191 236.969 14.6602 236.703 14.3242C236.441 13.9883 236.068 13.8203 235.584 13.8203C235.1 13.8203 234.725 13.9883 234.459 14.3242C234.197 14.6602 234.066 15.1191 234.066 15.7012ZM240.09 19V12.7246H241.689L241.73 13.4277H241.76C241.893 13.1934 242.072 12.9902 242.299 12.8184C242.529 12.6426 242.793 12.5547 243.09 12.5547C243.172 12.5547 243.256 12.5645 243.342 12.584C243.428 12.6035 243.488 12.6211 243.523 12.6367V14.0898C243.453 14.0742 243.377 14.0625 243.295 14.0547C243.217 14.043 243.131 14.0371 243.037 14.0371C242.744 14.0371 242.486 14.1211 242.264 14.2891C242.045 14.4531 241.885 14.6582 241.783 14.9043V19H240.09ZM244.373 21.4375L244.391 20.1895C244.488 20.2207 244.604 20.2461 244.736 20.2656C244.869 20.2891 244.992 20.3008 245.105 20.3008C245.383 20.3008 245.619 20.2129 245.814 20.0371C246.01 19.8652 246.188 19.5078 246.348 18.9648L246.26 18.959L243.799 12.7246H245.51L246.84 16.4277C246.891 16.5801 246.936 16.7266 246.975 16.8672C247.014 17.0039 247.045 17.1426 247.068 17.2832H247.109C247.137 17.1426 247.168 17.0039 247.203 16.8672C247.238 16.7266 247.281 16.5801 247.332 16.4277L248.592 12.7246H250.15L247.508 19.7617C247.285 20.3438 246.984 20.7891 246.605 21.0977C246.23 21.4102 245.768 21.5664 245.217 21.5664C245.045 21.5664 244.889 21.5547 244.748 21.5312C244.611 21.5078 244.486 21.4766 244.373 21.4375Z" fill="white"/>
<rect width="180" height="360" rx="4" fill="#3F4547"/>
<line x1="5" y1="24.5" x2="175" y2="24.5" stroke="#687275"/>
<path d="M10.9375 19V10.4688H12.6777V13.9434H16.3398V10.4688H18.0859V19H16.3398V15.2617H12.6777V19H10.9375ZM19.8496 19V12.7246H21.543V19H19.8496ZM19.7031 11.0137C19.7031 10.7598 19.7891 10.5469 19.9609 10.375C20.1328 10.2031 20.377 10.1172 20.6934 10.1172C21.0137 10.1172 21.2578 10.2031 21.4258 10.375C21.5977 10.5469 21.6836 10.7598 21.6836 11.0137C21.6836 11.2715 21.5977 11.4863 21.4258 11.6582C21.2578 11.8301 21.0137 11.916 20.6934 11.916C20.377 11.916 20.1328 11.8301 19.9609 11.6582C19.7891 11.4863 19.7031 11.2715 19.7031 11.0137ZM22.7676 17.043H24.4375V17.1309C24.4375 17.4355 24.5449 17.6602 24.7598 17.8047C24.9746 17.9492 25.2637 18.0215 25.627 18.0215C26.002 18.0215 26.2832 17.9551 26.4707 17.8223C26.6621 17.6855 26.7578 17.502 26.7578 17.2715C26.7578 17.041 26.666 16.8711 26.4824 16.7617C26.2988 16.6484 25.8457 16.5215 25.123 16.3809C24.373 16.2363 23.8223 16.0078 23.4707 15.6953C23.1191 15.3789 22.9434 14.9688 22.9434 14.4648C22.9434 13.8867 23.1836 13.4219 23.6641 13.0703C24.1445 12.7188 24.7949 12.543 25.6152 12.543C26.4316 12.543 27.084 12.7246 27.5723 13.0879C28.0645 13.4512 28.3105 13.9375 28.3105 14.5469V14.6172H26.6465V14.5352C26.6465 14.2773 26.5605 14.0742 26.3887 13.9258C26.2207 13.7773 25.9609 13.7031 25.6094 13.7031C25.2578 13.7031 25.002 13.7637 24.8418 13.8848C24.6855 14.0059 24.6074 14.1621 24.6074 14.3535C24.6074 14.5488 24.6992 14.7051 24.8828 14.8223C25.0664 14.9395 25.5293 15.0684 26.2715 15.209C27.0176 15.3535 27.5645 15.5801 27.9121 15.8887C28.2637 16.1973 28.4395 16.6191 28.4395 17.1543C28.4395 17.7715 28.2012 18.2637 27.7246 18.6309C27.252 18.9941 26.5547 19.1758 25.6328 19.1758C24.7148 19.1758 24.0078 18.9941 23.5117 18.6309C23.0156 18.2637 22.7676 17.7559 22.7676 17.1074V17.043ZM28.8789 13.9434V12.7246H32.7402V13.9434H28.8789ZM29.8516 17.1836V13.3809L29.8574 13.2109V11.3477H31.5391V17.1602C31.5391 17.4375 31.5918 17.6328 31.6973 17.7461C31.8027 17.8555 31.9531 17.9102 32.1484 17.9102C32.2461 17.9102 32.3418 17.8984 32.4355 17.875C32.5293 17.8516 32.6211 17.8223 32.7109 17.7871V18.9941C32.6172 19.041 32.4883 19.082 32.3242 19.1172C32.1602 19.1562 31.9824 19.1758 31.791 19.1758C31.2051 19.1758 30.7344 19.0156 30.3789 18.6953C30.0273 18.375 29.8516 17.8711 29.8516 17.1836ZM33.3379 15.9531V15.7656C33.3379 14.793 33.6367 14.0137 34.2344 13.4277C34.832 12.8418 35.6152 12.5488 36.584 12.5488C37.5566 12.5488 38.3418 12.8418 38.9395 13.4277C39.5371 14.0137 39.8359 14.793 39.8359 15.7656V15.9531C39.8359 16.9258 39.5371 17.707 38.9395 18.2969C38.3418 18.8828 37.5566 19.1758 36.584 19.1758C35.6152 19.1758 34.832 18.8828 34.2344 18.2969C33.6367 17.707 33.3379 16.9258 33.3379 15.9531ZM35.0664 15.7012V16.0176C35.0664 16.6035 35.1973 17.0645 35.459 17.4004C35.7207 17.7363 36.0957 17.9043 36.584 17.9043C37.0762 17.9043 37.4512 17.7363 37.709 17.4004C37.9707 17.0645 38.1016 16.6035 38.1016 16.0176V15.7012C38.1016 15.1191 37.9688 14.6602 37.7031 14.3242C37.4414 13.9883 37.0684 13.8203 36.584 13.8203C36.0996 13.8203 35.7246 13.9883 35.459 14.3242C35.1973 14.6602 35.0664 15.1191 35.0664 15.7012ZM41.0898 19V12.7246H42.6895L42.7305 13.4277H42.7598C42.8926 13.1934 43.0723 12.9902 43.2988 12.8184C43.5293 12.6426 43.793 12.5547 44.0898 12.5547C44.1719 12.5547 44.2559 12.5645 44.3418 12.584C44.4277 12.6035 44.4883 12.6211 44.5234 12.6367V14.0898C44.4531 14.0742 44.377 14.0625 44.2949 14.0547C44.2168 14.043 44.1309 14.0371 44.0371 14.0371C43.7441 14.0371 43.4863 14.1211 43.2637 14.2891C43.0449 14.4531 42.8848 14.6582 42.7832 14.9043V19H41.0898ZM45.373 21.4375L45.3906 20.1895C45.4883 20.2207 45.6035 20.2461 45.7363 20.2656C45.8691 20.2891 45.9922 20.3008 46.1055 20.3008C46.3828 20.3008 46.6191 20.2129 46.8145 20.0371C47.0098 19.8652 47.1875 19.5078 47.3477 18.9648L47.2598 18.959L44.7988 12.7246H46.5098L47.8398 16.4277C47.8906 16.5801 47.9355 16.7266 47.9746 16.8672C48.0137 17.0039 48.0449 17.1426 48.0684 17.2832H48.1094C48.1367 17.1426 48.168 17.0039 48.2031 16.8672C48.2383 16.7266 48.2812 16.5801 48.332 16.4277L49.5918 12.7246H51.1504L48.5078 19.7617C48.2852 20.3438 47.9844 20.7891 47.6055 21.0977C47.2305 21.4102 46.7676 21.5664 46.2168 21.5664C46.0449 21.5664 45.8887 21.5547 45.748 21.5312C45.6113 21.5078 45.4863 21.4766 45.373 21.4375Z" fill="white"/>
<rect x="5" y="32" width="170" height="40" rx="2" fill="#687275"/>
<path d="M151.574 68V63.6914H152.57L152.602 64.2227H152.621C152.772 64.0247 152.96 63.8737 153.184 63.7695C153.408 63.6654 153.652 63.6133 153.918 63.6133C154.236 63.6133 154.508 63.6758 154.734 63.8008C154.961 63.9232 155.13 64.1081 155.242 64.3555H155.254C155.428 64.1029 155.642 63.9167 155.895 63.7969C156.147 63.6745 156.423 63.6133 156.723 63.6133C157.191 63.6133 157.565 63.7487 157.844 64.0195C158.122 64.2878 158.262 64.7357 158.262 65.3633V68H157.199V65.3555C157.197 65.0169 157.128 64.7747 156.992 64.6289C156.857 64.4805 156.665 64.4062 156.418 64.4062C156.199 64.4062 156.008 64.4701 155.844 64.5977C155.682 64.7227 155.551 64.8841 155.449 65.082V68H154.387V65.3555C154.384 65.0169 154.314 64.7747 154.176 64.6289C154.04 64.4805 153.848 64.4062 153.598 64.4062C153.382 64.4062 153.191 64.4701 153.027 64.5977C152.866 64.7227 152.736 64.8841 152.637 65.082V68H151.574ZM159.125 65.9062V65.7812C159.125 65.1354 159.331 64.6068 159.742 64.1953C160.154 63.7812 160.701 63.5742 161.383 63.5742C162.068 63.5742 162.615 63.7812 163.023 64.1953C163.435 64.6068 163.641 65.1354 163.641 65.7812V65.9062C163.641 66.5573 163.435 67.0885 163.023 67.5C162.615 67.9115 162.069 68.1172 161.387 68.1172C160.702 68.1172 160.154 67.9115 159.742 67.5C159.331 67.0885 159.125 66.5573 159.125 65.9062ZM160.215 65.7812V65.9102C160.215 66.3112 160.314 66.6484 160.512 66.9219C160.71 67.1953 161 67.332 161.383 67.332C161.766 67.332 162.056 67.1953 162.254 66.9219C162.452 66.6484 162.551 66.3099 162.551 65.9062V65.7812C162.551 65.3828 162.452 65.0469 162.254 64.7734C162.056 64.4974 161.766 64.3594 161.383 64.3594C161 64.3594 160.71 64.4974 160.512 64.7734C160.314 65.0469 160.215 65.3828 160.215 65.7812ZM164.543 68V63.6914H165.539L165.57 64.1992H165.59C165.691 64.0326 165.824 63.8867 165.988 63.7617C166.155 63.6367 166.353 63.5742 166.582 63.5742C166.639 63.5742 166.698 63.5807 166.758 63.5938C166.82 63.6068 166.865 63.6198 166.891 63.6328V64.5312C166.836 64.5208 166.78 64.513 166.723 64.5078C166.668 64.5026 166.607 64.5 166.539 64.5C166.312 64.5 166.118 64.5599 165.957 64.6797C165.798 64.7969 165.681 64.9427 165.605 65.1172V68H164.543ZM167.262 65.9062V65.7812C167.262 65.1328 167.46 64.6029 167.855 64.1914C168.251 63.7799 168.772 63.5742 169.418 63.5742C170.074 63.5742 170.579 63.7669 170.934 64.1523C171.29 64.5378 171.469 65.0573 171.469 65.7109V66.1094H167.996V65.3867H170.402L170.398 65.3477C170.396 65.1029 170.319 64.8711 170.168 64.6523C170.02 64.4336 169.763 64.3242 169.398 64.3242C169.055 64.3242 168.788 64.4648 168.598 64.7461C168.41 65.0273 168.316 65.3724 168.316 65.7812V65.9062C168.316 66.3151 168.417 66.6602 168.617 66.9414C168.818 67.2227 169.124 67.3633 169.535 67.3633C169.798 67.3633 170.025 67.306 170.215 67.1914C170.408 67.0768 170.561 66.9401 170.676 66.7812L171.371 67.3125C171.236 67.5182 171.007 67.7044 170.684 67.8711C170.363 68.0352 169.98 68.1172 169.535 68.1172C168.803 68.1172 168.241 67.9115 167.848 67.5C167.457 67.0885 167.262 66.5573 167.262 65.9062Z" fill="#3F4547"/>
<path d="M10.2461 65V64.2969L12.4922 62.1016C12.737 61.862 12.9193 61.6406 13.0391 61.4375C13.1589 61.2344 13.2188 61.0221 13.2188 60.8008C13.2188 60.5664 13.1406 60.3763 12.9844 60.2305C12.8281 60.082 12.6133 60.0078 12.3398 60.0078C12.0612 60.0078 11.832 60.0964 11.6523 60.2734C11.4753 60.4505 11.3776 60.7057 11.3594 61.0391V61.0781H10.2461V61.0391C10.2461 60.4896 10.4453 60.0456 10.8438 59.707C11.2422 59.3659 11.7435 59.1953 12.3477 59.1953C12.957 59.1953 13.4388 59.3464 13.793 59.6484C14.1497 59.9505 14.3281 60.3203 14.3281 60.7578C14.3281 61.112 14.2331 61.4349 14.043 61.7266C13.8555 62.0182 13.6003 62.319 13.2773 62.6289L11.707 64.1523H14.4766V65H10.2461ZM14.957 63.0469V61.2617C14.957 60.6445 15.1315 60.1458 15.4805 59.7656C15.832 59.3854 16.3359 59.1953 16.9922 59.1953C17.6432 59.1953 18.1458 59.3854 18.5 59.7656C18.8568 60.1458 19.0352 60.6445 19.0352 61.2617V63.0469C19.0352 63.6641 18.8568 64.1641 18.5 64.5469C18.1458 64.9271 17.6432 65.1172 16.9922 65.1172C16.3359 65.1172 15.832 64.9271 15.4805 64.5469C15.1315 64.1641 14.957 63.6641 14.957 63.0469ZM16.0781 63.0859C16.0781 63.4375 16.1471 63.7279 16.2852 63.957C16.4232 64.1862 16.6589 64.3008 16.9922 64.3008C17.3255 64.3008 17.5625 64.1862 17.7031 63.957C17.8438 63.7279 17.9141 63.4375 17.9141 63.0859V61.2227C17.9141 60.8737 17.8438 60.5846 17.7031 60.3555C17.5625 60.1237 17.3255 60.0078 16.9922 60.0078C16.6589 60.0078 16.4232 60.1237 16.2852 60.3555C16.1471 60.5846 16.0781 60.8737 16.0781 61.2227V63.0859ZM19.9648 64.457C19.9648 64.2826 20.0234 64.1341 20.1406 64.0117C20.2578 63.8893 20.4271 63.8281 20.6484 63.8281C20.8698 63.8281 21.0404 63.8893 21.1602 64.0117C21.2799 64.1341 21.3398 64.2826 21.3398 64.457C21.3398 64.6315 21.2799 64.7799 21.1602 64.9023C21.043 65.0247 20.8724 65.0859 20.6484 65.0859C20.4297 65.0859 20.2604 65.0247 20.1406 64.9023C20.0234 64.7799 19.9648 64.6315 19.9648 64.457ZM22.2695 63.0469V61.2617C22.2695 60.6445 22.444 60.1458 22.793 59.7656C23.1445 59.3854 23.6484 59.1953 24.3047 59.1953C24.9557 59.1953 25.4583 59.3854 25.8125 59.7656C26.1693 60.1458 26.3477 60.6445 26.3477 61.2617V63.0469C26.3477 63.6641 26.1693 64.1641 25.8125 64.5469C25.4583 64.9271 24.9557 65.1172 24.3047 65.1172C23.6484 65.1172 23.1445 64.9271 22.793 64.5469C22.444 64.1641 22.2695 63.6641 22.2695 63.0469ZM23.3906 63.0859C23.3906 63.4375 23.4596 63.7279 23.5977 63.957C23.7357 64.1862 23.9714 64.3008 24.3047 64.3008C24.638 64.3008 24.875 64.1862 25.0156 63.957C25.1562 63.7279 25.2266 63.4375 25.2266 63.0859V61.2227C25.2266 60.8737 25.1562 60.5846 25.0156 60.3555C24.875 60.1237 24.638 60.0078 24.3047 60.0078C23.9714 60.0078 23.7357 60.1237 23.5977 60.3555C23.4596 60.5846 23.3906 60.8737 23.3906 61.2227V63.0859ZM26.8867 65V64.2969L29.1328 62.1016C29.3776 61.862 29.5599 61.6406 29.6797 61.4375C29.7995 61.2344 29.8594 61.0221 29.8594 60.8008C29.8594 60.5664 29.7812 60.3763 29.625 60.2305C29.4688 60.082 29.2539 60.0078 28.9805 60.0078C28.7018 60.0078 28.4727 60.0964 28.293 60.2734C28.1159 60.4505 28.0182 60.7057 28 61.0391V61.0781H26.8867V61.0391C26.8867 60.4896 27.0859 60.0456 27.4844 59.707C27.8828 59.3659 28.3841 59.1953 28.9883 59.1953C29.5977 59.1953 30.0794 59.3464 30.4336 59.6484C30.7904 59.9505 30.9688 60.3203 30.9688 60.7578C30.9688 61.112 30.8737 61.4349 30.6836 61.7266C30.4961 62.0182 30.2409 62.319 29.918 62.6289L28.3477 64.1523H31.1172V65H26.8867ZM31.9414 64.457C31.9414 64.2826 32 64.1341 32.1172 64.0117C32.2344 63.8893 32.4036 63.8281 32.625 63.8281C32.8464 63.8281 33.0169 63.8893 33.1367 64.0117C33.2565 64.1341 33.3164 64.2826 33.3164 64.457C33.3164 64.6315 33.2565 64.7799 33.1367 64.9023C33.0195 65.0247 32.849 65.0859 32.625 65.0859C32.4062 65.0859 32.237 65.0247 32.1172 64.9023C32 64.7799 31.9414 64.6315 31.9414 64.457ZM34.1992 65V64.2969L36.4453 62.1016C36.6901 61.862 36.8724 61.6406 36.9922 61.4375C37.112 61.2344 37.1719 61.0221 37.1719 60.8008C37.1719 60.5664 37.0938 60.3763 36.9375 60.2305C36.7812 60.082 36.5664 60.0078 36.293 60.0078C36.0143 60.0078 35.7852 60.0964 35.6055 60.2734C35.4284 60.4505 35.3307 60.7057 35.3125 61.0391V61.0781H34.1992V61.0391C34.1992 60.4896 34.3984 60.0456 34.7969 59.707C35.1953 59.3659 35.6966 59.1953 36.3008 59.1953C36.9102 59.1953 37.3919 59.3464 37.7461 59.6484C38.1029 59.9505 38.2812 60.3203 38.2812 60.7578C38.2812 61.112 38.1862 61.4349 37.9961 61.7266C37.8086 62.0182 37.5534 62.319 37.2305 62.6289L35.6602 64.1523H38.4297V65H34.1992ZM38.9102 63.0469V61.2617C38.9102 60.6445 39.0846 60.1458 39.4336 59.7656C39.7852 59.3854 40.2891 59.1953 40.9453 59.1953C41.5964 59.1953 42.099 59.3854 42.4531 59.7656C42.8099 60.1458 42.9883 60.6445 42.9883 61.2617V63.0469C42.9883 63.6641 42.8099 64.1641 42.4531 64.5469C42.099 64.9271 41.5964 65.1172 40.9453 65.1172C40.2891 65.1172 39.7852 64.9271 39.4336 64.5469C39.0846 64.1641 38.9102 63.6641 38.9102 63.0469ZM40.0312 63.0859C40.0312 63.4375 40.1003 63.7279 40.2383 63.957C40.3763 64.1862 40.612 64.3008 40.9453 64.3008C41.2786 64.3008 41.5156 64.1862 41.6562 63.957C41.7969 63.7279 41.8672 63.4375 41.8672 63.0859V61.2227C41.8672 60.8737 41.7969 60.5846 41.6562 60.3555C41.5156 60.1237 41.2786 60.0078 40.9453 60.0078C40.612 60.0078 40.3763 60.1237 40.2383 60.3555C40.1003 60.5846 40.0312 60.8737 40.0312 61.2227V63.0859ZM43.5273 65V64.2969L45.7734 62.1016C46.0182 61.862 46.2005 61.6406 46.3203 61.4375C46.4401 61.2344 46.5 61.0221 46.5 60.8008C46.5 60.5664 46.4219 60.3763 46.2656 60.2305C46.1094 60.082 45.8945 60.0078 45.6211 60.0078C45.3424 60.0078 45.1133 60.0964 44.9336 60.2734C44.7565 60.4505 44.6589 60.7057 44.6406 61.0391V61.0781H43.5273V61.0391C43.5273 60.4896 43.7266 60.0456 44.125 59.707C44.5234 59.3659 45.0247 59.1953 45.6289 59.1953C46.2383 59.1953 46.7201 59.3464 47.0742 59.6484C47.431 59.9505 47.6094 60.3203 47.6094 60.7578C47.6094 61.112 47.5143 61.4349 47.3242 61.7266C47.1367 62.0182 46.8815 62.319 46.5586 62.6289L44.9883 64.1523H47.7578V65H43.5273ZM48.2383 63.0469V61.2617C48.2383 60.6445 48.4128 60.1458 48.7617 59.7656C49.1133 59.3854 49.6172 59.1953 50.2734 59.1953C50.9245 59.1953 51.4271 59.3854 51.7812 59.7656C52.138 60.1458 52.3164 60.6445 52.3164 61.2617V63.0469C52.3164 63.6641 52.138 64.1641 51.7812 64.5469C51.4271 64.9271 50.9245 65.1172 50.2734 65.1172C49.6172 65.1172 49.1133 64.9271 48.7617 64.5469C48.4128 64.1641 48.2383 63.6641 48.2383 63.0469ZM49.3594 63.0859C49.3594 63.4375 49.4284 63.7279 49.5664 63.957C49.7044 64.1862 49.9401 64.3008 50.2734 64.3008C50.6068 64.3008 50.8438 64.1862 50.9844 63.957C51.125 63.7279 51.1953 63.4375 51.1953 63.0859V61.2227C51.1953 60.8737 51.125 60.5846 50.9844 60.3555C50.8438 60.1237 50.6068 60.0078 50.2734 60.0078C49.9401 60.0078 49.7044 60.1237 49.5664 60.3555C49.4284 60.5846 49.3594 60.8737 49.3594 61.2227V63.0859ZM56.7617 65V64.2969L59.0078 62.1016C59.2526 61.862 59.4349 61.6406 59.5547 61.4375C59.6745 61.2344 59.7344 61.0221 59.7344 60.8008C59.7344 60.5664 59.6562 60.3763 59.5 60.2305C59.3438 60.082 59.1289 60.0078 58.8555 60.0078C58.5768 60.0078 58.3477 60.0964 58.168 60.2734C57.9909 60.4505 57.8932 60.7057 57.875 61.0391V61.0781H56.7617V61.0391C56.7617 60.4896 56.9609 60.0456 57.3594 59.707C57.7578 59.3659 58.2591 59.1953 58.8633 59.1953C59.4727 59.1953 59.9544 59.3464 60.3086 59.6484C60.6654 59.9505 60.8438 60.3203 60.8438 60.7578C60.8438 61.112 60.7487 61.4349 60.5586 61.7266C60.3711 62.0182 60.1159 62.319 59.793 62.6289L58.2227 64.1523H60.9922V65H56.7617ZM61.4727 63.0469V61.2617C61.4727 60.6445 61.6471 60.1458 61.9961 59.7656C62.3477 59.3854 62.8516 59.1953 63.5078 59.1953C64.1589 59.1953 64.6615 59.3854 65.0156 59.7656C65.3724 60.1458 65.5508 60.6445 65.5508 61.2617V63.0469C65.5508 63.6641 65.3724 64.1641 65.0156 64.5469C64.6615 64.9271 64.1589 65.1172 63.5078 65.1172C62.8516 65.1172 62.3477 64.9271 61.9961 64.5469C61.6471 64.1641 61.4727 63.6641 61.4727 63.0469ZM62.5938 63.0859C62.5938 63.4375 62.6628 63.7279 62.8008 63.957C62.9388 64.1862 63.1745 64.3008 63.5078 64.3008C63.8411 64.3008 64.0781 64.1862 64.2188 63.957C64.3594 63.7279 64.4297 63.4375 64.4297 63.0859V61.2227C64.4297 60.8737 64.3594 60.5846 64.2188 60.3555C64.0781 60.1237 63.8411 60.0078 63.5078 60.0078C63.1745 60.0078 62.9388 60.1237 62.8008 60.3555C62.6628 60.5846 62.5938 60.8737 62.5938 61.2227V63.0859ZM66.5234 64.4883C66.5234 64.3216 66.5807 64.1797 66.6953 64.0625C66.8099 63.9453 66.9766 63.8867 67.1953 63.8867C67.4115 63.8867 67.5781 63.9453 67.6953 64.0625C67.8125 64.1797 67.8711 64.3216 67.8711 64.4883C67.8711 64.6497 67.8125 64.7904 67.6953 64.9102C67.5807 65.0273 67.4141 65.0859 67.1953 65.0859C66.9766 65.0859 66.8099 65.0273 66.6953 64.9102C66.5807 64.7904 66.5234 64.6497 66.5234 64.4883ZM66.5234 61.207C66.5234 61.043 66.5807 60.9023 66.6953 60.7852C66.8099 60.6654 66.9766 60.6055 67.1953 60.6055C67.4141 60.6055 67.5807 60.6654 67.6953 60.7852C67.8125 60.9023 67.8711 61.043 67.8711 61.207C67.8711 61.3737 67.8125 61.5156 67.6953 61.6328C67.5781 61.7474 67.4115 61.8047 67.1953 61.8047C66.9766 61.8047 66.8099 61.7474 66.6953 61.6328C66.5807 61.5156 66.5234 61.3737 66.5234 61.207ZM68.793 65V64.2969L71.0391 62.1016C71.2839 61.862 71.4661 61.6406 71.5859 61.4375C71.7057 61.2344 71.7656 61.0221 71.7656 60.8008C71.7656 60.5664 71.6875 60.3763 71.5312 60.2305C71.375 60.082 71.1602 60.0078 70.8867 60.0078C70.6081 60.0078 70.3789 60.0964 70.1992 60.2734C70.0221 60.4505 69.9245 60.7057 69.9062 61.0391V61.0781H68.793V61.0391C68.793 60.4896 68.9922 60.0456 69.3906 59.707C69.7891 59.3659 70.2904 59.1953 70.8945 59.1953C71.5039 59.1953 71.9857 59.3464 72.3398 59.6484C72.6966 59.9505 72.875 60.3203 72.875 60.7578C72.875 61.112 72.7799 61.4349 72.5898 61.7266C72.4023 62.0182 72.1471 62.319 71.8242 62.6289L70.2539 64.1523H73.0234V65H68.793ZM73.5039 63.0469V61.2617C73.5039 60.6445 73.6784 60.1458 74.0273 59.7656C74.3789 59.3854 74.8828 59.1953 75.5391 59.1953C76.1901 59.1953 76.6927 59.3854 77.0469 59.7656C77.4036 60.1458 77.582 60.6445 77.582 61.2617V63.0469C77.582 63.6641 77.4036 64.1641 77.0469 64.5469C76.6927 64.9271 76.1901 65.1172 75.5391 65.1172C74.8828 65.1172 74.3789 64.9271 74.0273 64.5469C73.6784 64.1641 73.5039 63.6641 73.5039 63.0469ZM74.625 63.0859C74.625 63.4375 74.694 63.7279 74.832 63.957C74.9701 64.1862 75.2057 64.3008 75.5391 64.3008C75.8724 64.3008 76.1094 64.1862 76.25 63.957C76.3906 63.7279 76.4609 63.4375 76.4609 63.0859V61.2227C76.4609 60.8737 76.3906 60.5846 76.25 60.3555C76.1094 60.1237 75.8724 60.0078 75.5391 60.0078C75.2057 60.0078 74.9701 60.1237 74.832 60.3555C74.694 60.5846 74.625 60.8737 74.625 61.2227V63.0859Z" fill="white"/>
<path d="M9.98828 45L12.0352 39.2852H13.2266L15.2812 45H14.1133L12.7305 40.9023C12.6966 40.806 12.6667 40.7135 12.6406 40.625C12.6146 40.5365 12.5898 40.4453 12.5664 40.3516H12.5312C12.5104 40.4453 12.4857 40.5365 12.457 40.625C12.431 40.7135 12.401 40.806 12.3672 40.9023L10.9844 45H9.98828ZM10.9492 43.6562L11.2422 42.8594L13.9414 42.8633L14.2344 43.6602L10.9492 43.6562ZM15.6016 42.9062V42.7812C15.6016 42.1328 15.7995 41.6029 16.1953 41.1914C16.5911 40.7799 17.1341 40.5742 17.8242 40.5742C18.4753 40.5742 18.9701 40.7318 19.3086 41.0469C19.6471 41.362 19.8164 41.7135 19.8164 42.1016L19.8203 42.1289H18.7656V42.1094C18.7656 41.9062 18.6901 41.7279 18.5391 41.5742C18.3906 41.4206 18.1523 41.3438 17.8242 41.3438C17.4388 41.3438 17.1536 41.4831 16.9688 41.7617C16.7839 42.0378 16.6914 42.3776 16.6914 42.7812V42.9102C16.6914 43.3138 16.7839 43.6549 16.9688 43.9336C17.1536 44.2096 17.4388 44.3477 17.8242 44.3477C18.1497 44.3477 18.388 44.2708 18.5391 44.1172C18.6901 43.9635 18.7656 43.7865 18.7656 43.5859V43.5625H19.8164V43.5859C19.8164 43.9766 19.6471 44.3294 19.3086 44.6445C18.9701 44.9596 18.4753 45.1172 17.8242 45.1172C17.1341 45.1172 16.5911 44.9115 16.1953 44.5C15.7995 44.0885 15.6016 43.5573 15.6016 42.9062ZM20.1016 41.4375V40.6914H22.7617V41.4375H20.1016ZM20.8203 43.8242V41.125V41.0078V39.875H21.8828V43.8242C21.8828 44.0065 21.918 44.1367 21.9883 44.2148C22.0612 44.293 22.1706 44.332 22.3164 44.332C22.3867 44.332 22.4557 44.3242 22.5234 44.3086C22.5938 44.2904 22.6628 44.2695 22.7305 44.2461V45C22.6628 45.0312 22.5755 45.0586 22.4688 45.082C22.362 45.1055 22.2448 45.1172 22.1172 45.1172C21.724 45.1172 21.4089 45.013 21.1719 44.8047C20.9375 44.5964 20.8203 44.2695 20.8203 43.8242ZM23.5586 45V40.6914H24.6211V45H23.5586ZM23.4727 39.5547C23.4727 39.3984 23.526 39.2682 23.6328 39.1641C23.7396 39.0573 23.8919 39.0039 24.0898 39.0039C24.2878 39.0039 24.4388 39.0573 24.543 39.1641C24.6497 39.2708 24.7031 39.4023 24.7031 39.5586C24.7031 39.7148 24.6497 39.8464 24.543 39.9531C24.4388 40.0573 24.2878 40.1094 24.0898 40.1094C23.8919 40.1094 23.7396 40.0573 23.6328 39.9531C23.526 39.8464 23.4727 39.7135 23.4727 39.5547ZM25.1875 40.6914H26.2656L27.2656 43.3711C27.3047 43.4779 27.3346 43.5716 27.3555 43.6523C27.3763 43.7331 27.3945 43.8268 27.4102 43.9336H27.4336C27.4466 43.8216 27.4635 43.7266 27.4844 43.6484C27.5078 43.5677 27.5391 43.4753 27.5781 43.3711L28.5586 40.6914H29.5742L27.8594 45H26.8984L25.1875 40.6914ZM30.1445 45V40.6914H31.207V45H30.1445ZM30.0586 39.5547C30.0586 39.3984 30.112 39.2682 30.2188 39.1641C30.3255 39.0573 30.4779 39.0039 30.6758 39.0039C30.8737 39.0039 31.0247 39.0573 31.1289 39.1641C31.2357 39.2708 31.2891 39.4023 31.2891 39.5586C31.2891 39.7148 31.2357 39.8464 31.1289 39.9531C31.0247 40.0573 30.8737 40.1094 30.6758 40.1094C30.4779 40.1094 30.3255 40.0573 30.2188 39.9531C30.112 39.8464 30.0586 39.7135 30.0586 39.5547ZM31.8125 41.4375V40.6914H34.4727V41.4375H31.8125ZM32.5312 43.8242V41.125V41.0078V39.875H33.5938V43.8242C33.5938 44.0065 33.6289 44.1367 33.6992 44.2148C33.7721 44.293 33.8815 44.332 34.0273 44.332C34.0977 44.332 34.1667 44.3242 34.2344 44.3086C34.3047 44.2904 34.3737 44.2695 34.4414 44.2461V45C34.3737 45.0312 34.2865 45.0586 34.1797 45.082C34.0729 45.1055 33.9557 45.1172 33.8281 45.1172C33.4349 45.1172 33.1198 45.013 32.8828 44.8047C32.6484 44.5964 32.5312 44.2695 32.5312 43.8242ZM35.0195 46.625V45.8438C35.0898 45.8672 35.1771 45.888 35.2812 45.9062C35.388 45.9271 35.4831 45.9375 35.5664 45.9375C35.7643 45.9375 35.9284 45.8737 36.0586 45.7461C36.1914 45.6211 36.3216 45.3594 36.4492 44.9609H36.3555L34.6367 40.6914H35.6992L36.6875 43.3047C36.7266 43.4089 36.7643 43.5182 36.8008 43.6328C36.8398 43.7474 36.8685 43.8581 36.8867 43.9648H36.9102C36.9284 43.8581 36.9544 43.7487 36.9883 43.6367C37.0247 43.5221 37.0612 43.4128 37.0977 43.3086L38.0117 40.6914H39.0391L37.1289 45.5469C36.9831 45.9115 36.7878 46.1979 36.543 46.4062C36.3008 46.6172 35.9935 46.7227 35.6211 46.7227C35.5091 46.7227 35.3997 46.7122 35.293 46.6914C35.1888 46.6732 35.0977 46.651 35.0195 46.625ZM39.6367 45V39.3125H40.8594L43.0977 43.0391C43.1445 43.1172 43.1888 43.207 43.2305 43.3086C43.2747 43.4076 43.3125 43.4948 43.3438 43.5703H43.3789C43.3711 43.4844 43.3646 43.3737 43.3594 43.2383C43.3542 43.1003 43.3516 42.9883 43.3516 42.9023V39.3125H44.293V45H43.0742L40.8164 41.2773C40.7669 41.1966 40.7227 41.1172 40.6836 41.0391C40.6471 40.9583 40.6146 40.8802 40.5859 40.8047H40.5508C40.5586 40.8906 40.5651 40.9831 40.5703 41.082C40.5755 41.1784 40.5781 41.2695 40.5781 41.3555V45H39.6367ZM45.3008 43.7344C45.3008 43.2891 45.4961 42.9414 45.8867 42.6914C46.2773 42.4414 46.7721 42.3164 47.3711 42.3164H48.2773V41.9883C48.2773 41.7852 48.2135 41.6198 48.0859 41.4922C47.9609 41.3646 47.7474 41.3008 47.4453 41.3008C47.1432 41.3008 46.9258 41.3607 46.793 41.4805C46.6628 41.6003 46.5977 41.7383 46.5977 41.8945V41.918H45.5352V41.8945C45.5352 41.5404 45.7096 41.2318 46.0586 40.9688C46.4076 40.7057 46.8776 40.5742 47.4688 40.5742C48.0573 40.5742 48.5156 40.6927 48.8438 40.9297C49.1719 41.1667 49.3359 41.5195 49.3359 41.9883V44.0625C49.3359 44.2318 49.349 44.3919 49.375 44.543C49.4036 44.6914 49.4414 44.8229 49.4883 44.9375V45H48.4492C48.4128 44.9349 48.3802 44.8503 48.3516 44.7461C48.3229 44.6393 48.3047 44.5339 48.2969 44.4297C48.1979 44.6016 48.0299 44.7526 47.793 44.8828C47.556 45.013 47.2565 45.0781 46.8945 45.0781C46.4544 45.0781 46.0781 44.9635 45.7656 44.7344C45.4557 44.5026 45.3008 44.1693 45.3008 43.7344ZM46.3633 43.6992C46.3633 43.9023 46.4258 44.0625 46.5508 44.1797C46.6784 44.2943 46.8737 44.3516 47.1367 44.3516C47.4232 44.3516 47.6849 44.2617 47.9219 44.082C48.1589 43.9023 48.2773 43.7109 48.2773 43.5078V42.9766H47.4453C47.0911 42.9766 46.8216 43.0417 46.6367 43.1719C46.4544 43.3021 46.3633 43.4779 46.3633 43.6992ZM50.5273 45V40.6914H51.5234L51.5547 41.2227H51.5742C51.7253 41.0247 51.9128 40.8737 52.1367 40.7695C52.3607 40.6654 52.6055 40.6133 52.8711 40.6133C53.1888 40.6133 53.4609 40.6758 53.6875 40.8008C53.9141 40.9232 54.0833 41.1081 54.1953 41.3555H54.207C54.3815 41.1029 54.5951 40.9167 54.8477 40.7969C55.1003 40.6745 55.3763 40.6133 55.6758 40.6133C56.1445 40.6133 56.5182 40.7487 56.7969 41.0195C57.0755 41.2878 57.2148 41.7357 57.2148 42.3633V45H56.1523V42.3555C56.1497 42.0169 56.0807 41.7747 55.9453 41.6289C55.8099 41.4805 55.6185 41.4062 55.3711 41.4062C55.1523 41.4062 54.9609 41.4701 54.7969 41.5977C54.6354 41.7227 54.5039 41.8841 54.4023 42.082V45H53.3398V42.3555C53.3372 42.0169 53.2669 41.7747 53.1289 41.6289C52.9935 41.4805 52.8008 41.4062 52.5508 41.4062C52.3346 41.4062 52.1445 41.4701 51.9805 41.5977C51.819 41.7227 51.6888 41.8841 51.5898 42.082V45H50.5273ZM58.082 42.9062V42.7812C58.082 42.1328 58.2799 41.6029 58.6758 41.1914C59.0716 40.7799 59.5924 40.5742 60.2383 40.5742C60.8945 40.5742 61.3997 40.7669 61.7539 41.1523C62.1107 41.5378 62.2891 42.0573 62.2891 42.7109V43.1094H58.8164V42.3867H61.2227L61.2188 42.3477C61.2161 42.1029 61.1393 41.8711 60.9883 41.6523C60.8398 41.4336 60.5833 41.3242 60.2188 41.3242C59.875 41.3242 59.6081 41.4648 59.418 41.7461C59.2305 42.0273 59.1367 42.3724 59.1367 42.7812V42.9062C59.1367 43.3151 59.237 43.6602 59.4375 43.9414C59.638 44.2227 59.944 44.3633 60.3555 44.3633C60.6185 44.3633 60.8451 44.306 61.0352 44.1914C61.2279 44.0768 61.3815 43.9401 61.4961 43.7812L62.1914 44.3125C62.056 44.5182 61.8268 44.7044 61.5039 44.8711C61.1836 45.0352 60.8008 45.1172 60.3555 45.1172C59.6237 45.1172 59.0612 44.9115 58.668 44.5C58.2773 44.0885 58.082 43.5573 58.082 42.9062Z" fill="white"/>
<rect x="204" y="32" width="170" height="40" rx="2" fill="#687275"/>
<path d="M350.574 68V63.6914H351.57L351.602 64.2227H351.621C351.772 64.0247 351.96 63.8737 352.184 63.7695C352.408 63.6654 352.652 63.6133 352.918 63.6133C353.236 63.6133 353.508 63.6758 353.734 63.8008C353.961 63.9232 354.13 64.1081 354.242 64.3555H354.254C354.428 64.1029 354.642 63.9167 354.895 63.7969C355.147 63.6745 355.423 63.6133 355.723 63.6133C356.191 63.6133 356.565 63.7487 356.844 64.0195C357.122 64.2878 357.262 64.7357 357.262 65.3633V68H356.199V65.3555C356.197 65.0169 356.128 64.7747 355.992 64.6289C355.857 64.4805 355.665 64.4062 355.418 64.4062C355.199 64.4062 355.008 64.4701 354.844 64.5977C354.682 64.7227 354.551 64.8841 354.449 65.082V68H353.387V65.3555C353.384 65.0169 353.314 64.7747 353.176 64.6289C353.04 64.4805 352.848 64.4062 352.598 64.4062C352.382 64.4062 352.191 64.4701 352.027 64.5977C351.866 64.7227 351.736 64.8841 351.637 65.082V68H350.574ZM358.125 65.9062V65.7812C358.125 65.1354 358.331 64.6068 358.742 64.1953C359.154 63.7812 359.701 63.5742 360.383 63.5742C361.068 63.5742 361.615 63.7812 362.023 64.1953C362.435 64.6068 362.641 65.1354 362.641 65.7812V65.9062C362.641 66.5573 362.435 67.0885 362.023 67.5C361.615 67.9115 361.069 68.1172 360.387 68.1172C359.702 68.1172 359.154 67.9115 358.742 67.5C358.331 67.0885 358.125 66.5573 358.125 65.9062ZM359.215 65.7812V65.9102C359.215 66.3112 359.314 66.6484 359.512 66.9219C359.71 67.1953 360 67.332 360.383 67.332C360.766 67.332 361.056 67.1953 361.254 66.9219C361.452 66.6484 361.551 66.3099 361.551 65.9062V65.7812C361.551 65.3828 361.452 65.0469 361.254 64.7734C361.056 64.4974 360.766 64.3594 360.383 64.3594C360 64.3594 359.71 64.4974 359.512 64.7734C359.314 65.0469 359.215 65.3828 359.215 65.7812ZM363.543 68V63.6914H364.539L364.57 64.1992H364.59C364.691 64.0326 364.824 63.8867 364.988 63.7617C365.155 63.6367 365.353 63.5742 365.582 63.5742C365.639 63.5742 365.698 63.5807 365.758 63.5938C365.82 63.6068 365.865 63.6198 365.891 63.6328V64.5312C365.836 64.5208 365.78 64.513 365.723 64.5078C365.668 64.5026 365.607 64.5 365.539 64.5C365.312 64.5 365.118 64.5599 364.957 64.6797C364.798 64.7969 364.681 64.9427 364.605 65.1172V68H363.543ZM366.262 65.9062V65.7812C366.262 65.1328 366.46 64.6029 366.855 64.1914C367.251 63.7799 367.772 63.5742 368.418 63.5742C369.074 63.5742 369.579 63.7669 369.934 64.1523C370.29 64.5378 370.469 65.0573 370.469 65.7109V66.1094H366.996V65.3867H369.402L369.398 65.3477C369.396 65.1029 369.319 64.8711 369.168 64.6523C369.02 64.4336 368.763 64.3242 368.398 64.3242C368.055 64.3242 367.788 64.4648 367.598 64.7461C367.41 65.0273 367.316 65.3724 367.316 65.7812V65.9062C367.316 66.3151 367.417 66.6602 367.617 66.9414C367.818 67.2227 368.124 67.3633 368.535 67.3633C368.798 67.3633 369.025 67.306 369.215 67.1914C369.408 67.0768 369.561 66.9401 369.676 66.7812L370.371 67.3125C370.236 67.5182 370.007 67.7044 369.684 67.8711C369.363 68.0352 368.98 68.1172 368.535 68.1172C367.803 68.1172 367.241 67.9115 366.848 67.5C366.457 67.0885 366.262 66.5573 366.262 65.9062Z" fill="#285B6C"/>
<path d="M209.246 65V64.2969L211.492 62.1016C211.737 61.862 211.919 61.6406 212.039 61.4375C212.159 61.2344 212.219 61.0221 212.219 60.8008C212.219 60.5664 212.141 60.3763 211.984 60.2305C211.828 60.082 211.613 60.0078 211.34 60.0078C211.061 60.0078 210.832 60.0964 210.652 60.2734C210.475 60.4505 210.378 60.7057 210.359 61.0391V61.0781H209.246V61.0391C209.246 60.4896 209.445 60.0456 209.844 59.707C210.242 59.3659 210.743 59.1953 211.348 59.1953C211.957 59.1953 212.439 59.3464 212.793 59.6484C213.15 59.9505 213.328 60.3203 213.328 60.7578C213.328 61.112 213.233 61.4349 213.043 61.7266C212.855 62.0182 212.6 62.319 212.277 62.6289L210.707 64.1523H213.477V65H209.246ZM213.957 63.0469V61.2617C213.957 60.6445 214.132 60.1458 214.48 59.7656C214.832 59.3854 215.336 59.1953 215.992 59.1953C216.643 59.1953 217.146 59.3854 217.5 59.7656C217.857 60.1458 218.035 60.6445 218.035 61.2617V63.0469C218.035 63.6641 217.857 64.1641 217.5 64.5469C217.146 64.9271 216.643 65.1172 215.992 65.1172C215.336 65.1172 214.832 64.9271 214.48 64.5469C214.132 64.1641 213.957 63.6641 213.957 63.0469ZM215.078 63.0859C215.078 63.4375 215.147 63.7279 215.285 63.957C215.423 64.1862 215.659 64.3008 215.992 64.3008C216.326 64.3008 216.562 64.1862 216.703 63.957C216.844 63.7279 216.914 63.4375 216.914 63.0859V61.2227C216.914 60.8737 216.844 60.5846 216.703 60.3555C216.562 60.1237 216.326 60.0078 215.992 60.0078C215.659 60.0078 215.423 60.1237 215.285 60.3555C215.147 60.5846 215.078 60.8737 215.078 61.2227V63.0859ZM218.965 64.457C218.965 64.2826 219.023 64.1341 219.141 64.0117C219.258 63.8893 219.427 63.8281 219.648 63.8281C219.87 63.8281 220.04 63.8893 220.16 64.0117C220.28 64.1341 220.34 64.2826 220.34 64.457C220.34 64.6315 220.28 64.7799 220.16 64.9023C220.043 65.0247 219.872 65.0859 219.648 65.0859C219.43 65.0859 219.26 65.0247 219.141 64.9023C219.023 64.7799 218.965 64.6315 218.965 64.457ZM221.27 63.0469V61.2617C221.27 60.6445 221.444 60.1458 221.793 59.7656C222.145 59.3854 222.648 59.1953 223.305 59.1953C223.956 59.1953 224.458 59.3854 224.812 59.7656C225.169 60.1458 225.348 60.6445 225.348 61.2617V63.0469C225.348 63.6641 225.169 64.1641 224.812 64.5469C224.458 64.9271 223.956 65.1172 223.305 65.1172C222.648 65.1172 222.145 64.9271 221.793 64.5469C221.444 64.1641 221.27 63.6641 221.27 63.0469ZM222.391 63.0859C222.391 63.4375 222.46 63.7279 222.598 63.957C222.736 64.1862 222.971 64.3008 223.305 64.3008C223.638 64.3008 223.875 64.1862 224.016 63.957C224.156 63.7279 224.227 63.4375 224.227 63.0859V61.2227C224.227 60.8737 224.156 60.5846 224.016 60.3555C223.875 60.1237 223.638 60.0078 223.305 60.0078C222.971 60.0078 222.736 60.1237 222.598 60.3555C222.46 60.5846 222.391 60.8737 222.391 61.2227V63.0859ZM225.887 65V64.2969L228.133 62.1016C228.378 61.862 228.56 61.6406 228.68 61.4375C228.799 61.2344 228.859 61.0221 228.859 60.8008C228.859 60.5664 228.781 60.3763 228.625 60.2305C228.469 60.082 228.254 60.0078 227.98 60.0078C227.702 60.0078 227.473 60.0964 227.293 60.2734C227.116 60.4505 227.018 60.7057 227 61.0391V61.0781H225.887V61.0391C225.887 60.4896 226.086 60.0456 226.484 59.707C226.883 59.3659 227.384 59.1953 227.988 59.1953C228.598 59.1953 229.079 59.3464 229.434 59.6484C229.79 59.9505 229.969 60.3203 229.969 60.7578C229.969 61.112 229.874 61.4349 229.684 61.7266C229.496 62.0182 229.241 62.319 228.918 62.6289L227.348 64.1523H230.117V65H225.887ZM230.941 64.457C230.941 64.2826 231 64.1341 231.117 64.0117C231.234 63.8893 231.404 63.8281 231.625 63.8281C231.846 63.8281 232.017 63.8893 232.137 64.0117C232.257 64.1341 232.316 64.2826 232.316 64.457C232.316 64.6315 232.257 64.7799 232.137 64.9023C232.02 65.0247 231.849 65.0859 231.625 65.0859C231.406 65.0859 231.237 65.0247 231.117 64.9023C231 64.7799 230.941 64.6315 230.941 64.457ZM233.199 65V64.2969L235.445 62.1016C235.69 61.862 235.872 61.6406 235.992 61.4375C236.112 61.2344 236.172 61.0221 236.172 60.8008C236.172 60.5664 236.094 60.3763 235.938 60.2305C235.781 60.082 235.566 60.0078 235.293 60.0078C235.014 60.0078 234.785 60.0964 234.605 60.2734C234.428 60.4505 234.331 60.7057 234.312 61.0391V61.0781H233.199V61.0391C233.199 60.4896 233.398 60.0456 233.797 59.707C234.195 59.3659 234.697 59.1953 235.301 59.1953C235.91 59.1953 236.392 59.3464 236.746 59.6484C237.103 59.9505 237.281 60.3203 237.281 60.7578C237.281 61.112 237.186 61.4349 236.996 61.7266C236.809 62.0182 236.553 62.319 236.23 62.6289L234.66 64.1523H237.43V65H233.199ZM237.91 63.0469V61.2617C237.91 60.6445 238.085 60.1458 238.434 59.7656C238.785 59.3854 239.289 59.1953 239.945 59.1953C240.596 59.1953 241.099 59.3854 241.453 59.7656C241.81 60.1458 241.988 60.6445 241.988 61.2617V63.0469C241.988 63.6641 241.81 64.1641 241.453 64.5469C241.099 64.9271 240.596 65.1172 239.945 65.1172C239.289 65.1172 238.785 64.9271 238.434 64.5469C238.085 64.1641 237.91 63.6641 237.91 63.0469ZM239.031 63.0859C239.031 63.4375 239.1 63.7279 239.238 63.957C239.376 64.1862 239.612 64.3008 239.945 64.3008C240.279 64.3008 240.516 64.1862 240.656 63.957C240.797 63.7279 240.867 63.4375 240.867 63.0859V61.2227C240.867 60.8737 240.797 60.5846 240.656 60.3555C240.516 60.1237 240.279 60.0078 239.945 60.0078C239.612 60.0078 239.376 60.1237 239.238 60.3555C239.1 60.5846 239.031 60.8737 239.031 61.2227V63.0859ZM242.527 65V64.2969L244.773 62.1016C245.018 61.862 245.201 61.6406 245.32 61.4375C245.44 61.2344 245.5 61.0221 245.5 60.8008C245.5 60.5664 245.422 60.3763 245.266 60.2305C245.109 60.082 244.895 60.0078 244.621 60.0078C244.342 60.0078 244.113 60.0964 243.934 60.2734C243.757 60.4505 243.659 60.7057 243.641 61.0391V61.0781H242.527V61.0391C242.527 60.4896 242.727 60.0456 243.125 59.707C243.523 59.3659 244.025 59.1953 244.629 59.1953C245.238 59.1953 245.72 59.3464 246.074 59.6484C246.431 59.9505 246.609 60.3203 246.609 60.7578C246.609 61.112 246.514 61.4349 246.324 61.7266C246.137 62.0182 245.882 62.319 245.559 62.6289L243.988 64.1523H246.758V65H242.527ZM247.238 63.0469V61.2617C247.238 60.6445 247.413 60.1458 247.762 59.7656C248.113 59.3854 248.617 59.1953 249.273 59.1953C249.924 59.1953 250.427 59.3854 250.781 59.7656C251.138 60.1458 251.316 60.6445 251.316 61.2617V63.0469C251.316 63.6641 251.138 64.1641 250.781 64.5469C250.427 64.9271 249.924 65.1172 249.273 65.1172C248.617 65.1172 248.113 64.9271 247.762 64.5469C247.413 64.1641 247.238 63.6641 247.238 63.0469ZM248.359 63.0859C248.359 63.4375 248.428 63.7279 248.566 63.957C248.704 64.1862 248.94 64.3008 249.273 64.3008C249.607 64.3008 249.844 64.1862 249.984 63.957C250.125 63.7279 250.195 63.4375 250.195 63.0859V61.2227C250.195 60.8737 250.125 60.5846 249.984 60.3555C249.844 60.1237 249.607 60.0078 249.273 60.0078C248.94 60.0078 248.704 60.1237 248.566 60.3555C248.428 60.5846 248.359 60.8737 248.359 61.2227V63.0859ZM255.762 65V64.2969L258.008 62.1016C258.253 61.862 258.435 61.6406 258.555 61.4375C258.674 61.2344 258.734 61.0221 258.734 60.8008C258.734 60.5664 258.656 60.3763 258.5 60.2305C258.344 60.082 258.129 60.0078 257.855 60.0078C257.577 60.0078 257.348 60.0964 257.168 60.2734C256.991 60.4505 256.893 60.7057 256.875 61.0391V61.0781H255.762V61.0391C255.762 60.4896 255.961 60.0456 256.359 59.707C256.758 59.3659 257.259 59.1953 257.863 59.1953C258.473 59.1953 258.954 59.3464 259.309 59.6484C259.665 59.9505 259.844 60.3203 259.844 60.7578C259.844 61.112 259.749 61.4349 259.559 61.7266C259.371 62.0182 259.116 62.319 258.793 62.6289L257.223 64.1523H259.992V65H255.762ZM260.473 63.0469V61.2617C260.473 60.6445 260.647 60.1458 260.996 59.7656C261.348 59.3854 261.852 59.1953 262.508 59.1953C263.159 59.1953 263.661 59.3854 264.016 59.7656C264.372 60.1458 264.551 60.6445 264.551 61.2617V63.0469C264.551 63.6641 264.372 64.1641 264.016 64.5469C263.661 64.9271 263.159 65.1172 262.508 65.1172C261.852 65.1172 261.348 64.9271 260.996 64.5469C260.647 64.1641 260.473 63.6641 260.473 63.0469ZM261.594 63.0859C261.594 63.4375 261.663 63.7279 261.801 63.957C261.939 64.1862 262.174 64.3008 262.508 64.3008C262.841 64.3008 263.078 64.1862 263.219 63.957C263.359 63.7279 263.43 63.4375 263.43 63.0859V61.2227C263.43 60.8737 263.359 60.5846 263.219 60.3555C263.078 60.1237 262.841 60.0078 262.508 60.0078C262.174 60.0078 261.939 60.1237 261.801 60.3555C261.663 60.5846 261.594 60.8737 261.594 61.2227V63.0859ZM265.523 64.4883C265.523 64.3216 265.581 64.1797 265.695 64.0625C265.81 63.9453 265.977 63.8867 266.195 63.8867C266.411 63.8867 266.578 63.9453 266.695 64.0625C266.812 64.1797 266.871 64.3216 266.871 64.4883C266.871 64.6497 266.812 64.7904 266.695 64.9102C266.581 65.0273 266.414 65.0859 266.195 65.0859C265.977 65.0859 265.81 65.0273 265.695 64.9102C265.581 64.7904 265.523 64.6497 265.523 64.4883ZM265.523 61.207C265.523 61.043 265.581 60.9023 265.695 60.7852C265.81 60.6654 265.977 60.6055 266.195 60.6055C266.414 60.6055 266.581 60.6654 266.695 60.7852C266.812 60.9023 266.871 61.043 266.871 61.207C266.871 61.3737 266.812 61.5156 266.695 61.6328C266.578 61.7474 266.411 61.8047 266.195 61.8047C265.977 61.8047 265.81 61.7474 265.695 61.6328C265.581 61.5156 265.523 61.3737 265.523 61.207ZM267.793 65V64.2969L270.039 62.1016C270.284 61.862 270.466 61.6406 270.586 61.4375C270.706 61.2344 270.766 61.0221 270.766 60.8008C270.766 60.5664 270.688 60.3763 270.531 60.2305C270.375 60.082 270.16 60.0078 269.887 60.0078C269.608 60.0078 269.379 60.0964 269.199 60.2734C269.022 60.4505 268.924 60.7057 268.906 61.0391V61.0781H267.793V61.0391C267.793 60.4896 267.992 60.0456 268.391 59.707C268.789 59.3659 269.29 59.1953 269.895 59.1953C270.504 59.1953 270.986 59.3464 271.34 59.6484C271.697 59.9505 271.875 60.3203 271.875 60.7578C271.875 61.112 271.78 61.4349 271.59 61.7266C271.402 62.0182 271.147 62.319 270.824 62.6289L269.254 64.1523H272.023V65H267.793ZM272.504 63.0469V61.2617C272.504 60.6445 272.678 60.1458 273.027 59.7656C273.379 59.3854 273.883 59.1953 274.539 59.1953C275.19 59.1953 275.693 59.3854 276.047 59.7656C276.404 60.1458 276.582 60.6445 276.582 61.2617V63.0469C276.582 63.6641 276.404 64.1641 276.047 64.5469C275.693 64.9271 275.19 65.1172 274.539 65.1172C273.883 65.1172 273.379 64.9271 273.027 64.5469C272.678 64.1641 272.504 63.6641 272.504 63.0469ZM273.625 63.0859C273.625 63.4375 273.694 63.7279 273.832 63.957C273.97 64.1862 274.206 64.3008 274.539 64.3008C274.872 64.3008 275.109 64.1862 275.25 63.957C275.391 63.7279 275.461 63.4375 275.461 63.0859V61.2227C275.461 60.8737 275.391 60.5846 275.25 60.3555C275.109 60.1237 274.872 60.0078 274.539 60.0078C274.206 60.0078 273.97 60.1237 273.832 60.3555C273.694 60.5846 273.625 60.8737 273.625 61.2227V63.0859Z" fill="white"/>
<path d="M208.988 45L211.035 39.2852H212.227L214.281 45H213.113L211.73 40.9023C211.697 40.806 211.667 40.7135 211.641 40.625C211.615 40.5365 211.59 40.4453 211.566 40.3516H211.531C211.51 40.4453 211.486 40.5365 211.457 40.625C211.431 40.7135 211.401 40.806 211.367 40.9023L209.984 45H208.988ZM209.949 43.6562L210.242 42.8594L212.941 42.8633L213.234 43.6602L209.949 43.6562ZM214.602 42.9062V42.7812C214.602 42.1328 214.799 41.6029 215.195 41.1914C215.591 40.7799 216.134 40.5742 216.824 40.5742C217.475 40.5742 217.97 40.7318 218.309 41.0469C218.647 41.362 218.816 41.7135 218.816 42.1016L218.82 42.1289H217.766V42.1094C217.766 41.9062 217.69 41.7279 217.539 41.5742C217.391 41.4206 217.152 41.3438 216.824 41.3438C216.439 41.3438 216.154 41.4831 215.969 41.7617C215.784 42.0378 215.691 42.3776 215.691 42.7812V42.9102C215.691 43.3138 215.784 43.6549 215.969 43.9336C216.154 44.2096 216.439 44.3477 216.824 44.3477C217.15 44.3477 217.388 44.2708 217.539 44.1172C217.69 43.9635 217.766 43.7865 217.766 43.5859V43.5625H218.816V43.5859C218.816 43.9766 218.647 44.3294 218.309 44.6445C217.97 44.9596 217.475 45.1172 216.824 45.1172C216.134 45.1172 215.591 44.9115 215.195 44.5C214.799 44.0885 214.602 43.5573 214.602 42.9062ZM219.102 41.4375V40.6914H221.762V41.4375H219.102ZM219.82 43.8242V41.125V41.0078V39.875H220.883V43.8242C220.883 44.0065 220.918 44.1367 220.988 44.2148C221.061 44.293 221.171 44.332 221.316 44.332C221.387 44.332 221.456 44.3242 221.523 44.3086C221.594 44.2904 221.663 44.2695 221.73 44.2461V45C221.663 45.0312 221.576 45.0586 221.469 45.082C221.362 45.1055 221.245 45.1172 221.117 45.1172C220.724 45.1172 220.409 45.013 220.172 44.8047C219.938 44.5964 219.82 44.2695 219.82 43.8242ZM222.559 45V40.6914H223.621V45H222.559ZM222.473 39.5547C222.473 39.3984 222.526 39.2682 222.633 39.1641C222.74 39.0573 222.892 39.0039 223.09 39.0039C223.288 39.0039 223.439 39.0573 223.543 39.1641C223.65 39.2708 223.703 39.4023 223.703 39.5586C223.703 39.7148 223.65 39.8464 223.543 39.9531C223.439 40.0573 223.288 40.1094 223.09 40.1094C222.892 40.1094 222.74 40.0573 222.633 39.9531C222.526 39.8464 222.473 39.7135 222.473 39.5547ZM224.188 40.6914H225.266L226.266 43.3711C226.305 43.4779 226.335 43.5716 226.355 43.6523C226.376 43.7331 226.395 43.8268 226.41 43.9336H226.434C226.447 43.8216 226.464 43.7266 226.484 43.6484C226.508 43.5677 226.539 43.4753 226.578 43.3711L227.559 40.6914H228.574L226.859 45H225.898L224.188 40.6914ZM229.145 45V40.6914H230.207V45H229.145ZM229.059 39.5547C229.059 39.3984 229.112 39.2682 229.219 39.1641C229.326 39.0573 229.478 39.0039 229.676 39.0039C229.874 39.0039 230.025 39.0573 230.129 39.1641C230.236 39.2708 230.289 39.4023 230.289 39.5586C230.289 39.7148 230.236 39.8464 230.129 39.9531C230.025 40.0573 229.874 40.1094 229.676 40.1094C229.478 40.1094 229.326 40.0573 229.219 39.9531C229.112 39.8464 229.059 39.7135 229.059 39.5547ZM230.812 41.4375V40.6914H233.473V41.4375H230.812ZM231.531 43.8242V41.125V41.0078V39.875H232.594V43.8242C232.594 44.0065 232.629 44.1367 232.699 44.2148C232.772 44.293 232.882 44.332 233.027 44.332C233.098 44.332 233.167 44.3242 233.234 44.3086C233.305 44.2904 233.374 44.2695 233.441 44.2461V45C233.374 45.0312 233.286 45.0586 233.18 45.082C233.073 45.1055 232.956 45.1172 232.828 45.1172C232.435 45.1172 232.12 45.013 231.883 44.8047C231.648 44.5964 231.531 44.2695 231.531 43.8242ZM234.02 46.625V45.8438C234.09 45.8672 234.177 45.888 234.281 45.9062C234.388 45.9271 234.483 45.9375 234.566 45.9375C234.764 45.9375 234.928 45.8737 235.059 45.7461C235.191 45.6211 235.322 45.3594 235.449 44.9609H235.355L233.637 40.6914H234.699L235.688 43.3047C235.727 43.4089 235.764 43.5182 235.801 43.6328C235.84 43.7474 235.868 43.8581 235.887 43.9648H235.91C235.928 43.8581 235.954 43.7487 235.988 43.6367C236.025 43.5221 236.061 43.4128 236.098 43.3086L237.012 40.6914H238.039L236.129 45.5469C235.983 45.9115 235.788 46.1979 235.543 46.4062C235.301 46.6172 234.993 46.7227 234.621 46.7227C234.509 46.7227 234.4 46.7122 234.293 46.6914C234.189 46.6732 234.098 46.651 234.02 46.625ZM238.637 45V39.3125H239.859L242.098 43.0391C242.145 43.1172 242.189 43.207 242.23 43.3086C242.275 43.4076 242.312 43.4948 242.344 43.5703H242.379C242.371 43.4844 242.365 43.3737 242.359 43.2383C242.354 43.1003 242.352 42.9883 242.352 42.9023V39.3125H243.293V45H242.074L239.816 41.2773C239.767 41.1966 239.723 41.1172 239.684 41.0391C239.647 40.9583 239.615 40.8802 239.586 40.8047H239.551C239.559 40.8906 239.565 40.9831 239.57 41.082C239.576 41.1784 239.578 41.2695 239.578 41.3555V45H238.637ZM244.301 43.7344C244.301 43.2891 244.496 42.9414 244.887 42.6914C245.277 42.4414 245.772 42.3164 246.371 42.3164H247.277V41.9883C247.277 41.7852 247.214 41.6198 247.086 41.4922C246.961 41.3646 246.747 41.3008 246.445 41.3008C246.143 41.3008 245.926 41.3607 245.793 41.4805C245.663 41.6003 245.598 41.7383 245.598 41.8945V41.918H244.535V41.8945C244.535 41.5404 244.71 41.2318 245.059 40.9688C245.408 40.7057 245.878 40.5742 246.469 40.5742C247.057 40.5742 247.516 40.6927 247.844 40.9297C248.172 41.1667 248.336 41.5195 248.336 41.9883V44.0625C248.336 44.2318 248.349 44.3919 248.375 44.543C248.404 44.6914 248.441 44.8229 248.488 44.9375V45H247.449C247.413 44.9349 247.38 44.8503 247.352 44.7461C247.323 44.6393 247.305 44.5339 247.297 44.4297C247.198 44.6016 247.03 44.7526 246.793 44.8828C246.556 45.013 246.257 45.0781 245.895 45.0781C245.454 45.0781 245.078 44.9635 244.766 44.7344C244.456 44.5026 244.301 44.1693 244.301 43.7344ZM245.363 43.6992C245.363 43.9023 245.426 44.0625 245.551 44.1797C245.678 44.2943 245.874 44.3516 246.137 44.3516C246.423 44.3516 246.685 44.2617 246.922 44.082C247.159 43.9023 247.277 43.7109 247.277 43.5078V42.9766H246.445C246.091 42.9766 245.822 43.0417 245.637 43.1719C245.454 43.3021 245.363 43.4779 245.363 43.6992ZM249.527 45V40.6914H250.523L250.555 41.2227H250.574C250.725 41.0247 250.913 40.8737 251.137 40.7695C251.361 40.6654 251.605 40.6133 251.871 40.6133C252.189 40.6133 252.461 40.6758 252.688 40.8008C252.914 40.9232 253.083 41.1081 253.195 41.3555H253.207C253.382 41.1029 253.595 40.9167 253.848 40.7969C254.1 40.6745 254.376 40.6133 254.676 40.6133C255.145 40.6133 255.518 40.7487 255.797 41.0195C256.076 41.2878 256.215 41.7357 256.215 42.3633V45H255.152V42.3555C255.15 42.0169 255.081 41.7747 254.945 41.6289C254.81 41.4805 254.618 41.4062 254.371 41.4062C254.152 41.4062 253.961 41.4701 253.797 41.5977C253.635 41.7227 253.504 41.8841 253.402 42.082V45H252.34V42.3555C252.337 42.0169 252.267 41.7747 252.129 41.6289C251.993 41.4805 251.801 41.4062 251.551 41.4062C251.335 41.4062 251.145 41.4701 250.98 41.5977C250.819 41.7227 250.689 41.8841 250.59 42.082V45H249.527ZM257.082 42.9062V42.7812C257.082 42.1328 257.28 41.6029 257.676 41.1914C258.072 40.7799 258.592 40.5742 259.238 40.5742C259.895 40.5742 260.4 40.7669 260.754 41.1523C261.111 41.5378 261.289 42.0573 261.289 42.7109V43.1094H257.816V42.3867H260.223L260.219 42.3477C260.216 42.1029 260.139 41.8711 259.988 41.6523C259.84 41.4336 259.583 41.3242 259.219 41.3242C258.875 41.3242 258.608 41.4648 258.418 41.7461C258.23 42.0273 258.137 42.3724 258.137 42.7812V42.9062C258.137 43.3151 258.237 43.6602 258.438 43.9414C258.638 44.2227 258.944 44.3633 259.355 44.3633C259.618 44.3633 259.845 44.306 260.035 44.1914C260.228 44.0768 260.382 43.9401 260.496 43.7812L261.191 44.3125C261.056 44.5182 260.827 44.7044 260.504 44.8711C260.184 45.0352 259.801 45.1172 259.355 45.1172C258.624 45.1172 258.061 44.9115 257.668 44.5C257.277 44.0885 257.082 43.5573 257.082 42.9062Z" fill="white"/>
</svg>
